<svg id="Capa_1" enable-background="new 0 0 512.018 512.018" height="512" viewBox="0 0 512.018 512.018" width="512" xmlns="http://www.w3.org/2000/svg"><g><path d="m410.585 429.406-162.747-93.962c-29.898-17.261-40.141-55.491-22.88-85.389l8.061-13.963c.985-1.707 3.168-2.291 4.874-1.306l264.835 152.903c1.707.985 2.291 3.168 1.306 4.874l-8.061 13.963c-17.26 29.898-55.49 40.142-85.388 22.88z" fill="#4a80aa"/><path d="m502.729 387.689-264.835-152.902c-1.707-.985-3.889-.401-4.874 1.306l-8.061 13.963c-.052.089-.103.179-.154.268l223.962 129.304c9.418 5.438 12.645 17.48 7.207 26.898-7.916 13.711-20.242 23.288-34.152 27.975 27.658 9.381 58.992-1.717 74.152-27.975l8.061-13.963c.986-1.706.401-3.888-1.306-4.874z" fill="#407093"/><path d="m224.958 250.056 3.568-6.18-45.665-26.365-18.364 31.807 52.104 30.082c.297-10 3.005-20.073 8.357-29.344z" fill="#365e7d"/><path d="m184.541 214.602c.935-1.62.647-3.687-.738-4.944-1.122-1.018-2.084-2.208-2.848-3.531l-14.91-25.825c-5.955-10.315-14.52-18.88-24.835-24.835l-116.117-67.041c-4.125-2.382-9.4-.968-11.781 3.157l-.227.393c-11.467 19.862-4.662 45.258 15.2 56.725l75.148 43.387c9.941 5.739 18.196 13.994 23.935 23.935l15.239 26.395c1.289 2.233 3.143 4.087 5.376 5.376l9.561 5.52c1.924 1.111 4.385.452 5.496-1.473z" fill="#da387d"/><path d="m183.803 209.657c-1.122-1.018-2.084-2.208-2.848-3.531l-14.91-25.825c-5.955-10.315-14.52-18.88-24.835-24.835l-116.117-67.04c-4.125-2.382-9.4-.968-11.781 3.157l-.227.393c-1.005 1.741-1.87 3.525-2.597 5.338l100.723 58.152c10.315 5.955 18.88 14.52 24.835 24.835l14.91 25.825c.013.022.026.045.039.067 2.562 4.384 2.773 9.749.234 14.147l-10.684 18.506 2.063 3.573c1.289 2.233 3.143 4.087 5.376 5.376l9.561 5.52c1.924 1.111 4.385.452 5.496-1.473l21.501-37.24c.934-1.62.646-3.688-.739-4.945z" fill="#d80a61"/><path d="m475.772 296.645v-34.648c0-26.78-10.638-52.463-29.575-71.399l-5.31-5.31c-.47-.47-1.273-.137-1.273.527v2.028c0 17.986-20.268 28.506-34.977 18.155-5.908-4.158-9.423-10.93-9.423-18.155v-32.507c0-31.412-25.464-56.876-56.876-56.876-15.085 0-29.551-5.992-40.218-16.659l-7.009-7.009c-1.23-1.23-3.332-.359-3.332 1.38v18.424c0 19.354 7.689 37.916 21.374 51.602 14.382 14.382 22.461 33.887 22.461 54.226 0 10.294-8.345 18.64-18.64 18.64-10.294 0-18.64-8.345-18.64-18.64v-14.896c0-2.783-3.365-4.177-5.333-2.209l-12.522 12.522c-13.103 13.103-20.465 30.875-20.465 49.406l196.383 113.383c28.784 0 52.117-23.334 52.117-52.117v-5.478c0-1.519-1.837-2.28-2.911-1.206l-5.314 5.314c-7.571 7.571-20.517 2.209-20.517-8.498z" fill="#ffd064"/><path d="m476.67 352.644-218.148-125.948c-1.65 5.992-2.508 12.228-2.508 18.552l196.383 113.382c8.765 0 17.024-2.164 24.273-5.986z" fill="#ffc250"/><path d="m403.691 330.51c4.356-6.675 6.879-14.592 6.879-23.082 0-36.455-18.276-66.29-41.391-68.66-1.598-.164-2.97 1.141-2.97 2.747v.921c0 11.17-6.937 20.995-17.268 25.244-9.146 3.762-16.725 10.422-21.519 18.796z" fill="#75cef9"/><path d="m339.146 273.245c-4.772 3.578-8.775 8.08-11.724 13.231l76.269 44.034c3.179-4.871 5.382-10.405 6.34-16.34z" fill="#6bbef6"/><path d="m506.479 381.194-32.855-18.969c22.424-8.572 38.39-30.313 38.39-55.713v-5.478c0-3.736-2.23-7.075-5.683-8.505-3.451-1.43-7.39-.646-10.032 1.995l-5.313 5.314c-1.928 1.929-4.086 1.326-4.924.979-.839-.348-2.79-1.449-2.79-4.175v-34.647c0-28.976-11.283-56.216-31.771-76.703l-5.311-5.311c-2.367-2.366-5.894-3.066-8.987-1.787-3.092 1.281-5.09 4.271-5.09 7.618v2.028c0 5.593-2.964 10.47-7.928 13.047-4.964 2.576-10.659 2.194-15.232-1.026-3.907-2.749-6.239-7.243-6.239-12.021v-32.507c0-35.497-28.88-64.376-64.377-64.376-13.188 0-25.588-5.136-34.914-14.463l-7.009-7.009c-2.713-2.713-6.755-3.514-10.301-2.049-3.545 1.469-5.835 4.896-5.835 8.733v18.424c0 21.496 8.371 41.705 23.57 56.905 13.068 13.067 20.265 30.441 20.265 48.923 0 6.143-4.997 11.14-11.14 11.14s-11.14-4.997-11.14-11.14v-14.896c0-4.312-2.574-8.165-6.559-9.815-3.984-1.651-8.53-.746-11.578 2.303l-12.522 12.522c-11.643 11.643-19.118 26.343-21.676 42.29l-7.854-4.535c-2.561-1.479-5.543-1.871-8.398-1.107-2.856.765-5.244 2.597-6.722 5.157l-.743 1.287-33.348-19.253c.577-3.733-.694-7.643-3.592-10.275-.55-.499-1.019-1.08-1.392-1.726l-14.91-25.825c-6.604-11.438-16.142-20.976-27.58-27.58l-116.116-67.037c-7.699-4.443-17.58-1.798-22.028 5.903l-.226.392c-6.548 11.341-8.287 24.553-4.897 37.202 3.389 12.649 11.501 23.221 22.842 29.769l5.6 3.232c3.588 2.069 8.174.842 10.245-2.745 2.071-3.588.842-8.175-2.745-10.245l-5.6-3.232c-7.871-4.544-13.501-11.882-15.854-20.661-2.352-8.778-1.145-17.948 3.4-25.82l.226-.392c.31-.537.999-.721 1.537-.412l116.116 67.04c9.162 5.29 16.8 12.928 22.09 22.09l14.911 25.828c.664 1.148 1.427 2.231 2.277 3.237l-18.454 31.965-6.552-3.783c-1.091-.629-2-1.538-2.63-2.629l-15.239-26.396c-2.445-4.236-5.307-8.202-8.529-11.843l8.605-2.306c4.001-1.072 6.375-5.185 5.303-9.186s-5.185-6.378-9.186-5.303l-12.433 3.332c-3.552.949-7.259.461-10.441-1.375l-38.958-22.492c-3.589-2.07-8.176-.843-10.245 2.745-2.071 3.587-.842 8.174 2.745 10.245l38.958 22.492c8.789 5.075 16.117 12.402 21.19 21.19l15.239 26.396c1.945 3.368 4.754 6.177 8.121 8.12l9.561 5.521c1.775 1.025 3.746 1.549 5.744 1.549 2.417 0 4.866-.77 6.887-2.268l42.676 24.639c.191 5.245.977 10.506 2.369 15.701 4.84 18.063 16.425 33.16 32.619 42.51l162.747 93.962c33.454 19.315 76.254 7.939 95.634-25.625l8.061-13.962c1.479-2.561 1.872-5.544 1.106-8.4-.764-2.857-2.596-5.244-5.156-6.722zm-295.996-113.987-35.74-20.634 10.864-18.817 32.676 18.865c-3.716 6.51-6.325 13.447-7.8 20.586zm278.996 135.569c-15.201 26.329-48.812 35.338-75.144 20.135l-162.747-93.962c-12.725-7.347-21.827-19.209-25.63-33.401-1.372-5.12-1.995-10.322-1.886-15.478.026-.297.035-.594.026-.889.331-8.831 2.811-17.504 7.355-25.375l6.096-10.558 14.639 8.452c.054.032.108.063.162.094l10.425 6.019c3.588 2.069 8.175.843 10.245-2.745 2.071-3.587.842-8.174-2.745-10.245l-6.62-3.822c1.006-15.061 7.353-29.081 18.127-39.855l5.052-5.053v4.332c0 14.413 11.727 26.14 26.14 26.14s26.14-11.727 26.14-26.141c0-22.487-8.757-43.628-24.657-59.529-12.367-12.366-19.178-28.809-19.178-46.298v-5.154c11.838 10.676 26.999 16.518 43.059 16.518 27.227 0 49.377 22.15 49.377 49.376v32.507c0 9.653 4.713 18.732 12.606 24.288 9.104 6.405 20.897 7.2 30.775 2.072 6.141-3.188 10.835-8.294 13.509-14.376 15.301 17.136 23.667 39.01 23.667 62.17v34.647c0 7.923 4.729 15.002 12.05 18.033 5.28 2.187 11.097 1.932 16.03-.483-3.543 20.337-20.903 35.987-42.019 36.894l-40.573-23.425c2.835-6.347 4.31-13.221 4.31-20.235 0-8.374-.9-16.601-2.677-24.451-.914-4.041-4.932-6.572-8.971-5.66-4.04.914-6.574 4.931-5.66 8.971 1.531 6.766 2.308 13.879 2.308 21.141 0 4.365-.82 8.655-2.402 12.676l-62.334-35.989c3.671-4.094 8.283-7.37 13.46-9.499 11.751-4.833 19.831-15.241 21.565-27.294 4.991 1.703 9.776 5.184 14.053 10.262 2.668 3.168 7.4 3.573 10.567.905 3.168-2.668 3.574-7.399.905-10.567-8.229-9.772-18.237-15.519-28.939-16.615-2.859-.295-5.707.646-7.842 2.572-2.157 1.947-3.395 4.73-3.395 7.636v.921c0 7.968-4.954 15.154-12.62 18.308-8.246 3.391-15.485 8.87-20.943 15.758l-24.655-14.235c-3.589-2.071-8.176-.843-10.245 2.745-2.071 3.587-.842 8.174 2.745 10.245 22.207 12.821 176.336 101.808 202.583 116.962z"/></g></svg>