<svg id="Capa_1" enable-background="new 0 0 512.01 512.01" height="512" viewBox="0 0 512.01 512.01" width="512" xmlns="http://www.w3.org/2000/svg"><g><path d="m477.666 362.923h-443.321c-6.927 0-13.11-4.346-15.454-10.864l-11.182-31.081c-.797-2.216.845-4.551 3.2-4.551h490.194c2.355 0 3.997 2.336 3.2 4.551l-11.181 31.081c-2.346 6.518-8.529 10.864-15.456 10.864z" fill="#dae7ef"/><path d="m225.481 149.087h-184.116c-8.947 0-16.2 7.253-16.2 16.2v151.14h207.551v-160.105c0-3.996-3.239-7.235-7.235-7.235z" fill="#f6e781"/><path d="m225.481 149.087h-32.765v88.962c0 32.241-26.137 58.378-58.378 58.378h-109.173v20h207.552v-160.105c-.001-3.996-3.24-7.235-7.236-7.235z" fill="#ffd064"/><path d="m319.506 308.567v-25.305c0-4.048 3.282-7.33 7.33-7.33h152.151c4.34 0 7.859 3.519 7.859 7.859v24.776c0 4.34-3.519 7.859-7.859 7.859h-151.621c-4.341.001-7.86-3.518-7.86-7.859z" fill="#f6e781"/><path d="m233.772 290.846 12.653 21.915c2.024 3.506 6.507 4.707 10.013 2.683l131.767-76.075c3.759-2.17 5.047-6.977 2.877-10.736l-12.388-21.456c-2.17-3.759-6.977-5.047-10.736-2.877l-131.309 75.81c-3.759 2.17-5.047 6.977-2.877 10.736z" fill="#f6e781"/><path d="m477.667 355.424h-44.19c-4.143 0-7.5 3.358-7.5 7.5s3.357 7.5 7.5 7.5h44.19c10.06 0 19.106-6.36 22.512-15.826l11.18-31.078c2.555-7.095-2.713-14.593-10.256-14.593h-6.76c.007-.292.004.546.004-25.135 0-8.469-6.891-15.359-15.359-15.359h-22.252c-4.143 0-7.5 3.358-7.5 7.5s3.357 7.5 7.5 7.5h22.252c.198 0 .359.161.359.359v24.776c0 .198-.161.359-.359.359h-151.622c-.198 0-.359-.161-.359-.359v-25.135h94.729c4.143 0 7.5-3.358 7.5-7.5s-3.357-7.5-7.5-7.5h-68.872l39.091-22.569c7.334-4.234 9.856-13.646 5.622-20.981l-12.388-21.456c-4.233-7.335-13.646-9.858-20.981-5.622l-123.99 71.586v-113.069c0-8.125-6.61-14.735-14.735-14.735h-184.118c-13.068 0-23.7 10.632-23.7 23.7v81.53c0 4.142 3.357 7.5 7.5 7.5s7.5-3.358 7.5-7.5v-81.53c0-4.797 3.903-8.7 8.7-8.7h183.852v152.34h-192.552v-27.11c0-4.142-3.357-7.5-7.5-7.5s-7.5 3.358-7.5 7.5v27.11h-6.756c-7.538 0-12.812 7.494-10.257 14.59l11.181 31.081c3.405 9.466 12.452 15.826 22.512 15.826h364.132c4.143 0 7.5-3.358 7.5-7.5s-3.357-7.5-7.5-7.5h-364.133c-3.752 0-7.127-2.373-8.396-5.903l-9.207-25.594h478.529l-9.207 25.594c-1.269 3.53-4.644 5.903-8.396 5.903zm-165.656-46.498h-29.286l29.281-16.906c0 14.745-.002 16.614.005 16.906zm-71.612-22.321 131.308-75.81c.172-.098.393-.041.491.131l12.388 21.456c.099.172.04.392-.132.491l-131.619 75.99-12.567-21.768c-.099-.171-.041-.391.131-.49z"/><path d="m65.956 192.491c5.188 3.161 11.644 7.095 23.595 7.095 11.952 0 18.408-3.934 23.596-7.096 4.497-2.74 8.049-4.904 15.79-4.904 7.742 0 11.295 2.165 15.792 4.905 5.188 3.161 11.645 7.095 23.598 7.095 11.952 0 18.409-3.934 23.598-7.095 4.498-2.74 8.05-4.905 15.793-4.905 4.143 0 7.5-3.358 7.5-7.5s-3.357-7.5-7.5-7.5c-11.952 0-18.409 3.934-23.598 7.095-4.498 2.74-8.05 4.905-15.793 4.905s-11.295-2.165-15.793-4.905c-5.188-3.161-11.645-7.095-23.597-7.095-11.951 0-18.407 3.934-23.595 7.095-4.497 2.74-8.049 4.905-15.791 4.905-7.741 0-11.293-2.165-15.79-4.904-5.188-3.162-11.644-7.096-23.596-7.096-4.143 0-7.5 3.358-7.5 7.5s3.357 7.5 7.5 7.5c7.742.001 11.294 2.165 15.791 4.905z"/></g></svg>