<svg id="Capa_1" enable-background="new 0 0 512 512" height="512" viewBox="0 0 512 512" width="512" xmlns="http://www.w3.org/2000/svg"><g><path d="m314.087 384.827 12.026-80.172c3.21-21.401 19.154-38.596 40.197-43.648 1.833-.44 3.658-.891 5.474-1.351-1.934-3.994-3.714-8.302-3.714-16.232 0-17.362 8.535-17.362 8.535-34.723 0-17.359-8.535-17.359-8.535-34.718 0-1.515.065-2.897.184-4.17-31.439 15.666-71.466 25.049-115.051 25.049-44.718 0-85.692-9.878-117.487-26.284-.204 1.603-.319 3.387-.319 5.405 0 17.359 8.535 17.359 8.535 34.718 0 17.362-8.535 17.362-8.535 34.723 0 8.77 2.178 13.11 4.333 17.495.114.027.227.055.341.082 21.051 5.056 37.009 22.244 40.22 43.655l12.026 80.171c4.521 30.138 30.41 52.434 60.886 52.434 30.474-.001 56.364-22.296 60.884-52.434z" fill="#f4fbff"/><path d="m376.604 208.7c0-17.359-8.535-17.359-8.535-34.718 0-1.515.065-2.897.184-4.17-9.889 4.927-20.627 9.233-32.059 12.821.26 1.772.41 3.767.41 6.068 0 17.362-8.535 17.362-8.535 34.723 0 5.097.736 8.698 1.775 11.681.869 2.494-.555 5.184-3.122 5.803-.137.033-.274.066-.412.099-21.043 5.052-36.986 22.247-40.197 43.648l-12.026 80.172c-4.521 30.138-30.41 52.434-60.886 52.434-1.903 0-3.789-.087-5.652-.257 11.339 12.52 27.7 20.257 45.652 20.257 30.475 0 56.365-22.296 60.886-52.434l12.026-80.172c3.21-21.401 19.154-38.596 40.197-43.648 1.833-.44 3.658-.891 5.474-1.351-1.934-3.994-3.714-8.302-3.714-16.232-.001-17.362 8.534-17.362 8.534-34.724z" fill="#e4f6ff"/><path d="m143.931 208.7c0-17.359-8.535-17.359-8.535-34.718 0-17.36 8.535-17.36 8.535-34.719s-8.535-17.359-8.535-34.718c0-10.004 2.835-14.243 5.237-19.362 1.404-2.992-.34-6.53-3.584-7.165-10.913-2.139-21.101-3.278-29.896-3.278-55.037 0-99.653 44.616-99.653 99.652s44.616 99.653 99.653 99.653c8.887 0 19.197-1.163 30.24-3.346 3.179-.628 4.968-4.068 3.645-7.027-2.476-5.539-5.642-9.673-5.642-20.248 0-17.362 8.535-17.362 8.535-34.724z" fill="#ffd0be"/><path d="m504.5 174.392c0-43.516-68.543-80.518-124.443-94.102-2.419-.588-4.936.641-5.886 2.942-2.523 6.11-6.102 10.072-6.102 21.312 0 17.359 8.535 17.359 8.535 34.718 0 17.36-8.535 17.36-8.535 34.719s8.535 17.359 8.535 34.718c0 17.362-8.535 17.362-8.535 34.723 0 11.568 3.789 15.428 6.318 21.852.942 2.394 3.463 3.758 5.962 3.147 55.846-13.64 124.151-50.588 124.151-94.029z" fill="#ffd0be"/><path d="m135.396 173.982c0-17.36 8.535-17.36 8.535-34.719s-8.535-17.359-8.535-34.718c0-10.031 2.85-14.266 5.257-19.403 1.401-2.992-.364-6.488-3.605-7.124-10.912-2.139-21.1-3.278-29.894-3.278-3.621 0-7.196.193-10.717.57-.634 2.494-1.04 5.452-1.04 9.235 0 17.359 8.535 17.359 8.535 34.718 0 17.36-8.535 17.36-8.535 34.719s8.535 17.359 8.535 34.718c0 17.362-8.535 17.362-8.535 34.723 0 .435.005.86.016 1.274.402 15.91-12.032 29.298-27.947 29.346-.104 0-.208 0-.312 0-8.058 0-15.892-.957-23.396-2.762 17.227 14.22 39.314 22.762 63.396 22.762 8.885 0 19.192-1.163 30.232-3.344 3.181-.629 4.99-4.031 3.669-6.993-2.478-5.557-5.658-9.686-5.658-20.284 0-17.362 8.535-17.362 8.535-34.723-.001-17.358-8.536-17.358-8.536-34.717z" fill="#ffc3ac"/><path d="m417.234 92.201c27.235 17.046 47.266 38.667 47.266 62.191 0 36.388-47.926 68.22-96.31 85.615-.078 1.061-.121 2.196-.121 3.417 0 11.568 3.789 15.428 6.318 21.852.942 2.394 3.463 3.758 5.962 3.147 55.846-13.641 124.151-50.59 124.151-94.031 0-34.116-42.129-64.228-87.266-82.191z" fill="#ffc3ac"/><ellipse cx="253.462" cy="350.554" fill="#ffd064" rx="33.733" ry="44.192"/><path d="m274.087 364.827c-1.607 10.714-5.916 20.437-12.17 28.519 14.538-4.916 25.277-22.211 25.277-42.792 0-10.1-2.586-19.408-6.939-26.851z" fill="#ffc250"/><path d="m381.825 73.001c-6.078-1.471-12.214 1.625-14.586 7.369-2.249 5.449-6.669 11.061-6.669 24.175 0 10.423 2.793 16.104 5.037 20.668 1.955 3.975 3.498 7.114 3.498 14.05 0 12.391-5.309 13.655-7.686 25.53-10.454 4.947-21.793 9.167-33.765 12.565-3.985 1.13-6.298 5.277-5.168 9.262 1.13 3.984 5.276 6.3 9.263 5.168 10.249-2.908 20.081-6.39 29.356-10.393 1.998 12.973 8 14.542 8 27.306 0 14.545-8.535 15.726-8.535 34.724 0 4.436.506 8.013 1.26 11.011-22.808 6.58-39.603 25.574-43.133 49.107l-12.026 80.172c-4.002 26.682-26.489 46.047-53.469 46.047s-49.466-19.365-53.469-46.047l-12.026-80.171c-3.506-23.371-20.105-42.269-42.69-48.976-1.256-2.882-2.122-5.948-2.122-11.143 0-14.555 8.535-15.696 8.535-34.724 0-15.831-6.121-19.964-7.903-28.085 45.076 19.892 100.979 26.185 152.821 18.677 4.1-.595 6.941-4.398 6.347-8.498-.594-4.101-4.404-6.942-8.498-6.348-13.35 1.935-27.143 2.915-40.996 2.915-39.498 0-77.887-8.093-108.846-22.868 2.191-6.051 7.075-11.361 7.075-25.231 0-10.424-2.793-16.104-5.037-20.669-1.955-3.975-3.498-7.114-3.498-14.049 0-8.085 2.091-10.993 4.527-16.176 3.487-7.433-.921-16.142-8.932-17.712-11.574-2.268-22.118-3.418-31.338-3.418-10.622 0-21.116 1.552-31.189 4.613-3.963 1.204-6.2 5.393-4.996 9.356s5.391 6.198 9.356 4.995c8.66-2.631 17.686-3.965 26.829-3.965 7.438 0 15.948.857 25.333 2.551-2.151 4.416-4.59 10.016-4.59 19.755 0 10.423 2.793 16.104 5.037 20.668 1.955 3.975 3.498 7.114 3.498 14.05 0 14.584-8.535 15.653-8.535 34.72 0 10.423 2.793 16.104 5.037 20.668 1.955 3.975 3.498 7.114 3.498 14.05 0 14.545-8.535 15.726-8.535 34.724 0 10.298 2.726 15.967 4.955 20.504-9.53 1.737-18.163 2.617-25.698 2.617-50.813 0-92.152-41.34-92.152-92.152 0-29.072 13.298-55.842 36.485-73.445 3.299-2.505 3.943-7.21 1.438-10.509-2.505-3.299-7.209-3.944-10.508-1.439-26.956 20.465-42.415 51.589-42.415 85.393 0 59.084 48.068 107.152 107.152 107.152 9.315 0 19.979-1.174 31.695-3.488 3.749-.742 6.913-3.109 8.689-6.499 13.482 6.443 23.067 19.082 25.337 34.21l12.026 80.171c5.075 33.829 34.154 58.822 68.303 58.822 34.209 0 63.237-25.052 68.303-58.822l12.026-80.172c2.734-18.221 16.07-32.828 34.042-37.347 2.455 5.667 8.663 8.728 14.556 7.289 52.204-12.752 129.871-50.258 129.871-101.316 0-51.181-77.847-88.675-130.175-101.392zm-1.254 187.639c-.677-1.517-1.369-2.877-1.988-4.151-.034-.073-.069-.146-.106-.218-1.667-3.456-2.909-6.624-2.909-12.846 0-14.555 8.535-15.696 8.535-34.724 0-10.424-2.793-16.104-5.037-20.669-1.955-3.975-3.498-7.114-3.498-14.049 0-14.444 8.535-15.772 8.535-34.72 0-10.424-2.793-16.104-5.037-20.669-1.955-3.975-3.498-7.114-3.498-14.049 0-8.255 2.177-11.101 4.67-16.484 57.741 14.509 116.762 50.453 116.762 86.332 0 35.774-58.845 71.691-116.429 86.247z"/><path d="m220.818 337.061c-4.112-.419-7.808 2.562-8.237 6.683-.234 2.241-.352 4.532-.352 6.811 0 28.503 18.497 51.691 41.232 51.691s41.233-23.188 41.233-51.691-18.497-51.691-41.233-51.691c-7.975 0-15.7 2.826-22.339 8.172-3.227 2.598-3.736 7.319-1.138 10.546 2.597 3.224 7.318 3.736 10.545 1.138 3.945-3.177 8.417-4.855 12.932-4.855 14.465 0 26.233 16.46 26.233 36.691s-11.768 36.691-26.233 36.691-26.232-16.46-26.232-36.691c0-1.761.091-3.529.271-5.256.43-4.122-2.562-7.81-6.682-8.239z"/><path d="m355.394 206.188c-1.3-3.934-5.544-6.067-9.474-4.768-28.582 9.444-59.692 14.247-92.467 14.272-27.305-.013-54.037-3.437-79.336-10.274-4-1.077-8.117 1.284-9.197 5.283s1.285 8.116 5.283 9.197c26.5 7.163 54.424 10.794 83.004 10.794 32.63 0 65.688-4.545 97.419-15.03 3.933-1.299 6.067-5.54 4.768-9.474z"/><path d="m339.673 236.407c-17.8 9.042-31.914 24.1-39.742 42.398-1.629 3.809.137 8.217 3.946 9.846 3.809 1.628 8.215-.136 9.845-3.945 6.447-15.07 18.076-27.474 32.745-34.926 3.693-1.876 5.166-6.391 3.29-10.083-1.876-3.694-6.39-5.165-10.084-3.29z"/><path d="m163.559 234.883c-3.767-1.727-8.217-.069-9.941 3.698s-.068 8.217 3.699 9.94c16.117 7.377 28.749 20.397 35.566 36.663 1.596 3.807 5.98 5.623 9.816 4.018 3.82-1.602 5.619-5.996 4.018-9.816-8.279-19.75-23.606-35.555-43.158-44.503z"/></g></svg>