<svg id="Capa_1" enable-background="new 0 0 512 512" height="512" viewBox="0 0 512 512" width="512" xmlns="http://www.w3.org/2000/svg"><g><g fill="#75cef9"><path d="m383.474 173.29c-.229-.003-.458-.005-.688-.005-25.951 0-46.989 21.038-46.989 46.989s21.038 46.989 46.989 46.989 46.989-21.038 46.989-46.989c0-4.06-.515-8-1.483-11.758 10.087 7.044 20.448 13.73 31.065 20.041-12.213-91.362-84.55-163.7-175.913-175.913 26.952 45.341 60.748 86.01 100.03 120.646z"/><path d="m228.556 52.643c-91.362 12.213-163.7 84.55-175.913 175.913 72.396-43.033 132.88-103.517 175.913-175.913z"/><path d="m337.462 384.894-30.674-8.219 50.094-50.094c.786-.786.786-2.059 0-2.845-11.743-11.743-30.783-11.743-42.526 0l-16.212 16.211v-44.614c0-1.111-.901-2.012-2.012-2.012-16.608 0-30.071 13.463-30.071 30.071v42.37l-29.442-7.889c-1.073-.287-2.176.35-2.464 1.423-2.595 9.685-.153 19.533 5.72 26.763h-1.17c-1.111 0-2.012.901-2.012 2.012 0 16.608 13.463 30.071 30.071 30.071h43.997c-9.75 13.252-18.87 27.004-27.318 41.216 91.362-12.213 163.7-84.55 175.913-175.912-45.887 27.274-86.988 61.561-121.894 101.448z"/><path d="m162.336 371.448c11.513-15.29 25.126-28.888 40.442-40.388l.881-.662c37.796-28.379 69.463-64.11 93.095-105.042l10.613-18.382c2.914-5.047 1.185-11.5-3.862-14.414l-92.058-53.15c-5.047-2.914-11.5-1.185-14.414 3.862l-10.613 18.382c-23.632 40.932-38.742 86.221-44.421 133.144l-.132 1.094c-1.865 15.41-5.483 30.54-10.772 45.099-24.148-21.586-50.406-40.876-78.452-57.546 12.213 91.363 84.55 163.7 175.913 175.913-18.872-31.751-41.101-61.21-66.22-87.91z"/></g><path d="m203.66 330.397-.881.662c-16.395 12.31-30.838 27.023-42.842 43.643l-10.32 14.288c-5.462 7.562-15.759 9.765-23.837 5.101-8.078-4.664-11.318-14.683-7.5-23.194l7.214-16.082c8.391-18.706 13.911-38.571 16.375-58.924l.132-1.094c5.679-46.922 20.789-92.211 44.421-133.143l10.613-18.382c2.914-5.047 9.367-6.776 14.414-3.862l92.058 53.15c5.047 2.914 6.776 9.367 3.862 14.414l-10.613 18.382c-23.634 40.932-55.3 76.662-93.096 105.041z" fill="#e4936b"/><path d="m303.505 192.56-92.058-53.15c-2.337-1.349-4.975-1.702-7.424-1.192l41.1 23.729c15.199 8.775 20.406 28.21 11.631 43.408-23.632 40.932-55.299 76.662-93.095 105.042l-.881.662c-11.498 8.633-22.036 18.449-31.446 29.275-1.759 4.895-3.707 9.726-5.84 14.482l-7.214 16.082c-3.818 8.511-.578 18.53 7.5 23.194s18.375 2.46 23.837-5.102l10.32-14.288c12.004-16.62 26.448-31.333 42.842-43.643l.881-.662c37.796-28.379 69.463-64.11 93.095-105.042l10.613-18.382c2.915-5.046 1.186-11.5-3.861-14.413z" fill="#e27d47"/><path d="m325.921 418.141h-59.156c-16.608 0-30.071-13.463-30.071-30.071 0-1.111.901-2.012 2.012-2.012h115.274c1.111 0 2.012.901 2.012 2.012-.001 16.608-13.464 30.071-30.071 30.071z" fill="#e4936b"/><path d="m341.809 386.059-105.189-28.185c-1.073-.287-2.176.35-2.464 1.423-2.595 9.685-.153 19.533 5.72 26.763h101.933z" fill="#e27d47"/><path d="m298.144 374.359v-79.025c0-1.111-.901-2.012-2.012-2.012-16.608 0-30.071 13.463-30.071 30.071v42.37z" fill="#e4936b"/><path d="m356.882 323.736c-11.743-11.743-30.783-11.743-42.526 0l-16.212 16.211v34.412l8.644 2.316 50.094-50.094c.786-.786.786-2.06 0-2.845z" fill="#e27d47"/><circle cx="382.786" cy="220.273" fill="#ffd064" r="46.989"/><path d="m501.623 260.698c3.836-1.958 3.836-7.439 0-9.396l-13.823-7.055c-20.721-10.576-40.596-22.525-59.508-35.732.968 3.758 1.483 7.698 1.483 11.758 0 25.951-21.038 46.989-46.989 46.989s-46.989-21.038-46.989-46.989 21.038-46.989 46.989-46.989c.23 0 .459.002.688.005-47.328-41.731-86.695-92.221-115.72-149.089l-7.055-13.823c-1.958-3.836-7.439-3.836-9.396 0l-7.057 13.823c-48.333 94.7-125.346 171.712-220.046 220.046l-13.824 7.055c-3.836 1.958-3.836 7.439 0 9.396l13.824 7.055c38.864 19.835 74.748 44.501 106.894 73.237 5.289-14.559 8.907-29.689 10.772-45.099l.132-1.094c5.679-46.922 20.789-92.211 44.421-133.144l10.613-18.382c2.914-5.047 9.367-6.776 14.414-3.862l92.058 53.15c5.047 2.914 6.776 9.367 3.862 14.414l-10.613 18.382c-23.632 40.932-55.299 76.662-93.095 105.042l-.881.662c-15.316 11.5-28.929 25.098-40.442 40.388 32.467 34.512 60.106 73.632 81.91 116.352l7.055 13.824c1.958 3.836 7.439 3.836 9.396 0l7.055-13.824c12.485-24.463 26.885-47.745 43.008-69.658h-43.997c-16.608 0-30.071-13.463-30.071-30.071 0-1.111.901-2.012 2.012-2.012h1.17c-5.873-7.23-8.315-17.078-5.72-26.763.288-1.073 1.391-1.71 2.464-1.423l29.442 7.889v-42.37c0-16.608 13.463-30.071 30.071-30.071 1.111 0 2.012.901 2.012 2.012v44.614l16.212-16.211c11.743-11.743 30.783-11.743 42.526 0 .786.786.786 2.059 0 2.845l-50.094 50.094 30.674 8.219c41.971-47.961 92.901-87.826 150.337-117.14z" fill="#dae7ef"/><path d="m257.705 416.752c-9.852 14.737-18.952 30.031-27.249 45.829 4.825 8.257 9.425 16.666 13.79 25.219l7.055 13.824c1.958 3.836 7.439 3.836 9.396 0l7.055-13.824c12.485-24.463 26.885-47.745 43.008-69.658h-43.997c-3.156-.001-6.199-.488-9.058-1.39z" fill="#bcd0df"/><path d="m501.623 251.302-13.823-7.055c-20.721-10.576-40.596-22.525-59.508-35.732.492 1.909.866 3.865 1.116 5.859 6.053 3.412 12.184 6.704 18.392 9.873l13.823 7.055c3.836 1.958 3.836 7.439 0 9.396l-13.823 7.055c-36.911 18.839-71.134 42.035-102.02 68.936 4.053 1.451 7.857 3.8 11.103 7.046.786.786.786 2.059 0 2.845l-50.094 50.094 30.674 8.219c41.971-47.961 92.901-87.826 150.337-117.14l13.823-7.055c3.836-1.958 3.836-7.438 0-9.396z" fill="#bcd0df"/><path d="m239.439 197.226c-3.588-2.071-8.174-.843-10.245 2.745l-50.403 87.3c-2.071 3.587-.842 8.174 2.745 10.245 3.571 2.061 8.165.858 10.245-2.745l50.403-87.3c2.072-3.587.843-8.174-2.745-10.245z"/><path d="m359.992 215.774 7.793 4.499-7.792 4.499c-3.587 2.071-4.816 6.658-2.745 10.245 2.08 3.605 6.675 4.806 10.245 2.745l7.792-4.499v8.998c0 4.143 3.357 7.5 7.5 7.5s7.5-3.357 7.5-7.5v-8.998l7.793 4.499c3.583 2.067 8.172.847 10.245-2.745 2.071-3.587.842-8.174-2.745-10.245l-7.792-4.499 7.793-4.499c3.587-2.071 4.816-6.658 2.745-10.245-2.07-3.588-6.659-4.814-10.245-2.745l-7.794 4.5v-9c0-4.143-3.357-7.5-7.5-7.5s-7.5 3.357-7.5 7.5v8.999l-7.793-4.499c-3.59-2.07-8.175-.843-10.245 2.745-2.071 3.587-.842 8.174 2.745 10.245z"/><path d="m505.033 244.622-13.824-7.057c-8.418-4.296-16.743-8.853-24.937-13.645-13.889-91.778-86.43-164.313-178.21-178.195-4.765-8.159-9.309-16.472-13.628-24.935l-7.056-13.824c-2.193-4.296-6.553-6.966-11.378-6.966s-9.185 2.67-11.378 6.968l-7.055 13.823c-4.321 8.466-8.863 16.778-13.623 24.934-91.783 13.879-164.326 86.417-178.216 178.196-8.192 4.792-16.515 9.346-24.937 13.646l-13.824 7.056c-4.298 2.192-6.967 6.552-6.967 11.377s2.669 9.185 6.967 11.379l13.824 7.056c8.445 4.31 16.76 8.86 24.937 13.641 13.887 91.775 86.423 164.312 178.2 178.197 4.778 8.172 9.326 16.487 13.639 24.936l7.055 13.825c2.193 4.296 6.553 6.966 11.378 6.966s9.185-2.67 11.379-6.968l7.056-13.824c4.299-8.423 8.853-16.745 13.644-24.936 27.172-4.105 52.926-13.323 76.602-27.424 24.147-14.383 44.935-33.107 61.784-55.653 2.479-3.318 1.8-8.019-1.518-10.498-3.319-2.48-8.02-1.8-10.498 1.519-28.389 37.988-69.954 64.673-115.827 74.839 5.099-7.962 10.421-15.775 15.95-23.412h11.349c20.717 0 37.57-16.854 37.57-37.571 0-5.245-4.267-9.512-9.512-9.512h-.701c28.571-30.73 60.641-57.498 95.806-79.988-3.564 16.256-9.175 31.966-16.753 46.877-1.877 3.692-.405 8.207 3.287 10.084 3.707 1.885 8.214.391 10.084-3.287 10.274-20.212 17.187-41.786 20.571-64.183 8.159-4.764 16.473-9.308 24.936-13.628l13.823-7.056c4.298-2.194 6.968-6.554 6.968-11.379s-2.67-9.185-6.967-11.378zm-55.958-31.228c-4.836-3.096-9.613-6.273-14.324-9.524-6.624-20.938-25.578-36.446-48.299-37.963-34.058-30.348-63.488-64.854-87.88-102.989 74.991 16.456 134.034 75.49 150.503 150.476zm-66.289-32.61c21.773 0 39.488 17.715 39.488 39.489 0 21.773-17.715 39.488-39.488 39.488-21.774 0-39.489-17.715-39.489-39.488 0-21.774 17.715-39.489 39.489-39.489zm-319.86 117.822c20.844 13.351 40.683 28.253 59.325 44.575-1.132 2.88-2.332 5.735-3.602 8.565l-7.214 16.082c-4.014 8.948-2.545 19.006 3.153 26.302-25.339-25.937-43.601-58.819-51.662-95.524zm56.263 100.083c11.578 8.881 28.005 6.461 36.507-5.308l7.325-10.141c18.617 20.526 35.462 42.545 50.379 65.836-36.087-7.924-68.48-25.709-94.211-50.387zm206.732 11.953c-63.739 0 2.478 0-59.156 0-10.553 0-19.438-7.28-21.896-17.083h102.947c-2.458 9.802-11.342 17.083-21.895 17.083zm-85.281-43.927 23.314 6.247c.107.031.214.06.323.087l20.565 5.51h-41.068c-2.116-3.593-3.195-7.703-3.134-11.844zm65.005-23.66 14.015-14.015c4.263-4.264 9.931-6.612 15.96-6.612 4.153 0 8.136 1.115 11.605 3.203l-41.58 41.58zm-15 21.529-17.082-4.577v-36.615c0-10.553 7.28-19.438 17.082-21.896zm193.746-103.511c-56.814 28.998-107.081 67.799-149.475 115.374l-13.639-3.654 40.908-40.908c3.723-3.725 3.712-9.743 0-13.451-7.097-7.097-16.531-11.006-26.566-11.006s-19.471 3.909-26.567 11.005l-3.407 3.407v-26.506c0-5.245-4.267-9.512-9.512-9.512-20.717 0-37.57 16.854-37.57 37.57v32.595l-20.004-5.36c-5.062-1.356-10.289 1.661-11.646 6.727-2.45 9.143-1.311 18.843 2.992 27.111-.457 1.112-.71 2.33-.71 3.605 0 20.717 16.854 37.571 37.57 37.571h29.431c-12.995 18.772-24.779 38.483-35.122 58.748l-5.074 9.941-5.073-9.94c-21.027-41.198-47.505-79.31-78.754-113.373 10.235-12.731 22.011-24.126 35.106-33.958 6.245-5.741 55.781-38.343 95.971-107.953l10.612-18.382c4.989-8.641 2.034-19.67-6.607-24.659l-54.387-31.4c-3.588-2.071-8.175-.843-10.245 2.745-2.071 3.587-.842 8.174 2.745 10.245l54.387 31.4c1.458.842 1.96 2.709 1.117 4.169l-10.612 18.382c-1.671 2.894-3.473 5.921-5.36 8.965-10.158 16.418-29.493 24.094-48.112 19.108-3.998-1.076-8.113 1.302-9.186 5.303-1.072 4.001 1.303 8.114 5.304 9.186 9.076 2.432 18.583 2.705 27.83.656-29.52 36.819-57.573 56.077-62.461 60.238-15.86 11.91-29.921 25.945-41.846 41.763-.052.066-.102.133-.151.2-1.772 2.357-1.963 2.65-12.742 17.573-3.222 4.458-9.243 5.747-14.008 2.997-4.764-2.75-6.658-8.609-4.407-13.629l7.214-16.082c8.7-19.396 14.419-39.958 16.977-61.093 1.833-8.21 4.969-64.473 43.603-131.388l10.613-18.382c.833-1.442 2.693-1.97 4.168-1.117l6.917 3.993c3.586 2.068 8.173.842 10.245-2.745 2.071-3.587.842-8.174-2.745-10.245l-6.917-3.993c-8.637-4.987-19.669-2.035-24.659 6.607l-10.613 18.382c-40.382 69.943-44.193 131.214-45.504 137.086-.935 7.723-2.324 15.363-4.157 22.89-9.44-19.147-14.37-40.244-14.37-61.88 0-4.143-3.358-7.5-7.5-7.5s-7.5 3.357-7.5 7.5c0 20.729 4.09 41.014 11.968 59.842-26.508-21.004-55.074-39.366-85.252-54.768l-9.94-5.073 9.941-5.073c22.937-11.707 45.601-25.485 67.231-41.123 3.357-2.427 4.111-7.115 1.684-10.473-2.426-3.356-7.115-4.109-10.472-1.684-7.541 5.452-15.26 10.706-23.128 15.743 16.471-74.989 75.518-134.024 150.513-150.476-27.231 42.599-60.687 80.586-99.865 113.327-3.178 2.656-3.602 7.386-.945 10.564 2.651 3.173 7.382 3.605 10.564.945 53.225-44.481 96.201-98.361 127.733-160.143l5.075-9.937 5.073 9.939c15.48 30.33 33.76 58.799 54.681 85.204-18.72-7.814-38.969-11.919-59.754-11.919-4.142 0-7.5 3.357-7.5 7.5s3.358 7.5 7.5 7.5c35.979 0 70.177 13.614 96.293 38.334 3.736 3.532 6.217 6.261 14.437 13.97-22.233 6.869-38.433 27.616-38.433 52.075 0 30.045 24.443 54.488 54.489 54.488 28.941 0 52.684-22.68 54.39-51.199 15.232 9.943 31.056 19.116 47.215 27.363l9.939 5.075z"/></g></svg>