<?xml version="1.0" encoding="iso-8859-1"?>
<!-- Generator: Adobe Illustrator 19.0.0, SVG Export Plug-In . SVG Version: 6.00 Build 0)  -->
<svg version="1.1" id="Capa_1" xmlns="http://www.w3.org/2000/svg" xmlns:xlink="http://www.w3.org/1999/xlink" x="0px" y="0px"
	 viewBox="0 0 512.001 512.001" style="enable-background:new 0 0 512.001 512.001;" xml:space="preserve">
<path style="fill:#ECF1F7;" d="M374.54,504.495H86.841c-28.033,0-50.759-22.725-50.759-50.759l0,0c0-2.764,2.241-5.005,5.005-5.005
	h379.209c2.764,0,5.005,2.241,5.005,5.005l0,0C425.299,481.769,402.574,504.495,374.54,504.495z"/>
<path style="fill:#DCDEE0;" d="M425.304,453.731c0,14.013-5.685,26.705-14.874,35.894c-9.179,9.189-21.871,14.874-35.894,14.874
	h-40.398c14.013,0,26.705-5.685,35.884-14.874c9.189-9.189,14.874-21.881,14.874-35.894c0-2.763-2.242-5.005-5.005-5.005H420.3
	C423.062,448.726,425.304,450.969,425.304,453.731z"/>
<path style="fill:#ECF1F7;" d="M378.739,208.933h27.765c38.178,0,69.414,31.236,69.414,69.414l0,0
	c0,38.178-31.236,69.414-69.414,69.414h-27.765h-26.277v-38.989h47.888c16.861,0,30.529-13.668,30.529-30.529l0,0
	c0-16.861-13.668-30.529-30.529-30.529h-47.888v-38.783L378.739,208.933L378.739,208.933z"/>
<path style="fill:#DCDEE0;" d="M475.922,278.346c0,19.088-7.807,36.444-20.389,49.026c-12.582,12.582-29.938,20.389-49.026,20.389
	h-26.025c19.088,0,36.444-7.807,49.026-20.389c12.582-12.582,20.389-29.938,20.389-49.026c0-38.176-31.239-69.415-69.415-69.415
	h26.025C444.683,208.93,475.922,240.17,475.922,278.346z"/>
<path style="fill:#ECF1F7;" d="M65.769,153.682l0.204,117.052c0,0.203,0.008,0.406,0.024,0.609
	c6.635,85.085,77.78,152.061,164.568,152.061c86.791,0,157.938-66.98,164.569-152.068c0.015-0.197,0.023-0.395,0.024-0.594
	l0.453-117.044c0.015-3.904-3.146-7.077-7.05-7.077H72.819C68.92,146.62,65.762,149.784,65.769,153.682z"/>
<g>
	<path style="fill:#DCDEE0;" d="M395.616,153.698l-0.46,117.04c0,0.2-0.01,0.4-0.02,0.601
		c-6.636,85.08-77.783,152.063-164.575,152.063c-6.836,0-13.583-0.42-20.199-1.221c77.403-9.449,138.26-72.468,144.366-150.842
		c0.02-0.2,0.02-0.4,0.03-0.601l0.45-117.04c0.01-3.904-3.143-7.077-7.047-7.077h40.398
		C392.463,146.621,395.626,149.794,395.616,153.698z"/>
	<path style="fill:#DCDEE0;" d="M395.476,152.257v35.564h-40.398l0.13-34.122c0.01-3.904-3.143-7.077-7.047-7.077h40.398
		C391.963,146.621,394.816,149.044,395.476,152.257z"/>
</g>
<g>
	<path style="fill:#A06047;" d="M129.738,187.816v50.218c0,12.62,10.318,22.851,23.046,22.851c12.727,0,23.045-10.231,23.045-22.851
		v-50.218H129.738z"/>
	<path style="fill:#A06047;" d="M395.48,187.816H65.769v-36.191c0-2.764,2.241-5.005,5.005-5.005h319.702
		c2.764,0,5.005,2.241,5.005,5.005V187.816z"/>
</g>
<path style="fill:#824730;" d="M395.476,151.626v36.194h-40.398l0.13-34.122c0.01-3.904-3.143-7.077-7.047-7.077h42.31
	C393.244,146.621,395.476,148.864,395.476,151.626z"/>
<path d="M420.295,441.223H375.16c-4.146,0-7.507,3.361-7.507,7.507s3.361,7.507,7.507,7.507h42.561
	c-1.3,22.689-20.171,40.749-43.181,40.749H86.841c-23.01,0-41.88-18.06-43.181-40.749h285.791c4.146,0,7.507-3.361,7.507-7.507
	s-3.361-7.507-7.507-7.507H41.087c-6.9,0-12.512,5.612-12.512,12.512c0,32.128,26.139,58.266,58.266,58.266h287.698
	c32.128,0,58.266-26.139,58.266-58.266C432.806,446.836,427.193,441.223,420.295,441.223z"/>
<path d="M406.505,201.426h-3.569l0.185-47.699c0.003-0.648-0.052-1.285-0.132-1.918v-0.184c0-6.9-5.612-12.512-12.512-12.512h-1.913
	H72.819h-2.045c-6.9,0-12.512,5.612-12.512,12.512v36.191c0,0.31,0.024,0.614,0.061,0.914l0.143,82.022
	c0.001,0.39,0.016,0.782,0.047,1.174c3.367,43.185,22.758,83.264,54.601,112.853c32.013,29.748,73.725,46.132,117.452,46.132
	c43.728,0,85.441-16.384,117.455-46.134c9.624-8.944,18.102-18.852,25.353-29.508h33.131c42.415,0,76.922-34.508,76.922-76.922
	S448.919,201.426,406.505,201.426z M402.618,271.929c0.031-0.388,0.046-0.779,0.047-1.157l0.06-15.427
	c11.583,1.192,20.646,11.007,20.646,22.9c0,12.694-10.327,23.022-23.022,23.022h-2.598
	C400.197,291.712,401.84,281.904,402.618,271.929z M337.799,373.779c-29.227,27.16-67.311,42.118-107.234,42.118
	c-39.923,0-78.005-14.957-107.231-42.116c-29.074-27.017-46.779-63.604-49.854-103.059l-0.131-75.398h48.882v42.711
	c0,16.74,13.706,30.358,30.552,30.358s30.552-13.618,30.552-30.358v-42.711h75.715c4.146,0,7.507-3.361,7.507-7.507
	s-3.361-7.507-7.507-7.507h-83.223c-4.146,0-7.507,3.361-7.507,7.507v50.218c0,8.461-6.971,15.343-15.538,15.343
	c-8.567,0-15.538-6.882-15.538-15.343v-50.218c0-4.146-3.361-7.507-7.507-7.507H73.322l-0.046-26.182h314.695v26.182H305.76
	c-4.146,0-7.507,3.361-7.507,7.507s3.361,7.507,7.507,7.507h82.182l-0.293,75.429C384.578,310.171,366.874,346.76,337.799,373.779z
	 M406.505,340.255h-23.993c4.161-7.705,7.72-15.72,10.66-23.975h7.18c20.973,0,38.036-17.063,38.036-38.036
	c0-20.155-15.76-36.69-35.603-37.95l0.092-23.854h3.628c34.136,0,61.907,27.772,61.907,61.907S440.64,340.255,406.505,340.255z"/>
<path d="M174.206,89.427c4.976,4.902,8.571,8.444,8.571,15.951c0,5.503-1.93,8.613-4.015,11.155
	c-2.63,3.205-2.165,7.935,1.04,10.566c1.397,1.146,3.083,1.705,4.758,1.705c2.17,0,4.323-0.936,5.807-2.745
	c5.065-6.171,7.424-12.742,7.424-20.68c0-13.791-7.235-20.919-13.047-26.646c-4.976-4.902-8.571-8.444-8.571-15.951
	c0-7.499,3.592-11.039,8.565-15.94l0.697-0.688c2.948-2.916,2.974-7.669,0.059-10.616c-2.916-2.948-7.669-2.975-10.616-0.059
	l-0.678,0.669c-5.81,5.725-13.04,12.851-13.04,26.633C161.16,76.571,168.394,83.699,174.206,89.427z"/>
<path d="M233.992,87.327c0,7.752-2.258,12.2-4.466,15.527c-2.293,3.454-1.352,8.114,2.103,10.406
	c1.277,0.848,2.719,1.253,4.145,1.253c2.431,0,4.817-1.179,6.261-3.356c4.757-7.166,6.972-14.738,6.972-23.83
	c0-15.852-6.939-24.304-12.514-31.094c-5.087-6.196-9.104-11.089-9.104-21.568c0-10.469,4.015-15.36,9.099-21.554l0.696-0.849
	c2.625-3.21,2.151-7.939-1.059-10.564c-3.209-2.624-7.939-2.15-10.564,1.059l-0.679,0.828c-5.572,6.789-12.507,15.238-12.507,31.079
	c0,15.852,6.939,24.304,12.514,31.094C229.975,71.954,233.992,76.847,233.992,87.327z"/>
<path d="M276.636,89.427c4.976,4.902,8.571,8.444,8.571,15.951c0,5.503-1.93,8.613-4.015,11.155
	c-2.63,3.205-2.165,7.935,1.04,10.566c1.397,1.146,3.083,1.705,4.758,1.705c2.17,0,4.323-0.936,5.807-2.745
	c5.065-6.171,7.424-12.742,7.424-20.68c0-13.791-7.235-20.919-13.047-26.646c-4.976-4.902-8.571-8.444-8.571-15.951
	c0-7.499,3.592-11.039,8.565-15.94l0.697-0.688c2.948-2.916,2.974-7.669,0.059-10.616c-2.916-2.948-7.669-2.975-10.616-0.059
	l-0.678,0.669c-5.81,5.725-13.04,12.851-13.04,26.633C263.59,76.571,270.824,83.699,276.636,89.427z"/>
<g>
</g>
<g>
</g>
<g>
</g>
<g>
</g>
<g>
</g>
<g>
</g>
<g>
</g>
<g>
</g>
<g>
</g>
<g>
</g>
<g>
</g>
<g>
</g>
<g>
</g>
<g>
</g>
<g>
</g>
</svg>
