<svg id="Capa_1" enable-background="new 0 0 512 512" height="512" viewBox="0 0 512 512" width="512" xmlns="http://www.w3.org/2000/svg"><g><path d="m491.061 382.871h-470.122c-7.422 0-13.439-6.017-13.439-13.439 0-7.422 6.017-13.439 13.439-13.439h470.121c7.422 0 13.439 6.017 13.439 13.439.001 7.422-6.016 13.439-13.438 13.439z" fill="#dae7ef"/><path d="m428.599 441.106h-348.746c-12.31 0-23.511-7.115-28.743-18.258l-18.772-39.978h443.775l-18.772 39.978c-5.232 11.143-16.433 18.258-28.742 18.258z" fill="#bcd0df"/><path d="m426.722 382.871-9.381 19.978c-5.232 11.143-16.433 18.258-28.743 18.258h-338.306l.818 1.742c5.232 11.143 16.433 18.258 28.743 18.258h348.746c12.31 0 23.511-7.115 28.743-18.258l18.771-39.978z" fill="#98b9d3"/><path d="m179.579 297.576c11.729 2.35 23.481 9.604 36.628 10.808 12.129 1.11 25.024-3.794 38.019-3.794 12.997 0 25.893 4.903 38.024 3.793 13.145-1.203 24.895-8.457 36.622-10.807 13.299-2.665 27.022-.728 37.924-4.643 8.381-3.01 14.982-8.213 20.885-13.247-39.616-18.223-86.361-28.256-131.681-28.256-45.477 0-92.388 10.103-132.09 28.446-.631.291-1.257.584-1.88.877 5.583 4.69 11.835 9.382 19.625 12.18 10.901 3.915 24.624 1.978 37.924 4.643z" fill="#e4936b"/><path d="m346.136 348.551c-27.643-11.224-59.655-17.405-90.137-17.405s-62.494 6.181-90.137 17.405c-6.102 2.478-11.476 4.994-16.153 7.441h212.58c-4.677-2.448-10.05-4.964-16.153-7.441z" fill="#fbf4af"/><path d="m388.09 279.875c-.136-.063-.273-.125-.41-.188-5.902 5.033-12.503 10.237-20.885 13.247-3.504 1.258-7.299 1.912-11.278 2.309 7.349 2.637 14.51 5.56 21.429 8.756 19.907 9.197 51.422 27.215 59.825 51.994h27.485c-5.725-29.487-31.764-55.605-76.166-76.118z" fill="#fff9c1"/><path d="m141.654 292.933c-7.79-2.798-14.042-7.49-19.625-12.18-43.257 20.378-68.642 46.172-74.286 75.239h27.485c8.404-24.779 39.918-42.797 59.825-51.994 6.706-3.098 13.64-5.939 20.752-8.512-5.027-.364-9.812-.995-14.151-2.553z" fill="#fff9c1"/><path d="m179.579 297.576c-8.007-1.604-16.167-1.541-23.773-2.09-7.112 2.573-14.046 5.414-20.752 8.512-19.907 9.197-51.422 27.215-59.825 51.994h30.182c14.722-17.903 56.379-39.653 107.945-47.964-12.009-1.879-22.903-8.273-33.777-10.452z" fill="#fbf4af"/><path d="m376.946 303.998c-6.919-3.197-14.08-6.119-21.429-8.756-8.401.837-17.621.526-26.646 2.334-10.363 2.076-20.742 7.982-32.087 10.158 52.423 8.082 94.907 30.14 109.806 48.257h30.182c-8.405-24.779-39.919-42.797-59.826-51.993z" fill="#fbf4af"/><path d="m296.783 307.734c-1.494.287-3.005.509-4.534.649-12.131 1.11-25.027-3.793-38.024-3.793-12.995 0-25.889 4.904-38.019 3.794-.958-.088-1.909-.208-2.853-.355-51.566 8.311-93.223 30.061-107.945 47.964h44.3c4.677-2.447 10.051-4.963 16.153-7.441 27.643-11.224 59.655-17.405 90.137-17.405s62.494 6.181 90.137 17.405c6.102 2.478 11.476 4.994 16.153 7.441h44.3c-14.898-18.119-57.382-40.177-109.805-48.259z" fill="#fff9c1"/><path d="m165.863 348.551c-6.102 2.478-11.476 4.994-16.153 7.441h212.58c-4.677-2.447-10.051-4.963-16.153-7.441-13.282-5.393-27.572-9.621-42.216-12.559h-95.842c-14.645 2.938-28.935 7.166-42.216 12.559z" fill="#f9f48e"/><path d="m436.771 355.992h27.485c-1.332-6.858-3.763-13.534-7.268-20h-32.694c5.562 6.051 10.013 12.735 12.477 20z" fill="#fbf4af"/><path d="m55.011 335.992c-3.505 6.466-5.936 13.142-7.268 20h27.485c2.464-7.265 6.915-13.949 12.477-20z" fill="#fbf4af"/><path d="m87.705 335.992c-5.562 6.051-10.013 12.735-12.477 20h30.182c5.293-6.437 14.069-13.372 25.536-20z" fill="#f9f48e"/><path d="m406.589 355.992h30.182c-2.464-7.265-6.915-13.949-12.477-20h-43.24c11.466 6.628 20.242 13.563 25.535 20z" fill="#f9f48e"/><path d="m346.136 348.551c6.102 2.478 11.476 4.994 16.153 7.441h44.3c-5.293-6.437-14.069-13.372-25.536-20h-77.133c14.645 2.938 28.935 7.166 42.216 12.559z" fill="#fbf4af"/><path d="m165.863 348.551c13.282-5.393 27.572-9.621 42.216-12.559h-77.133c-11.467 6.628-20.242 13.563-25.536 20h44.3c4.677-2.448 10.05-4.964 16.153-7.441z" fill="#fbf4af"/><path d="m92.835 218.706c-7.017 0-12.706-5.689-12.706-12.706v-100.012c0-7.017 5.689-12.706 12.706-12.706 7.017 0 12.706 5.689 12.706 12.706v100.012c0 7.017-5.688 12.706-12.706 12.706z" fill="#fff9c1"/><path d="m156.365 267.214v-161.226c0-7.017-5.689-12.706-12.706-12.706s-12.706 5.689-12.706 12.706v170.752c8.219-3.524 16.713-6.705 25.412-9.526z" fill="#fff9c1"/><path d="m122.029 280.753c.623-.293 1.25-.586 1.88-.877 2.324-1.073 4.672-2.119 7.043-3.135v-170.753c0-7.017-5.688-12.706-12.706-12.706s-12.706 5.689-12.706 12.706v183.281c5.171-2.933 10.668-5.774 16.489-8.516z" fill="#fbf4af"/><path d="m80.129 106.604h-21.484c-3.796 0-6.874 3.077-6.874 6.874v4.648c0 7.671 6.219 13.89 13.89 13.89h14.469v-25.412z" fill="#98b9d3"/><path d="m455.217 70.894h-208.247c-6.235 0-12.361 1.641-17.761 4.759l-45.366 26.192c-5.4 3.118-11.526 4.759-17.761 4.759h-9.718v25.412h5.628c13.375 0 26.515-3.521 38.099-10.209l35.926-20.742c5.4-3.118 11.526-4.759 17.762-4.759h186.049c11.267 0 20.4-9.134 20.4-20.4.001-2.768-2.243-5.012-5.011-5.012z" fill="#98b9d3"/><path d="m491.061 348.492h-20.895c-8.369-29.387-35.5-55.362-78.93-75.426-.075-.035-.151-.068-.227-.1-.064-.032-.129-.063-.195-.094-8.599-3.956-17.648-7.587-26.896-10.792-3.918-1.356-8.187.718-9.543 4.631-1.355 3.914.717 8.187 4.631 9.543 4.726 1.637 9.393 3.391 13.968 5.245-2.692 1.724-5.589 3.253-8.713 4.375-9.379 3.368-23.093 1.589-36.862 4.348-12.526 2.508-24.004 9.609-35.832 10.691-10.567.969-23.807-3.824-37.34-3.824-15.135 0-25.273 5.158-40.003 3.483-10.405-1.698-21.984-8.111-33.17-10.351-13.727-2.75-27.489-.981-36.863-4.349-2.601-.934-5.024-2.134-7.307-3.497 7.004-2.908 14.205-5.562 21.556-7.953.167-.048.331-.101.493-.16 30.854-9.98 64.335-15.334 97.069-15.334 23.139 0 46.571 2.638 69.647 7.841 4.041.906 8.055-1.625 8.966-5.667.911-4.04-1.626-8.055-5.667-8.966-24.156-5.446-48.699-8.208-72.946-8.208-30.92 0-62.496 4.567-92.135 13.143v-117.576c14.027-.315 27.81-4.169 39.977-11.192l35.926-20.742c4.255-2.456 9.1-3.755 14.012-3.755h50.141c4.143 0 7.5-3.357 7.5-7.5s-3.357-7.5-7.5-7.5h-50.141c-7.542 0-14.98 1.993-21.512 5.765l-35.926 20.742c-9.889 5.709-21.079 8.866-32.477 9.178v-10.386h2.217c7.542 0 14.98-1.993 21.512-5.765l45.365-26.191c4.254-2.456 9.099-3.754 14.012-3.754h205.517c-1.162 5.927-6.396 10.411-12.658 10.411h-100.912c-4.143 0-7.5 3.357-7.5 7.5s3.357 7.5 7.5 7.5h100.909c15.384 0 27.899-12.516 27.899-27.899 0-6.899-5.612-12.512-12.512-12.512h-208.245c-7.543 0-14.981 1.993-21.512 5.764l-45.365 26.191c-4.255 2.456-9.1 3.755-14.012 3.755h-3.425c-2.821-7.763-10.273-13.322-18.998-13.322-4.81 0-9.233 1.69-12.706 4.506-7.407-6.006-17.994-6.015-25.412 0-3.474-2.816-7.896-4.506-12.706-4.506-8.726 0-16.176 5.56-18.997 13.322h-15.193c-7.926 0-14.373 6.448-14.373 14.374v4.647c0 11.795 9.596 21.391 21.39 21.391h6.969v66.483c0 11.142 9.063 20.206 20.205 20.206 1.799 0 3.544-.237 5.206-.68v59.449c-30.227 18.025-49.41 39.657-56.208 63.517h-20.895c-11.545 0-20.939 9.394-20.939 20.94s9.394 20.938 20.939 20.938h6.634l16.747 35.666c6.438 13.711 20.386 22.569 35.532 22.569h348.746c15.146 0 29.094-8.858 35.532-22.569l16.747-35.666h10.183c11.546 0 20.939-9.393 20.939-20.938s-9.393-20.94-20.938-20.94zm-36.652 0h-12.568c-11.043-24.022-39.974-41.525-64.081-52.365 4.125-2.311 7.762-4.972 11.047-7.621 34.954 16.84 57.385 37.39 65.602 59.986zm-99.883-45.631c6.617 2.421 13.094 5.09 19.273 7.946 14.905 6.885 39.182 20.131 50.889 37.686h-14.721c-13.816-14.679-43.779-32.038-84.059-42.431 9.404-2.836 18.398-2.349 28.618-3.201zm-170.311 3.727c-2.559.683-5.102 1.401-7.625 2.153-3.97 1.183-6.229 5.359-5.046 9.329 1.179 3.959 5.35 6.233 9.329 5.046 10.582-3.153 21.527-5.675 32.549-7.5.694.092 1.394.171 2.101.236 13.431 1.231 26.531-3.763 38.702-3.763 12.167 0 25.264 4.992 38.707 3.762 1.337-.123 2.65-.296 3.942-.512 38.385 6.099 70.775 19.683 90.024 33.152h-22.789c-29.443-14.994-68.998-24.846-108.111-24.846-39.036 0-78.611 9.821-108.112 24.846h-22.685c6.584-4.576 14.596-9.118 23.53-13.281 3.754-1.749 5.38-6.211 3.63-9.966-1.749-3.754-6.213-5.379-9.966-3.63-17.536 8.171-31.697 17.617-40.372 26.877h-14.712c11.707-17.554 35.983-30.8 50.887-37.686 6-2.772 12.281-5.37 18.691-7.732 7.054.441 14.399.49 21.216 1.855 1.987.4 4.023.977 6.11 1.66zm139.033 41.904h-134.497c21.601-6.404 44.848-9.846 67.249-9.846 22.4 0 45.647 3.443 67.248 9.846zm-179.589-247.71c2.871 0 5.206 2.335 5.206 5.206v155.825c-3.507 1.205-6.98 2.467-10.412 3.786v-159.611c0-2.871 2.335-5.206 5.206-5.206zm-77.998 23.735c-3.523 0-6.39-2.867-6.39-6.391v-4.021h13.359v10.412zm27.174 86.689c-2.87 0-5.205-2.335-5.205-5.206v-100.012c0-2.871 2.335-5.206 5.205-5.206 2.871 0 5.206 2.335 5.206 5.206v100.012c0 2.871-2.335 5.206-5.206 5.206zm20.206-105.218c0-2.871 2.335-5.206 5.206-5.206s5.206 2.335 5.206 5.206v165.853c-3.439 1.545-6.927 3.195-10.412 4.941zm7.957 183.589c3.346 2.612 7.095 5.217 11.323 7.423-23.404 10.748-51.354 27.981-62.162 51.492h-12.568c8.046-22.109 29.721-42.285 63.407-58.915zm329.555 130.084c-3.978 8.471-12.596 13.944-21.954 13.944h-348.746c-9.358 0-17.977-5.474-21.954-13.944l-13.754-29.291h420.161zm40.508-44.291h-14.828c-.071-.001-.142-.001-.213 0h-455.081c-3.275 0-5.939-2.664-5.939-5.938 0-3.275 2.664-5.939 5.939-5.939h470.121c3.275 0 5.939 2.664 5.939 5.939.001 3.274-2.663 5.938-5.938 5.938z"/><circle cx="294.647" cy="280.752" r="7.5"/><circle cx="261.226" cy="274.165" r="7.5"/><circle cx="228.476" cy="282.918" r="7.5"/><circle cx="202.282" cy="278.165" r="7.5"/></g></svg>