<svg id="Capa_1" enable-background="new 0 0 512 512" height="512" viewBox="0 0 512 512" width="512" xmlns="http://www.w3.org/2000/svg"><g><path d="m380.3 137.946c-4.583 13.707-22.571 38.822-45.16 51.864-28.719 16.581-70.62 16.962-74.867 9.608-4.246-7.354 17.035-43.451 45.754-60.032 10.697-6.176 23.223-10.104 34.951-12.223-26.044-5.468-54.78-8.499-84.978-8.499-118.021 0-213.696 46.293-213.696 103.399s95.675 103.399 213.696 103.399 213.696-46.293 213.696-103.399c0-34.672-35.27-65.358-89.396-84.117z" fill="#365e7d"/><path d="m455.16 234.727c-6.477-9.548-10.89-23.426-21.951-31.568-9.3-6.845-23.28-7.027-35.299-12.61-3.628-1.685-7.108-4.079-10.612-6.65-.32.733-1.001 1.561-1.992 2.449.003-.002.005-.005.008-.007 8.343 4.93 13.605 9.905 13.605 13.13 0 8.492-36.478 29.113-69.64 29.113s-69.64-20.621-69.64-29.113c0-.381.074-.786.217-1.212-1.323-6.535 8.261-24.799 23.451-40.644-8.947 1.428-18.133 4.906-27.305 4.906-12.49 0-25.004-6.448-36.906-5.391-8.018.712-15.536 4.5-22.972 7.705 16.597 1.594 29.795 15.419 29.894 32.409.001.121.001.242.001.364 0 33.215-26.641 60.208-59.721 60.775-6.893.118-13.558-.939-19.8-2.987-23.589-7.738-41.123-29.622-42.012-55.662-.066-1.937-.042-3.855.07-5.749-9.355 2.678-18.85 4.085-25.761 9.172-11.061 8.141-15.474 22.019-21.951 31.567-2.724 4.016-5.759 7.88-8.542 11.761 22.68 45.32 107.066 78.977 207.699 78.977s185.019-33.658 207.699-78.977c-2.783-3.879-5.817-7.743-8.54-11.758z" fill="#fbf4af"/><path d="m455.16 234.727c-6.477-9.548-10.89-23.426-21.951-31.568-8.28-6.094-20.269-6.907-31.282-10.952 5.316 7.377 8.788 15.968 13.233 22.52.027.04.054.08.082.12 5.417 7.963 5.129 18.56-1.047 25.951-31.68 37.915-108.481 64.664-198.195 64.664-49.906 0-95.816-8.278-132.186-22.15 38.905 25.564 101.542 42.15 172.186 42.15 100.633 0 185.019-33.658 207.699-78.977-2.782-3.879-5.816-7.743-8.539-11.758z" fill="#f9f48e"/><path d="m468.573 232.726c-11.03 52.096-101.993 92.736-212.573 92.736s-201.543-40.64-212.573-92.736l18.038 89.007c2.048 10.107 7.819 19.06 16.141 25.151 38.24 27.989 103.861 46.452 178.393 46.452s140.154-18.463 178.393-46.452c8.322-6.091 14.093-15.043 16.141-25.151z" fill="#4a80aa"/><path d="m412.401 292.522-1.867 9.211c-2.048 10.107-7.819 19.06-16.141 25.151-38.24 27.989-103.861 46.452-178.393 46.452-49.907 0-95.818-8.278-132.188-22.151 38.905 25.564 101.543 42.151 172.188 42.151 74.533 0 140.154-18.463 178.393-46.452 8.322-6.091 14.093-15.043 16.141-25.151l18.038-89.007c-4.869 23.004-25.324 43.773-56.171 59.796z" fill="#407093"/><path d="m133.518 207.738c-11.098-2.627-19.571-16.69-19.571-33.645 0-.038 0-.077 0-.115.006-2.442-3.318-3.216-4.308-.984-3.605 8.131-5.479 17.201-5.154 26.741.889 26.04 18.423 47.923 42.012 55.661-9.92-12.294-15.251-29.304-12.979-47.658z" fill="#da387d"/><path d="m166.296 258.383c33.08-.567 59.721-27.56 59.721-60.775 0-.121 0-.243-.001-.364-.106-18.072-15.031-32.563-33.103-32.563-15.643 0-29.558 9.908-34.706 24.679-3.911 11.221-12.027 18.819-20.93 18.819-1.28 0-2.536-.151-3.76-.441-2.272 18.354 3.059 35.364 12.979 47.658 6.242 2.048 12.907 3.105 19.8 2.987z" fill="#ffc3ac"/><circle cx="212.239" cy="284.904" fill="#da387d" r="12.667"/><circle cx="316.612" cy="264.537" fill="#b3e59f" r="12.667"/><circle cx="411.585" cy="247.358" fill="#da387d" r="12.667"/><path d="m411.585 260.025c6.995 0 12.667-5.671 12.667-12.667 0-4.977-2.871-9.284-7.047-11.355-.767 1.696-1.77 3.31-3.01 4.795-3.824 4.577-8.306 8.991-13.389 13.215 2.232 3.608 6.225 6.012 10.779 6.012z" fill="#d80a61"/><ellipse cx="320.584" cy="164.597" fill="#b3e59f" rx="69.64" ry="29.113" transform="matrix(.866 -.5 .5 .866 -39.349 182.344)"/><path d="m385.313 186.341c-6.834 6.124-28.485 15.078-48.479 15.078-7.3 0-14.822-1.194-21.762-3.008-25.083 7.78-51.475 6.763-54.798 1.007-.19-.33-.329-.718-.419-1.16-.143.427-.217.832-.217 1.212 0 8.492 36.479 29.113 69.64 29.113 33.162 0 69.64-20.62 69.64-29.113.001-3.225-5.261-8.199-13.605-13.129z" fill="#78c2a4"/><path d="m360.945 168.248c-7.296 8.172-16.128 15.975-25.805 21.561-6.241 3.603-13.104 6.441-20.068 8.601 6.94 1.814 14.462 3.007 21.763 3.007 24.13 0 50.672-13.04 50.672-18.41-.001-3.559-11.667-10.491-26.562-14.759z" fill="#e27d47"/><path d="m133.518 207.738c1.224.29 2.48.441 3.76.441 8.903 0 17.019-7.598 20.93-18.819 2.922-8.383 8.667-15.199 15.95-19.527-9.6.054-19.298-1.513-27.781 1.068-11.45 3.484-20.298 13.149-29.961 18.466 3.295 9.591 9.598 16.595 17.102 18.371z" fill="#fbf4af"/><path d="m18.818 288.659c10.549 1.324 20.781 4.523 30.185 9.345l5.111 25.219c2.419 11.933 9.188 22.485 19.063 29.712 40.979 29.994 109.323 47.9 182.823 47.9s141.845-17.906 182.823-47.9c9.874-7.227 16.644-17.779 19.062-29.713l5.111-25.218c9.404-4.822 19.636-8.021 30.185-9.345 10.69-1.342 18.765-10.491 18.779-21.282l.04-27.964c.009-6.339-2.761-12.324-7.6-16.419-4.861-4.115-11.258-5.862-17.549-4.801-3.254.55-6.488 1.254-9.683 2.108-.559-18.259-9.794-36.126-26.793-51.781-15.014-13.827-36.193-26.024-61.525-35.469.125-2.602-.293-4.999-1.462-7.023-5.227-9.056-24.415-8.835-35.39-7.896-3.644.312-7.292.78-10.905 1.394-26.953-5.55-55.573-8.363-85.094-8.363-58.188 0-113.013 11.021-154.372 31.034-42.265 20.45-65.905 48.128-66.797 78.103-3.195-.853-6.429-1.558-9.682-2.108-6.287-1.064-12.688.686-17.549 4.801-4.839 4.095-7.608 10.08-7.6 16.419l.039 27.964c.016 10.792 8.09 19.941 18.78 21.283zm424.367 31.584c-1.675 8.263-6.37 15.574-13.221 20.589-38.501 28.18-103.534 45.004-173.964 45.004s-135.463-16.824-173.964-45.004c-6.851-5.015-11.546-12.326-13.221-20.588l-2.101-10.369c1.762 1.508 3.468 3.085 5.112 4.729 2.931 2.929 7.678 2.928 10.607 0 2.929-2.93 2.929-7.678 0-10.607-6.05-6.05-12.814-11.321-20.096-15.718l-3.021-14.905c13.894 13.545 33.395 25.599 57.727 35.344 3.836 1.537 8.207-.32 9.751-4.174 1.539-3.845-.329-8.211-4.175-9.75-32.031-12.828-54.607-29.478-65.47-47.695 1.972-2.658 3.971-5.322 5.897-8.163 6.67-9.832 10.843-22.858 20.19-29.737 3.55-2.613 8.548-4.122 13.977-5.535 2.4 26.936 20.879 50.309 46.943 58.86 23.594 7.742 50.842 2.191 69.749-17.023 12.646-12.852 19.609-29.859 19.609-47.891l-.001-.408c-.077-13.18-6.606-24.892-16.595-32.188.949-.188 1.894-.328 2.837-.412 5.114-.45 10.912.939 17.044 2.416 6.135 1.478 12.479 3.005 19.199 3.005 2.757 0 5.45-.257 8.092-.662-.956 1.394-1.977 2.94-3.003 4.592-.424.522-.779 1.103-1.052 1.73-4.105 6.901-7.963 15.238-7.732 21.911-.111.63-.167 1.257-.167 1.878 0 10.457 16.73 19.858 26.702 24.532 16.382 7.677 34.766 12.08 50.438 12.08s34.057-4.403 50.438-12.08c9.344-4.379 24.618-12.908 26.508-22.567 8.664 2.412 17.211 3.843 22.539 7.763 9.363 6.892 13.495 19.868 20.188 29.736 1.943 2.865 3.969 5.565 5.91 8.181-9.093 15.249-26.455 29.422-51.024 41.31-39.364 19.047-91.867 29.536-147.839 29.536-34.735 0-69.118-4.184-99.434-12.098-4.013-1.046-8.104 1.355-9.151 5.362-1.046 4.008 1.354 8.105 5.362 9.151 31.534 8.232 67.228 12.584 103.223 12.584 58.188 0 113.013-11.021 154.372-31.034 17.317-8.379 31.507-17.971 42.287-28.438l-2.997 14.788c-7.282 4.397-14.046 9.669-20.096 15.718-2.929 2.93-2.929 7.678 0 10.607 2.931 2.929 7.678 2.928 10.607 0 1.644-1.644 3.35-3.222 5.112-4.729zm-250.272-148.061c.82 0 1.631.039 2.431.114.052.005.103.01.155.015 12.834 1.282 22.94 11.996 23.016 24.994.011 3.35-.261 6.578-.88 9.917-21.095.652-40.912-7.533-49.913-20.642 5.191-8.793 14.72-14.398 25.191-14.398zm2.047 69.555c-6.018-1.499-11.595-3.965-16.614-7.351-3.436-2.318-8.097-1.411-10.412 2.021-2.317 3.434-1.412 8.096 2.021 10.412 1.673 1.129 3.392 2.178 5.155 3.146-7.755 1.474-16.028 1.243-24.137-1.043-6.909-9.392-10.58-21.224-10.464-33.472 1.827-.259 3.62-.735 5.36-1.413.078.288.159.575.242.861 1.153 3.977 5.31 6.269 9.291 5.115 3.979-1.152 6.269-5.312 5.115-9.291-.682-2.354-1.136-4.767-1.357-7.202.496-.662.975-1.348 1.437-2.056 11.985 12.426 31.054 20.129 51.825 20.759-4.129 7.841-10.158 14.558-17.462 19.514zm-69.376-29.097c-.356 7.922.558 15.765 2.648 23.186-9.729-9.418-15.775-22.367-16.252-36.346-.019-.523-.028-1.047-.032-1.568 3.35 6.512 8.055 11.681 13.636 14.728zm20.436-16.687c-.067.072-.133.146-.197.22-7.006 7.721-14.825 4.899-19.92-3.915 7.775-5.373 14.762-11.779 22.655-14.183 2.282-.694 4.807-1.007 7.498-1.116-5.704 8.582-4.68 12.916-10.036 18.994zm217.205-19.139c6.123 2.07 10.89 4.379 13.932 6.205-6.293 3.766-19.502 9.248-33.904 10.593 6.869-4.51 13.678-10.254 19.972-16.798zm-47.998 29.368c7.522 1.816 14.781 2.736 21.607 2.736 11.565 0 25.129-2.823 37.214-7.745 4.92-2.004 8.685-3.937 11.566-5.752 2.492 1.725 4.079 3.125 5.008 4.096-6.138 6.607-33.817 21.566-61.344 21.566-15.292 0-30.631-4.617-42.298-9.853 9.431-.643 19.084-2.367 28.247-5.048zm174.125 26.801c2.64-.443 4.488.725 5.358 1.46.857.726 2.294 2.333 2.29 4.948l-.039 27.964c-.005 3.257-2.433 6.017-5.648 6.421-8.46 1.062-16.746 3.16-24.662 6.196l8.815-43.499c4.527-1.524 9.182-2.695 13.886-3.49zm-27.157-10.92c0 2.444-.206 4.878-.611 7.298-.03.148-.056.297-.078.447-.043.239-.087.478-.133.717-6.2-9.137-11.008-24.052-23.718-33.406-10.858-7.992-25.336-8.147-36.588-13.373-2.21-1.026-4.473-2.456-6.678-3.99-2.534-6.635-12.395-11.805-20.774-15.118 3.96-5.244 7.95-11.343 10.834-17.219 48.831 18.364 77.746 45.985 77.746 74.644zm-130.805-38.749c-22.515 13.001-54.111 15.071-63.968 11.976.467-2.09 1.77-5.221 3.808-8.965.171.001.343.002.515.002 18.696 0 40.955-5.501 57.331-16.767 3.412-2.349 4.274-7.019 1.927-10.431-2.349-3.412-7.019-4.275-10.431-1.927-11.246 7.739-25.448 11.977-38.816 13.52 7.715-9.63 17.334-18.674 28.021-24.844 10.217-5.899 22.084-9.583 33.669-11.547-2.213 3.353-1.391 7.882 1.905 10.234 3.401 2.426 8.075 1.595 10.462-1.749 2.446-3.428 4.602-6.861 6.366-10.125 5.163.009 9.229.477 11.567 1.21-2.648 11.864-21.477 37.358-42.356 49.413zm-223.229-27.614c39.364-19.047 91.867-29.536 147.839-29.536 18.071 0 35.779 1.089 52.934 3.248-2.318 1.096-4.542 2.257-6.657 3.478-7.714 4.453-15.475 10.577-22.638 17.758-8.364 1.613-16.338 4.374-23.64 4.374-11.322 0-24.029-6.561-37.569-5.362-8.565.761-15.931 4.186-23.621 7.567-7.533-.348-15.413 1.303-22.576 5.098-9.009-.135-18.727-1.432-28.042 1.403-8.358 2.543-15.305 7.715-21.434 12.278-.41.305-.817.608-1.222.909-.067-1.031-.091-1.946-.091-2.917.011-4.681-3.179-8.631-7.757-9.606-4.533-.967-9.026 1.319-10.908 5.564-2.583 5.825-4.314 11.89-5.182 18.129-8.169 2.088-16.41 3.999-23.253 9.034-12.71 9.354-17.515 24.262-23.712 33.397-.001.002-.002.003-.003.005-.54-2.759-.827-5.576-.827-8.456.003-24.587 20.727-48.156 58.359-66.365zm-90.871 78.743c.87-.737 2.724-1.904 5.358-1.459 4.704.794 9.358 1.964 13.885 3.489l8.815 43.499c-7.916-3.036-16.201-5.134-24.662-6.196-3.216-.404-5.644-3.164-5.648-6.421l-.038-27.963c-.004-2.616 1.433-4.223 2.29-4.949z"/><path d="m90.364 237.396-11.647 2.649c-4.039.919-6.568 4.938-5.65 8.977.917 4.028 4.923 6.57 8.977 5.65l11.647-2.649c4.039-.919 6.568-4.938 5.65-8.977-.919-4.039-4.938-6.567-8.977-5.65z"/><path d="m271.456 295.984 14.55 4.924c3.916 1.325 8.178-.769 9.509-4.7 1.327-3.924-.776-8.181-4.7-9.509l-14.55-4.924c-3.921-1.328-8.181.776-9.509 4.7-1.327 3.924.776 8.181 4.7 9.509z"/><path d="m235.688 259.123 16.095-4.235c4.006-1.054 6.399-5.156 5.345-9.161-1.055-4.007-5.164-6.399-9.161-5.345l-16.095 4.235c-4.006 1.054-6.399 5.156-5.345 9.161 1.052 3.999 5.147 6.401 9.161 5.345z"/><path d="m162.892 288.537c1.443-3.883-.534-8.2-4.416-9.645l-16.518-6.142c-3.884-1.442-8.199.535-9.645 4.416-1.443 3.883.534 8.2 4.416 9.645l16.518 6.142c3.883 1.443 8.2-.534 9.645-4.416z"/><path d="m212.239 305.07c11.119 0 20.166-9.047 20.166-20.167 0-11.119-9.047-20.166-20.166-20.166-11.12 0-20.167 9.047-20.167 20.166 0 11.12 9.047 20.167 20.167 20.167zm0-25.333c2.849 0 5.166 2.317 5.166 5.166s-2.317 5.167-5.166 5.167-5.167-2.318-5.167-5.167 2.319-5.166 5.167-5.166z"/><path d="m316.611 284.703c11.12 0 20.167-9.047 20.167-20.167 0-11.119-9.047-20.166-20.167-20.166-11.119 0-20.166 9.047-20.166 20.166 0 11.12 9.047 20.167 20.166 20.167zm0-25.333c2.849 0 5.167 2.317 5.167 5.166s-2.318 5.167-5.167 5.167-5.166-2.318-5.166-5.167 2.318-5.166 5.166-5.166z"/><path d="m411.585 267.524c11.12 0 20.167-9.047 20.167-20.166 0-11.12-9.047-20.167-20.167-20.167-11.119 0-20.166 9.047-20.166 20.167s9.047 20.166 20.166 20.166zm0-25.333c2.849 0 5.167 2.318 5.167 5.167s-2.318 5.166-5.167 5.166-5.166-2.317-5.166-5.166 2.317-5.167 5.166-5.167z"/><path d="m352.333 291.198c3.029 2.865 7.776 2.695 10.603-.294l11.294-11.938c2.847-3.009 2.715-7.756-.294-10.603-3.01-2.848-7.757-2.717-10.603.294l-11.294 11.938c-2.847 3.01-2.715 7.757.294 10.603z"/><path d="m358.761 256.381 16.94.861c4.099.216 7.659-2.944 7.871-7.109.21-4.137-2.973-7.661-7.109-7.871l-16.94-.861c-4.162-.211-7.66 2.974-7.871 7.109-.211 4.136 2.972 7.661 7.109 7.871z"/></g></svg>