<svg id="Capa_1" enable-background="new 0 0 511.994 511.994" height="512" viewBox="0 0 511.994 511.994" width="512" xmlns="http://www.w3.org/2000/svg"><g><path d="m425.858 342.163c-15.237-67.237-45.023-129.008-87.556-182.078-33.299-41.551-73.502-76.641-119.287-104.08l-190.026 363.759c-6.675 12.778 5.035 27.39 18.96 23.659l150.466-40.317c11.174-2.994 22.146 5.426 22.146 16.994v30.477c0 8.724 7.072 15.795 15.795 15.795 8.724 0 15.795-7.072 15.795-15.795v-48.369c0-7.963 5.348-14.933 13.04-16.994 11.174-2.994 22.146 5.426 22.146 16.994v86.492c0 8.724 7.072 15.795 15.795 15.795h7.223c8.724 0 15.795-7.072 15.795-15.795v-106.322c0-7.963 5.348-14.933 13.04-16.994l86.663-23.221z" fill="#fbf4af"/><path d="m338.303 160.085c-33.299-41.551-73.502-76.641-119.287-104.08l-2.621 5.017c30.535 22.73 58.001 49.231 81.908 79.063 29.536 36.854 52.926 77.904 69.565 122.067 11.901 31.587-6.34 66.53-38.944 75.266l-298.734 80.046-1.202 2.3c-6.675 12.778 5.036 27.39 18.96 23.659l150.466-40.317c11.174-2.994 22.146 5.426 22.146 16.994v30.477c0 8.724 7.072 15.795 15.795 15.795 8.724 0 15.795-7.072 15.795-15.795v-48.369c0-7.963 5.348-14.933 13.04-16.994 11.174-2.994 22.146 5.426 22.146 16.994v86.492c0 8.724 7.072 15.795 15.795 15.795h7.223c8.724 0 15.795-7.072 15.795-15.795v-106.322c0-7.963 5.348-14.933 13.04-16.994l86.663-23.221.003-.001c-15.233-67.237-45.02-129.008-87.552-182.077z" fill="#f9f48e"/><path d="m459.075 287.074-45.179 12.106c4.661 14.048 8.654 28.387 11.962 42.983l44.803-12.006c10.209-2.736 16.342-13.193 13.68-23.421-.568-2.184-1.152-4.304-1.748-6.374-2.91-10.1-13.365-16.008-23.518-13.288z" fill="#e27d47"/><path d="m482.57 300.282c-4.725-10.746-13.372-15.921-23.492-13.209l-45.182 12.106c-16.808-50.663-42.294-97.546-75.593-139.095-33.299-41.551-73.502-76.641-119.287-104.08l19.148-36.654c6.094-11.665 20.964-15.425 31.903-8.107 49.584 33.172 88.328 71.447 118.156 108.598 49.084 55.21 94.663 181.536 94.347 180.441z" fill="#e4936b"/><g fill="#da387d"><path d="m134.072 324.09c31.329-8.395 49.922-40.598 41.527-71.927-5.277-19.695-19.964-34.357-37.928-40.444l-53.731 102.856c13.889 10.263 32.154 14.332 50.132 9.515z"/><circle cx="237.533" cy="165.498" r="36.975"/><path d="m365.561 197.977c-2.983.295-5.982.836-8.972 1.637-29.609 7.934-47.18 38.368-39.246 67.977s38.368 47.18 67.977 39.246c10.28-2.754 19.108-8.222 25.922-15.424-11.599-32.95-26.908-64.241-45.681-93.436z"/></g><path d="m356.589 199.614c-5.243 1.405-10.109 3.516-14.522 6.202 9.87 18.116 18.488 36.925 25.801 56.336 5.961 15.822 4.359 32.485-2.821 46.276 6.612.709 13.464.234 20.273-1.591 10.28-2.754 19.108-8.222 25.922-15.424-11.599-32.949-26.907-64.24-45.68-93.436-2.984.295-5.983.835-8.973 1.637z" fill="#d80a61"/><path d="m236.949 301.155-21.22-12.252c-2.104-1.215-2.824-3.904-1.61-6.008l12.252-21.22c1.215-2.104 3.904-2.824 6.008-1.61l21.22 12.252c2.104 1.215 2.824 3.904 1.61 6.008l-12.252 21.22c-1.214 2.104-3.904 2.825-6.008 1.61z" fill="#ffd064"/><path d="m490.754 301.531c-19.458-67.801-51.984-130.507-96.683-186.386-34.492-42.959-74.81-80.015-119.834-110.135-14.617-9.779-34.556-4.761-42.721 10.868-84.672 162.084-138.913 265.916-209.175 400.413-9.709 18.583 7.331 39.797 27.549 34.376l82.828-22.193c4.001-1.071 6.375-5.185 5.304-9.186-1.072-4.001-5.187-6.376-9.186-5.303l-82.829 22.193c-7.619 2.035-14.023-5.952-10.372-12.942l51.156-97.925c14.761 8.2 32.254 10.568 49.222 6.023 14.556-3.9 27.457-12.739 36.326-24.887 2.443-3.346 1.711-8.037-1.634-10.48-3.346-2.441-8.038-1.71-10.48 1.635-6.957 9.528-16.672 16.183-28.094 19.244-13.089 3.506-26.764 1.728-38.39-4.837l47.42-90.774c13.342 6.445 23.305 18.36 27.193 32.87 1.274 4.755 1.862 9.634 1.746 14.501-.1 4.201 3.276 7.678 7.501 7.678 4.06 0 7.397-3.242 7.495-7.322.149-6.297-.609-12.602-2.253-18.739-4.986-18.607-17.698-33.913-34.733-42.288l73.838-141.345c6.285 3.923 12.491 8.012 18.523 12.209 3.4 2.366 8.075 1.528 10.44-1.873 2.366-3.399 1.527-8.074-1.873-10.439-6.549-4.557-13.294-8.991-20.125-13.23l15.898-30.433c4.025-7.703 13.825-10.203 21.085-5.347 43.754 29.271 82.943 65.291 116.47 107.049 37.573 46.972 66.299 98.905 85.609 154.703-3.526-.537-7.206-.374-10.841.601l-38.399 10.289c-.122-.35-.244-.699-.367-1.048-.032-.098-.067-.196-.103-.293-17.072-48.457-41.979-93.293-74.11-133.385-19.643-24.51-41.859-47.015-66.033-66.89-3.2-2.632-7.926-2.168-10.557 1.029-2.63 3.2-2.169 7.926 1.03 10.557 31.384 25.804 60.217 56.885 84.551 92.701-15.59 4.583-28.601 14.81-36.755 28.933-8.415 14.574-10.65 31.553-6.294 47.808s14.781 29.842 29.354 38.256c9.708 5.605 20.481 8.469 31.399 8.468 12.701 0 25.77-3.885 36.865-11.852 3.442 10.618 6.518 21.476 9.177 32.396l-79.642 21.341c-10.951 2.934-18.599 12.9-18.599 24.237v106.321c0 4.574-3.721 8.295-8.295 8.295h-7.223c-4.574 0-8.295-3.721-8.295-8.295v-86.493c0-7.864-3.578-15.12-9.817-19.907-6.24-4.787-14.173-6.367-21.77-4.33-10.951 2.934-18.599 12.9-18.599 24.237v48.37c0 4.574-3.721 8.295-8.295 8.295s-8.295-3.721-8.295-8.295v-30.475c0-7.864-3.579-15.121-9.818-19.908s-14.175-6.368-21.77-4.33l-33.079 8.863c-4.001 1.071-6.375 5.185-5.304 9.186 1.072 4.001 5.187 6.381 9.186 5.303l33.08-8.863c6.407-1.721 12.705 3.107 12.705 9.75v30.477c0 12.845 10.45 23.295 23.295 23.295s23.295-10.45 23.295-23.295v-48.37c0-4.56 3.076-8.568 7.481-9.749 6.407-1.719 12.705 3.106 12.705 9.749v86.493c0 12.845 10.45 23.295 23.295 23.295h7.223c12.845 0 23.295-10.45 23.295-23.295v-106.323c0-4.56 3.076-8.568 7.481-9.749 10.813-2.898 117.531-31.494 131.469-35.229 14.159-3.793 22.681-18.397 18.997-32.556-1.01-3.882-.695-2.796-.844-3.313zm-143.801-6.734c-11.104-6.411-19.047-16.763-22.365-29.148-3.319-12.385-1.616-25.32 4.795-36.425 7.016-12.153 18.728-20.459 32.456-23.129 16.443 26.193 30.06 54.044 40.708 83.284-14.88 13.011-37.131 16.079-55.594 5.418zm121.767 28.115-37.334 10.004c-2.344-9.596-5-19.145-7.934-28.532l37.564-10.065c6.156-1.646 12.604 1.992 14.369 8.119.596 2.069 1.167 4.151 1.697 6.186 1.617 6.209-2.134 12.619-8.362 14.288z"/><path d="m108.421 381.031c1.076 4.016 5.204 6.374 9.186 5.303l202.817-54.345c4.001-1.071 6.375-5.185 5.304-9.186-1.072-4.001-5.187-6.377-9.186-5.303l-202.817 54.345c-4.001 1.072-6.376 5.185-5.304 9.186z"/><path d="m226.022 122.538c-11.475 3.074-21.066 10.434-27.006 20.722s-7.518 22.274-4.443 33.749c6.349 23.695 30.793 37.795 54.471 31.448 11.475-3.074 21.066-10.434 27.006-20.722s7.518-22.273 4.443-33.749c-6.348-23.687-30.786-37.798-54.471-31.448zm37.037 57.698c-3.937 6.818-10.293 11.695-17.897 13.733-15.7 4.202-31.894-5.144-36.1-20.843-2.038-7.604-.992-15.548 2.944-22.366s10.293-11.695 17.897-13.733c15.795-4.229 31.918 5.237 36.1 20.843 2.039 7.604.993 15.547-2.944 22.366z"/><path d="m211.979 295.399 21.221 12.252c5.706 3.295 12.97 1.332 16.253-4.355l12.251-21.22c1.589-2.753 2.011-5.959 1.188-9.028-.823-3.071-2.792-5.637-5.543-7.225l-21.222-12.253c-5.681-3.278-12.972-1.323-16.251 4.356l-12.251 21.219c-1.59 2.752-2.012 5.959-1.189 9.029.822 3.07 2.791 5.637 5.543 7.225zm19.336-27.288 15.847 9.15-9.149 15.848-15.848-9.15z"/><circle cx="174.048" cy="332.378" r="7.5"/><circle cx="205.727" cy="233.2" r="7.5"/><circle cx="236.447" cy="230.96" r="7.5"/><circle cx="287.338" cy="302.022" r="7.5"/><circle cx="300.844" cy="206.018" r="7.5"/><circle cx="303.324" cy="165.672" r="7.5"/><path d="m370.921 276.242c-10.371-.001-19.494-7.018-22.186-17.064-1.59-5.935-.774-12.133 2.298-17.454 2.071-3.587.842-8.174-2.745-10.245-3.588-2.07-8.174-.843-10.245 2.745-5.075 8.79-6.424 19.031-3.797 28.837 4.446 16.592 19.527 28.181 36.674 28.182 4.136 0 7.5-3.351 7.5-7.499.001-4.143-3.357-7.502-7.499-7.502z"/><path d="m125.66 292.697c-4.001 1.071-6.375 5.185-5.304 9.186 1.076 4.016 5.204 6.374 9.186 5.303 21.959-5.884 35.037-28.535 29.153-50.494-1.206-4.501-3.144-8.728-5.76-12.564-2.334-3.421-7-4.307-10.422-1.971-3.422 2.333-4.305 6.999-1.971 10.422 1.663 2.438 2.896 5.129 3.664 7.996 3.744 13.969-4.577 28.379-18.546 32.122z"/></g></svg>