<svg id="Layer_1" enable-background="new 0 0 497 497" height="512" viewBox="0 0 497 497" width="512" xmlns="http://www.w3.org/2000/svg"><g><path d="m37.957 231.601c-14.681-23.489-24.934-58.123-3.795-80.573 21.054-22.36 53.103-11.784 78.387-4.091 22.745 6.921 51.317 10.343 66.786-7.71 14.971-17.472 9.04-46.279 27.089-61.679 21.798-18.599 60.959 1.111 80.3 14.121 61.081 41.091 114.611 91.939 159.223 155.074 16.753 23.709 41.075 67.878 21.868 86.285-13.493 12.931-37.542 2.878-71.996-10.5-14.289-5.548-35.894-10.644-48.635-2.121-14.361 9.607-16.977 28.291-16.627 43.418.589 25.475.245 62.706-39.391 63.234-83.293 1.112-230.998-159.92-253.209-195.458z" fill="#fff4db"/><g fill="#ffecbf"><path d="m445.947 246.744c-44.613-63.135-98.142-113.984-159.223-155.074-17.895-12.039-52.75-29.788-75.128-17.644 13.474 4.457 26.346 11.736 35.128 17.644 61.081 41.091 114.611 91.939 159.223 155.074 16.753 23.709 41.075 67.878 21.868 86.285-.368.353-.747.681-1.131 1 18.388 6.013 32.118 7.638 41.131-1 19.206-18.408-5.115-62.577-21.868-86.285z"/><path d="m307.184 320.408c-14.36 9.607-16.977 28.291-16.627 43.417.489 21.158.332 50.422-22.442 60.037 8.086 2.164 15.812 3.294 23.05 3.198 39.636-.528 39.98-37.759 39.391-63.234-.35-15.126 2.267-33.81 16.627-43.417.297-.198.603-.382.909-.566-13.556-4.185-30.302-6.53-40.908.565z"/></g><g><g fill="#f0a346"><path d="m392.176 141.577-37.318-37.517 95.779-96.288c10.307-10.362 27.022-10.362 37.329 0 10.303 10.358 10.303 27.148 0 37.506z"/><path d="m104.824 355.423 37.318 37.517-95.779 96.288c-10.307 10.362-27.022 10.362-37.329 0-10.303-10.358-10.303-27.148 0-37.506z"/></g><path d="m105.418 442.31-49.714-49.979c-11.345-11.406-11.345-29.895 0-41.301l294.772-296.34c11.35-11.411 29.756-11.411 41.106 0l49.714 49.979c11.345 11.406 11.345 29.895 0 41.301l-294.772 296.34c-11.35 11.41-29.756 11.41-41.106 0z" fill="#5974ad"/><path d="m441.296 104.669-49.714-49.979c-11.35-11.411-29.756-11.411-41.106 0l-3.447 3.465 46.267 46.513c11.345 11.406 11.345 29.895 0 41.301l-291.325 292.875 3.447 3.465c11.35 11.411 29.756 11.411 41.106 0l294.772-296.34c11.346-11.405 11.346-29.894 0-41.3z" fill="#4c6bad"/><path d="m397.465 136.259c-2.936-2.921-7.685-2.91-10.606.028l-118.797 119.43c-2.921 2.937-2.908 7.685.028 10.606 1.463 1.456 3.376 2.183 5.289 2.183 1.926 0 3.852-.737 5.317-2.211l118.797-119.429c2.921-2.937 2.908-7.685-.028-10.607z" fill="#3159ab"/></g></g></svg>