<svg id="Capa_1" enable-background="new 0 0 512 512" height="512" viewBox="0 0 512 512" width="512" xmlns="http://www.w3.org/2000/svg"><g><path d="m64.286 410.248c0 36.722 85.833 66.492 191.714 66.492s191.714-29.769 191.714-66.492v-148.398c0 36.722-85.833 66.492-191.714 66.492s-191.714-29.77-191.714-66.492z" fill="#b3e59f"/><path d="m407.714 302.505v87.743c0 36.722-85.833 66.492-191.714 66.492-52.634 0-100.314-7.357-134.958-19.267 29.99 23.147 97.046 39.267 174.958 39.267 105.881 0 191.714-29.769 191.714-66.492v-148.398c0 15.312-14.923 29.415-40 40.655z" fill="#95d6a4"/><path d="m28.797 287.509h-14.037c-4.009 0-7.259 3.25-7.259 7.259v36.608c0 4.009 3.25 7.26 7.26 7.26h14.037.072c3.899.003 7.087-3.093 7.087-6.992v-37.138c0-3.826-3.074-6.985-6.9-6.996-.087-.001-.174-.001-.26-.001z" fill="#4a80aa"/><path d="m483.203 287.509h14.037c4.009 0 7.259 3.25 7.259 7.259v36.608c0 4.009-3.25 7.26-7.26 7.26h-14.037c-.024 0-.048 0-.072 0-3.899.003-7.087-3.093-7.087-6.992v-37.138c0-3.826 3.074-6.985 6.9-6.996.087-.001.174-.001.26-.001z" fill="#4a80aa"/><path d="m126.121 64.449h-97.847c-7.292 0-13.203 5.911-13.203 13.203v55.941c0 7.292 5.911 13.203 13.203 13.203h98.453c2.191 0 3.968-1.776 3.968-3.968v-73.806c-.001-2.525-2.049-4.573-4.574-4.573z" fill="#f4fbff"/><path d="m104.224 111.008c-14.857 0-14.857-6-29.715-6-14.859 0-14.859 6-29.719 6s-14.859-6-29.719-6v28.585c0 7.292 5.911 13.203 13.203 13.203h98.453c2.191 0 3.968-1.776 3.968-3.968v-25.672c-7.984-3.936-16.969-6.148-26.471-6.148z" fill="#d80a61"/><path d="m454.794 67.528c4.879-8.378 2.021-19.127-6.376-23.974-8.396-4.848-19.134-1.949-23.95 6.466l-102.881 179.747c-3.582 6.258-10.099 10.176-17.293 10.657-15.262 1.02-29.751 9.387-37.973 23.628l-17.636 30.547c3.098.616 6.824 1.032 11.857 1.032 19.388 0 19.388-6.173 38.776-6.173 19.391 0 19.391 6.173 38.781 6.173 7.753 0 12.406-.987 16.438-2.171 1.102-9.176-.52-18.452-4.552-26.655-3.181-6.471-3.046-14.074.583-20.304z" fill="#ffc3ac"/><g fill="#78c2a4"><path d="m164.153 254.675c0 2.618 2.357 4.609 4.935 4.154 26.089-4.61 55.625-7.209 86.912-7.209 6.836 0 13.589.124 20.241.366 7.891-6.874 17.798-10.876 28.053-11.562 7.194-.481 13.711-4.399 17.293-10.657l16.079-28.092c-24.776-4.052-52.458-6.317-81.666-6.317-33.277 0-64.573 2.941-91.847 8.113z"/><path d="m372.399 209.012-21.831 37.488c-2.365 4.061-3.245 8.705-2.691 13.239 35.734 6.78 64.561 17.392 81.885 30.242 11.518-8.544 17.952-18.076 17.952-28.131 0-21.54-29.53-40.687-75.315-52.838z"/><path d="m124.701 269.661c3.563-1.162 5.994-4.458 5.994-8.206v-49.93c-40.672 12.193-66.408 30.216-66.408 50.324 0 10.054 6.434 19.587 17.953 28.131 10.363-7.688 24.845-14.575 42.461-20.319z"/></g><path d="m349.985 266.804c4.032 8.203 5.654 17.479 4.552 26.655-4.032 1.185-8.685 2.171-16.438 2.171-19.391 0-19.391-6.173-38.781-6.173-19.388 0-19.388 6.173-38.776 6.173-5.033 0-8.759-.416-11.857-1.032l17.636-30.547c2.697-4.671 6.069-8.711 9.92-12.066-6.652-.242-13.404-.366-20.241-.366-31.287 0-60.823 2.599-86.912 7.209-2.578.456-4.935-1.536-4.935-4.154v-83.738c0-23.596-13.637-44.006-33.459-53.781v144.299c0 3.748-2.43 7.044-5.994 8.206-17.636 5.751-32.132 12.648-42.499 20.347 30.535 22.676 96.876 38.388 173.799 38.388s143.264-15.712 173.799-38.388c-17.321-12.863-46.163-23.485-81.922-30.269.296 2.422 1.001 4.813 2.108 7.066z" fill="#da387d"/><path d="m365.5 263.526c3.095 8.942-.449 19.934-10.626 24.19.004 1.912-.107 3.83-.336 5.743-4.032 1.185-8.685 2.171-16.438 2.171-2.945 0-5.441-.143-7.627-.384-31.946 8.26-71.562 13.149-114.472 13.149-51.823 0-98.844-7.132-133.349-18.72-.151.11-.301.221-.45.331 30.535 22.676 96.876 38.388 173.799 38.388s143.264-15.712 173.799-38.388c-14.376-10.673-36.686-19.805-64.3-26.48z" fill="#d80a61"/><path d="m497.24 280.01c-16.255 0-14.289-.001-14.463.001-9.416.04-18.645 1.42-27.562 4.114v-22.275c0-23.36-25.277-43.583-71.463-57.427l18.264-31.362c2.084-3.579.872-8.171-2.707-10.256-3.579-2.083-8.17-.873-10.256 2.707l-23.058 39.596c-.052.086-.104.174-.153.262l-21.754 37.356c-4.854 8.334-5.166 18.572-.833 27.387 2.674 5.44 4.07 11.352 4.12 17.337-2.479.421-5.41.681-9.277.681-17.495 0-18.263-6.173-38.781-6.173-20.394 0-21.188 6.062-38.238 6.171l11.736-20.327c6.678-11.565 18.633-19.003 31.979-19.895 9.799-.654 18.511-6.043 23.302-14.414 157.005-274.313 69.956-122.225 102.881-179.749 1.332-2.326 3.491-3.992 6.079-4.69 2.59-.697 5.292-.344 7.612.995 2.322 1.341 3.979 3.506 4.669 6.097.688 2.59.325 5.291-1.024 7.607l-41.587 71.412c-2.084 3.579-.872 8.171 2.707 10.256 3.578 2.083 8.17.872 10.256-2.707l41.586-71.412c3.371-5.787 4.279-12.538 2.559-19.011-1.722-6.474-5.864-11.883-11.664-15.232-5.801-3.348-12.556-4.231-19.021-2.487-6.467 1.745-11.861 5.908-15.188 11.722l-84.234 147.17c-31.085-4.711-63.561-6.277-94.489-5.358-4.14.123-7.396 3.58-7.273 7.72s3.553 7.375 7.72 7.274c28.68-.855 58.164.511 86.032 4.359l-10.636 18.583c-2.29 4.001-6.509 6.58-11.284 6.898-11.145.744-21.584 4.811-30.122 11.454-33.951-1.06-69.031.863-102.019 6.383v-41.044c10.427-1.808 21.347-3.279 32.55-4.383 4.122-.406 7.134-4.077 6.728-8.199-.407-4.123-4.072-7.137-8.2-6.729-10.654 1.05-21.07 2.423-31.079 4.096v-23.58c0-24.282-12.704-46.196-33.458-58.264v-43.652c0-6.657-5.416-12.073-12.074-12.073h-23.08v-18.935c0-5.653-4.6-10.253-10.253-10.253h-19.908c-16.305 0-29.629 13.007-30.143 29.188h-14.466c-11.416 0-20.703 9.287-20.703 20.702v55.941c0 11.416 9.287 20.703 20.703 20.703h38.843c4.142 0 7.5-3.357 7.5-7.5s-3.358-7.5-7.5-7.5h-38.843c-3.145 0-5.703-2.559-5.703-5.703v-20.244c5.462 1.448 9.947 5.159 22.219 5.159 15.944 0 17.486-6 29.719-6 12.276 0 13.701 6 29.715 6 6.585 0 12.947 1.187 18.971 3.532v17.256h-21.078c-4.142 0-7.5 3.357-7.5 7.5s3.358 7.5 7.5 7.5h21.078v51.706c-42.885 13.815-66.409 33.544-66.409 55.847v22.275c-8.927-2.697-18.168-4.077-27.595-4.114-.437-.005-.113-.001-14.431-.001-8.138.002-14.759 6.623-14.759 14.761v36.608c0 8.139 6.621 14.76 14.76 14.76h14.103c9.672.008 19.089 1.679 27.923 4.876v59.235c0 21.202 21.732 40.416 61.194 54.103 36.98 12.825 85.997 19.889 138.02 19.889s101.04-7.063 138.021-19.889c39.462-13.687 61.194-32.9 61.194-54.103v-59.235c8.834-3.198 18.25-4.868 27.922-4.876 2.898-.002-7.331 0 14.104 0 8.139 0 14.76-6.621 14.76-14.76v-36.608c-.001-8.138-6.622-14.759-14.761-14.759zm-121.266-62.232c39.783 11.412 64.241 28.092 64.241 44.071 0 6.22-3.76 12.599-10.807 18.757-17.303-11.283-42.554-20.522-73.745-26.97.306-1.168.768-2.299 1.387-3.362zm-219.321-46.84v83.737c0 9.41 3.665 18.257 10.318 24.911l8.326 8.325c2.929 2.928 7.678 2.929 10.606-.001 2.929-2.929 2.929-7.678 0-10.606l-8.326-8.325c-1.077-1.077-2.018-2.255-2.814-3.511 28.325-4.695 57.507-6.559 85.753-6.329-.574.94-.354.579-15.474 26.769-.535-.166-1.07-.336-1.614-.509-5.064-1.612-10.805-3.439-21.664-3.439-4.142 0-7.5 3.357-7.5 7.5s3.358 7.5 7.5 7.5c17.372 0 18.399 6.173 38.777 6.173 20.535 0 21.191-6.173 38.775-6.173 17.495 0 18.263 6.173 38.781 6.173 20.262 0 21.46-6.173 38.782-6.173 4.143 0 7.5-3.357 7.5-7.5s-3.357-7.5-7.5-7.5c-6.344 0-10.941.623-14.677 1.463-.37-4.64-1.329-9.218-2.862-13.635 22.976 5.233 42.412 12.168 56.538 20.156-30.637 17.29-88.056 30.899-159.88 30.899-71.817 0-129.232-13.606-159.872-30.894 7.532-4.254 16.628-8.252 26.915-11.817-.192 1.608-.566 3.189-1.119 4.723-1.405 3.896.615 8.194 4.512 9.6 3.897 1.404 8.195-.615 9.6-4.512 1.432-3.973 2.158-8.128 2.158-12.351 0-1.898 0-26.66 0-144.633 11.612 9.812 18.461 24.257 18.461 39.979zm-83.771-128.177h15.159v14.188h-30.287c.502-7.908 7.096-14.188 15.128-14.188zm1.627 54.747c-15.92 0-17.508 6-29.719 6-10.87 0-11.614-3.801-22.219-5.457v-20.4c0-3.145 2.558-5.702 5.703-5.702h94.921v34.256c-6.112-1.793-12.458-2.698-18.971-2.698-12.277.001-13.702-5.999-29.715-5.999zm48.685 124.306v39.652c-.005.479-.333.906-.818 1.064-16.021 5.225-29.37 11.293-39.782 18.077-7.047-6.158-10.807-12.537-10.807-18.757-.001-14.194 19.015-28.868 51.407-40.036zm-108.194 73.196h13.456v36.127h-13.456zm28.444 37.219c.008-.194.012-.389.012-.584v-35.325c4.527.82 8.977 2.025 13.33 3.608v35.285c-4.352-1.303-8.808-2.302-13.342-2.984zm396.771 78.019c0 27.902-75.654 58.991-184.215 58.991-108.56 0-184.214-31.089-184.214-58.991v-51.984c5.392 3.329 10.434 7.311 15.027 11.904 2.93 2.929 7.678 2.928 10.606 0 2.929-2.93 2.929-7.678 0-10.607-7.61-7.609-16.262-13.8-25.634-18.438 0-14.471 0-35.181 0-50.121 12.428 11.327 30.289 19.434 46.194 24.95 36.98 12.826 85.997 19.89 138.02 19.89s101.04-7.063 138.021-19.89c15.897-5.513 33.764-13.621 46.194-24.95v50.121c-9.373 4.638-18.025 10.828-25.635 18.438-2.929 2.93-2.929 7.678 0 10.607 2.931 2.929 7.678 2.928 10.607 0 4.593-4.593 9.635-8.575 15.027-11.904v51.984zm15-110.32c4.352-1.584 8.802-2.788 13.329-3.608 0 40.588-.007 35.447.012 35.908-4.534.682-8.99 1.681-13.341 2.985zm41.785 31.209h-13.456v-36.127h13.456z"/><path d="m230.351 76.22c0-4.143-3.358-7.5-7.5-7.5s-7.5 3.357-7.5 7.5c0 18.551-12 19.798-12 43.341 0 12.773 3.687 19.431 6.939 25.305 2.828 5.105 5.061 9.14 5.061 18.036 0 4.143 3.358 7.5 7.5 7.5s7.5-3.357 7.5-7.5c0-23.501-12-24.859-12-43.341 0-8.897 2.233-12.931 5.062-18.038 3.252-5.874 6.938-12.531 6.938-25.303z"/><path d="m269.5 76.22c0-4.143-3.357-7.5-7.5-7.5s-7.5 3.357-7.5 7.5c0 18.551-12 19.798-12 43.341 0 12.773 3.687 19.431 6.939 25.305 2.828 5.105 5.061 9.14 5.061 18.036 0 4.143 3.357 7.5 7.5 7.5s7.5-3.357 7.5-7.5c0-23.501-12-24.859-12-43.341 0-8.897 2.233-12.931 5.062-18.038 3.251-5.874 6.938-12.531 6.938-25.303z"/><path d="m308.648 76.22c0-4.143-3.357-7.5-7.5-7.5s-7.5 3.357-7.5 7.5c0 18.551-12 19.712-12 43.341 0 12.773 3.687 19.431 6.938 25.305 2.828 5.105 5.062 9.14 5.062 18.036 0 4.143 3.357 7.5 7.5 7.5s7.5-3.357 7.5-7.5c0-23.501-12-24.859-12-43.341 0-8.897 2.233-12.931 5.062-18.038 3.252-5.874 6.938-12.531 6.938-25.303z"/></g></svg>