<svg id="Capa_1" enable-background="new 0 0 512 512" height="512" viewBox="0 0 512 512" width="512" xmlns="http://www.w3.org/2000/svg"><g><path d="m273.872 32.058c-5.441 8.81-23.138 18.795-45.441 24.771-22.28 5.97-42.581 6.176-51.711 1.283-76.38 38.94-117.094 109.456-112.009 128.434 9.504 35.471 100.118 42.011 202.391 14.607s177.477-78.374 167.973-113.846c-5.062-18.888-75.343-59.791-161.203-55.249z" fill="#98b9d3"/><path d="m64.286 429.318c0 36.722 85.833 66.492 191.714 66.492s191.714-29.769 191.714-66.492v-202.925c0 36.722-85.833 66.492-191.714 66.492s-191.714-29.769-191.714-66.492z" fill="#98b9d3"/><path d="m435.075 87.308c-2.768-10.332-25.052-27.251-58.725-39.716 10.685 7.314 17.298 14.391 18.725 19.716 9.505 35.471-65.699 86.442-167.973 113.846-62.497 16.746-120.64 20.816-158.582 13.355 20.284 28.338 104.499 31.854 198.582 6.644 102.273-27.404 177.477-78.374 167.973-113.845z" fill="#81a7c6"/><path d="m407.714 267.048v142.27c0 36.722-85.833 66.492-191.714 66.492-52.634 0-100.314-7.357-134.958-19.267 29.99 23.148 97.046 39.267 174.958 39.267 105.881 0 191.714-29.769 191.714-66.492v-202.925c0 15.312-14.923 29.415-40 40.655z" fill="#81a7c6"/><g fill="#4a80aa"><path d="m28.797 252.053h-14.037c-4.009 0-7.259 3.25-7.259 7.259v36.608c0 4.009 3.25 7.26 7.26 7.26h14.037.072c3.899.003 7.087-3.093 7.087-6.992v-37.138c0-3.826-3.074-6.985-6.9-6.996-.087-.001-.174-.001-.26-.001z"/><path d="m483.203 252.053h14.037c4.009 0 7.259 3.25 7.259 7.259v36.608c0 4.009-3.25 7.26-7.26 7.26h-14.037c-.024 0-.048 0-.072 0-3.899.003-7.087-3.093-7.087-6.992v-37.138c0-3.826 3.074-6.985 6.9-6.996.087-.001.174-.001.26-.001z"/><ellipse cx="223.62" cy="38.877" rx="53.587" ry="18.585" transform="matrix(.966 -.259 .259 .966 -2.443 59.202)"/></g><path d="m228.431 56.829c-9.589 2.569-18.811 4.071-26.934 4.558l4.699 17.537c1.348 5.032 14.202 5.96 28.711 2.072s25.176-11.118 23.828-16.15l-4.699-17.537c-7.279 3.64-16.017 6.951-25.605 9.52z" fill="#407093"/><path d="m76.935 202.592c-8.171 7.39-12.649 15.414-12.649 23.801 0 9.896 6.234 19.288 17.414 27.728 1.555-5.175 4.499-10.153 10.071-14.161 7.763-5.585 21.366-4.151 33.351-8.659 7.064-2.657 13.608-8.989 21.278-13.235-30.894-.416-55.426-5.673-69.465-15.474z" fill="#5c90b9"/><path d="m354.255 169.286c-25.12 12.158-54.781 23.193-87.153 31.867-9.558 2.561-19.013 4.825-28.311 6.798 5.685 1.698 11.446 3.494 17.209 3.494 11.474 0 22.943-7.121 33.82-6.409 11.568.758 21.981 9.358 32.651 10.845 11.664 1.625 24.091-3.706 34.396-1.309 11.788 2.742 20.418 13.12 30.007 16.726 11.986 4.508 25.59 3.074 33.354 8.659 5.573 4.009 8.518 8.988 10.073 14.164 11.18-8.44 17.414-17.831 17.414-27.728-.001-24.266-37.481-45.496-93.46-57.107z" fill="#5c90b9"/><path d="m420.227 239.957c-7.764-5.585-21.368-4.151-33.354-8.659-9.589-3.606-18.219-13.984-30.007-16.726-10.305-2.397-22.732 2.934-34.396 1.309-10.67-1.487-21.083-10.087-32.651-10.845-10.877-.713-22.346 6.409-33.82 6.409-5.762 0-11.523-1.796-17.209-3.494-29.667 6.293-62.196 10.52-92.392 10.114-7.669 4.247-14.214 10.578-21.278 13.235-11.985 4.508-25.589 3.074-33.351 8.659-5.572 4.008-8.516 8.986-10.071 14.161 30.305 22.878 96.954 38.764 174.301 38.764 77.346 0 143.995-15.886 174.3-38.764-1.554-5.175-4.499-10.154-10.072-14.163z" fill="#fffbe4"/><path d="m420.227 239.957c-7.764-5.585-21.368-4.151-33.354-8.659-.459-.173-.915-.361-1.37-.563-.182 4.244-2.445 8.417-6.626 10.746-33.837 18.855-94.132 31.404-162.877 31.404-52.263 0-99.642-7.253-134.224-19.015-.026.084-.052.167-.077.251 30.305 22.878 96.954 38.764 174.301 38.764 77.346 0 143.995-15.886 174.3-38.764-1.555-5.176-4.5-10.155-10.073-14.164z" fill="#fff9d0"/><path d="m14.76 310.679c19.369 0 12.604.001 14.104.001 9.672.008 19.088 1.679 27.922 4.876v41.491c0 4.143 3.357 7.5 7.5 7.5s7.5-3.357 7.5-7.5v-34.24c5.392 3.329 10.434 7.311 15.027 11.904 2.931 2.929 7.678 2.928 10.607 0 2.929-2.93 2.929-7.678 0-10.607-7.61-7.61-16.262-13.8-25.635-18.438 0-14.471 0-35.18 0-50.121 12.454 11.351 30.356 19.458 46.194 24.95 36.98 12.826 85.997 19.89 138.021 19.89s101.04-7.063 138.021-19.89c15.853-5.498 33.745-13.604 46.194-24.95v50.121c-9.373 4.638-18.025 10.828-25.635 18.438-2.929 2.93-2.929 7.678 0 10.607 2.931 2.929 7.678 2.928 10.607 0 4.593-4.593 9.635-8.575 15.027-11.904v106.511c0 27.902-75.654 58.991-184.215 58.991s-184.214-31.088-184.214-58.99v-37.271c0-4.143-3.357-7.5-7.5-7.5s-7.5 3.357-7.5 7.5v37.271c0 21.202 21.732 40.416 61.194 54.103 36.981 12.825 85.998 19.888 138.021 19.888s101.04-7.063 138.021-19.889c39.462-13.687 61.194-32.9 61.194-54.103v-113.762c8.834-3.198 18.25-4.868 27.922-4.876 1.628 0-5.535-.001 14.104-.001 8.139 0 14.76-6.621 14.76-14.759v-36.608c0-8.139-6.621-14.76-14.76-14.76l-14.318.001c-9.192.023-18.514 1.338-27.707 4.115v-22.275c0-11.004-5.994-27.337-34.549-42.657-3.652-1.962-8.196-.586-10.154 3.062-1.959 3.65-.588 8.196 3.062 10.154 17.18 9.218 26.641 19.673 26.641 29.44 0 5.168-2.596 10.444-7.514 15.613-2.175-3.103-4.879-5.823-8.094-8.136-9.769-7.028-23.876-5.372-35.093-9.591-8.22-3.092-17.409-13.862-30.948-17.011-12.119-2.824-24.803 2.621-35.06 1.185-6.836-.952-14.946-6.286-24.064-9.121 19.909-6.563 38.704-14.04 55.785-22.175 9.407 2.021 18.324 4.337 26.538 6.894 3.923 1.223 8.151-.947 9.391-4.932 1.231-3.955-.977-8.159-4.932-9.391-3.419-1.064-6.949-2.087-10.577-3.067 7.694-4.275 14.908-8.684 21.567-13.198 34.574-23.434 50.594-47.618 45.105-68.097-4.978-18.579-46.716-42.708-93.043-53.788-4.029-.967-8.075 1.521-9.038 5.55-.964 4.028 1.521 8.075 5.549 9.038 21.737 5.199 42.664 13.34 58.924 22.921 16.643 9.808 22.4 17.476 23.12 20.161 3.599 13.43-10.993 32.794-39.033 51.798-58.155 39.417-160.491 69.502-237.946 69.502-44.983 0-74.658-10.132-78.896-25.944-1.502-5.605 5.139-25.444 24.16-50.224 12.306-16.032 38.98-45.844 80.943-67.996 5.206 1.832 11.651 2.654 18.725 2.66l3.167 11.82c1.98 7.391 9.943 10.049 19.371 10.049 5.971 0 12.53-1.067 18.525-2.674 15.459-4.143 32.364-13.263 29.131-25.335l-3.167-11.82c6.138-3.551 11.318-7.495 14.912-11.696 10.865-.417 21.895-.106 32.842.929 4.151.388 7.785-2.658 8.173-6.761.39-4.124-2.638-7.783-6.761-8.173-9.684-.915-19.43-1.296-29.087-1.14-.072-.392-.16-.784-.265-1.177-1.538-5.745-7.171-12.866-25.266-14.172-11.503-.831-25.878.87-40.49 4.785-28.418 7.613-56.893 23.693-52.254 41.006v.001c.109.405.233.801.372 1.187-31.125 17.363-59.554 41.736-80.77 69.373-19.676 25.632-30.176 50.455-26.75 63.24 1.451 5.414 4.333 10.301 8.558 14.617-6.137 7.352-9.24 15.158-9.24 23.289v22.275c-9.193-2.777-18.515-4.092-27.707-4.115-.2 0-14.138-.001-14.318-.001-8.139 0-14.76 6.621-14.76 14.76v36.608c-.001 8.14 6.62 14.761 14.759 14.761zm482.24-15h-13.456v-36.127h13.456zm-28.456-34.816v35.325c0 .195.004.39.012.584-4.534.682-8.99 1.681-13.341 2.985v-35.285c4.352-1.584 8.802-2.788 13.329-3.609zm-217.494-195.716c-1.811 1.857-7.578 5.79-18.085 8.605-10.507 2.816-17.469 2.293-19.965 1.59l-1.975-7.372c12.741-1.7 26.148-5.29 38.05-10.195zm-30.298-36.978c28.003-7.504 44.816-3.998 47.322-1.204-.154.733-.463.786-.986 1.892-7.102 9.651-28.992 17.617-40.599 20.728-11.547 3.093-34.48 7.156-45.499 2.36-1.029-.711-1.306-.579-1.824-1.156.774-3.673 13.581-15.117 41.586-22.62zm-142.625 183.865c11.032 6.029 26.048 10.165 44.561 12.166-.069.027-.139.055-.208.081-11.216 4.218-25.324 2.565-35.092 9.591-3.214 2.313-5.916 5.032-8.09 8.134-4.918-5.168-7.513-10.445-7.513-15.612 0-4.725 2.13-9.54 6.342-14.36zm243.309 11.276c12.747 1.775 25.482-3.353 33.731-1.433 9.888 2.301 18.276 12.384 29.066 16.44 12.327 4.637 26.085 3.75 31.613 7.729 2.147 1.544 3.83 3.305 5.119 5.379-29.073 18.718-88.953 33.96-164.965 33.96-76.014 0-135.894-15.243-164.966-33.961 1.288-2.073 2.97-3.833 5.115-5.377 5.455-3.924 19.464-3.158 31.612-7.728 7.639-2.872 13.905-8.643 20.615-12.729 29.779.211 61.29-3.894 90.1-9.906 5.565 1.657 11.323 3.26 17.523 3.26 12.763 0 24.424-7.018 33.33-6.424 9.679.633 20.087 9.115 32.107 10.79zm-264.651 76.447c-4.351-1.304-8.807-2.302-13.341-2.985.008-.194.012-.389.012-.584v-35.325c4.527.82 8.977 2.025 13.329 3.608zm-41.785-40.205h13.456v36.127h-13.456z"/><path d="m183.085 239.976-15.035 2.753c-4.074.746-6.772 4.653-6.026 8.728.749 4.095 4.679 6.772 8.728 6.026l15.035-2.753c4.074-.746 6.772-4.653 6.026-8.728-.747-4.075-4.661-6.775-8.728-6.026z"/><path d="m260.801 260.636-14.823-7.874c-3.657-1.943-8.2-.554-10.142 3.104-1.943 3.658-.554 8.199 3.104 10.142l14.823 7.874c3.665 1.947 8.202.548 10.142-3.104 1.944-3.658.554-8.199-3.104-10.142z"/><path d="m270.826 236.371c.599 4.082 4.391 6.934 8.509 6.333l15.883-2.329c4.099-.602 6.934-4.411 6.333-8.509-.601-4.099-4.422-6.926-8.509-6.333l-15.883 2.329c-4.098.601-6.933 4.411-6.333 8.509z"/><path d="m305.889 267.146 13.376 6.016c3.785 1.702 8.221.008 9.916-3.764 1.699-3.777.014-8.218-3.764-9.916l-13.376-6.016c-3.774-1.697-8.218-.016-9.916 3.764-1.699 3.777-.014 8.218 3.764 9.916z"/><path d="m347.489 251.213 14.824-2.117c4.101-.586 6.95-4.385 6.364-8.485-.586-4.102-4.394-6.943-8.485-6.364l-14.824 2.117c-4.101.586-6.95 4.385-6.364 8.485.581 4.07 4.346 6.949 8.485 6.364z"/></g></svg>