<?xml version="1.0" encoding="iso-8859-1"?>
<!-- Generator: Adobe Illustrator 19.0.0, SVG Export Plug-In . SVG Version: 6.00 Build 0)  -->
<svg version="1.1" id="Capa_1" xmlns="http://www.w3.org/2000/svg" xmlns:xlink="http://www.w3.org/1999/xlink" x="0px" y="0px"
	 viewBox="0 0 512.002 512.002" style="enable-background:new 0 0 512.002 512.002;" xml:space="preserve">
<circle style="fill:#F7F0E6;" cx="255.999" cy="256.04" r="248.46"/>
<circle style="fill:#FF9B4B;" cx="255.999" cy="256.04" r="205.62"/>
<g>
	<circle style="fill:#FFB45A;" cx="144.619" cy="290.31" r="42.838"/>
	<circle style="fill:#FFB45A;" cx="315.969" cy="290.31" r="34.27"/>
	<circle style="fill:#FFB45A;" cx="243.149" cy="174.65" r="29.987"/>
	<circle style="fill:#FFB45A;" cx="273.139" cy="350.28" r="21.419"/>
	<circle style="fill:#FFB45A;" cx="311.689" cy="148.94" r="21.419"/>
</g>
<path style="fill:#FF784B;" d="M256,50.416c-62.598,0-118.622,28.008-156.336,72.134c35.926-30.705,82.525-49.287,133.489-49.287
	c113.563,0,205.624,92.061,205.624,205.624c0,50.965-18.582,97.563-49.287,133.489c44.126-37.714,72.134-93.738,72.134-156.336
	C461.623,142.476,369.562,50.416,256,50.416z"/>
<path style="fill:#EEE2D4;" d="M151.679,217.026c11.411-30.5,35.809-54.62,66.467-65.706c-2.372-1.816-5.3-2.882-9.26-3.561
	c-2.052-0.352-4.034-0.838-6.02-1.074c-22.298-2.65-43.408-11.418-59.285-27.296L36.788,12.597
	C29.436,5.235,17.034,5.97,10.69,14.801C5.705,21.737,7.191,31.46,13.23,37.5l106.12,106.119
	c15.877,15.878,24.646,36.988,27.296,59.286c0.235,1.986,0.591,3.995,1.074,6.02C148.193,210.916,148.903,213.93,151.679,217.026z"
	/>
<path d="M436.992,75.047C388.647,26.702,324.37,0.077,256,0.077c-59.431,0-117.011,20.702-162.734,58.391L42.019,7.221
	c-5.117-5.123-12.19-7.729-19.422-7.139C15.377,0.668,8.789,4.41,4.522,10.35c-6.923,9.637-5.492,23.557,3.33,32.378l50.577,50.577
	C20.732,139.038,0.039,196.574,0.039,256.04c0,68.37,26.625,132.647,74.97,180.992s112.622,74.97,180.992,74.97
	s132.647-26.625,180.992-74.97s74.97-112.622,74.97-180.992S485.337,123.392,436.992,75.047z M16.704,19.101
	c1.718-2.391,4.241-3.836,7.105-4.068c2.83-0.233,5.597,0.788,7.6,2.792l99.892,99.892c17.916,17.916,41.49,29.379,68.59,33.501
	c-20.669,11.073-37.655,28.044-48.717,48.685c-4.126-27.089-15.587-50.652-33.497-68.562l-99.219-99.22
	C14.833,28.497,14.063,22.778,16.704,19.101z M107.07,141.946c17.437,17.437,27.919,41.194,30.312,68.703
	c0.186,2.142,0.476,4.313,0.861,6.453c0.587,3.262,1.438,6.513,2.524,9.667c-0.445,1.76-0.866,3.53-1.232,5.32
	c-0.831,4.058,1.786,8.021,5.844,8.851c0.507,0.104,1.013,0.154,1.511,0.154c3.488,0,6.613-2.447,7.34-5.998
	c8.172-39.936,39.158-71.503,78.94-80.421c4.042-0.906,6.584-4.917,5.678-8.959s-4.92-6.585-8.959-5.678
	c-1.067,0.239-2.122,0.507-3.177,0.774c-3.155-1.084-6.387-1.941-9.649-2.528c-2.14-0.385-4.312-0.675-6.453-0.861
	c-27.509-2.394-51.266-12.875-68.703-30.313l-7.495-7.495c34.621-26.925,77.565-41.699,121.587-41.699
	c109.246,0,198.124,88.878,198.124,198.124s-88.878,198.124-198.124,198.124S57.876,365.285,57.876,256.039
	c0-44.059,14.766-86.953,41.7-121.587L107.07,141.946z M426.385,426.425c-45.512,45.512-106.022,70.576-170.386,70.576
	s-124.874-25.064-170.386-70.576S15.038,320.402,15.038,256.039c0-55.497,19.152-109.202,54.055-152.07l19.798,19.798
	c-29.709,37.513-46.015,84.251-46.015,132.271c0,117.517,95.607,213.124,213.124,213.124s213.124-95.607,213.124-213.124
	S373.516,42.916,256,42.916c-47.981,0-94.778,16.311-132.276,46.011l-19.798-19.798C146.785,34.233,200.534,15.078,256,15.078
	c64.363,0,124.874,25.064,170.386,70.576s70.576,106.022,70.576,170.386S471.897,380.913,426.385,426.425z"/>
<path d="M193.14,209.895c1.384,1.109,3.04,1.648,4.685,1.648c2.198,0,4.376-0.962,5.857-2.811
	c14.733-18.385,36.642-29.024,60.109-29.189c4.142-0.029,7.476-3.411,7.447-7.553c-0.029-4.124-3.381-7.447-7.499-7.447
	c-0.018,0-0.036,0-0.054,0c-28.003,0.197-54.14,12.885-71.709,34.81C189.387,202.585,189.907,207.305,193.14,209.895z"/>
<path d="M338.005,327.467c-10.27-8.854-20.702-15.63-30.79-22.185c-20.137-13.083-39.157-25.439-53.11-52.665
	c-1.889-3.686-6.407-5.142-10.095-3.253c-3.686,1.889-5.143,6.409-3.253,10.095c15.776,30.783,37.387,44.823,58.287,58.401
	c9.669,6.282,19.667,12.777,29.167,20.967c11.825,10.193,16.368,23.264,12.154,34.962c-3.405,9.452-11.977,15.929-21.33,16.116
	c-4.142,0.083-7.432,3.507-7.349,7.648c0.082,4.09,3.423,7.35,7.496,7.35c0.051,0,0.102,0,0.153-0.001
	c15.766-0.315,29.561-10.533,35.142-26.03C360.881,361.097,354.724,341.88,338.005,327.467z"/>
<path d="M310.766,284.582c1.274,0.843,2.71,1.246,4.131,1.246c2.433,0,4.819-1.182,6.262-3.363
	c2.285-3.455,1.337-8.108-2.118-10.393c-14.107-9.331-25.6-17.84-34.438-35.083c-1.889-3.687-6.41-5.142-10.095-3.253
	c-3.686,1.889-5.143,6.409-3.253,10.095C281.735,264.279,295.349,274.384,310.766,284.582z"/>
<path d="M288.545,334.021c-21.944-14.255-46.815-30.412-64.937-65.773c-3.03-5.911-3.756-12.695-2.045-19.104
	c1.069-4.002-1.309-8.113-5.311-9.181c-4.003-1.071-8.113,1.309-9.181,5.311c-2.672,10.005-1.539,20.595,3.188,29.816
	c19.945,38.92,46.598,56.234,70.114,71.511c1.262,0.82,2.678,1.211,4.079,1.211c2.454,0,4.859-1.204,6.296-3.415
	C293.005,340.923,292.019,336.277,288.545,334.021z"/>
<path d="M360.381,301.508c-3.845-3.313-7.855-6.515-12.261-9.79c-3.326-2.471-8.023-1.778-10.494,1.545
	c-2.471,3.325-1.779,8.023,1.545,10.494c4.114,3.057,7.848,6.039,11.417,9.114c1.417,1.221,3.159,1.818,4.893,1.818
	c2.107,0,4.202-0.883,5.685-2.604C363.871,308.948,363.519,304.213,360.381,301.508z"/>
<path d="M96.226,336.501c14.691,29.117,37.075,53.695,64.733,71.076c28.435,17.87,61.299,27.315,95.041,27.315
	c4.142,0,7.5-3.358,7.5-7.5s-3.358-7.5-7.5-7.5c-30.914,0-61.018-8.65-87.059-25.015c-25.347-15.929-45.861-38.452-59.323-65.133
	c-4.495-8.908-4.837-20.115-0.895-29.247c2.625-6.08,8.381-14.107,20.896-17.82c3.971-1.178,6.235-5.353,5.057-9.324
	c-1.179-3.971-5.35-6.234-9.324-5.057c-14.101,4.184-24.897,13.508-30.401,26.255C89.208,307.855,89.685,323.537,96.226,336.501z"/>
<path d="M129.412,309.271c-3.724,1.814-5.271,6.304-3.457,10.028c8.913,18.288,21.915,34.857,37.602,47.914
	c1.402,1.167,3.103,1.736,4.794,1.736c2.15,0,4.285-0.92,5.768-2.702c2.65-3.184,2.218-7.913-0.966-10.563
	c-14.067-11.709-25.725-26.563-33.714-42.957C137.625,309.004,133.136,307.458,129.412,309.271z"/>
<path d="M203.798,374.68c-3.791-1.673-8.218,0.048-9.888,3.838c-1.671,3.791,0.048,8.217,3.838,9.888
	c4.262,1.879,8.667,3.568,13.091,5.021c0.777,0.255,1.566,0.376,2.342,0.376c3.152,0,6.086-2.003,7.124-5.161
	c1.292-3.936-0.85-8.173-4.785-9.466C211.559,377.875,207.615,376.362,203.798,374.68z"/>
<path d="M351.86,123.138c21.264,15.366,38.734,35.835,50.521,59.196c1.319,2.615,3.96,4.123,6.702,4.123
	c1.136,0,2.289-0.259,3.373-0.806c3.698-1.866,5.184-6.376,3.317-10.074c-12.863-25.495-31.926-47.832-55.127-64.597
	c-3.358-2.426-8.046-1.67-10.472,1.687C347.748,116.024,348.503,120.712,351.86,123.138z"/>
<path d="M309.375,101.074c4.867,1.676,9.711,3.607,14.398,5.74c1.007,0.458,2.063,0.675,3.102,0.675c2.85,0,5.574-1.633,6.831-4.396
	c1.715-3.771,0.049-8.217-3.721-9.933c-5.12-2.329-10.41-4.438-15.726-6.269c-3.918-1.348-8.185,0.732-9.534,4.649
	S305.459,99.725,309.375,101.074z"/>
<path d="M256,126.457c23.188,0,46.012,6.214,66.004,17.97c19.458,11.442,35.427,27.594,46.18,46.709
	c2.054,3.651,1.514,8.455-1.313,11.681c-2.807,3.203-7.152,3.847-12.235,1.814c-3.849-1.54-8.211,0.332-9.749,4.178
	c-1.539,3.846,0.332,8.211,4.178,9.749c3.791,1.517,7.552,2.26,11.148,2.26c6.941,0,13.259-2.774,17.939-8.117
	c7.056-8.054,8.304-19.675,3.104-28.919c-12.05-21.422-29.91-39.502-51.65-52.286c-22.294-13.11-47.748-20.04-73.607-20.04
	c-4.142,0-7.5,3.358-7.5,7.5S251.857,126.457,256,126.457z"/>
<g>
</g>
<g>
</g>
<g>
</g>
<g>
</g>
<g>
</g>
<g>
</g>
<g>
</g>
<g>
</g>
<g>
</g>
<g>
</g>
<g>
</g>
<g>
</g>
<g>
</g>
<g>
</g>
<g>
</g>
</svg>
