<svg id="Capa_1" enable-background="new 0 0 512 512" height="512" viewBox="0 0 512 512" width="512" xmlns="http://www.w3.org/2000/svg"><g><path d="m260.449 114.141 59.288 25.971 64.164-44.685 14.107-52.648c1.887-7.041-2.292-14.279-9.333-16.166l-97.631-26.16c-7.041-1.887-14.279 2.292-16.166 9.333l-18.878 70.456s4.422 33.786 4.449 33.899z" fill="#f4fbff"/><path d="m388.675 26.613-31.433-8.422c.056 1.31-.083 2.651-.441 3.985l-6.116 22.825c-5.116 19.095-17.609 35.375-34.729 45.26l-30.302 17.495 34.082 32.356s64.164-44.685 64.164-44.685l14.107-52.648c1.888-7.041-2.291-14.279-9.332-16.166z" fill="#e4f6ff"/><path d="m128.099 95.427s64.165 44.685 64.164 44.685l71.104-32.356c-.027-.113-.056-.225-.086-.338l-26.16-97.631c-1.887-7.041-9.124-11.22-16.166-9.333l-97.631 26.16c-7.041 1.887-11.22 9.124-9.333 16.166z" fill="#f4fbff"/><path d="m263.282 107.417-26.16-97.631c-1.887-7.041-9.124-11.22-16.166-9.333l-20.547 5.506 10.378 38.729c6.258 23.355-8.405 42.464-32.584 42.464h-13.947c-7.29 0-13.199 5.91-13.199 13.199v8.33l41.207 31.43 71.104-32.356c-.028-.112-.056-.225-.086-.338z" fill="#e4f6ff"/><path d="m468.696 261.583-212.696-26.354-212.696 26.354c0 88.595 54.168 164.539 131.191 196.52 3.957 1.643 6.114 5.929 5.034 10.075l-9.51 36.508c-.964 3.701 1.829 7.315 5.653 7.315h160.654c3.825 0 6.618-3.614 5.654-7.315l-9.51-36.508c-1.08-4.146 1.077-8.432 5.034-10.075 77.024-31.982 131.192-107.925 131.192-196.52z" fill="#75cef9"/><g fill="#f4fbff"><path d="m34.391 188.519 35.258 20.356h84.942l35.902-62.183c3.645-6.313 1.482-14.386-4.831-18.031l-87.534-50.538c-6.313-3.645-14.386-1.482-18.031 4.831l-50.537 87.534c-3.645 6.313-1.482 14.386 4.831 18.031z"/><path d="m319.737 208.875v-87.92c0-7.29-5.91-13.199-13.199-13.199h-101.075c-7.29 0-13.199 5.909-13.199 13.199v87.92z"/><path d="m357.409 208.875h84.942l35.258-20.356c6.313-3.645 8.476-11.717 4.832-18.031l-50.538-87.533c-3.645-6.313-11.717-8.476-18.031-4.831l-87.533 50.537c-6.313 3.645-8.476 11.717-4.831 18.031z"/></g><path d="m185.661 128.661-87.533-50.538c-2.635-1.521-5.577-2.03-8.375-1.648l54.702 31.582c6.313 3.645 8.476 11.717 4.831 18.03l-19.55 33.861c-10.119 17.526-28.819 28.322-49.056 28.322h-46.698c.135.084.271.167.41.247l35.258 20.356 43.473 18.156 41.469-18.156 35.902-62.183c3.644-6.312 1.48-14.384-4.833-18.029z" fill="#e4f6ff"/><path d="m306.537 107.755h-28.008v52.467c0 15.491-12.558 28.049-28.049 28.049h-58.217v20.604l63.737 26.354 63.737-26.354v-87.92c0-7.29-5.91-13.2-13.2-13.2z" fill="#e4f6ff"/><path d="m482.44 170.488-50.537-87.533c-3.645-6.313-11.718-8.476-18.031-4.831l-10.553 6.093 37.914 65.668c3.645 6.313 1.482 14.386-4.831 18.031l-10.332 5.965c-16.329 9.428-34.852 14.391-53.707 14.391h-26.849l11.895 20.604 43.361 21.416 41.581-21.416 35.258-20.356c6.313-3.646 8.476-11.719 4.831-18.032z" fill="#e4f6ff"/><path d="m292.983 468.563h-73.967c-4.268 0-7.726-3.459-7.726-7.726s3.459-7.726 7.726-7.726h73.967c4.268 0 7.726 3.459 7.726 7.726s-3.459 7.726-7.726 7.726z" fill="#6bbef6"/><path d="m478.776 208.875h-445.552c-7.108 0-12.87 5.762-12.87 12.87v26.968c0 7.108 5.762 12.87 12.87 12.87h445.553c7.108 0 12.87-5.762 12.87-12.87v-26.968c-.001-7.108-5.763-12.87-12.871-12.87z" fill="#75cef9"/><path d="m337.505 458.102c77.023-31.981 131.191-107.924 131.191-196.52l-20.573-16.312-21.62 16.312c-7.202 74.925-53.276 138.493-117.815 170.297-11.123 5.481-16.804 18.079-13.678 30.079 3.88 14.894-7.36 29.437-22.751 29.437h-98.778l-3.462 13.289c-.964 3.701 1.829 7.315 5.653 7.315h160.654c3.824 0 6.618-3.614 5.654-7.315l-9.51-36.508c-1.079-4.145 1.078-8.431 5.035-10.074z" fill="#6bbef6"/><path d="m300.709 460.837c0-3.838-2.798-7.021-6.465-7.623-.233 2.877.007 5.829.767 8.746.533 2.046.78 4.085.771 6.081 2.883-1.122 4.927-3.924 4.927-7.204z" fill="#5ea5ec"/><path d="m478.776 208.875h-28.338v.716c0 17.335-14.053 31.389-31.389 31.389h-398.695v7.734c0 7.108 5.762 12.87 12.87 12.87h445.553c7.108 0 12.87-5.762 12.87-12.87v-26.968c-.001-7.109-5.763-12.871-12.871-12.871z" fill="#6bbef6"/></g></svg>