<svg id="Capa_1" enable-background="new 0 0 512 512" height="512" viewBox="0 0 512 512" width="512" xmlns="http://www.w3.org/2000/svg"><path d="m317.895 423.5h38c46.668 0 84.5-37.832 84.5-84.5v-9c0-46.668-37.832-84.5-84.5-84.5h-20l16.833 30h.167c30.1 0 54.5 24.4 54.5 54.5v9c0 30.1-24.401 54.5-54.5 54.5h-21.5z" fill="#a9d0ed"/><path d="m300.637 504.5h-163.484c-15.247 0-28.069-11.436-29.805-26.584l-35.676-311.277c-.68-5.935 3.961-11.139 9.935-11.139h274.577c5.974 0 10.615 5.204 9.935 11.139l-35.676 311.277c-1.737 15.148-14.559 26.584-29.806 26.584z" fill="#d4edff"/><path d="m366.12 166.64-35.68 311.28c-1.73 15.14-14.56 26.58-29.8 26.58h-30c15.24 0 28.07-11.44 29.8-26.58l35.68-311.28c.68-5.94-3.96-11.14-9.94-11.14h30c5.98 0 10.62 5.2 9.94 11.14z" fill="#a9d0ed"/><path d="m295.95 474.5h-154.11c-2.535 0-4.669-1.897-4.966-4.415l-25.162-213.415c-.701-5.946 3.944-11.171 9.931-11.171h194.503c5.987 0 10.632 5.225 9.931 11.171l-25.162 213.415c-.296 2.518-2.43 4.415-4.965 4.415z" fill="#a8dd8a"/><path d="m262.205 398.431-7.849-73c-.546-5.08-4.834-8.931-9.943-8.931h-51.035c-5.109 0-9.396 3.851-9.943 8.931l-7.849 73c-.636 5.912 3.997 11.069 9.943 11.069h66.734c5.945 0 10.577-5.157 9.942-11.069z" fill="#8bbc61"/><path d="m150.395 215.5h-25c-5.523 0-10-4.477-10-10v-10c0-5.523 4.477-10 10-10h25c5.523 0 10 4.477 10 10v10c0 5.523-4.477 10-10 10z" fill="#b2a6f4"/><path d="m303.93 444.5-3.019 25.586c-.297 2.517-2.431 4.414-4.966 4.414h-154.11c-2.535 0-4.669-1.897-4.966-4.414l-3.019-25.586z" fill="#8bbc61"/><path d="m421.61 265.615c-15.155-15.466-34.883-24.917-56.181-27.103l8.14-71.018c.567-4.951-1.009-9.923-4.326-13.641-3.317-3.719-8.077-5.852-13.06-5.852h-130.289v-2.5c0-15.164-12.336-27.5-27.5-27.5h-40c-15.164 0-27.5 12.336-27.5 27.5v2.5h-49.288c-4.983 0-9.743 2.133-13.06 5.852-3.317 3.718-4.894 8.69-4.326 13.641l35.676 311.276c2.171 18.944 18.188 33.23 37.256 33.23h112.847c4.142 0 7.5-3.358 7.5-7.5s-3.358-7.5-7.5-7.5h-112.847c-11.441 0-21.051-8.571-22.354-19.938l-35.676-311.277c-.111-.968.34-1.637.618-1.949s.891-.836 1.866-.836h49.289v15h-5.5c-9.649 0-17.5 7.851-17.5 17.5v10c0 9.649 7.851 17.5 17.5 17.5h25c9.649 0 17.5-7.851 17.5-17.5v-10c0-9.649-7.851-17.5-17.5-17.5h-4.5v-15h65v82.49.01s0 .006 0 .01v63.49h-17.518c-8.961 0-16.441 6.719-17.4 15.629l-7.85 73c-.53 4.931 1.066 9.875 4.381 13.565 3.314 3.69 8.06 5.806 13.019 5.806h66.734c4.96 0 9.705-2.116 13.019-5.806s4.911-8.634 4.381-13.565l-7.85-73c-.958-8.91-8.438-15.629-17.399-15.629h-18.518v-56h90.251c.977 0 1.59.526 1.869.839.278.313.729.984.614 1.954l-21.364 181.207h-156.739l-21.365-181.207c-.114-.97.336-1.64.614-1.954.279-.313.892-.839 1.869-.839h61.751c4.142 0 7.5-3.358 7.5-7.5s-3.358-7.5-7.5-7.5h-61.751c-4.994 0-9.761 2.141-13.079 5.873s-4.885 8.717-4.3 13.676l25.163 213.415c.742 6.292 6.079 11.036 12.414 11.036h154.11c6.335 0 11.672-4.745 12.414-11.036l25.162-213.415c.585-4.959-.982-9.944-4.3-13.676s-8.085-5.873-13.079-5.873h-90.251v-75h130.288c.975 0 1.587.524 1.866.836s.729.98.618 1.949l-35.679 311.277c-1.303 11.367-10.913 19.938-22.354 19.938h-15.637c-4.142 0-7.5 3.358-7.5 7.5s3.358 7.5 7.5 7.5h15.637c19.068 0 35.085-14.286 37.256-33.23l5.475-47.77h12.527c50.729 0 92-41.271 92-92v-9c0-24.221-9.335-47.087-26.284-64.385zm-268.716-70.115v10c0 1.378-1.122 2.5-2.5 2.5h-25c-1.378 0-2.5-1.122-2.5-2.5v-10c0-1.378 1.122-2.5 2.5-2.5h25c1.379 0 2.5 1.122 2.5 2.5zm94.003 130.733 7.85 73c.104.965-.348 1.628-.626 1.938s-.89.83-1.86.83h-66.734c-.97 0-1.582-.52-1.86-.83s-.729-.974-.626-1.938l7.85-73c.137-1.273 1.206-2.233 2.486-2.233h51.035c1.28 0 2.349.96 2.485 2.233zm-102.835 140.767-1.769-15h153.202l-1.769 15zm1.832-319v-2.5c0-6.893 5.607-12.5 12.5-12.5h40c6.893 0 12.5 5.607 12.5 12.5v2.5zm214.368 135.593c22.371 3.575 39.632 23.16 39.632 46.408v9c0 25.916-21.084 47-47 47h-4.369zm72.632 55.407c0 42.458-34.542 77-77 77h-10.808l1.719-15h6.089c34.187 0 62-27.813 62-62v-9c0-16.367-6.32-31.806-17.795-43.473-9.574-9.734-21.833-15.909-35.127-17.852l1.748-15.253c38.664 3.969 69.174 37.094 69.174 76.579z"/><path d="m207.516 55.344 14.714 9.345c2.04 1.296 3.301 3.422 3.46 5.834s-.813 4.685-2.665 6.237l-19.086 15.991c-3.175 2.66-3.593 7.391-.933 10.565 1.483 1.771 3.61 2.684 5.753 2.684 1.699 0 3.408-.574 4.813-1.751l19.086-15.991c5.561-4.659 8.477-11.482 8-18.721-.477-7.238-4.262-13.621-10.386-17.51l-14.714-9.345c-2.041-1.296-3.302-3.422-3.46-5.834-.159-2.412.813-4.685 2.666-6.237l20.721-17.361c3.175-2.66 3.592-7.391.932-10.566-2.661-3.174-7.39-3.591-10.566-.932l-20.72 17.361c-5.561 4.659-8.477 11.482-8 18.721.476 7.238 4.261 13.621 10.385 17.51z"/><path d="m273.493 55.344 14.714 9.345c2.041 1.296 3.302 3.422 3.46 5.834.159 2.412-.813 4.685-2.665 6.237l-19.086 15.991c-3.175 2.66-3.593 7.391-.933 10.565 1.483 1.771 3.61 2.684 5.753 2.684 1.699 0 3.408-.574 4.813-1.751l19.086-15.991c5.561-4.659 8.477-11.482 8-18.721s-4.262-13.621-10.386-17.511l-14.714-9.345c-2.04-1.296-3.301-3.422-3.46-5.834s.813-4.685 2.666-6.237l20.721-17.361c3.175-2.66 3.592-7.391.932-10.566-2.661-3.174-7.39-3.591-10.566-.932l-20.72 17.361c-5.561 4.659-8.477 11.482-8 18.721.476 7.239 4.262 13.621 10.385 17.511z"/><path d="m141.539 55.344 14.714 9.345c2.04 1.296 3.301 3.422 3.46 5.834s-.813 4.685-2.665 6.237l-19.086 15.991c-3.175 2.66-3.593 7.391-.933 10.565 1.483 1.771 3.61 2.684 5.753 2.684 1.699 0 3.408-.574 4.813-1.751l19.087-15.991c5.56-4.659 8.476-11.483 7.999-18.721-.477-7.239-4.262-13.621-10.386-17.51l-14.714-9.345c-2.04-1.296-3.301-3.422-3.46-5.834s.813-4.685 2.665-6.237l20.721-17.361c3.175-2.66 3.593-7.391.933-10.565-2.659-3.175-7.391-3.593-10.565-.933l-20.722 17.361c-5.56 4.659-8.476 11.483-7.999 18.721.476 7.238 4.262 13.62 10.385 17.51z"/></svg>