<svg id="Capa_1" enable-background="new 0 0 512 512" height="512" viewBox="0 0 512 512" width="512" xmlns="http://www.w3.org/2000/svg"><g><g><g><path d="m380.219 429.068h-71.879c-9.102 0-16.48-7.379-16.48-16.48s7.378-16.48 16.48-16.48h71.879c15.341 0 27.822-12.481 27.822-27.822v-93.607c0-15.341-12.481-27.822-27.822-27.822h-71.879c-9.102 0-16.48-7.379-16.48-16.48 0-9.102 7.378-16.48 16.48-16.48h71.879c33.516 0 60.782 27.267 60.782 60.782v93.607c.001 33.516-27.266 60.782-60.782 60.782z" fill="#e53950"/></g><path d="m308.468 504.5h-196.268c-22.755 0-41.201-18.446-41.201-41.201v-313.254c0-5.916 4.796-10.712 10.712-10.712h257.246c5.916 0 10.712 4.796 10.712 10.712v313.254c0 22.755-18.446 41.201-41.201 41.201z" fill="#e53950"/><path d="m166.766 190.965-41.847 45.569c-2.234 2.433-3.473 5.615-3.473 8.918v80.554c0 4.551 3.689 8.24 8.24 8.24h74.161c4.551 0 8.24-3.689 8.24-8.24v-80.554c0-3.303-1.24-6.485-3.473-8.918z" fill="#e5eef9"/><g fill="#ca2e43"><path d="m380.219 213.897h-39.685c25.74 0 47.779 16.091 56.626 38.735 6.61 5.091 10.88 13.078 10.88 22.047v93.607c0 8.969-4.271 16.956-10.88 22.047-8.848 22.645-30.886 38.735-56.626 38.735h39.685c33.516 0 60.782-27.267 60.782-60.782v-93.607c0-33.515-27.266-60.782-60.782-60.782z"/><path d="m338.957 139.333h-39.685c5.916 0 10.712 4.796 10.712 10.712v313.254c0 22.755-18.446 41.201-41.201 41.201h39.685c22.755 0 41.201-18.446 41.201-41.201v-313.254c0-5.916-4.796-10.712-10.712-10.712z"/></g></g><g><path d="m196.834 112.598c0 4.142 3.358 7.5 7.5 7.5s7.5-3.358 7.5-7.5c0-13.959 12-15.145 12-35.034 0-19.878-12-21.08-12-35.035 0-13.958 12-15.142 12-35.029 0-4.142-3.358-7.5-7.5-7.5s-7.5 3.358-7.5 7.5c0 13.958-12 15.142-12 35.029 0 19.879 12 21.079 12 35.035 0 13.959-12 15.145-12 35.034z"/><path d="m140.141 112.598c0 4.142 3.358 7.5 7.5 7.5s7.5-3.358 7.5-7.5c0-13.959 12-15.145 12-35.034 0-19.878-12-21.08-12-35.035 0-13.958 12-15.142 12-35.029 0-4.142-3.358-7.5-7.5-7.5s-7.5 3.358-7.5 7.5c0 13.958-12 15.142-12 35.029 0 19.879 12 21.079 12 35.035 0 13.959-12 15.145-12 35.034z"/><path d="m253.527 112.598c0 4.142 3.358 7.5 7.5 7.5 4.143 0 7.5-3.358 7.5-7.5 0-13.961 12-15.145 12-35.034 0-19.878-12-21.08-12-35.035 0-13.959 12-15.142 12-35.029 0-4.142-3.357-7.5-7.5-7.5s-7.5 3.358-7.5 7.5c0 13.959-12 15.142-12 35.029 0 19.879 12 21.079 12 35.035 0 13.961-12 15.145-12 35.034z"/><path d="m380.219 206.397h-23.05v-56.352c0-10.042-8.17-18.212-18.212-18.212h-257.246c-10.042 0-18.212 8.17-18.212 18.212v234.267c0 4.142 3.358 7.5 7.5 7.5s7.5-3.358 7.5-7.5v-234.267c0-1.771 1.441-3.212 3.212-3.212h77.555v41.211l-39.871 43.417c-3.514 3.827-5.45 8.795-5.45 13.991v80.554c0 8.679 7.061 15.74 15.74 15.74h74.162c8.679 0 15.74-7.061 15.74-15.74v-80.554c0-5.196-1.935-10.165-5.449-13.991l-39.872-43.418v-41.211h164.691c1.771 0 3.212 1.441 3.212 3.212v313.254c0 19.917-17.363 33.601-31.097 33.601-1.943.148 11.313.1-198.873.1-18.583 0-33.701-15.118-33.701-33.701v-43.988c0-4.142-3.358-7.5-7.5-7.5s-7.5 3.358-7.5 7.5v43.988c.001 26.855 21.848 48.702 48.702 48.702 206.996 0 200.025-.144 200.025-.144 25.204-1.925 44.944-23.251 44.944-48.557v-26.731h23.05c37.651 0 68.282-30.631 68.282-68.282v-93.606c0-37.652-30.631-68.283-68.282-68.283zm-177.129 35.21c.965 1.052 1.497 2.417 1.497 3.845v80.554c0 .408-.332.74-.74.74h-74.162c-.408 0-.74-.332-.74-.74v-80.554c0-1.428.532-2.793 1.498-3.845l28.823-31.387v8.31c0 4.142 3.358 7.5 7.5 7.5s7.5-3.358 7.5-7.5v-8.31zm230.411 126.679c0 29.38-23.902 53.282-53.282 53.282h-23.05v-17.96h23.05c19.477 0 35.322-15.845 35.322-35.322v-32.376c0-4.142-3.357-7.5-7.5-7.5s-7.5 3.358-7.5 7.5v32.376c0 11.206-9.116 20.322-20.322 20.322h-23.05v-134.25h23.05c11.206 0 20.322 9.116 20.322 20.322v26.23c0 4.142 3.357 7.5 7.5 7.5s7.5-3.358 7.5-7.5v-26.23c0-19.477-15.846-35.322-35.322-35.322h-23.05v-17.961h23.05c29.38 0 53.282 23.902 53.282 53.283z"/></g></g></svg>