<svg id="Layer_1" enable-background="new 0 0 1200 1200" height="512" viewBox="0 0 1200 1200" width="512" xmlns="http://www.w3.org/2000/svg"><g><path d="m941.6 444.2v-44.9c0-11-9-20-20-20h-799.2c-11 0-20 9-20 20v215.5c0 149.3 80.1 288.2 209.3 363.1h420.7c72.4-42 131.8-106.3 168-181.6 20.5 10.3 43.1 15.6 66.5 15.4 80.1-.7 144.3-66.9 144.3-147v-200.6c0-11-9-20-20-20zm-802.8 201.8c-.6-7.5-1-15.1-1.2-22.7-.2-7.1 5.4-12.9 12.5-13.1 7.1-.1 12.9 5.4 13.1 12.5s.5 14.2 1.1 21.2-4.6 13.2-11.7 13.8c-.4 0-.7 0-1.1 0-6.6 0-12.1-5-12.7-11.7zm152.4 260.4c-2.5 3-6.1 4.5-9.7 4.5-2.9 0-5.9-1-8.3-3-62.9-53.5-107.6-127.3-126-207.9-1.6-6.9 2.7-13.7 9.6-15.3s13.7 2.7 15.3 9.6c17.2 75.2 59 144.1 117.7 194.1 5.3 4.6 5.9 12.6 1.4 18zm784.8-240.2c0 60.9-49.5 110.4-110.4 110.4-18.1 0-35.6-4.4-51.3-12.6 3.9-10.3 7.5-20.8 10.5-31.4 0-.1.1-.3.1-.4 11-37.9 16.6-77.5 16.6-117.4v-135.5h121.6c7.1 0 12.8 5.7 12.8 12.8z"/><path d="m613.1 307.1c7.1-.1 12.6-6.1 12.6-13.2v-115.5c0-7.1-5.6-13.1-12.6-13.2-7.2-.1-13 5.6-13 12.8v116.4c.1 7.1 5.9 12.8 13 12.7z"/><path d="m522.1 307.1c7.1-.1 12.6-6.1 12.6-13.2v-185.8c0-7.1-5.6-13.1-12.6-13.2-7.2-.1-13 5.6-13 12.8v186.8c.1 7 5.9 12.7 13 12.6z"/><path d="m431.1 307.1c7.1-.1 12.6-6.1 12.6-13.2v-95c0-7.1-5.6-13.1-12.6-13.2-7.2-.1-13 5.6-13 12.8v95.8c.1 7.2 5.9 12.9 13 12.8z"/><path d="m954.4 1027.6c-9.8 44.3-49.3 77.5-96.6 77.5h-671.8c-47.2 0-86.8-33.2-96.6-77.5-3-13.3 5.9-24.3 19.5-24.3h826c13.7 0 22.5 11 19.5 24.3z"/></g></svg>