<svg id="Capa_1" enable-background="new 0 0 512.032 512.032" height="512" viewBox="0 0 512.032 512.032" width="512" xmlns="http://www.w3.org/2000/svg"><g><g><path d="m252.311 403.131 8.294 13.734c13.579 22.485 41.672 31.494 65.795 21.1l84.058-36.218-141.736-22.92c-13.591-2.197-23.528 12.52-16.411 24.304z" fill="#df646e"/><path d="m410.461 401.747-84.06 36.22c-24.12 10.39-52.22 1.38-65.8-21.1l-8.29-13.74c-5.61-9.28-.63-20.38 8.37-23.59.38 1.21.92 2.42 1.63 3.59l8.29 13.74c13.58 22.48 41.68 31.49 65.8 21.1l47.58-20.5z" fill="#dc4955"/><path d="m283.544 477.557 14.464 6.942c23.681 11.365 52.116 3.505 66.598-13.448l50.46-76.362-131.115 53.546c-12.571 5.609-12.818 23.366-.407 29.322z" fill="#df646e"/><path d="m361.891 473.957c-15.11 14.91-41.6 21.24-63.88 10.54l-14.47-6.94c-12.41-5.96-12.16-23.71.41-29.32l11.14-4.55c-3.77 7.54-1.33 17.65 7.45 21.87l14.47 6.94c14.62 7.02 31.04 6.71 44.88 1.46z" fill="#dc4955"/><path d="m415.027 343.079-47.036 59.319c-6.076 8.949 1.065 20.919 11.825 19.824l24.188-2.461c11.095-1.129 21.39-6.287 28.937-14.498l44.412-48.319z" fill="#df646e"/><path d="m387.801 421.407-7.98.82c-10.77 1.09-17.91-10.88-11.83-19.83l47.04-59.32 11.9 2.65-44.94 56.67c-4.85 7.13-1.29 16.19 5.81 19.01z" fill="#dc4955"/><path d="m477.351 356.947-32.11 34.94c-1.09-.33-2.18-.7-3.26-1.11l-25.33-9.65c-8.07-3.07-14.9-8.26-19.89-15.01l18.27-23.04z" fill="#dc4955"/><path d="m423.432 289.747-16.354 39.114c-6.005 14.362 1.071 30.844 15.62 36.382l25.334 9.642c21.45 8.164 44.674-6.774 46.143-29.677l3.957-61.722z" fill="#df646e"/><path d="m428.811 367.577-6.11-2.33c-14.55-5.54-21.63-22.02-15.62-36.39l16.35-39.11 13.27-1.11-15.83 41.62c-5.24 13.77-1.6 29.01 7.94 37.32z" fill="#dc4955"/><path d="m498.131 283.487-3.34 52.09c-1.55.72-3.16 1.35-4.82 1.9l-.95.31-38.04 7.81c-4.72 1.45-9.58 2.18-14.46 2.18-11.92 0-22.87-4.29-31.4-11.41.28-2.52.93-5.05 1.96-7.51l16.35-39.11z" fill="#dc4955"/><path d="m403.711 281.725.638 17.011c.138 21.877 21.572 37.258 42.341 30.384l37.938-7.785c14.841-4.912 23.112-20.708 18.694-35.703l-19.464-66.071z" fill="#df646e"/><path d="m456.101 327.187-9.41 1.93c-20.77 6.88-42.2-8.5-42.34-30.38l-.64-17.01 15.46-11.99 2.11 13.95c2.57 20.71 18.04 38.57 34.82 43.5z" fill="#dc4955"/><path d="m493.421 252.017-27.18 39.26c-10.76 15.55-28.48 24.83-47.41 24.83-3.31 0-6.6-.29-9.83-.86-2.9-4.76-4.61-10.38-4.65-16.51l-.64-17.01 80.15-62.17z" fill="#dc4955"/><path d="m367.971 268.419 24.523 20.949c18.289 15.624 46.075 12.015 59.766-7.763l29.403-42.475c13.386-19.338 4.57-46.111-17.686-53.712l-44.804-15.302z" fill="#df646e"/><path d="m464.821 263.457-12.56 18.15c-13.69 19.78-41.48 23.39-59.77 7.76l-24.52-20.95 10.04-19.27 23.94 19.91c19.83 16.49 48.97 13.86 62.87-5.6z" fill="#dc4955"/><path d="m460.991 184.397c-.78 3.27-1.93 6.48-3.44 9.55l-36.49 74.2c-5.39 10.97-14.44 19.24-25.34 23.7-1.11-.76-2.18-1.59-3.23-2.48l-24.52-20.95 51.2-98.3z" fill="#dc4955"/><path d="m320.241 246.068 37.086 26.323c16.57 11.761 39.67 6.164 48.478-11.746l36.49-74.2c9.057-18.417-3.298-40.371-24.044-42.724l-56.321-6.389z" fill="#df646e"/><path d="m414.321 243.317-8.52 17.33c-8.8 17.91-31.9 23.51-48.47 11.74l-37.09-26.32 41.69-108.73 2.23.25-33.92 88.48 37.09 26.32c15.71 11.16 37.3 6.7 46.99-9.07z" fill="#dc4955"/><path d="m401.901 158.397-22.18 73.37c-4.73 15.67-15.31 28.27-29.09 35.87l-30.39-21.57 41.69-108.73 41.69 4.72c.47 5.42-.09 10.94-1.72 16.34z" fill="#dc4955"/><path d="m232.885 231.193 70.1 24.639c25.387 8.923 53.015-4.318 60.467-28.981l22.172-73.374c5.608-18.557-10.109-37.03-30.257-35.563l-96.24 7.006z" fill="#df646e"/><path d="m364.691 222.737-1.24 4.11c-7.45 24.67-35.08 37.91-60.47 28.99l-70.1-24.64 26.25-106.28 5.15-.37-21.4 86.65 70.1 24.64c19.18 6.74 39.65.83 51.71-13.1z" fill="#dc4955"/><path d="m309.111 251.047c-1.98 1.72-4.09 3.3-6.32 4.72l-69.91-24.57 26.25-106.28 57.58-4.19c4.81 8.7 6.6 16.8 7.25 20.93 12.51 53.18 7.51 89.98-14.85 109.39z" fill="#dc4955"/><path d="m297.968 238.212c-54.723 47.499-248.558-67.819-240.778-90.927.862-2.56 4.172-3.909 7.491-4.668 36.204-8.35 74.171-16.175 113.826-23.216 26.301-4.67 52.008-8.758 77.071-12.329 3.758-.607 17.245-2.326 30.63 5.661 17.753 10.594 20.688 29.529 21.045 32.128 15.572 65.6-1.208 86.341-9.285 93.351z" fill="#df646e"/><path d="m302.021 234.067c-1.45 1.76-2.85 3.11-4.05 4.15-54.73 47.49-248.56-67.82-240.78-90.93.86-2.56 4.17-3.91 7.49-4.67 3.68-.85 7.38-1.69 11.09-2.52 12.29 28.56 162.63 115.95 226.25 93.97z" fill="#dc4955"/><ellipse cx="126.345" cy="128.86" fill="#f7f9fa" rx="18.771" ry="18.771" transform="matrix(.987 -.16 .16 .987 -19.01 21.902)"/><path d="m145.021 130.757c-.95 9.48-8.95 16.87-18.68 16.87-10.36 0-18.77-8.4-18.77-18.77 0-8.38 5.51-15.49 13.1-17.9-.07.63-.1 1.26-.1 1.9 0 10.37 8.41 18.77 18.77 18.77 1.98 0 3.89-.31 5.68-.87z" fill="#e9edf1"/></g><path d="m292.719 260.174 7.778 2.733c4.797 1.687 9.767 2.689 14.759 3.039l2.159 30.81-28.353 22.213c-3.26 2.554-3.832 7.269-1.278 10.528 2.568 3.277 7.294 3.82 10.529 1.279l31.486-24.668c1.961-1.536 3.031-3.944 2.856-6.429l-2.432-34.692c.945-.188 1.884-.399 2.818-.636l18.058 12.817 11.766 33.523-21.47 28.917c-2.47 3.325-1.775 8.023 1.551 10.492 3.293 2.454 8.009 1.795 10.492-1.551l23.844-32.114c1.484-1.999 1.88-4.604 1.056-6.954l-8.412-23.969c2.221.373 4.472.568 6.732.568.141 0 .282-.012.423-.013l10.541 9.003c2.873 2.455 6.007 4.532 9.318 6.227.446 6.606 2.492 12.831 5.894 18.266l-2.678 6.405c-3.346 8.003-3.613 16.724-.828 24.837l-29.198 36.823-100.213-16.205c-9.201-1.48-18.165 2.388-23.384 10.116-5.218 7.729-5.464 17.487-.644 25.469l8.294 13.733c6.654 11.021 16.705 19.477 28.331 24.347l-5.413 2.522c-.073.034-.145.068-.217.104-8.32 4.208-13.29 12.61-12.968 21.93.321 9.319 5.859 17.359 14.451 20.983 11.798 5.137 25.944 11.668 39.016 11.034 19.39 0 38.707-8.558 50.482-23.776.188-.243.361-.498.519-.763l29.173-49.167 7.205-.733c12.934-1.316 24.9-7.313 33.698-16.884l23.669-25.75c7.174-.333 14.222-2.533 20.521-6.584 11.225-7.22 18.152-18.998 19.006-32.317l1.818-28.356c7.626-9.041 10.645-21.584 7.042-33.818l-1.677-5.689c-1.172-3.973-5.342-6.247-9.314-5.074-3.974 1.171-6.245 5.342-5.074 9.314l1.677 5.688c3.254 11.047-2.653 22.53-13.471 26.332l-37.476 7.69c-7.837 2.696-16.271 1.75-23.027-3.157-4.374-3.139-7.499-7.457-9.095-12.382 3.981.493 8.013.486 12.007-.035 13.47-1.749 25.629-9.158 33.36-20.326l26.058-37.645c.907 4.308 5.383 6.992 9.503 5.72 3.974-1.17 6.246-5.34 5.075-9.313l-4.697-15.946c1.767-7.547 1.462-15.512-1.058-23.162-4.248-12.9-14.056-22.817-26.909-27.207l-13.586-4.641c.017-6.116-1.51-12.235-4.604-17.893-5.92-10.825-16.803-18.121-29.113-19.518l-27.254-3.091c-1.275-3.173-3.04-6.206-5.283-9.009-7.598-9.492-19.449-14.613-31.738-13.735l-54.541 3.971c-2.832-2.933-6.202-5.709-10.23-8.113-14.163-8.452-28.355-7.793-35.597-6.637-6.812.972-13.684 1.982-20.426 3.006-4.096.621-6.911 4.445-6.29 8.54.621 4.096 4.458 6.901 8.54 6.29 6.72-1.02 13.569-2.027 20.357-2.995.045-.007.091-.014.136-.021 4.194-.676 15.087-1.572 25.593 4.697 14.802 9.098 16.887 23.557 17.591 27.42 10.148 42.755 7.697 73.281-6.903 85.956-16.003 13.889-50.171 12.579-96.217-3.684-29.617-10.462-62.592-26.704-90.471-44.563-28.103-18.003-38.497-29.517-41.175-34.069 12.644-3.025 25.512-5.778 38.251-8.526 4.507 8.004 13.082 13.426 22.904 13.426 13.485 0 24.623-10.213 26.1-23.31 16.335-3.11 32.738-6.046 49.065-8.781 4.085-.685 6.841-4.551 6.156-8.637-.685-4.084-4.544-6.844-8.637-6.156-16.38 2.744-32.837 5.689-49.226 8.808-4.331-8.572-13.217-14.467-23.459-14.467-13.885 0-25.281 10.829-26.204 24.484-12.378 2.639-24.841 5.397-37.131 8.232-6.976 1.595-11.325 4.82-12.929 9.586-1.716 5.098.334 10.357 3.552 15.052-20.367-10.672-34.813-28.712-37.987-49.486-5.432-35.55 25.379-61.388 34.952-68.46 36.187-26.738 87.892-17.679 120.613 2.053 9.395 5.664 17.995 12.768 25.563 21.113 2.783 3.068 7.526 3.302 10.594.518 3.068-2.782 3.3-7.525.518-10.594-8.549-9.429-18.282-17.464-28.928-23.883-18.902-11.397-42.532-18.876-64.831-20.519-27.59-2.034-52.647 4.622-72.442 19.247-11.28 8.334-47.566 38.936-40.866 82.79 5.47 35.804 37.619 64.842 78.478 71.165 3.834 2.851 7.978 5.774 12.403 8.739 33.279 22.301 74.521 42.413 110.32 53.803 22.164 7.051 41.642 10.571 58.042 10.57 6.499 0 12.504-.564 18.011-1.669l-15.535 25.043-35.988 1.419c-4.139.163-7.361 3.65-7.198 7.79.159 4.038 3.483 7.204 7.489 7.204.1 0 .2-.002.301-.006l39.967-1.576c2.488-.098 4.765-1.425 6.078-3.541m-146.838-174.074c6.215 0 11.271 5.057 11.271 11.271 0 6.215-5.057 11.271-11.271 11.271s-11.271-5.057-11.271-11.271c0-6.215 5.056-11.271 11.271-11.271zm308.704 45.393c3.488 6.38 3.677 13.726.516 20.153l-16.893 34.349c-1.828 3.717-.296 8.212 3.421 10.04 3.636 1.812 8.205.333 10.04-3.421l16.893-34.349c.214-.435.403-.875.599-1.314l11.929 4.075c8.363 2.856 14.745 9.309 17.51 17.703 2.764 8.395 1.464 17.376-3.566 24.643l-29.402 42.476c-5.32 7.686-13.688 12.784-22.958 13.988-9.271 1.203-18.662-1.588-25.771-7.66l-2.33-1.991c7.548-3.85 13.712-10.016 17.5-17.719l4.162-8.464c1.828-3.717.296-8.212-3.421-10.04-3.717-1.829-8.212-.297-10.04 3.421l-4.162 8.464c-3.168 6.442-9.037 11.164-16.101 12.955-6.947 1.761-14.285.531-20.322-3.358-1.348-1.125-11.907-8.278-13.52-9.557 10.394-6.684 17.941-16.582 21.499-28.355l22.172-73.374c.712-2.355 1.148-4.735 1.347-7.112l23.255 2.638c7.579.859 14.01 5.164 17.643 11.809zm-135.679 83.629c1.222-.861 2.4-1.767 3.515-2.734 13.435-11.663 26.36-38.55 11.742-100.419-.347-2.32-1.457-8.067-4.566-14.725l45.849-3.338c7.36-.543 14.428 2.512 18.938 8.147 4.136 5.166 5.445 11.642 3.595 17.767l-22.172 73.374c-2.893 9.574-9.557 17.421-18.765 22.094-11.928 6.218-26.005 5.033-38.136-.166zm56.363 222.442c-11.131 14.028-35.252 23.054-56.752 13.986l-14.783-6.232c-3.191-1.347-5.169-4.218-5.288-7.68-.119-3.428 1.619-6.403 4.654-7.979l39.01-18.181c3.755-1.75 5.38-6.212 3.63-9.966-1.749-3.754-6.212-5.379-9.966-3.63l-11.512 5.365c-15.574-.304-29.632-8.389-37.701-21.75l-8.294-13.733c-1.791-2.966-1.703-6.45.235-9.32 1.938-2.873 5.143-4.259 8.558-3.702l92.575 14.97c-1.253 2.733-1.863 5.655-1.828 8.581l-10.407 4.851c-3.754 1.75-5.379 6.212-3.629 9.967 1.272 2.729 3.978 4.333 6.803 4.333 2.368.301 10.748-4.457 12.973-5.276 3.885 4.031 9.334 6.338 15.035 6.106zm71.687-68.865c-6.312 6.865-14.896 11.167-24.174 12.111l-24.188 2.461c-2.997.314-4.513-1.665-5.026-2.526-.501-.839-1.476-3.019.042-5.436l33.673-42.466c3.439 3.43 7.591 6.134 12.283 7.92l24.498 9.323zm47.119-34.8c-7.177 4.614-15.867 5.521-23.839 2.487l-25.334-9.642c-5.121-1.949-9.132-5.796-11.294-10.831-2.23-5.174-2.174-10.924.103-16.072 6.714 4.594 14.421 6.962 22.272 6.962 4.056 0 8.148-.63 12.161-1.909l37.529-7.701c.555-.107 1.086-.307 1.613-.5l-1.061 16.545c-.545 8.515-4.975 16.045-12.15 20.661z"/></g></svg>