<svg id="Capa_1" enable-background="new 0 0 512 512" height="512" viewBox="0 0 512 512" width="512" xmlns="http://www.w3.org/2000/svg"><g><g><g><path d="m512 349.094c.079 57.381-95.197 72.642-212.809 72.48-117.611-.162-213.022-15.686-213.101-73.067-.079-57.38 95.2-103.765 212.812-103.603s213.019 46.81 213.098 104.19z" fill="#d7aa8b"/><path d="m495.746 309.271c.516 2.941.797 5.913.801 8.919.079 57.38-95.197 72.641-212.809 72.479-89.319-.123-165.821-9.112-197.499-38.56 4.017 54.428 97.843 69.308 212.952 69.466 117.612.162 212.888-15.099 212.809-72.479-.02-14.102-5.807-27.552-16.254-39.825z" fill="#ce9775"/><g fill="#c6855b"><path d="m176.232 307.728c2.049 10.576 2.555 21.515 1.501 32.512-1.055 11.008 6.935 20.819 17.846 21.914.659.066 1.312.099 1.961.1 10.089.014 18.714-7.707 19.705-18.049 1.423-14.854.732-29.677-2.055-44.06-3.17-16.355-8.795-30.815-15.567-43.407-13.813 3.541-26.723 7.802-38.525 12.683 6.641 10.774 12.275 23.552 15.134 38.307z"/><path d="m298.374 244.907c-16.653-.003-32.854.928-48.398 2.69 12.845 13.547 26.965 33.721 32.111 60.277 2.049 10.576 2.555 21.515 1.501 32.512-1.055 11.008 6.935 20.819 17.846 21.914.659.066 1.312.099 1.961.1 10.089.014 18.714-7.707 19.705-18.049 1.423-14.854.732-29.677-2.055-44.06-4.227-21.808-12.805-40.268-22.671-55.384z"/><path d="m386.712 308.267c1.573 10.657 1.587 21.607.041 32.543-1.547 10.947 5.995 21.112 16.847 22.704.655.096 1.306.159 1.954.19 10.08.475 19.043-6.844 20.497-17.129 2.088-14.772 2.062-29.61-.077-44.104-2.243-15.191-6.644-28.869-12.174-41.01-16.63-5.228-34.844-9.355-54.202-12.185 11.55 14.019 23.406 33.876 27.114 58.991z"/></g></g><g><path d="m318.606 107.405c40.63 40.518-15.949 118.68-99.228 201.729s-161.721 139.538-202.351 99.02c-22.468-22.407-21.939-63.056-2.893-108.964 2.442-5.887 7.831-9.81 10.873-15.843 3.054-6.056 3.762-14.221 7.401-20.368 8.267-13.966 18.02-28.097 29.145-42.068 4.217-5.295 14.551-9.325 19.156-14.556 6.15-6.986 6.722-15.142 13.539-21.94 14.931-14.89 30.414-28.219 46.005-39.834 7.845-5.844 20.103-8.219 27.947-13.176 7.843-4.957 11.272-12.497 19.001-16.529 54.853-28.611 105.39-33.414 131.405-7.471z" fill="#c6855b"/><path d="m318.606 107.405c-8.133-8.111-18.668-13.208-30.978-15.521.024.023.049.044.072.068 40.63 40.519-15.949 118.68-99.228 201.73-66.535 66.352-129.982 115.744-173.526 112.26.672.755 1.361 1.495 2.081 2.212 40.63 40.518 119.073-15.97 202.351-99.019 83.279-83.05 139.858-161.211 99.228-201.73z" fill="#c17e4e"/><g fill="#f2d59c"><path d="m51.932 315.579c8.927 6.029 17.02 13.407 24.05 21.928 7.038 8.53 19.625 9.818 28.115 2.877.513-.419.998-.858 1.457-1.316 7.144-7.124 7.783-18.682 1.171-26.696-9.497-11.51-20.467-21.502-32.608-29.702-13.806-9.324-28.008-15.571-41.701-19.686-7.263 12.271-13.38 24.413-18.274 36.21 12.316 2.921 25.335 7.973 37.79 16.385z"/><path d="m93.878 184.79c-11.778 11.773-22.575 23.887-32.32 36.125 18.662.496 42.911 4.777 65.328 19.917 8.927 6.029 17.02 13.407 24.05 21.928 7.038 8.53 19.625 9.818 28.115 2.877.513-.419.998-.858 1.457-1.316 7.144-7.124 7.783-18.682 1.171-26.696-9.497-11.51-20.467-21.502-32.608-29.702-18.409-12.434-37.528-19.42-55.193-23.133z"/><path d="m201.144 167.128c8.648 6.423 16.401 14.156 23.041 22.982 6.647 8.835 19.168 10.689 27.967 4.141.531-.396 1.036-.811 1.516-1.248 7.463-6.792 8.626-18.304 2.381-26.605-8.969-11.922-19.479-22.395-31.241-31.131-12.328-9.156-25.111-15.716-37.607-20.39-15.456 8.062-31.254 18.023-46.943 29.711 18.081 1.745 40.506 7.403 60.886 22.54z"/></g></g></g></g></svg>