<svg id="Capa_1" enable-background="new 0 0 512 512" height="512" viewBox="0 0 512 512" width="512" xmlns="http://www.w3.org/2000/svg"><g><g><path d="m491.964 449.312c7.597 5.544 12.536 14.537 12.536 24.688 0 16.845-13.599 30.5-30.375 30.5-9.527 0-18.03-4.404-23.599-11.296v-.001c-14.16 1.393-16.197 7.47-33.963 7.47-20.067 0-20.067-7.753-40.135-7.753s-20.068 7.753-40.136 7.753c-20.067 0-20.067-7.753-40.134-7.753-20.065 0-20.065 7.753-40.13 7.753-20.067 0-20.067-7.753-40.135-7.753s-20.068 7.753-40.135 7.753c-20.069 0-20.069-7.753-40.137-7.753s-20.068 7.753-40.136 7.753c-17.921 0-19.84-6.181-34.334-7.505l-.168.002c-5.496 6.905-13.973 11.33-23.483 11.33-16.569 0-30-13.431-30-30 0-9.517 4.431-17.999 11.343-23.495h.001c-1.296-14.622-7.518-16.494-7.518-34.47 0-20.067 7.753-20.067 7.753-40.134s-7.753-20.067-7.753-40.134 7.753-20.067 7.753-40.133c0-20.064-7.753-20.064-7.753-40.129 0-20.067 7.753-20.067 7.753-40.133 0-20.067-7.753-20.067-7.753-40.134 0-20.068 7.753-20.068 7.753-40.136 0-20.067-7.753-20.067-7.753-40.135 0-17.978 6.221-19.852 7.517-34.473-6.912-5.495-11.343-13.977-11.343-23.494 0-16.569 13.431-30 30-30 9.51 0 17.987 4.425 23.484 11.329l.137-.012c14.508-1.32 16.421-7.507 34.346-7.507 20.067 0 20.067 7.753 40.135 7.753s20.068-7.753 40.136-7.753c20.067 0 20.067 7.753 40.134 7.753 20.065 0 20.065-7.753 40.13-7.753 20.067 0 20.067 7.753 40.135 7.753s20.068-7.753 40.135-7.753c20.069 0 20.069 7.753 40.137 7.753s20.068-7.753 40.136-7.753c17.978 0 19.852 6.22 34.472 7.517v.001c5.496-6.903 13.973-11.328 23.483-11.328 16.569 0 30 13.431 30 30 0 9.517-11.315 23.472-11.315 23.472 1.294 14.629 7.518 16.498 7.518 34.477 0 20.067-7.753 20.067-7.753 40.134s7.753 20.067 7.753 40.134-7.753 20.067-7.753 40.133c0 20.064 7.753 20.064 7.753 40.129 0 20.067-7.753 20.067-7.753 40.133 0 20.067 7.753 20.067 7.753 40.134 0 20.068-7.753 20.068-7.753 40.136 0 20.067 7.753 20.067 7.753 40.135.001 16.819-8.731 20.542-8.739 32.795z" fill="#ffde5c"/><path d="m504.49 474.5c-.26 16.61-13.76 30-30.37 30-8.315 0-15.86-3.357-21.341-8.804-1.649-1.638-3.997-2.354-6.281-1.924-4.741.893-8.028 2.347-11.598 3.688-4.5 1.69-9.46 3.21-18.34 3.21-20.06 0-20.06-7.75-40.13-7.75s-20.07 7.75-40.14 7.75c-20.06 0-20.06-7.75-40.13-7.75s-20.07 7.75-40.13 7.75c-20.07 0-20.07-7.75-40.14-7.75-20.06 0-20.06 7.75-40.13 7.75s-20.07-7.75-40.14-7.75-20.07 7.75-40.13 7.75c-17.93 0-19.85-6.18-34.34-7.5h-.17c-5.843 7.344-15.073 11.889-25.326 11.275-15.044-.902-27.262-13.168-28.105-28.215-.573-10.218 3.966-19.399 11.292-25.219-.64-7.31-2.52-11.44-4.24-15.98-1.72-4.55-3.27-9.51-3.27-18.49 0-20.07 7.75-20.07 7.75-40.14s-7.75-20.07-7.75-40.13c0-20.07 7.75-20.07 7.75-40.14 0-20.06-7.75-20.06-7.75-40.12 0-20.07 7.75-20.07 7.75-40.14 0-20.06-7.75-20.06-7.75-40.13s7.75-20.07 7.75-40.14-7.75-20.07-7.75-40.13c0-17.98 6.22-19.85 7.51-34.48-3.46-2.75-6.29-6.24-8.26-10.23-1.97-4-3.08-8.5-3.08-13.26 0-16.57 13.43-30 30-30 0 4.76 1.11 9.26 3.08 13.26 1.97 3.99 4.8 7.48 8.26 10.23-1.29 14.63-7.51 16.5-7.51 34.48 0 20.06 7.75 20.06 7.75 40.13s-7.75 20.07-7.75 40.14 7.75 20.07 7.75 40.13c0 20.07-7.75 20.07-7.75 40.14 0 20.06 7.75 20.06 7.75 40.12 0 20.07-7.75 20.07-7.75 40.14 0 20.06 7.75 20.06 7.75 40.13s-7.75 20.07-7.75 40.14c0 8.98 1.55 13.94 3.27 18.49 1.586 4.185 3.307 8.022 4.068 14.322.117.966-.218 1.953-.95 2.595-6.663 5.843-10.712 14.597-10.17 24.283.843 15.048 13.061 27.313 28.105 28.215 10.254.615 19.483-3.931 25.326-11.275h.17c14.49 1.32 16.41 7.5 34.34 7.5 20.06 0 20.06-7.75 40.13-7.75s20.07 7.75 40.14 7.75 20.07-7.75 40.13-7.75c20.07 0 20.07 7.75 40.14 7.75 20.06 0 20.06-7.75 40.13-7.75s20.07 7.75 40.13 7.75c20.07 0 20.07-7.75 40.14-7.75s20.07 7.75 40.13 7.75c8.88 0 13.84-1.52 18.34-3.21 3.57-1.341 6.857-2.795 11.598-3.688 2.284-.43 4.633.286 6.281 1.924 5.481 5.447 13.026 8.804 21.341 8.804h.37z" fill="#ffc736"/><g fill="#ffc736"><circle cx="95" cy="107" r="25"/><circle cx="204" cy="107" r="25"/><circle cx="308" cy="107" r="25"/><circle cx="417" cy="107" r="25"/><circle cx="95" cy="256" r="25"/><circle cx="204" cy="256" r="25"/><circle cx="308" cy="256" r="25"/><circle cx="417" cy="256" r="25"/><circle cx="95" cy="405" r="25"/><circle cx="204" cy="405" r="25"/><circle cx="308" cy="405" r="25"/><circle cx="417" cy="405" r="25"/></g><g fill="#faaa0a"><path d="m119.57 111.57c-2.13 11.63-12.32 20.43-24.57 20.43-13.81 0-25-11.19-25-25 0-12.25 8.8-22.44 20.43-24.57-.29 1.48-.43 3.01-.43 4.57 0 13.81 11.19 25 25 25 1.56 0 3.09-.14 4.57-.43z"/><path d="m228.57 111.57c-2.13 11.63-12.32 20.43-24.57 20.43-13.81 0-25-11.19-25-25 0-12.25 8.8-22.44 20.43-24.57-.29 1.48-.43 3.01-.43 4.57 0 13.81 11.19 25 25 25 1.56 0 3.09-.14 4.57-.43z"/><path d="m332.57 111.57c-2.13 11.63-12.32 20.43-24.57 20.43-13.81 0-25-11.19-25-25 0-12.25 8.8-22.44 20.43-24.57-.29 1.48-.43 3.01-.43 4.57 0 13.81 11.19 25 25 25 1.56 0 3.09-.14 4.57-.43z"/><path d="m441.57 111.57c-2.13 11.63-12.32 20.43-24.57 20.43-13.81 0-25-11.19-25-25 0-12.25 8.8-22.44 20.43-24.57-.29 1.48-.43 3.01-.43 4.57 0 13.81 11.19 25 25 25 1.56 0 3.09-.14 4.57-.43z"/><path d="m119.57 260.57c-2.13 11.63-12.32 20.43-24.57 20.43-13.81 0-25-11.19-25-25 0-12.25 8.8-22.44 20.43-24.57-.29 1.48-.43 3.01-.43 4.57 0 13.81 11.19 25 25 25 1.56 0 3.09-.14 4.57-.43z"/><path d="m228.57 260.57c-2.13 11.63-12.32 20.43-24.57 20.43-13.81 0-25-11.19-25-25 0-12.25 8.8-22.44 20.43-24.57-.29 1.48-.43 3.01-.43 4.57 0 13.81 11.19 25 25 25 1.56 0 3.09-.14 4.57-.43z"/><path d="m332.57 260.57c-2.13 11.63-12.32 20.43-24.57 20.43-13.81 0-25-11.19-25-25 0-12.25 8.8-22.44 20.43-24.57-.29 1.48-.43 3.01-.43 4.57 0 13.81 11.19 25 25 25 1.56 0 3.09-.14 4.57-.43z"/><path d="m441.57 260.57c-2.13 11.63-12.32 20.43-24.57 20.43-13.81 0-25-11.19-25-25 0-12.25 8.8-22.44 20.43-24.57-.29 1.48-.43 3.01-.43 4.57 0 13.81 11.19 25 25 25 1.56 0 3.09-.14 4.57-.43z"/><path d="m119.57 409.57c-2.13 11.63-12.32 20.43-24.57 20.43-13.81 0-25-11.19-25-25 0-12.25 8.8-22.44 20.43-24.57-.29 1.48-.43 3.01-.43 4.57 0 13.81 11.19 25 25 25 1.56 0 3.09-.14 4.57-.43z"/><path d="m228.57 409.57c-2.13 11.63-12.32 20.43-24.57 20.43-13.81 0-25-11.19-25-25 0-12.25 8.8-22.44 20.43-24.57-.29 1.48-.43 3.01-.43 4.57 0 13.81 11.19 25 25 25 1.56 0 3.09-.14 4.57-.43z"/><path d="m332.57 409.57c-2.13 11.63-12.32 20.43-24.57 20.43-13.81 0-25-11.19-25-25 0-12.25 8.8-22.44 20.43-24.57-.29 1.48-.43 3.01-.43 4.57 0 13.81 11.19 25 25 25 1.56 0 3.09-.14 4.57-.43z"/><path d="m441.57 409.57c-2.13 11.63-12.32 20.43-24.57 20.43-13.81 0-25-11.19-25-25 0-12.25 8.8-22.44 20.43-24.57-.29 1.48-.43 3.01-.43 4.57 0 13.81 11.19 25 25 25 1.56 0 3.09-.14 4.57-.43z"/></g></g><g><path d="m157.693 22.445c5.214-2 8.969-3.612 18.044-3.635 8.636 0 12.681 1.563 17.364 3.372 5.314 2.054 11.338 4.381 22.771 4.381 11.431 0 17.454-2.327 22.768-4.381 4.684-1.81 8.729-3.372 17.362-3.372 8.636 0 12.681 1.563 17.364 3.372 5.314 2.054 11.339 4.381 22.771 4.381s17.456-2.327 22.771-4.381c4.684-1.81 8.729-3.372 17.364-3.372s12.682 1.563 17.365 3.372c5.315 2.054 11.339 4.381 22.772 4.381 11.432 0 17.456-2.327 22.771-4.38 4.684-1.811 8.729-3.373 17.365-3.373 8.637 0 12.684 1.563 17.368 3.373 4.186 1.617 8.929 3.449 16.44 4.116 2.506.223 4.962-.828 6.53-2.799 4.303-5.401 10.722-8.5 17.617-8.5 12.406 0 22.5 10.094 22.5 22.5 0 6.895-3.097 13.313-8.497 17.613-.002.001-.004.003-.006.005-.003.002-.005.004-.008.006-2.211 1.758-3.158 4.507-2.719 7.105.707 7.177 2.486 11.782 4.062 15.857 1.81 4.684 3.372 8.729 3.372 17.362s-1.563 12.679-3.372 17.362c-.998 2.584-2.129 5.512-2.976 9.163-.935 4.035 1.578 8.064 5.613 9 .57.132 1.14.195 1.7.195 3.411 0 6.496-2.344 7.3-5.809.606-2.62 1.417-4.717 2.354-7.144 2.053-5.314 4.38-11.338 4.38-22.769 0-11.432-2.327-17.454-4.381-22.769-1.092-2.827-2.071-5.362-2.69-8.775 6.954-6.989 10.868-16.394 10.868-26.402 0-20.678-16.822-37.5-37.5-37.5-10.013 0-19.423 3.918-26.418 10.88-3.407-.62-5.94-1.598-8.765-2.689-5.314-2.053-11.339-4.38-22.772-4.38s-17.457 2.327-22.771 4.381c-4.684 1.81-8.729 3.372-17.364 3.372-8.637 0-12.683-1.563-17.366-3.373-5.315-2.053-11.339-4.38-22.771-4.38s-17.456 2.327-22.771 4.381c-4.684 1.81-8.729 3.372-17.364 3.372s-12.681-1.563-17.364-3.372c-5.314-2.054-11.339-4.381-22.771-4.381s-17.454 2.327-22.769 4.381c-4.684 1.81-8.728 3.372-17.361 3.372-8.636 0-12.681-1.563-17.364-3.372-5.314-2.054-11.338-4.381-22.771-4.381-11.94.042-17.498 2.365-23.431 4.635-3.866 1.488-5.794 5.828-4.306 9.693 1.487 3.866 5.827 5.795 9.692 4.306z"/><path d="m499.795 446.062c.497-2.376 1.514-4.481 2.776-7.095 2.51-5.193 5.633-11.656 5.633-22.45 0-11.432-2.327-17.456-4.381-22.771-1.81-4.684-3.372-8.729-3.372-17.364s1.563-12.681 3.372-17.364c2.054-5.315 4.381-11.339 4.381-22.771s-2.327-17.455-4.38-22.77c-1.811-4.684-3.373-8.729-3.373-17.364s1.563-12.68 3.372-17.363c2.054-5.314 4.381-11.338 4.381-22.771 0-11.431-2.327-17.454-4.381-22.768-1.81-4.683-3.372-8.728-3.372-17.36 0-8.636 1.563-12.681 3.373-17.364 2.053-5.314 4.38-11.338 4.38-22.77 0-9.297-1.553-14.96-3.072-19.273-1.376-3.907-5.662-5.96-9.565-4.583-3.907 1.376-5.959 5.659-4.583 9.565 1.153 3.274 2.221 7.272 2.221 14.291 0 8.635-1.563 12.68-3.372 17.363-2.054 5.314-4.381 11.338-4.381 22.771 0 11.431 2.327 17.453 4.381 22.767 1.81 4.684 3.372 8.728 3.372 17.361 0 8.636-1.563 12.681-3.372 17.364-2.054 5.314-4.381 11.338-4.381 22.77 0 11.433 2.327 17.456 4.381 22.771 1.81 4.684 3.372 8.729 3.372 17.363 0 8.636-1.563 12.682-3.373 17.365-2.053 5.314-4.38 11.339-4.38 22.771s2.327 17.456 4.381 22.771c1.81 4.684 3.372 8.729 3.372 17.364 0 7.36-1.918 11.328-4.139 15.924-2.154 4.458-4.596 9.512-4.601 16.866-.002 2.396 1.143 4.65 3.079 6.063 5.921 4.32 9.456 11.284 9.456 18.629 0 12.683-10.262 23-22.875 23-6.92 0-13.396-3.102-17.766-8.511-1.587-1.964-4.063-2.999-6.568-2.75-7.18.706-11.794 2.489-15.864 4.063-4.685 1.81-8.729 3.372-17.364 3.372s-12.681-1.563-17.364-3.372c-5.314-2.054-11.339-4.381-22.771-4.381s-17.456 2.327-22.771 4.38c-4.684 1.811-8.729 3.373-17.365 3.373-8.635 0-12.68-1.563-17.363-3.372-5.314-2.054-11.338-4.381-22.771-4.381-11.432 0-17.454 2.327-22.769 4.381-4.684 1.81-8.728 3.372-17.361 3.372-8.635 0-12.681-1.563-17.364-3.372-5.314-2.054-11.339-4.381-22.771-4.381s-17.456 2.327-22.771 4.38c-4.684 1.811-8.729 3.373-17.365 3.373s-12.682-1.563-17.365-3.373c-5.315-2.053-11.339-4.38-22.771-4.38s-17.456 2.327-22.771 4.381c-4.684 1.81-8.729 3.372-17.364 3.372-8.638 0-12.684-1.563-17.369-3.373-4.153-1.604-8.862-3.423-16.282-4.101-.257-.023-.519-.028-.77-.031l-.168.003c-2.254.025-4.377 1.064-5.78 2.827-4.303 5.402-10.722 8.501-17.617 8.501-12.406 0-22.5-10.094-22.5-22.5 0-6.899 3.103-13.323 8.512-17.625 1.973-1.568 3.025-4.022 2.803-6.532-.666-7.515-2.499-12.259-4.116-16.445-1.81-4.683-3.372-8.728-3.372-17.362s1.563-12.68 3.372-17.363c2.053-5.314 4.38-11.338 4.38-22.771 0-11.432-2.327-17.456-4.38-22.771-1.81-4.684-3.372-8.729-3.372-17.363s1.563-12.68 3.372-17.363c2.053-5.314 4.38-11.339 4.38-22.771 0-11.43-2.327-17.453-4.38-22.767-1.81-4.683-3.372-8.728-3.372-17.361 0-8.636 1.563-12.681 3.372-17.365 2.053-5.313 4.38-11.337 4.38-22.769s-2.327-17.456-4.38-22.771c-1.81-4.684-3.372-8.729-3.372-17.363 0-8.636 1.563-12.682 3.372-17.366 2.053-5.314 4.38-11.338 4.38-22.77s-2.327-17.455-4.38-22.77c-1.81-4.685-3.372-8.729-3.372-17.365 0-8.637 1.563-12.683 3.372-17.368 1.617-4.186 3.449-8.93 4.115-16.443.223-2.51-.83-4.964-2.803-6.532-5.409-4.301-8.511-10.725-8.511-17.624 0-12.406 10.094-22.5 22.5-22.5 6.895 0 13.314 3.099 17.616 8.501 1.563 1.962 4.007 3.017 6.503 2.801l.182-.016c7.433-.676 12.145-2.497 16.303-4.104 4.684-1.81 8.729-3.372 17.363-3.372 8.636 0 12.682 1.563 17.366 3.373 1.302.503 2.647 1.022 4.122 1.525 3.919 1.337 8.182-.757 9.519-4.679 1.337-3.92-.758-8.182-4.679-9.519-1.189-.405-2.339-.85-3.556-1.32-5.315-2.054-11.339-4.381-22.772-4.381-11.432 0-17.455 2.327-22.77 4.38-2.834 1.096-5.372 2.076-8.775 2.693-6.995-6.962-16.408-10.882-26.422-10.882-20.678 0-37.5 16.822-37.5 37.5 0 10.021 3.924 19.437 10.895 26.433-.619 3.406-1.598 5.938-2.688 8.762-2.053 5.315-4.38 11.34-4.38 22.773 0 11.432 2.327 17.455 4.38 22.77 1.81 4.685 3.372 8.729 3.372 17.365s-1.563 12.681-3.372 17.365c-2.053 5.314-4.38 11.338-4.38 22.771 0 11.432 2.327 17.455 4.38 22.769 1.81 4.685 3.372 8.729 3.372 17.365 0 8.635-1.563 12.68-3.372 17.363-2.053 5.314-4.38 11.339-4.38 22.771 0 11.431 2.327 17.454 4.38 22.768 1.81 4.683 3.372 8.728 3.372 17.36 0 8.636-1.563 12.681-3.372 17.365-2.053 5.313-4.38 11.337-4.38 22.769s2.327 17.455 4.38 22.769c1.81 4.685 3.372 8.729 3.372 17.365s-1.563 12.681-3.372 17.365c-2.053 5.313-4.38 11.337-4.38 22.769 0 11.431 2.327 17.454 4.38 22.768 1.091 2.824 2.069 5.356 2.688 8.765-6.971 6.993-10.895 16.409-10.895 26.43 0 20.678 16.822 37.5 37.5 37.5 10.021 0 19.438-3.925 26.436-10.897 3.412.619 5.947 1.599 8.776 2.691 5.315 2.053 11.34 4.38 22.773 4.38 11.432 0 17.455-2.327 22.771-4.38 4.684-1.811 8.729-3.373 17.365-3.373s12.682 1.563 17.365 3.372c5.315 2.054 11.339 4.381 22.771 4.381s17.456-2.327 22.771-4.381c4.684-1.81 8.729-3.372 17.364-3.372 8.636 0 12.681 1.563 17.364 3.372 5.314 2.054 11.338 4.381 22.771 4.381 11.431 0 17.453-2.327 22.768-4.381 4.684-1.81 8.728-3.372 17.362-3.372 8.636 0 12.681 1.563 17.364 3.372 5.314 2.054 11.338 4.381 22.77 4.381 11.433 0 17.456-2.327 22.771-4.381 4.684-1.81 8.729-3.372 17.364-3.372 8.636 0 12.681 1.563 17.364 3.372 5.314 2.054 11.339 4.381 22.771 4.381s17.455-2.327 22.769-4.38c2.707-1.046 5.14-1.985 8.327-2.606 7.046 6.918 16.474 10.813 26.467 10.813 20.886-.001 37.876-17.048 37.876-38.001 0-10.635-4.496-20.789-12.205-27.938z"/><path d="m95 74.5c-17.921 0-32.5 14.579-32.5 32.5s14.579 32.5 32.5 32.5 32.5-14.579 32.5-32.5-14.579-32.5-32.5-32.5zm0 50c-9.649 0-17.5-7.851-17.5-17.5s7.851-17.5 17.5-17.5 17.5 7.851 17.5 17.5-7.851 17.5-17.5 17.5z"/><path d="m204 74.5c-17.921 0-32.5 14.579-32.5 32.5s14.579 32.5 32.5 32.5 32.5-14.579 32.5-32.5-14.579-32.5-32.5-32.5zm0 50c-9.649 0-17.5-7.851-17.5-17.5s7.851-17.5 17.5-17.5 17.5 7.851 17.5 17.5-7.851 17.5-17.5 17.5z"/><path d="m308 74.5c-17.921 0-32.5 14.579-32.5 32.5s14.579 32.5 32.5 32.5 32.5-14.579 32.5-32.5-14.579-32.5-32.5-32.5zm0 50c-9.649 0-17.5-7.851-17.5-17.5s7.851-17.5 17.5-17.5 17.5 7.851 17.5 17.5-7.851 17.5-17.5 17.5z"/><path d="m417 74.5c-17.921 0-32.5 14.579-32.5 32.5s14.579 32.5 32.5 32.5 32.5-14.579 32.5-32.5-14.579-32.5-32.5-32.5zm0 50c-9.649 0-17.5-7.851-17.5-17.5s7.851-17.5 17.5-17.5 17.5 7.851 17.5 17.5-7.851 17.5-17.5 17.5z"/><path d="m95 223.5c-17.921 0-32.5 14.579-32.5 32.5s14.579 32.5 32.5 32.5 32.5-14.579 32.5-32.5-14.579-32.5-32.5-32.5zm0 50c-9.649 0-17.5-7.851-17.5-17.5s7.851-17.5 17.5-17.5 17.5 7.851 17.5 17.5-7.851 17.5-17.5 17.5z"/><path d="m179.487 246.923c-4.146-.252-7.71 2.846-7.989 6.978-2.618 26.455 29.791 44.622 51.071 28.781 7.111-4.979 11.858-12.429 13.365-20.978 3.507-19.071-11.105-37.311-30.46-38.11-4.118-.211-7.653 2.989-7.854 7.128-.201 4.137 2.99 7.653 7.128 7.854 16.273.256 22.772 22.934 9.219 31.818-11.424 8.525-28.923-1.247-27.502-15.482.278-4.133-2.846-7.71-6.978-7.989z"/><path d="m308 223.5c-17.921 0-32.5 14.579-32.5 32.5s14.579 32.5 32.5 32.5 32.5-14.579 32.5-32.5-14.579-32.5-32.5-32.5zm0 50c-9.649 0-17.5-7.851-17.5-17.5s7.851-17.5 17.5-17.5 17.5 7.851 17.5 17.5-7.851 17.5-17.5 17.5z"/><path d="m417 223.5c-17.921 0-32.5 14.579-32.5 32.5s14.579 32.5 32.5 32.5 32.5-14.579 32.5-32.5-14.579-32.5-32.5-32.5zm0 50c-9.649 0-17.5-7.851-17.5-17.5s7.851-17.5 17.5-17.5 17.5 7.851 17.5 17.5-7.851 17.5-17.5 17.5z"/><path d="m95 372.5c-17.921 0-32.5 14.579-32.5 32.5s14.579 32.5 32.5 32.5 32.5-14.579 32.5-32.5-14.579-32.5-32.5-32.5zm0 50c-9.649 0-17.5-7.851-17.5-17.5s7.851-17.5 17.5-17.5 17.5 7.851 17.5 17.5-7.851 17.5-17.5 17.5z"/><path d="m204 437.5c17.921 0 32.5-14.579 32.5-32.5s-14.579-32.5-32.5-32.5-32.5 14.579-32.5 32.5 14.579 32.5 32.5 32.5zm0-50c9.649 0 17.5 7.851 17.5 17.5s-7.851 17.5-17.5 17.5-17.5-7.851-17.5-17.5 7.851-17.5 17.5-17.5z"/><path d="m308 372.5c-17.921 0-32.5 14.579-32.5 32.5s14.579 32.5 32.5 32.5 32.5-14.579 32.5-32.5-14.579-32.5-32.5-32.5zm0 50c-9.649 0-17.5-7.851-17.5-17.5s7.851-17.5 17.5-17.5 17.5 7.851 17.5 17.5-7.851 17.5-17.5 17.5z"/><path d="m417 387.5c4.115 0 7.963 1.381 11.128 3.993 3.194 2.636 7.922 2.184 10.559-1.01 2.637-3.195 2.185-7.922-1.01-10.559-5.802-4.788-13.145-7.425-20.677-7.425-17.921 0-32.5 14.579-32.5 32.5s14.579 32.5 32.5 32.5c9.774 0 18.938-4.339 25.142-11.903 2.626-3.203 2.158-7.929-1.044-10.556-3.204-2.626-7.93-2.158-10.556 1.044-3.343 4.077-8.278 6.415-13.542 6.415-9.649 0-17.5-7.851-17.5-17.5s7.851-17.499 17.5-17.499z"/></g></g></svg>