<svg id="Layer_1" enable-background="new 0 0 512.107 512.107" height="512" viewBox="0 0 512.107 512.107" width="512" xmlns="http://www.w3.org/2000/svg"><g><g><path d="m11.634 401.04 5.042 2.411 60.167 41.75 1.518 2.33c-13.159 13.821-19.749 30.856-23.017 45.397-2.933 13.052-20.325 15.972-27.305 4.56-19.279-31.521-19.577-69.789-16.405-96.448z" fill="#ffba7e"/><path d="m27.813 469.844c3.239-14.413 8.924-30.65 18.787-45.628l30.242 20.985 1.518 2.33c-13.159 13.821-19.749 30.856-23.017 45.397-2.933 13.052-20.325 15.972-27.305 4.56-3.134-5.123-5.758-10.427-7.955-15.828 3.697-2.655 6.566-6.635 7.73-11.816z" fill="#ffaa5b"/><path d="m9.103 363.719c4.73-21.295 17.387-43.272 46.289-57.679l7.45 6.911 61.583 104.125 1.405 5.472c-10.574 8.918-32.18 25.288-48.023 24.99-7.693-.145-14.11-2.606-24.219-5.957-32.56-10.795-51.923-44.373-44.485-77.862z" fill="#ffaa5b"/><path d="m22.8 394.357c11.333 3.757 18.529 6.517 27.154 6.679 16.096.302 37.499-14.741 50.195-25.007l24.276 41.047 1.405 5.472c-10.574 8.918-32.18 25.288-48.023 24.99-7.693-.145-14.11-2.606-24.219-5.957-24.676-8.181-41.76-29.451-45.354-53.848 4.533 2.667 9.395 4.909 14.566 6.624z" fill="#ff9838"/><path d="m73.562 259.645c15.647-13.979 40.184-27.435 74.637-23.143l7.476 2.782 25.75 167.917-.977 6.189c-6.407 5.575-16.745 12.088-30.85 13.167-15.258 1.167-30.174-4.815-40.929-15.701-15.048-15.231-40.796-47.365-52.13-97.533-4.441-19.663 1.991-40.248 17.023-53.678z" fill="#ffba7e"/><path d="m125.842 365.164c20.686-1.582 36.163-10.671 46.227-18.976l9.356 61.013-.977 6.189c-6.407 5.575-16.745 12.088-30.85 13.167-15.258 1.167-30.174-4.815-40.929-15.701-11.656-11.799-29.729-33.749-42.554-66.358 16.342 14.534 37.806 22.342 59.727 20.666z" fill="#ffaa5b"/><path d="m402.531 401.04-5.042 2.411-60.167 41.75-1.518 2.33c13.159 13.821 19.749 30.856 23.017 45.397 2.933 13.052 20.325 15.972 27.305 4.56 19.278-31.521 19.577-69.789 16.405-96.448z" fill="#ffba7e"/><path d="m386.351 469.844c-3.239-14.413-8.924-30.65-18.787-45.628l-30.242 20.985-1.518 2.33c13.159 13.821 19.749 30.856 23.017 45.397 2.933 13.052 20.325 15.972 27.305 4.56 3.134-5.123 5.758-10.427 7.955-15.828-3.696-2.655-6.565-6.635-7.73-11.816z" fill="#ffaa5b"/><path d="m485.614 216.709-56.414 8.742-1.851 1.668c4.605 13.898 3.6 27.875 1.106 39.034-2.239 10.016 8.873 17.737 17.452 12.104 23.697-15.559 36.433-42.012 42.961-61.548z" fill="#ffba7e"/><path d="m455.329 259.893c2.575-11.522 4.144-24.922 2.974-38.951l-29.102 4.51-1.851 1.668c4.605 13.898 3.6 27.875 1.106 39.034-2.239 10.016 8.873 17.737 17.452 12.104 3.629-2.383 6.999-5.023 10.131-7.853-1.202-3.147-1.557-6.724-.71-10.512z" fill="#ffaa5b"/><path d="m219.489 90.316-1.594-2.323c-11.019 17.402-23.477 43.988-20.565 72.186 1.054 10.209 14.058 13.944 20.408 5.881 7.074-8.983 17.273-18.594 30.955-23.804l.483-2.867z" fill="#ffba7e"/><path d="m238.688 122.05c-15.123 6.474-26.531 17.362-34.58 27.583-1.979 2.513-4.495 4.068-7.159 4.791.061 1.91.182 3.828.381 5.755 1.054 10.209 14.058 13.944 20.408 5.881 7.074-8.983 17.273-18.594 30.955-23.804l.483-2.867z" fill="#ffaa5b"/><path d="m489.612 136.467h-4.873l-80.688 55.234-1.46 2.542c4.417 9.65 14.048 28.082 25.138 33.063 5.385 2.418 10.643 2.812 18.754 3.796 26.127 3.171 50.556-13.787 56.36-39.458 3.691-16.325 2.105-35.717-13.231-55.177z" fill="#ffaa5b"/><path d="m473.962 211.014c-14.455-6.492-27.285-27.919-34.944-43.248l-34.965 23.935-1.46 2.542c4.417 9.65 14.048 28.082 25.138 33.063 5.385 2.418 10.643 2.812 18.754 3.796 16.793 2.038 32.875-4.248 43.77-15.81-6.093-.868-11.156-1.97-16.293-4.278z" fill="#ff9838"/><path d="m281.323 39.335-1.7-2.616c-24.773.407-40.806 11.429-51.128 24.604-16.232 20.718-13.942 50.367 5.023 68.616 5.887 5.665 9.515 9.492 14.792 12.138 10.867 5.449 31.239 1.269 41.51-1.404l1.504-6.223z" fill="#ffaa5b"/><path d="m241.889 105.259c-6.218-3.118-10.492-7.628-17.43-14.304-2.218-2.134-4.234-4.405-6.063-6.781-2.761 16.302 2.454 33.576 15.121 45.765 5.887 5.665 9.515 9.492 14.792 12.138 10.867 5.449 31.239 1.269 41.51-1.404l1.504-6.223-3.173-30.178c-12.692 3.104-34.333 6.968-46.261.987z" fill="#ff9838"/><path d="m492.195 98.328c-6.28-14.822-18.898-32.192-44.208-40.495h-7.997l-72.295 107.868v4.304c2.62 5.966 7.66 13.87 17.094 19.236 10.205 5.805 22.512 6.539 33.539 2.507 15.428-5.641 43.814-19.507 68.104-50.604 9.519-12.188 11.796-28.576 5.763-42.816z" fill="#ffba7e"/><path d="m422.971 148.034c-12.264-6.977-20.81-16.089-26.748-24.898l-28.528 42.565v4.304c2.62 5.966 7.66 13.87 17.094 19.236 10.205 5.805 22.512 6.539 33.539 2.507 12.4-4.534 33.172-14.391 53.46-34.229-16.762 2.074-33.908-1.004-48.817-9.485z" fill="#ffaa5b"/><path d="m366.874 19.303c-22.427-14.373-43.863-13.18-59.32-8.683-14.85 4.32-26.114 16.44-29.547 31.52-8.758 38.475-1.571 69.239 3.803 84.761 3.841 11.094 12.186 20.171 23.133 24.413 10.119 3.922 19.431 2.835 25.71 1.096l4.335-7.672 32.705-121.788z" fill="#ffba7e"/><path d="m306.263 100.107c-13.387-3.892-24.537-10.893-32.336-19.724.275 20.424 4.447 36.592 7.884 46.518 3.841 11.094 12.186 20.171 23.133 24.413 10.119 3.922 19.431 2.835 25.71 1.096l4.335-7.672 11.363-42.313c-10.66 1.666-24.846 2.114-40.089-2.318z" fill="#ffaa5b"/><path d="m329.302 144.488c-.099 8.885 5.066 16.992 13.093 20.804 2.858 1.358 5.04 2.394 7.898 3.752 8.026 3.813 17.573 2.695 24.398-2.996 35.179-29.332 60.263-76.878 71.227-100.371 4.285-9.183 1.996-20.069-5.548-26.835-12.081-10.837-24.898-17.203-24.898-17.203s-13.032-5.913-29.065-8.43c-10.011-1.572-19.896 3.531-24.306 12.654-11.284 23.341-32.289 72.825-32.799 118.625z" fill="#ffaa5b"/><path d="m376.913 120.473c-4.954-2.353-8.736-4.15-13.69-6.503-12.508-5.941-21.871-16.037-24.77-26.559-5.154 18.225-8.939 37.968-9.152 57.077-.099 8.885 5.067 16.992 13.093 20.804 2.858 1.358 5.04 2.394 7.898 3.752 8.026 3.813 17.573 2.695 24.398-2.996 14.677-12.238 27.589-27.646 38.459-43.155-9.986 4.4-23.727 3.521-36.236-2.42z" fill="#ff9838"/><path d="m405.062 363.719c-4.73-21.295-17.387-43.272-46.289-57.679l-7.45 6.911-61.583 104.125-1.405 5.472c10.574 8.918 32.18 25.288 48.023 24.99 7.693-.145 14.11-2.606 24.219-5.957 32.56-10.795 51.923-44.373 44.485-77.862z" fill="#ffaa5b"/><path d="m391.365 394.357c-11.333 3.757-18.529 6.517-27.154 6.679-16.096.302-37.499-14.741-50.195-25.007l-24.276 41.047-1.405 5.472c10.574 8.918 32.18 25.288 48.023 24.99 7.693-.145 14.11-2.606 24.219-5.957 24.677-8.182 41.761-29.451 45.355-53.848-4.534 2.667-9.396 4.909-14.567 6.624z" fill="#ff9838"/><path d="m340.602 259.645c-15.647-13.979-40.184-27.435-74.637-23.143l-7.476 2.782-25.75 167.917.977 6.189c6.407 5.575 16.745 12.088 30.85 13.167 15.258 1.167 30.174-4.815 40.929-15.701 15.048-15.231 40.796-47.365 52.13-97.533 4.442-19.663-1.99-40.248-17.023-53.678z" fill="#ffba7e"/><path d="m288.323 365.164c-20.686-1.582-36.163-10.671-46.227-18.976l-9.356 61.013.977 6.189c6.407 5.575 16.745 12.088 30.85 13.167 15.258 1.167 30.174-4.815 40.929-15.701 11.656-11.799 29.729-33.749 42.554-66.358-16.342 14.534-37.806 22.342-59.727 20.666z" fill="#ffaa5b"/><path d="m174.266 404.667c4.826 10.529 15.424 17.211 27.006 17.241 4.124.011 7.273.019 11.397.029 11.582.03 22.214-6.599 27.093-17.103 25.152-54.143 28.273-124.142 28.129-157.934-.056-13.208-8.811-24.766-21.467-28.546-20.269-6.054-38.918-6.429-38.918-6.429s-18.651.279-38.951 6.23c-12.675 3.715-21.489 15.229-21.612 28.437-.317 33.79 2.448 103.804 27.323 158.075z" fill="#ffaa5b"/><path d="m217.763 350.977c-7.864-.02-13.867-.035-21.731-.055-16.67-.043-32.268-7.317-42.873-19.515 4.052 24.62 10.603 50.342 21.108 73.261 4.826 10.529 15.424 17.211 27.006 17.241 4.124.01 7.273.019 11.397.029 11.582.03 22.214-6.599 27.093-17.103 10.728-23.094 17.439-49.07 21.607-73.893-10.677 12.588-26.602 20.078-43.607 20.035z" fill="#ff9838"/></g><g><path d="m406.929 374.012c-4.163-.215-7.661 2.97-7.875 7.106-1.233 24.02-17.48 45.6-40.842 53.344-9.755 3.235-15.559 5.456-21.998 5.578h-.006l-.003-.002c-11.019-.191-25.556-9.718-34.414-16.352 19.887-13.666 50.312-54.989 62.498-105.922 13.03 8.334 22.591 19.214 28.487 32.446 1.688 3.784 6.124 5.483 9.903 3.797 3.784-1.687 5.483-6.121 3.798-9.904-7.999-17.947-21.444-32.209-39.986-42.466.191-17.981-7.267-35.41-20.895-47.585-14.935-13.341-39.862-28.203-75.079-25.529-4.652-8.177-12.364-14.493-21.95-17.356-17.367-5.187-35.866-6.8-41.177-6.741-.803.012-19.912.365-40.948 6.532-9.601 2.814-17.345 9.091-22.039 17.244-35.211-2.852-60.207 11.881-75.208 25.146-13.689 12.105-21.236 29.493-21.139 47.472-24.616 13.428-40.151 33.666-46.194 60.225-3.125 13.739-2.219 27.487 1.984 39.99-3.2 27.658-2.619 66.699 17.164 99.418 10.434 17.257 36.561 12.915 41.055-6.62 3.672-15.96 10.19-29.279 19.389-39.641 15.011-1.58 32.273-12.875 45.504-23.481 18.091 6.205 37.446 3.197 53.209-7.892 6.088 4.171 13.403 6.569 21.084 6.589l11.396.029h.097c7.645 0 14.937-2.358 21.021-6.481 15.767 11.214 35.117 14.254 53.168 8.164 13.176 10.674 30.379 22.056 45.382 23.711 9.146 10.409 15.596 23.761 19.188 39.742 4.404 19.596 30.554 23.941 41.021 6.828 20.01-32.717 20.734-71.894 17.642-99.583 2.181-6.359 3.518-13.053 3.871-19.931.21-4.138-2.971-7.663-7.108-7.875zm-359.482 116.458c-1.492 6.486-10.172 7.892-13.602 2.222-12.852-21.258-16.549-45.938-16.466-67.559 12.691 15.097 27.137 21.535 46.568 27.049-7.594 10.8-13.126 23.625-16.5 38.288zm8.213-56.78c-28.459-9.599-46.041-39.122-39.171-69.317 4.613-20.279 15.928-36.188 33.689-47.413 11.517 49.271 42.236 92.534 61.958 106.241-30.05 22.266-38.101 16.687-56.476 10.489zm72.923-18.439c-29.468-12.769-61.575-76.78-65.204-109.382-1.734-15.478 4.045-30.932 15.754-41.286 16.958-14.993 37.129-22.727 60.517-21.673-.433 3.758-3.344 96.941 27.796 164.881.486 1.072 1.461 2.904 2.171 4.049-12.327 7.816-27.303 9.389-41.034 3.411zm104.375-13.578c-3.497 7.526-11.328 12.763-20.215 12.763-.02 0-.039 0-.059 0l-11.396-.029c-8.959-.023-16.763-5.351-20.207-12.866-27.596-60.207-28.909-152.076-25.14-162.719 2.457-6.388 7.773-11.435 14.72-13.471 18.15-5.32 35.185-5.883 36.826-5.925 1.68.05 18.598.68 36.787 6.113 9.711 2.9 16.069 11.642 16.113 21.392.152 35.414-3.211 102.609-27.429 154.742zm11.412 10.358c.697-1.111 1.57-2.701 2.191-4.038 29.171-62.794 29.89-151.865 28.638-164.737 22.717-.913 43.034 6.463 60.404 21.982 13.06 11.666 18.506 29.591 14.704 46.431-8.527 37.74-27.137 70.621-50.151 93.915-14.426 14.603-36.932 18.538-55.786 6.447zm135.355 81.543c-3.458 5.654-12.129 4.201-13.589-2.291-3.299-14.681-8.766-27.534-16.305-38.372 19.004-5.288 33.859-11.659 46.706-26.868-.022 21.635-3.84 46.322-16.812 67.531z"/><path d="m498.412 135.734c15.199-33.102-9.903-70.069-43.026-83.195-.824-7.229-4.247-14.11-10.011-19.281-3.391-3.042-7.143-6.026-11.15-8.869-3.379-2.397-8.062-1.6-10.457 1.778-2.396 3.378-1.601 8.06 1.777 10.457 3.545 2.514 6.847 5.139 9.814 7.801 3.953 3.546 5.89 8.806 4.979 14.175 0 0-.305 1.943-1.219 3.905-16.098 34.492-40.125 73.512-69.234 97.783-.013.01-.026.019-.038.03-4.396 3.638-10.802 4.582-16.34 1.952-7.857-3.733-13.388-5.338-15.901-12.721-2.655-7.812-.02-55.743 31.245-120.423 3.043-6.299 9.748-9.549 16.39-8.508 3.537.555 7.237 1.342 10.998 2.34 4.003 1.063 8.11-1.323 9.172-5.327 1.063-4.003-1.322-8.11-5.326-9.172-4.26-1.129-8.471-2.024-12.517-2.659-7.652-1.201-15.148.493-21.271 4.421-30.972-17.308-75.566-13.592-91.673 19.219-21.534 1.505-39.026 10.654-52.037 27.259-6.784 8.659-10.757 18.651-12.025 28.873-11.367 18.377-23.74 45.886-20.694 75.379 1.743 16.888 23.26 23.085 33.761 9.75 7.431-9.437 15.884-16.271 25.156-20.366 11.406 3.672 26.986 1.363 38.631-1.35 10.213 9.536 24.3 14.172 39.152 11.949 3.019 4.723 7.34 8.633 12.607 11.135 8.688 4.127 14.34 7.643 24.483 6.472 7.282 12.288 19.427 20.813 33.997 22.808 5.625 11.5 13.661 24.506 23.374 30.806 2.683 9.773 2.726 20.643.105 32.365-3.702 16.566 14.699 29.325 28.888 20.009 24.783-16.272 38.289-43.24 45.352-63.661 18.885-19.734 24.285-55.004 3.038-85.134zm-286.568 25.685c-2.196 2.79-6.693 1.497-7.056-2.011-1.742-16.868 2.572-33.273 8.637-47.182 4.442 12.659 11.292 19.985 20.838 28.817-8.193 5.024-15.7 11.842-22.419 20.376zm40.055-25.943c-2.191 0-12.184-9.975-13.184-10.941-9.018-8.517-14.675-21.609-13.355-35.849.017-.181 0-.358.004-.537.839-7.857 3.827-15.557 9.031-22.2 9.037-11.534 20.885-18.525 35.313-20.862-7.161 35.9-1.22 73.269 7.742 90.657-11.52 2.086-20.697 2.028-25.551-.268zm69.944 10.902c-10.01.761-19.647-2.934-26.392-10.655-15.654-17.815-17.324-72.849-8.883-96.142 9.697-26.761 45.162-29.877 69.259-17.935-22.994 43.531-35.32 100.323-33.984 124.732zm56.09 26.644c27.646-20.125 61.829-73.669 75.213-105.148 27.165 12.352 45.902 44.92 27.372 68.653-21.211 27.155-77.497 72.548-102.585 36.495zm63.856 98.965c-2.953 1.938-6.789-.738-6.017-4.198 2.369-10.601 2.911-20.728 1.63-30.252 13.158 1.875 23.008 2.454 35.503-2.057-6.948 13.49-16.939 27.199-31.116 36.507zm10.327-48.016c-3.609-.055-16.478-1.215-21.53-3.616-4.848-2.304-10.693-9.383-16.361-19.641 17.672-3.77 50.587-21.496 75.163-51.277 19.63 34.03-.466 75.104-37.272 74.534z"/></g></g></svg>