<svg id="Layer_1" enable-background="new 0 0 512 512" height="512" viewBox="0 0 512 512" width="512" xmlns="http://www.w3.org/2000/svg"><g><g><g><g><path d="m52.675 394.886c0 47.114 89.229 72.809 202.164 72.809s204.486-27.695 204.486-72.809z" fill="#abbaeb"/><ellipse cx="256" cy="352" fill="#f0f4ff" rx="248.5" ry="81.592"/><path d="m256 270.408c-6.733 0-13.402.091-20 .264 127.889 3.345 228.5 38.477 228.5 81.329s-100.611 77.983-228.5 81.328c6.598.173 13.267.264 20 .264 137.243 0 248.5-36.53 248.5-81.592s-111.257-81.593-248.5-81.593z" fill="#e1eaff"/><g><g><path d="m424.308 300.545h-336.616v25.533c0 26.691 75.354 56.839 168.308 56.839s168.308-30.148 168.308-56.839z" fill="#fcf2b4"/><ellipse cx="256" cy="298.113" fill="#ffdf5e" rx="168.308" ry="48.328"/></g><g><path d="m408.831 230.025h-336.617v25.533c0 26.691 75.354 56.839 168.308 56.839s168.308-30.148 168.308-56.839v-25.533z" fill="#fcf2b4"/><ellipse cx="240.523" cy="227.593" fill="#ffdf5e" rx="168.308" ry="48.328"/></g><g><path d="m445.313 159.505h-336.616v25.533c0 26.691 75.354 56.839 168.308 56.839s168.308-30.148 168.308-56.839z" fill="#fcf2b4"/><ellipse cx="277.005" cy="157.074" fill="#ffdf5e" rx="168.308" ry="48.328"/></g><g><path d="m424.308 95.065h-336.616v25.533c0 26.691 75.354 56.839 168.308 56.839s168.308-30.148 168.308-56.839z" fill="#fcf2b4"/><ellipse cx="256" cy="92.633" fill="#ffdf5e" rx="168.308" ry="48.328"/></g></g></g><path d="m424.308 92.633c0-26.691-75.354-48.328-168.308-48.328s-168.308 21.637-168.308 48.328c0 21.854 50.516 40.319 119.848 46.294 20.034 1.727 35.461 18.41 35.461 38.519v58.538c0 11.658 9.065 21.587 20.716 22.001 12.23.436 22.283-9.351 22.283-21.485v-40.474c0-11.884 9.418-21.918 21.302-22.025 11.411-.103 20.771 8.69 21.615 19.861v87.055c0 11.874 9.626 21.5 21.5 21.5 11.874 0 21.5-9.626 21.5-21.5v-125.646c0-15.594 9.416-29.555 23.762-35.668 18.077-7.703 28.629-16.983 28.629-26.97z" fill="#f07507"/><g><path d="m256 44.305c-6.769 0-13.44.118-20 .341 83.525 2.84 148.308 23.24 148.308 47.987 0 9.987-10.552 19.267-28.629 26.97-14.345 6.113-23.762 20.074-23.762 35.668v125.646c0 2.774-.543 5.416-1.5 7.851 3.138 7.987 10.9 13.649 20 13.649 11.874 0 21.5-9.626 21.5-21.5v-125.646c0-15.594 9.416-29.555 23.762-35.668 18.077-7.703 28.629-16.983 28.629-26.97 0-26.691-75.354-48.328-168.308-48.328z" fill="#e06a00"/></g></g></g><g fill="#060606"><path d="m512 352c0-34.922-53.667-57.667-84.058-66.612 0 0-8.979-10.286-16.75-14.864 3.399-4.868 5.139-9.878 5.139-14.966v-25.532c0-2.191.012-4.444-.406-6.599 23.61-11.141 36.889-24.596 36.889-38.388 0-9.32 0-18.65 0-27.965 0-10.731-7.533-20.341-22.407-28.633.93-2.59 1.402-5.208 1.402-7.843 0-9.32 0-18.65 0-27.965 0-16.792-18.924-31.102-54.727-41.382-32.443-9.315-75.444-14.446-121.082-14.446s-88.639 5.131-121.082 14.446c-35.803 10.28-54.727 24.59-54.727 41.382v27.965c0 10.511 7.625 20.834 21.944 30.152-.62 2.078-.938 4.191-.938 6.324v27.965c0 2.304.355 4.592 1.056 6.856-10.826 4.082-21.312 9.291-29.211 17.425-6.565 6.76-8.006 13.531-7.94 18.341 0 0-.387 19.583-.387 27.898 0 10.215 7.3 20.055 20.023 28.837-.186.269-.362.539-.537.809-54.306 16.658-84.201 40.347-84.201 66.795 0 13.452 7.546 26.131 22.43 37.684 6.574 5.104 14.511 9.93 23.742 14.449 11.225 52.31 114.401 71.063 208.667 71.063 54.268 0 104.644-6.463 141.849-18.198 40.003-12.617 63.803-30.832 69.04-52.777 30.166-14.723 46.272-32.621 46.272-52.221zm-416.809-29.98c9.184 6.643 22.494 12.527 39.727 17.475 32.443 9.315 75.444 14.446 121.082 14.446s88.639-5.131 121.082-14.446c17.233-4.948 30.542-10.832 39.727-17.475v4.058c0 7.736-13.703 20.436-44.318 31.365-32.467 11.591-73.837 17.974-116.49 17.974s-84.023-6.383-116.49-17.974c-30.615-10.93-44.318-23.629-44.318-31.365v-4.058zm321.618-23.907c0 10.605-23.631 21.153-43.866 26.964-31.136 8.94-72.666 13.864-116.942 13.864s-85.807-4.924-116.942-13.864c-32.378-9.297-43.866-20.336-43.866-26.964 0-2.124 1.092-4.215 2.539-6.056 32.509 16.585 85.496 27.839 142.792 27.839 34.91 0 69.149-4.162 99.215-12.026 13.036 5.184 28.357-.064 35.565-12.083 8.654-3.205 17.66-8.535 24.963-14.187 10.554 5.541 16.542 11.468 16.542 16.513zm-95.392-101.958c-9.123.725-18.46 1.224-27.917 1.492v-1.621c0-7.94 6.222-14.457 13.869-14.525.043-.001.084-.001.127-.001 7.196 0 13.252 5.524 13.921 12.676zm-27.917 16.496c9.444-.261 18.783-.741 27.917-1.446v20.802c-9.183.99-18.529 1.672-27.917 2.04zm123.309-92.053c-.421 2.999-1.601 5.604-3.541 7.816-5.121 6.265-15.932 13.698-33.209 20.673 2.031-9.939 8.859-18.449 18.56-22.583 7.244-3.087 13.306-6.393 18.189-9.904v3.998zm-37.392 156.508v-14.119c8.908-3.508 16.218-7.315 21.914-11.405v3.975c0 7.13-10.402 15.26-21.914 21.549zm21.6-47.46c-1.778 6.101-11.1 12.261-21.6 17.042v-10.18c7.743-2.112 14.956-4.408 21.6-6.862zm-21.6-8.716v-17.827c18.272-3.941 42.836-10.932 58.396-22.13v4.066c0 9.755-20.022 24.799-58.396 35.891zm58.396-63.857c0 8.892-18.132 21.571-58.396 30.664v-22.336c19.51-7.156 33.951-15.469 42.672-24.401 9.937 5.385 15.724 11.222 15.724 16.073zm-298.755-91.404c31.136-8.94 72.666-13.864 116.942-13.864s85.807 4.924 116.942 13.864c32.378 9.297 43.866 20.336 43.866 26.964 0 6.146-8.998 13.648-24.07 20.071-17.204 7.332-28.321 24.041-28.321 42.567v125.646c0 7.719-6.28 13.999-14 13.999s-14-6.28-14-14v-87.055c0-.188-.007-.377-.021-.564-1.139-15.076-13.807-26.798-28.899-26.798-.087 0-.175 0-.262.001-15.845.144-28.734 13.389-28.734 29.525v40.475c0 18.429-28 17.738-28-.516v-58.538c0-24.14-18.192-43.912-42.316-45.991-77.937-6.717-112.992-26.746-112.992-38.822-.002-10.606 23.629-21.154 43.865-26.964zm10.682 146.532c-11.529-4.919-24.494-12.322-30.357-19.699-2.016-3.675-3.621-7.157-3.186-11.423 6.97 5.001 16.352 9.577 28.128 13.699 23.532 8.239 55.723 14.102 91.175 16.656v20.877c-32.646-3.278-62.876-10.346-85.76-20.11zm85.76-15.8c-78.045-5.701-116.155-25.068-119.109-37.76 4.102 1.957 8.523 3.851 13.27 5.671 29.207 11.197 66.592 18.283 105.839 20.13zm-140.309-75.803v-3.977c6.086 4.37 14.01 8.418 23.76 12.125 22.424 8.523 52.834 14.629 87.944 17.655 13.515 1.165 24.268 10.535 27.557 22.985-37.037-1.895-72.095-8.603-99.422-19.08-13.003-4.984-23.608-10.659-30.671-16.408-5.912-4.814-9.168-9.537-9.168-13.3zm-15.476 130.962c14.059 10.346 31.531 15.424 46.951 19.375 8.868 2.276 13.36-12.061 3.723-14.531-14.777-3.786-31.556-8.639-43.651-18.349-4.067-3.265-6.42-6.899-6.627-10.235-.164-2.651 1.078-5.36 3.691-8.051 6.6-6.795 16.408-11.246 26.543-14.869 7.142 7.532 18.39 14.646 33.509 21.097 25.157 10.735 58.441 18.36 94.044 21.602 4.351 10.142 14.163 17.477 25.551 17.882 11.291.392 22.222-6.149 27.165-16.324 10.347-.323 20.664-1.017 30.803-2.07v15.193c-48.708 7.209-98.462 7.927-147.994 2.089-9.317-1.081-11.504 13.749-1.756 14.896 22.725 2.679 45.489 4.017 68.193 4.017 27.352 0 54.607-1.964 81.557-5.845-.32 6.365.839 12.938 4.168 18.443-26.254 5.909-55.379 9.016-85.063 9.016-42.653 0-84.023-6.383-116.49-17.974-30.614-10.929-44.317-23.628-44.317-31.365zm395.866 129.745c-14.945 10.135-37.138 19.335-64.179 26.606-9.088 2.445-5.439 16.991 3.895 14.486 10.662-2.867 20.484-5.98 29.477-9.306-22.542 27.967-96.954 47.104-189.935 47.104-54.577 0-102.02-5.908-137.198-17.086-29.47-9.364-44.302-20.402-51.427-30.413 3.766 1.413 7.67 2.79 11.731 4.124 47.67 15.651 110.905 24.271 178.056 24.271 39.338 0 77.021-2.905 112.002-8.636 9.262-1.518 7.26-16.391-2.424-14.803-34.183 5.6-71.051 8.438-109.578 8.438-65.604 0-127.177-8.354-173.377-23.523-42.345-13.901-67.624-32.805-67.624-50.567 0-17.579 24.167-35.872 65.191-49.75v23.828c0 34.274 82.153 64.339 175.809 64.339s175.809-30.064 175.809-64.339v-23.828c40.966 13.863 65.191 32.238 65.191 49.75 0 12.217-11.647 22.679-21.419 29.305z"/><path d="m138.995 94.502c.635 0 1.281-.081 1.924-.252.335-.088 33.645-8.869 52.827-10.787 4.122-.412 7.129-4.088 6.717-8.209-.411-4.121-4.08-7.122-8.209-6.717-20.361 2.036-53.762 10.839-55.173 11.213-4.005 1.06-6.392 5.165-5.331 9.169.89 3.361 3.925 5.583 7.245 5.583z"/></g></g></svg>