<svg id="Capa_1" enable-background="new 0 0 512 512" height="512" viewBox="0 0 512 512" width="512" xmlns="http://www.w3.org/2000/svg"><g><path d="m282.317 124.726h-142.628c-11.254 0-20.378 9.123-20.378 20.378v39.357h163.005v-59.735z" fill="#818181"/><path d="m166.726 124.725c-11.255 0-20.379 9.124-20.379 20.378v39.357h-27.036v-39.357c0-11.255 9.124-20.378 20.378-20.378z" fill="#454545"/><g fill="#818181"><path d="m115.758 511.315c-12.302 0-22.274-9.972-22.274-22.274v-73.211h44.548v73.211c0 12.301-9.973 22.274-22.274 22.274z"/><path d="m356.721 511.315c-12.302 0-22.274-9.972-22.274-22.274v-73.211h44.548v73.211c0 12.301-9.973 22.274-22.274 22.274z"/></g><g fill="#454545"><path d="m121.971 510.435c-1.979.579-4.059.883-6.221.883-12.3 0-22.266-9.976-22.266-22.276v-73.212h12.422v73.212c0 10.149 6.789 18.714 16.065 21.393z"/><path d="m362.931 510.435c-1.969.579-4.059.883-6.211.883-12.3 0-22.276-9.976-22.276-22.276v-73.212h12.422v73.212c-.001 10.149 6.789 18.714 16.065 21.393z"/></g><path d="m20.249 269.506h78.296v-40.498h-78.296c-11.183 0-20.249 9.066-20.249 20.249 0 11.184 9.066 20.249 20.249 20.249z" fill="#61a2f9"/><path d="m98.546 255.339v14.168h-78.297c-5.592 0-10.656-2.263-14.32-5.927s-5.927-8.728-5.927-14.32c0-2.497.447-4.882 1.279-7.084 1.025 2.74 2.618 5.196 4.648 7.226 3.664 3.674 8.728 5.937 14.32 5.937z" fill="#4073c8"/><path d="m356.62 157.462h-240.761c-27.432 0-50.536 20.504-53.794 47.742l-26.465 221.198c-3.858 32.243 21.321 60.614 53.794 60.614h293.689c32.473 0 57.652-28.371 53.794-60.614l-26.464-221.198c-3.258-27.238-26.361-47.742-53.793-47.742z" fill="#e4f6ff"/><path d="m113.735 487.02h-24.336c-32.476 0-57.655-28.376-53.798-60.618l26.468-221.2c3.258-27.239 26.356-47.739 53.788-47.739h24.347c-27.432 0-50.54 20.5-53.798 47.739l-26.458 221.2c-3.857 32.242 21.321 60.618 53.787 60.618z" fill="#d3effb"/><path d="m504.388 102.343c0-51.942-64.898-94.049-144.953-94.049s-144.953 42.107-144.953 94.049c0 15.988 6.156 31.04 17.002 44.224v132.787c0 21.223 17.205 38.427 38.427 38.427h179.047c21.223 0 38.427-17.205 38.427-38.427v-132.788c10.847-13.183 17.003-28.236 17.003-44.223z" fill="#b16e3d"/><path d="m487.382 154.178c-1.702 0-3.414-.568-4.832-1.734-3.246-2.671-3.713-7.468-1.042-10.714 10.131-12.314 15.269-25.566 15.269-39.388 0-22.455-13.846-43.805-38.987-60.118-26.16-16.973-61.089-26.32-98.354-26.32s-72.195 9.347-98.355 26.32c-25.141 16.312-38.987 37.663-38.987 60.118 0 13.821 5.137 27.073 15.269 39.388 2.671 3.246 2.205 8.043-1.042 10.714-3.246 2.671-8.043 2.204-10.714-1.042-12.258-14.898-18.736-31.862-18.736-49.059 0-27.788 16.31-53.673 45.925-72.888 28.596-18.555 66.468-28.773 106.64-28.773 40.171 0 78.043 10.218 106.64 28.773 29.614 19.214 45.924 45.1 45.924 72.888 0 17.197-6.479 34.162-18.736 49.059-1.505 1.829-3.685 2.776-5.882 2.776z" fill="#8b572e"/><circle cx="124.374" cy="399.101" fill="#61a2f9" r="47.585"/><circle cx="398.751" cy="211.799" fill="#8b572e" r="7.611"/><circle cx="392.672" cy="243.18" fill="#8b572e" r="7.611"/><circle cx="270.786" cy="262.421" fill="#8b572e" r="7.611"/><circle cx="280.296" cy="284.694" fill="#8b572e" r="7.611"/><circle cx="124.374" cy="377.842" fill="#e4f6ff" r="7.611"/><g fill="#8b572e"><circle cx="424.061" cy="236.097" r="7.611"/><circle cx="451.402" cy="79.168" r="7.611"/><circle cx="283.33" cy="91.316" r="7.611"/><circle cx="260.039" cy="85.237" r="7.611"/><circle cx="282.315" cy="67.019" r="7.611"/></g></g></svg>