<?xml version="1.0" encoding="iso-8859-1"?>
<!-- Generator: Adobe Illustrator 19.0.0, SVG Export Plug-In . SVG Version: 6.00 Build 0)  -->
<svg version="1.1" id="Capa_1" xmlns="http://www.w3.org/2000/svg" xmlns:xlink="http://www.w3.org/1999/xlink" x="0px" y="0px"
	 viewBox="0 0 512 512" style="enable-background:new 0 0 512 512;" xml:space="preserve">
<path style="fill:#FFD371;" d="M344.116,170.6v-52.245c0,0,2.09-32.392-21.943-32.392s-41.796-14.629-41.796-35.527
	s12.538-50.436-24.033-50.436s-24.033,29.538-24.033,50.436s-17.763,35.527-41.796,35.527s-21.943,32.392-21.943,32.392v41.796"/>
<path style="fill:#DEAF50;" d="M208.342,160.152l48.003,5.224l-87.771-5.224v-41.796c0,0-2.09-32.392,21.943-32.392
	s41.796-14.629,41.796-35.527S219.773,0,256.345,0c-19.999,0-5.572,29.539-5.572,50.437s-12.637,38.855-25.426,43.189
	c-0.514,0.174-1.016,0.355-1.506,0.542c-13.427,5.125-21.364,19.054-19.581,33.314L208.342,160.152z"/>
<path style="fill:#428FCE;" d="M361.181,232.249v-72.617c0-8.369-6.783-15.152-15.152-15.152H165.966
	c-8.369,0-15.152,6.783-15.152,15.152v72.617"/>
<path style="fill:#3180B5;" d="M197.831,232.249V144.48h-31.864c-8.369,0-15.152,6.783-15.152,15.152v72.617"/>
<path style="fill:#82BFB8;" d="M389.747,261.862v196.493c0,29.623-24.022,53.645-53.656,53.645H175.898
	c-29.623,0-53.645-24.022-53.645-53.645V261.862c0-29.623,24.022-53.645,53.645-53.645h160.193
	C365.725,208.217,389.747,232.239,389.747,261.862z"/>
<path style="fill:#A5E5DF;" d="M389.747,261.862v196.493c0,29.623-24.022,53.645-53.656,53.645H221.874
	c-29.623,0-53.645-24.022-53.645-53.645V261.862c0-29.623,24.022-53.645,53.645-53.645h114.218
	C365.725,208.217,389.747,232.239,389.747,261.862z"/>
<g>
	<path style="fill:#82BFB8;" d="M342.026,270.388h-44.931c-4.329,0-7.837-3.509-7.837-7.837s3.508-7.837,7.837-7.837h44.931
		c4.329,0,7.837,3.509,7.837,7.837S346.355,270.388,342.026,270.388z"/>
	<path style="fill:#82BFB8;" d="M342.026,370.176h-44.931c-4.329,0-7.837-3.509-7.837-7.837s3.508-7.837,7.837-7.837h44.931
		c4.329,0,7.837,3.509,7.837,7.837S346.355,370.176,342.026,370.176z"/>
	<path style="fill:#82BFB8;" d="M342.026,336.913h-32.392c-4.329,0-7.837-3.509-7.837-7.837c0-4.328,3.508-7.837,7.837-7.837h32.392
		c4.329,0,7.837,3.509,7.837,7.837C349.863,333.404,346.355,336.913,342.026,336.913z"/>
	<path style="fill:#82BFB8;" d="M342.026,303.65h-32.392c-4.329,0-7.837-3.509-7.837-7.837c0-4.328,3.508-7.837,7.837-7.837h32.392
		c4.329,0,7.837,3.509,7.837,7.837C349.863,300.142,346.355,303.65,342.026,303.65z"/>
	<path style="fill:#82BFB8;" d="M342.026,436.7h-32.392c-4.329,0-7.837-3.509-7.837-7.837c0-4.328,3.508-7.837,7.837-7.837h32.392
		c4.329,0,7.837,3.509,7.837,7.837C349.863,433.192,346.355,436.7,342.026,436.7z"/>
	<path style="fill:#82BFB8;" d="M342.026,403.438h-32.392c-4.329,0-7.837-3.509-7.837-7.837c0-4.328,3.508-7.837,7.837-7.837h32.392
		c4.329,0,7.837,3.509,7.837,7.837C349.863,399.929,346.355,403.438,342.026,403.438z"/>
	<path style="fill:#82BFB8;" d="M342.026,469.964h-44.931c-4.329,0-7.837-3.509-7.837-7.837s3.508-7.837,7.837-7.837h44.931
		c4.329,0,7.837,3.509,7.837,7.837S346.355,469.964,342.026,469.964z"/>
</g>
<g>
</g>
<g>
</g>
<g>
</g>
<g>
</g>
<g>
</g>
<g>
</g>
<g>
</g>
<g>
</g>
<g>
</g>
<g>
</g>
<g>
</g>
<g>
</g>
<g>
</g>
<g>
</g>
<g>
</g>
</svg>
