<?xml version="1.0" encoding="iso-8859-1"?>
<!-- Generator: Adobe Illustrator 19.0.0, SVG Export Plug-In . SVG Version: 6.00 Build 0)  -->
<svg version="1.1" id="Layer_1" xmlns="http://www.w3.org/2000/svg" xmlns:xlink="http://www.w3.org/1999/xlink" x="0px" y="0px"
	 viewBox="0 0 512.001 512.001" style="enable-background:new 0 0 512.001 512.001;" xml:space="preserve">
<path style="fill:#F94848;" d="M362.898,312.487H125.212c-32.031,0-57.997-25.967-57.997-57.997v-81.662h353.681v81.662
	C420.895,286.52,394.929,312.487,362.898,312.487z"/>
<path style="fill:#DB3A3A;" d="M132.509,254.489v-81.662H67.214v81.662c0,32.031,25.966,57.997,57.997,57.997h65.295
	C158.476,312.487,132.509,286.52,132.509,254.489z"/>
<path style="fill:#F94848;" d="M402.333,59.775l-278.594,93.981l-56.531,19.07l-3.773-11.21
	c-10.242-30.352,6.058-63.255,36.41-73.497l32.77-11.052h0.012l192.436-64.923c30.352-10.242,63.255,6.07,73.497,36.422
	L402.333,59.775z"/>
<path style="fill:#DB3A3A;" d="M123.739,153.757l-56.531,19.07l-3.773-11.21c-10.242-30.352,6.058-63.255,36.41-73.497l32.77-11.052
	h0.012C132.627,77.067,96.834,94.783,123.739,153.757z"/>
<path style="fill:#FFA91F;" d="M279.422,172.828c0,0,3.628-47.157,68.922-47.157s103.384-29.02,94.315-70.736
	c0,0,30.834,87.06-21.765,117.894"/>
<circle style="fill:#808080;" cx="136.135" cy="435.817" r="67.112"/>
<path d="M231.639,245.377c-3.654,0-6.628-2.973-6.628-6.628v-15.137c0-5.009-4.059-9.069-9.069-9.069
	c-5.01,0-9.069,4.061-9.069,9.069v15.137c0,13.656,11.11,24.766,24.766,24.766h115.52c13.656,0,24.765-11.11,24.765-24.766v-15.137
	c0-5.009-4.059-9.069-9.069-9.069c-5.01,0-9.069,4.061-9.069,9.069v15.137c0,3.654-2.974,6.628-6.627,6.628H231.639z"/>
<path d="M451.209,51.907c-1.599-4.513-6.433-7.004-11.031-5.695c-4.604,1.31-7.397,5.972-6.38,10.65
	c2.797,12.865,0.364,24.165-7.23,33.589c-13.396,16.62-41.906,26.152-78.222,26.152c-20.654,0-48.894,4.705-66.135,27.118
	c-5.656,7.353-8.621,14.657-10.17,20.039H122.47l282.768-95.392c2.279-0.769,4.159-2.411,5.227-4.567
	c1.068-2.155,1.235-4.647,0.467-6.925l-3.782-11.211c-5.726-16.974-17.719-30.702-33.771-38.657s-34.24-9.18-51.216-3.454
	L165.616,56.364c-4.746,1.601-7.295,6.746-5.694,11.492c1.601,4.746,6.747,7.296,11.492,5.694l156.548-52.812
	c12.385-4.178,25.655-3.282,37.363,2.52c11.711,5.803,20.46,15.818,24.638,28.202l0.883,2.618L72.908,161.336l-0.883-2.618
	c-4.178-12.384-3.283-25.653,2.52-37.363c5.802-11.71,15.817-20.46,28.2-24.638l32.768-11.054c4.746-1.601,7.295-6.746,5.694-11.492
	c-1.6-4.746-6.745-7.295-11.492-5.694L96.948,79.531c-16.974,5.727-30.702,17.72-38.657,33.771
	c-7.953,16.051-9.179,34.24-3.452,51.214l3.306,9.801v80.173c0,34.152,25.665,62.403,58.718,66.528l3.566,40.264
	c-34.492,7.26-60.47,37.92-60.47,74.54c0,42.005,34.174,76.178,76.178,76.178s76.178-34.173,76.178-76.178
	c0-8.89-1.52-17.603-4.518-25.899c-1.703-4.711-6.908-7.148-11.612-5.446c-4.711,1.703-7.149,6.901-5.448,11.612
	c2.282,6.312,3.439,12.952,3.439,19.733c0,32.003-26.036,58.039-58.039,58.039s-58.039-26.036-58.039-58.039
	c0-27.144,18.733-49.987,43.947-56.3l5.058,57.101c0.418,4.717,4.376,8.27,9.023,8.27c0.268,0,0.538-0.012,0.811-0.036
	c4.989-0.441,8.675-4.845,8.234-9.835l-5.057-57.089c14.004,0.942,27.043,6.831,37.063,16.849c3.543,3.542,9.284,3.542,12.826,0
	c3.542-3.542,3.542-9.283,0-12.825c-13.83-13.83-32.043-21.665-51.505-22.255l-3.379-38.145h217.895l-15.519,180.597
	c-0.428,4.99,3.269,9.384,8.259,9.813c0.265,0.023,0.527,0.034,0.787,0.034c4.657,0,8.619-3.567,9.026-8.293l15.699-182.692
	c33.042-4.134,58.697-32.381,58.697-66.526v-81.662c0-5.009-4.059-9.069-9.069-9.069H291.296c1.202-2.761,2.891-5.86,5.292-8.98
	c10.229-13.297,27.642-20.039,51.759-20.039c42.445,0,75.241-11.687,92.344-32.908c0.548-0.681,1.08-1.369,1.59-2.065
	c1.019,15.332-0.317,32.296-7.65,46.096c-2.35,4.423-0.67,9.913,3.753,12.264c4.426,2.352,9.916,0.669,12.265-3.753
	C472.509,113.232,452.089,54.392,451.209,51.907z M411.827,254.489c0,26.979-21.949,48.928-48.929,48.928H125.211
	c-26.979,0-48.928-21.949-48.928-48.928v-72.592h335.544V254.489z"/>
<g>
</g>
<g>
</g>
<g>
</g>
<g>
</g>
<g>
</g>
<g>
</g>
<g>
</g>
<g>
</g>
<g>
</g>
<g>
</g>
<g>
</g>
<g>
</g>
<g>
</g>
<g>
</g>
<g>
</g>
</svg>
