<?xml version="1.0" encoding="iso-8859-1"?>
<!-- Generator: Adobe Illustrator 19.0.0, SVG Export Plug-In . SVG Version: 6.00 Build 0)  -->
<svg version="1.1" id="Capa_1" xmlns="http://www.w3.org/2000/svg" xmlns:xlink="http://www.w3.org/1999/xlink" x="0px" y="0px"
	 viewBox="0 0 512.001 512.001" style="enable-background:new 0 0 512.001 512.001;" xml:space="preserve">
<g>
	<path style="fill:#D46466;" d="M330.894,221.503H179.261c-45.417,0-82.235-36.818-82.235-82.235V115.27h316.102v23.999
		C413.129,184.686,376.311,221.503,330.894,221.503z"/>
	<path style="fill:#D46466;" d="M413.129,115.27H97.027l25.598-45.368c12.428-22.027,35.759-35.652,61.05-35.652H326.48
		c25.292,0,48.622,13.624,61.051,35.652L413.129,115.27z"/>
</g>
<g>
	<path style="fill:#C85665;" d="M330.414,74.76c0,14.016-1.867,27.593-5.346,40.51h88.061l-25.598-45.368
		c-12.429-22.027-35.759-35.651-61.05-35.651h-1.412C328.547,47.166,330.414,60.744,330.414,74.76z"/>
	<path style="fill:#C85665;" d="M325.068,115.27c-13.371,49.64-50.712,89.443-98.852,106.233h104.678
		c45.417,0,82.235-36.818,82.235-82.235V115.27H325.068z"/>
</g>
<path style="fill:#F5D66C;" d="M179.303,250.306h10.054c9.563,0,18.129-5.913,21.521-14.854l5.292-13.949h-42.044l-5.215,13.746
	C166.152,242.522,171.525,250.306,179.303,250.306z"/>
<circle style="fill:#484855;" cx="392.55" cy="456.84" r="47.76"/>
<path style="fill:#F5D66C;" d="M334.114,250.306H324.06c-9.563,0-18.129-5.913-21.521-14.854l-5.292-13.949h42.044l5.215,13.746
	C347.265,242.522,341.892,250.306,334.114,250.306z"/>
<circle style="fill:#727486;" cx="392.55" cy="456.69" r="15.558"/>
<path d="M208.819,16.895c0-1.159,0.943-2.103,2.102-2.103h87.8c1.159,0,2.102,0.943,2.102,2.103v9.959h-92.004V16.895z
	 M392.548,401.687c-2.85,0-5.65,0.217-8.385,0.636l-26.207-85.575h5.354c4.085,0,7.396-3.311,7.396-7.396s-3.311-7.396-7.396-7.396
	h-9.884l-13.809-45.092c3.904-1.216,7.35-3.707,9.731-7.159c3.456-5.007,4.231-11.392,2.072-17.079l-2.135-5.628
	c37.596-7.872,66.608-39.372,70.732-78.197h20.29c4.085,0,7.396-3.311,7.396-7.396c0-4.085-3.311-7.396-7.396-7.396h-19.783v-11.344
	h4.76c4.085,0,7.396-3.311,7.396-7.396s-3.311-7.396-7.396-7.396h-7.837l-23.476-41.607c-13.717-24.311-39.578-39.413-67.492-39.413
	h-10.865v-9.959C315.615,7.579,308.036,0,298.721,0h-87.8c-9.315,0-16.895,7.579-16.895,16.895v9.959h-10.352
	c-27.914,0-53.775,15.102-67.492,39.413l-23.476,41.607h-7.323c-4.085,0-7.396,3.311-7.396,7.396s3.311,7.396,7.396,7.396h4.247
	v11.344H71.692c-4.085,0-7.396,3.311-7.396,7.396c0,4.085,3.311,7.396,7.396,7.396h18.446c4.234,39.865,34.709,72.007,73.773,78.777
	l-1.915,5.047c-2.158,5.688-1.383,12.073,2.072,17.08c2.626,3.805,6.546,6.44,10.946,7.489l-13.708,44.762h-3.908
	c-4.085,0-7.396,3.311-7.396,7.396c0,3.878,2.986,7.053,6.784,7.365l-38.878,126.95h-3.362c-4.085,0-7.396,3.311-7.396,7.396
	c0,3.697,2.715,6.751,6.258,7.3l-11.799,38.529c-1.196,3.906,1.001,8.042,4.906,9.238c0.722,0.221,1.451,0.326,2.168,0.326
	c3.166,0,6.095-2.048,7.07-5.232l13.096-42.764h208.584c0.86,29.667,25.244,53.54,55.115,53.54
	c30.413,0,55.157-24.743,55.157-55.157C447.704,426.43,422.961,401.687,392.548,401.687z M334.187,228.899l3.404,8.974
	c0.602,1.587-0.002,2.83-0.417,3.43c-0.414,0.6-1.362,1.606-3.06,1.606h-4.166c-0.029,0-0.058,0-0.088,0h-5.801
	c-6.449,0-12.318-4.051-14.605-10.081l-1.491-3.93h22.932L334.187,228.899L334.187,228.899z M129.066,73.536
	c11.099-19.671,32.023-31.89,54.609-31.89h17.748H308.22h18.261c22.586,0,43.511,12.22,54.609,31.89l19.374,34.338H109.692
	L129.066,73.536z M104.423,139.269v-16.603h301.31v16.603c0,41.266-33.572,74.838-74.839,74.838h-33.648H216.17h-36.908
	C137.995,214.107,104.423,180.534,104.423,139.269z M205.454,228.899l-1.491,3.93c-2.288,6.03-8.157,10.081-14.606,10.081h-4.467
	c-0.042,0-0.083,0-0.124,0h-5.463c-1.698,0-2.646-1.006-3.06-1.606s-1.019-1.843-0.417-3.431l3.404-8.974h0.031L205.454,228.899
	L205.454,228.899z M190.341,257.664c12.164-0.401,23.116-8.157,27.452-19.588l3.481-9.177h70.868l3.481,9.177
	c4.453,11.739,15.881,19.626,28.436,19.626h0.344l13.552,44.254H176.777L190.341,257.664z M172.247,316.748h170.239l27.496,89.786
	c-15.296,6.888-26.905,20.541-30.988,37.134H133.378L172.247,316.748z M392.548,497.208c-22.257,0-40.364-18.108-40.364-40.364
	c0-22.257,18.108-40.364,40.364-40.364c22.257,0,40.364,18.108,40.364,40.364C432.912,479.1,414.804,497.208,392.548,497.208z"/>
<path d="M281.52,67.364h-52.371c-4.085,0-7.396,3.311-7.396,7.396s3.311,7.396,7.396,7.396h52.371c4.085,0,7.396-3.311,7.396-7.396
	S285.605,67.364,281.52,67.364z"/>
<path d="M392.548,433.741c-12.657,0-22.954,10.297-22.954,22.954s10.297,22.954,22.954,22.954s22.954-10.297,22.954-22.954
	S405.204,433.741,392.548,433.741z M392.548,464.856c-4.5,0-8.162-3.661-8.162-8.162s3.661-8.162,8.162-8.162
	s8.162,3.661,8.162,8.162S397.048,464.856,392.548,464.856z"/>
<g>
</g>
<g>
</g>
<g>
</g>
<g>
</g>
<g>
</g>
<g>
</g>
<g>
</g>
<g>
</g>
<g>
</g>
<g>
</g>
<g>
</g>
<g>
</g>
<g>
</g>
<g>
</g>
<g>
</g>
</svg>
