<?xml version="1.0" encoding="iso-8859-1"?>
<!-- Generator: Adobe Illustrator 19.0.0, SVG Export Plug-In . SVG Version: 6.00 Build 0)  -->
<svg version="1.1" id="Capa_1" xmlns="http://www.w3.org/2000/svg" xmlns:xlink="http://www.w3.org/1999/xlink" x="0px" y="0px"
	 viewBox="0 0 511.922 511.922" style="enable-background:new 0 0 511.922 511.922;" xml:space="preserve">
<path style="fill:#48CFAD;" d="M259.961,4c-4.422,0-8,3.578-8,7.999v7.999h15.998v-7.999C267.959,7.577,264.382,4,259.961,4z"/>
<g style="opacity:0.4;">
	<path style="fill:#FFFFFF;" d="M263.96,5.226C262.765,4.515,261.452,4,259.961,4c-4.422,0-8,3.578-8,7.999v7.999h8v-7.999
		C259.961,9.069,261.608,6.616,263.96,5.226z"/>
</g>
<path style="fill:#CCD1D9;" d="M331.949,19.997H187.971c-4.421,0-7.999,3.577-7.999,7.999v7.999h159.976v-7.999
	C339.948,23.574,336.371,19.997,331.949,19.997z"/>
<g style="opacity:0.7;">
	<path style="fill:#FFFFFF;" d="M203.969,19.997h-15.998c-4.421,0-7.999,3.577-7.999,7.999v7.999h15.998v-7.999
		C195.971,23.574,199.549,19.997,203.969,19.997z"/>
</g>
<g style="opacity:0.2;">
	<path d="M315.951,19.997h15.998c4.422,0,7.999,3.577,7.999,7.999v7.999h-15.997v-7.999
		C323.951,23.574,320.373,19.997,315.951,19.997z"/>
</g>
<path style="fill:#48CFAD;" d="M339.948,315.951H171.975c0,31.996-39.994,55.992-39.994,119.982v15.998v23.996
	c0,8.881,7.116,15.997,15.998,15.997h215.967c8.882,0,15.997-7.116,15.997-15.997v-23.996v-15.998
	C379.941,371.943,339.948,347.947,339.948,315.951z M230.527,374.506c14.076-14.084,36.869-14.084,50.867,0
	c14.084,14.075,14.084,36.791,0,50.867c-14.076,14.083-36.869,14.083-50.867,0C216.443,411.297,216.443,388.581,230.527,374.506z"/>
<g style="opacity:0.4;">
	<path style="fill:#FFFFFF;" d="M147.979,475.928v-23.996v-15.998c0-63.99,39.994-87.986,39.994-119.982h-15.998
		c0,31.996-39.994,55.992-39.994,119.982v15.998v23.996c0,8.881,7.116,15.997,15.998,15.997h15.998
		C155.094,491.925,147.979,484.809,147.979,475.928z"/>
</g>
<g style="opacity:0.2;">
	<path d="M363.944,475.928v-23.996v-15.998c0-63.99-39.993-87.986-39.993-119.982h15.997c0,31.996,39.993,55.992,39.993,119.982
		v15.998v23.996c0,8.881-7.115,15.997-15.997,15.997h-15.997C356.828,491.925,363.944,484.809,363.944,475.928z"/>
</g>
<path style="fill:#656D78;" d="M155.977,491.925v7.999c0,4.421,3.578,7.998,7.999,7.998s7.999-3.577,7.999-7.998v-7.999H155.977z"/>
<g style="opacity:0.2;">
	<rect x="155.971" y="491.921" width="15.998" height="7.999"/>
</g>
<path style="fill:#656D78;" d="M339.948,491.925v7.999c0,4.421,3.577,7.998,7.999,7.998c4.421,0,7.998-3.577,7.998-7.998v-7.999
	H339.948z"/>
<g style="opacity:0.2;">
	<rect x="339.951" y="491.921" width="15.997" height="7.999"/>
</g>
<g>
	<path style="fill:#3A3847;" d="M256.203,351.946c-2.211,0-4.039-1.789-4.039-3.999c0-2.211,1.75-4,3.953-4h0.086
		c2.203,0,3.999,1.789,3.999,4C260.202,350.157,258.406,351.946,256.203,351.946z"/>
	<path style="fill:#3A3847;" d="M219.443,367.17c-2.211,0-4.039-1.788-4.039-3.999c0-2.21,1.75-3.999,3.953-3.999h0.086
		c2.202,0,3.999,1.789,3.999,3.999C223.443,365.382,221.646,367.17,219.443,367.17z"/>
	<path style="fill:#3A3847;" d="M204.212,403.931c-2.21,0-4.038-1.789-4.038-3.999c0-2.211,1.75-4,3.952-4h0.086
		c2.203,0,4,1.789,4,4C208.212,402.142,206.415,403.931,204.212,403.931z"/>
	<path style="fill:#3A3847;" d="M308.195,403.931c-2.211,0-4.039-1.789-4.039-3.999c0-2.211,1.75-4,3.953-4h0.086
		c2.203,0,3.999,1.789,3.999,4C312.194,402.142,310.399,403.931,308.195,403.931z"/>
	<path style="fill:#3A3847;" d="M292.964,367.162c-2.211,0-4.038-1.788-4.038-3.999c0-2.21,1.749-3.999,3.952-3.999h0.086
		c2.203,0,4,1.789,4,3.999C296.964,365.374,295.166,367.162,292.964,367.162z"/>
</g>
<path style="fill:#E6E9ED;" d="M281.395,425.373c-14.076,14.083-36.869,14.083-50.867,0c-14.084-14.076-14.084-36.792,0-50.867
	c14.076-14.084,36.869-14.084,50.867,0C295.479,388.581,295.479,411.297,281.395,425.373z"/>
<path style="fill:#FFFFFF;" d="M238.527,425.373c-14.084-14.076-14.084-36.792,0-50.867c6.015-6.016,13.63-9.304,21.465-10.179
	c-10.49-1.172-21.402,2.109-29.464,10.179c-14.084,14.075-14.084,36.791,0,50.867c8.015,8.068,18.903,11.35,29.402,10.178
	C252.111,434.676,244.51,431.387,238.527,425.373z"/>
<g style="opacity:0.2;">
	<path d="M273.427,374.506c14.084,14.075,14.084,36.791,0,50.867c-6.015,6.014-13.63,9.303-21.465,10.178
		c10.491,1.172,21.403-2.109,29.464-10.178c14.084-14.076,14.084-36.792,0-50.867c-8.015-8.069-18.903-11.351-29.402-10.179
		C259.844,365.202,267.443,368.49,273.427,374.506z"/>
</g>
<polygon style="fill:#656D78;" points="339.948,307.953 339.948,315.951 171.975,315.951 171.975,307.953 171.975,291.955 
	187.971,291.955 331.949,291.955 339.948,291.955 "/>
<path style="fill:#E6E9ED;" d="M139.98,35.995h223.966c0,0-7.999,247.962-31.995,247.962v7.998H187.971v-7.998
	c-20.075,0-28.957-180.691-31.354-231.965L139.98,35.995z"/>
<g style="opacity:0.2;">
	<path d="M347.947,35.995c0,0-7.999,247.962-31.996,247.962h15.998c23.996,0,31.995-247.962,31.995-247.962
		S347.947,35.995,347.947,35.995z"/>
</g>
<path style="fill:#FFFFFF;" d="M172.615,51.992l-16.638-15.998h-15.998l16.638,15.998c2.398,51.273,11.28,231.965,31.354,231.965
	h15.998C183.895,283.957,175.014,103.266,172.615,51.992z"/>
<g style="opacity:0.2;">
	<rect x="187.971" y="283.961" width="143.98" height="7.998"/>
</g>
<g style="opacity:0.2;">
	<rect x="171.971" y="307.951" width="167.97" height="7.998"/>
</g>
<g style="opacity:0.3;">
	<rect x="171.971" y="291.951" style="fill:#FFFFFF;" width="7.999" height="15.998"/>
</g>
<g style="opacity:0.2;">
	<rect x="331.951" y="291.951" width="7.999" height="15.998"/>
</g>
<g>
	<path style="fill:#3A3847;" d="M131.98,479.927c-2.21,0-4-1.789-4-3.999v-47.993c0-2.21,1.789-3.999,4-3.999s4,1.789,4,3.999
		v47.993C135.98,478.138,134.191,479.927,131.98,479.927z"/>
	<path style="fill:#3A3847;" d="M379.941,479.927c-2.21,0-3.999-1.789-3.999-3.999v-47.993c0-2.21,1.789-3.999,3.999-3.999
		c2.211,0,4,1.789,4,3.999v47.993C383.941,478.138,382.152,479.927,379.941,479.927z"/>
	<path style="fill:#3A3847;" d="M147.979,495.924c-11.03,0-19.997-8.967-19.997-19.996c0-2.211,1.789-4,4-4s4,1.789,4,4
		c0,6.725,5.272,11.998,11.998,11.998c2.21,0,3.999,1.789,3.999,3.999C151.978,494.136,150.189,495.924,147.979,495.924z"/>
	<path style="fill:#3A3847;" d="M363.944,495.924c-2.21,0-3.999-1.788-3.999-3.999c0-2.21,1.789-3.999,3.999-3.999
		c6.726,0,11.998-5.273,11.998-11.998c0-2.211,1.789-4,3.999-4c2.211,0,4,1.789,4,4
		C383.941,486.957,374.975,495.924,363.944,495.924z"/>
	<path style="fill:#3A3847;" d="M363.944,495.924H147.979c-2.211,0-4-1.788-4-3.999c0-2.21,1.789-3.999,4-3.999h215.967
		c2.211,0,3.999,1.789,3.999,3.999C367.943,494.136,366.155,495.924,363.944,495.924z"/>
	<path style="fill:#3A3847;" d="M131.98,439.933c-2.21,0-4-1.788-4-3.999c0-38.557,14.209-63.162,25.629-82.933
		c7.71-13.342,14.365-24.871,14.365-37.05c0-2.21,1.789-3.999,3.999-3.999c2.211,0,4,1.789,4,3.999
		c0,14.326-7.155,26.707-15.435,41.049c-11.514,19.935-24.559,42.518-24.559,78.934C135.98,438.145,134.191,439.933,131.98,439.933z
		"/>
	<path style="fill:#3A3847;" d="M379.941,439.933c-2.21,0-3.999-1.788-3.999-3.999c0-36.416-13.045-58.999-24.559-78.934
		c-8.28-14.342-15.435-26.723-15.435-41.049c0-2.21,1.788-3.999,3.999-3.999c2.21,0,3.999,1.789,3.999,3.999
		c0,12.179,6.655,23.708,14.365,37.05c11.42,19.771,25.629,44.376,25.629,82.933C383.941,438.145,382.152,439.933,379.941,439.933z"
		/>
	<path style="fill:#3A3847;" d="M339.948,319.951H171.975c-2.21,0-3.999-1.789-3.999-4c0-2.21,1.789-3.999,3.999-3.999h167.975
		c2.21,0,3.999,1.789,3.999,3.999C343.947,318.162,342.158,319.951,339.948,319.951z"/>
	<path style="fill:#3A3847;" d="M339.948,311.952c-2.211,0-3.999-1.788-3.999-3.999v-15.998c0-2.21,1.788-3.999,3.999-3.999
		c2.21,0,3.999,1.789,3.999,3.999v15.998C343.947,310.164,342.158,311.952,339.948,311.952z"/>
	<path style="fill:#3A3847;" d="M339.948,295.955H171.975c-2.21,0-3.999-1.789-3.999-4c0-2.21,1.789-3.999,3.999-3.999h167.975
		c2.21,0,3.999,1.789,3.999,3.999C343.947,294.166,342.158,295.955,339.948,295.955z"/>
	<path style="fill:#3A3847;" d="M171.975,311.952c-2.21,0-3.999-1.788-3.999-3.999v-15.998c0-2.21,1.789-3.999,3.999-3.999
		c2.211,0,4,1.789,4,3.999v15.998C175.973,310.164,174.186,311.952,171.975,311.952z"/>
	<path style="fill:#3A3847;" d="M331.949,287.956c-2.211,0-3.999-1.789-3.999-3.999c0-2.18,1.749-3.953,3.921-4
		c12.631-4.663,24.402-130.253,28.074-244.095c0.07-2.164,1.852-3.867,3.999-3.867c0.039,0,0.086,0,0.133,0
		c2.203,0.07,3.937,1.922,3.866,4.132C365.499,111.842,357.102,287.956,331.949,287.956z"/>
	<path style="fill:#3A3847;" d="M187.971,287.956c-7.28,0-24.324,0-35.346-235.776c-0.109-2.211,1.602-4.078,3.804-4.179
		c2.226-0.258,4.085,1.601,4.179,3.804c9.857,210.78,24.668,227.051,27.535,228.176c2.21,0,3.914,1.781,3.914,3.992
		C192.057,286.175,190.182,287.956,187.971,287.956z"/>
	<path style="fill:#3A3847;" d="M156.618,55.991c-1,0-2-0.367-2.773-1.117l-16.638-15.998c-1.593-1.531-1.64-4.062-0.109-5.655
		c1.531-1.586,4.078-1.633,5.656-0.109l16.638,15.997c1.594,1.531,1.641,4.063,0.109,5.656
		C158.719,55.577,157.663,55.991,156.618,55.991z"/>
	<path style="fill:#3A3847;" d="M371.943,39.994H139.98c-2.21,0-3.999-1.789-3.999-4s1.789-4,3.999-4h231.965
		c2.211,0,3.999,1.789,3.999,4S374.154,39.994,371.943,39.994z"/>
	<path style="fill:#3A3847;" d="M331.949,23.996H187.971c-2.21,0-4-1.789-4-3.999c0-2.211,1.789-4,4-4h143.978c2.211,0,4,1.789,4,4
		C335.949,22.208,334.16,23.996,331.949,23.996z"/>
	<path style="fill:#3A3847;" d="M179.973,31.995c-2.211,0-4-1.789-4-4c0-6.616,5.382-11.998,11.998-11.998c2.21,0,4,1.789,4,4
		c0,2.21-1.789,3.999-4,3.999c-2.203,0-4,1.797-4,4C183.973,30.206,182.184,31.995,179.973,31.995z"/>
	<path style="fill:#3A3847;" d="M339.948,31.995c-2.211,0-3.999-1.789-3.999-4c0-2.203-1.797-4-4-4
		c-2.211,0-3.999-1.789-3.999-3.999c0-2.211,1.788-4,3.999-4c6.616,0,11.998,5.382,11.998,11.998
		C343.947,30.206,342.158,31.995,339.948,31.995z"/>
	<path style="fill:#3A3847;" d="M267.959,15.998c-2.211,0-3.999-1.789-3.999-4c0-2.203-1.797-3.999-3.999-3.999
		c-2.203,0-4,1.796-4,3.999c0,2.211-1.789,4-4,4s-4-1.789-4-4C247.962,5.382,253.344,0,259.96,0c6.615,0,11.998,5.382,11.998,11.998
		C271.959,14.209,270.171,15.998,267.959,15.998z"/>
	<path style="fill:#3A3847;" d="M259.961,247.962c-2.211,0-4-1.789-4-3.999V91.986c0-2.21,1.789-4,4-4c2.21,0,3.999,1.789,3.999,4
		v151.977C263.96,246.173,262.171,247.962,259.961,247.962z"/>
	<path style="fill:#3A3847;" d="M219.967,247.962c-1.835,0-3.492-1.265-3.906-3.132c-0.156-0.727-16.091-73.341-16.091-152.844
		c0-2.21,1.789-4,3.999-4c2.211,0,4,1.789,4,4c0,78.597,15.74,150.391,15.904,151.11c0.477,2.156-0.883,4.288-3.039,4.772
		C220.544,247.931,220.249,247.962,219.967,247.962z"/>
	<path style="fill:#3A3847;" d="M299.954,247.962c-0.281,0-0.578-0.031-0.867-0.094c-2.155-0.484-3.515-2.616-3.038-4.772
		c0.164-0.719,15.903-72.513,15.903-151.11c0-2.21,1.789-4,3.999-4c2.211,0,4,1.789,4,4c0,79.503-15.936,152.118-16.092,152.844
		C303.445,246.697,301.79,247.962,299.954,247.962z"/>
	<path style="fill:#3A3847;" d="M163.976,511.922c-6.616,0-11.999-5.382-11.999-11.998c0-2.211,1.789-4,4-4s4,1.789,4,4
		c0,2.203,1.797,3.999,4,3.999s4-1.796,4-3.999c0-2.211,1.789-4,3.999-4c2.211,0,4,1.789,4,4
		C175.973,506.54,170.592,511.922,163.976,511.922z"/>
	<path style="fill:#3A3847;" d="M347.947,511.922c-6.616,0-11.998-5.382-11.998-11.998c0-2.211,1.788-4,3.999-4
		c2.21,0,3.999,1.789,3.999,4c0,2.203,1.797,3.999,4,3.999c2.202,0,3.999-1.796,3.999-3.999c0-2.211,1.789-4,3.999-4
		c2.211,0,4,1.789,4,4C359.945,506.54,354.563,511.922,347.947,511.922z"/>
	<path style="fill:#3A3847;" d="M255.93,439.933c-10.686,0-20.716-4.171-28.238-11.74c-7.562-7.554-11.725-17.591-11.725-28.253
		c0-10.663,4.164-20.7,11.733-28.262c7.561-7.569,17.607-11.732,28.292-11.732c10.685,0,20.716,4.171,28.238,11.74
		c7.561,7.554,11.725,17.591,11.725,28.254c0,10.662-4.164,20.699-11.732,28.261C276.661,435.77,266.615,439.933,255.93,439.933z
		 M255.993,367.943c-8.546,0-16.583,3.336-22.637,9.39s-9.389,14.084-9.389,22.606c0,8.521,3.335,16.552,9.389,22.605
		c12.045,12.123,33.104,12.1,45.211,0c6.055-6.054,9.39-14.084,9.39-22.605c0-8.522-3.335-16.553-9.39-22.606
		C272.546,371.272,264.53,367.943,255.993,367.943z"/>
	<path style="fill:#3A3847;" d="M270.115,418.093c-1.023,0-2.047-0.391-2.828-1.172l-28.308-28.309
		c-1.563-1.562-1.563-4.093,0-5.655c1.562-1.563,4.093-1.563,5.655,0l28.308,28.309c1.563,1.563,1.563,4.093,0,5.655
		C272.162,417.702,271.139,418.093,270.115,418.093z"/>
	<path style="fill:#3A3847;" d="M295.955,471.928h-79.988c-2.21,0-3.999-1.789-3.999-3.999c0-2.211,1.789-3.999,3.999-3.999h79.988
		c2.211,0,3.999,1.788,3.999,3.999C299.954,470.139,298.166,471.928,295.955,471.928z"/>
	<path style="fill:#3A3847;" d="M183.973,455.931H131.98c-2.21,0-4-1.789-4-3.999c0-2.211,1.789-4,4-4h51.992c2.211,0,4,1.789,4,4
		C187.971,454.142,186.184,455.931,183.973,455.931z"/>
	<path style="fill:#3A3847;" d="M379.941,455.931h-51.991c-2.211,0-3.999-1.789-3.999-3.999c0-2.211,1.788-4,3.999-4h51.991
		c2.211,0,4,1.789,4,4C383.941,454.142,382.152,455.931,379.941,455.931z"/>
	<path style="fill:#3A3847;" d="M215.967,471.928c-9.654,0-14.74-5.085-18.825-9.17c-3.812-3.813-6.827-6.827-13.17-6.827
		c-2.21,0-3.999-1.789-3.999-3.999c0-2.211,1.789-4,3.999-4c9.655,0,14.74,5.085,18.825,9.17c3.813,3.813,6.827,6.828,13.17,6.828
		c2.211,0,4,1.788,4,3.999C219.967,470.139,218.178,471.928,215.967,471.928z"/>
	<path style="fill:#3A3847;" d="M295.955,471.928c-2.211,0-4-1.789-4-3.999c0-2.211,1.789-3.999,4-3.999
		c6.343,0,9.357-3.016,13.17-6.828c4.085-4.085,9.17-9.17,18.825-9.17c2.21,0,3.999,1.789,3.999,4c0,2.21-1.789,3.999-3.999,3.999
		c-6.343,0-9.358,3.015-13.17,6.827C310.695,466.843,305.609,471.928,295.955,471.928z"/>
</g>
<g>
</g>
<g>
</g>
<g>
</g>
<g>
</g>
<g>
</g>
<g>
</g>
<g>
</g>
<g>
</g>
<g>
</g>
<g>
</g>
<g>
</g>
<g>
</g>
<g>
</g>
<g>
</g>
<g>
</g>
</svg>
