<svg id="Capa_1" enable-background="new 0 0 512 512" height="512" viewBox="0 0 512 512" width="512" xmlns="http://www.w3.org/2000/svg"><path d="m479.276 504.5h-446.552c-13.793 0-24.975-11.182-24.975-24.975v-255.404h496.503v255.404c-.001 13.793-11.182 24.975-24.976 24.975z" fill="#fed22b"/><path d="m504.25 459.5v20.03c0 13.79-11.18 24.97-24.97 24.97h-446.56c-13.79 0-24.97-11.18-24.97-24.97v-255.41h35v210.41c0 13.79 11.18 24.97 24.97 24.97z" fill="#fdc202"/><path d="m479.276 367.797h-446.552c-13.793 0-24.975-11.182-24.975-24.975v-225.094c0-13.793 11.182-24.975 24.975-24.975h446.553c13.793 0 24.975 11.182 24.975 24.975v225.094c-.001 13.793-11.182 24.975-24.976 24.975z" fill="#8e8391"/><path d="m469.29 137.71v185.13c0 5.52-4.48 9.99-9.99 9.99h-406.6c-5.51 0-9.99-4.47-9.99-9.99v-185.13c0-5.52 4.48-9.99 9.99-9.99h406.6c5.51 0 9.99 4.47 9.99 9.99z" fill="#544f56"/><path d="m291.21 436.32c0 2.57-.28 5.08-.8 7.5-3.44 15.85-17.53 27.71-34.41 27.71-19.45 0-35.21-15.76-35.21-35.21s15.76-35.22 35.21-35.22c16.88 0 30.97 11.87 34.41 27.72.52 2.42.8 4.93.8 7.5z" fill="#655e67"/><path d="m369.803 66.94c-16.322 0-29.554-13.232-29.554-29.554v-.333c0-16.322 13.232-29.554 29.554-29.554 2.437 0 4.412 1.975 4.412 4.412v50.616c0 2.438-1.975 4.413-4.412 4.413z" fill="#544f56"/><path d="m67.72 367.8h-35c-13.79 0-24.97-11.19-24.97-24.98v-225.09c0-13.8 11.18-24.98 24.97-24.98h35c-13.79 0-24.97 11.18-24.97 24.98v225.09c0 13.79 11.18 24.98 24.97 24.98z" fill="#766d78"/><path d="m92.333 332.83h-39.633c-5.51 0-9.99-4.47-9.99-9.99v-185.13c0-5.52 4.48-9.99 9.99-9.99h39.633c-5.51 0-9.99 4.47-9.99 9.99v185.13c0 5.52 4.48 9.99 9.99 9.99z" fill="#444145"/><path d="m374.21 11.91v10.63c-15.7.69-28.21 13.64-28.21 29.51v.34c0 .9.04 1.8.12 2.68-3.68-4.93-5.87-11.05-5.87-17.68v-.34c0-16.32 13.23-29.55 29.55-29.55 1.22 0 2.32.5 3.12 1.29.8.8 1.29 1.91 1.29 3.12z" fill="#444145"/><path d="m479.28 85.25h-389.606v-17.644c0-12.666 10.304-22.97 22.97-22.97h220.822c3.381 16.972 18.386 29.804 36.337 29.804 6.568 0 11.912-5.344 11.912-11.912v-4.321h30.629c4.143 0 7.5-3.357 7.5-7.5s-3.357-7.5-7.5-7.5h-30.629v-11.974h30.629c4.143 0 7.5-3.357 7.5-7.5s-3.357-7.5-7.5-7.5h-30.629v-4.321c0-6.568-5.344-11.912-11.912-11.912-17.892 0-32.862 12.747-36.307 29.637h-220.852c-20.937 0-37.97 17.033-37.97 37.97v17.643h-41.954c-17.9 0-32.47 14.57-32.47 32.48v106.39 118.7 136.71c0 17.904 14.565 32.47 32.47 32.47h446.56c17.904 0 32.47-14.565 32.47-32.47v-136.71-118.7-106.39c0-17.91-14.57-32.48-32.47-32.48zm-131.531-48.196c0-11.112 8.263-20.332 18.966-21.838v44.009c-10.703-1.506-18.966-10.726-18.966-21.838zm149.001 187.066v118.7c0 9.64-7.84 17.48-17.47 17.48h-127.11c-4.142 0-7.5 3.358-7.5 7.5s3.358 7.5 7.5 7.5h127.11c6.428 0 12.421-1.887 17.47-5.125v109.355c0 9.633-7.837 17.47-17.47 17.47h-446.56c-9.633 0-17.47-7.837-17.47-17.47v-109.354c5.049 3.238 11.042 5.125 17.47 5.125h289.11c4.142 0 7.5-3.358 7.5-7.5s-3.358-7.5-7.5-7.5h-289.11c-9.63 0-17.47-7.84-17.47-17.48v-118.7-106.391c0-9.64 7.84-17.48 17.47-17.48h446.56c9.63 0 17.47 7.84 17.47 17.48z"/><path d="m459.296 120.217h-406.592c-9.645 0-17.49 7.846-17.49 17.49v185.135c0 9.645 7.846 17.49 17.49 17.49h406.592c9.645 0 17.49-7.846 17.49-17.49v-185.135c0-9.644-7.846-17.49-17.49-17.49zm-378.961 205.115h-27.631c-1.373 0-2.49-1.117-2.49-2.49v-185.135c0-1.373 1.117-2.49 2.49-2.49h27.631zm96.095 0h-33.05v-57.662c0-4.142-3.358-7.5-7.5-7.5s-7.5 3.358-7.5 7.5v57.662h-33.045v-190.115h33.045v102.113c0 4.142 3.358 7.5 7.5 7.5s7.5-3.358 7.5-7.5v-102.113h33.05zm48.047 0h-33.047v-190.115h33.047zm48.046 0h-33.047v-190.115h33.047zm48.047 0h-33.047v-190.115h33.047zm48.048 0h-33.048v-190.115h33.048zm93.168-2.49c0 1.373-1.117 2.49-2.49 2.49h-27.626v-107.002c0-4.142-3.358-7.5-7.5-7.5s-7.5 3.358-7.5 7.5v107.002h-33.052v-190.115h33.052v52.783c0 4.142 3.358 7.5 7.5 7.5s7.5-3.358 7.5-7.5v-52.783h27.626c1.373 0 2.49 1.117 2.49 2.49z"/><path d="m256 393.604c-23.553 0-42.715 19.162-42.715 42.715s19.162 42.715 42.715 42.715 42.715-19.162 42.715-42.715-19.162-42.715-42.715-42.715zm3.496 50.214h23.179c-3.28 11.648-13.992 20.215-26.675 20.215-15.282 0-27.715-12.433-27.715-27.715s12.433-27.715 27.715-27.715c12.683 0 23.396 8.566 26.675 20.215h-23.179c-4.143 0-7.5 3.357-7.5 7.5s3.358 7.5 7.5 7.5z"/></svg>