<svg height="460pt" viewBox="0 -15 460 460" width="460pt" xmlns="http://www.w3.org/2000/svg"><path d="m382.421875 375 22.578125 50h-350l22.578125-50zm0 0" fill="#707487"/><g fill="#5b6072"><path d="m84.328125 385h302.609375l-4.515625-10h-304.84375l-22.578125 50h11.265625zm0 0"/><path d="m95 55v80l-70-80zm0 0"/><path d="m40.75 63.25h54.25v-8.25h-70l70 80v-9.75zm0 0"/></g><path d="m265 295v21.5c0 10.21875-8.28125 18.5-18.5 18.5h-33c-10.21875 0-18.5-8.28125-18.5-18.5v-203c0-10.222656 8.28125-18.5 18.5-18.5h33c10.21875 0 18.5 8.277344 18.5 18.5zm0 0" fill="#fcd884"/><path d="m204.332031 326.164062v-203c0-10.21875 8.28125-18.5 18.5-18.5h33c2.769531 0 5.386719.625 7.742188 1.714844-2.785157-6.683594-9.378907-11.378906-17.074219-11.378906h-33c-10.21875 0-18.5 8.28125-18.5 18.5v203c0 7.453125 4.410156 13.855469 10.757812 16.785156-.914062-2.191406-1.425781-4.597656-1.425781-7.121094zm0 0" fill="#eabf6a"/><path d="m135 55h230v320h-270v-320zm130 261.5v-203c0-10.222656-8.28125-18.5-18.5-18.5h-33c-10.21875 0-18.5 8.277344-18.5 18.5v203c0 10.21875 8.28125 18.5 18.5 18.5h33c10.21875 0 18.5-8.28125 18.5-18.5zm-110 18.5v-20h-20v20zm0-30v-20h-20v20zm0-30v-20h-20v20zm0 0" fill="#d7deed"/><path d="m105.167969 144.332031v-80h259.832031v-9.332031h-270v320h10.167969zm0 0" fill="#afb9d2"/><path d="m223.667969 344.332031h33c10.21875 0 18.5-8.277343 18.5-18.5v-203c0-7.921875-4.988281-14.660156-11.988281-17.296875 1.15625 2.414063 1.820312 5.109375 1.820312 7.964844v203c0 10.222656-8.277344 18.5-18.5 18.5h-33c-2.296875 0-4.484375-.4375-6.511719-1.199219 2.976563 6.222657 9.316407 10.53125 16.679688 10.53125zm0 0" fill="#afb9d2"/><path d="m365 38v17h-270v-17c0-18.230469 14.769531-33 33-33h204c18.230469 0 33 14.769531 33 33zm0 0" fill="#707487"/><path d="m102.332031 47c0-18.230469 14.769531-33 33-33h204c8.230469 0 15.753907 3.019531 21.53125 8-5.628906-10.140625-16.441406-17-28.863281-17h-204c-18.230469 0-33 14.769531-33 33v17h7.332031zm0 0" fill="#5b6072"/><path d="m135 315h20v20h-20zm0 0"/><path d="m135 285h20v20h-20zm0 0"/><path d="m135 255h20v20h-20zm0 0"/><path d="m365 380c-2.761719 0-5-2.238281-5-5v-60c0-2.761719 2.238281-5 5-5s5 2.238281 5 5v60c0 2.761719-2.238281 5-5 5zm0 0"/><path d="m365 110c-2.761719 0-5-2.238281-5-5v-50c0-2.761719 2.238281-5 5-5s5 2.238281 5 5v50c0 2.761719-2.238281 5-5 5zm0 0"/><path d="m95 380c-2.761719 0-5-2.238281-5-5v-240c0-2.761719 2.238281-5 5-5s5 2.238281 5 5v240c0 2.761719-2.238281 5-5 5zm0 0"/><path d="m365 60h-270c-2.761719 0-5-2.238281-5-5v-17c0-20.953125 17.046875-38 38-38h204c20.953125 0 38 17.046875 38 38v17c0 2.761719-2.238281 5-5 5zm-265-10h260v-12c0-15.4375-12.5625-28-28-28h-204c-15.4375 0-28 12.5625-28 28zm0 0"/><path d="m405.003906 430c-1.90625 0-3.726562-1.09375-4.5625-2.941406l-21.25-47.058594h-298.382812l-21.25 47.058594c-1.136719 2.515625-4.097656 3.636718-6.617188 2.496094-2.515625-1.136719-3.632812-4.097657-2.5-6.613282l22.582032-50c.808593-1.789062 2.589843-2.941406 4.558593-2.941406h304.839844c1.964844 0 3.746094 1.152344 4.554687 2.941406l22.582032 50c1.136718 2.519532.015625 5.480469-2.5 6.613282-.667969.300781-1.367188.445312-2.054688.445312zm0 0"/><path d="m402.5 320h-37.5c-2.761719 0-5-2.238281-5-5v-210c0-2.761719 2.238281-5 5-5h37.5c20.679688 0 37.5 16.820312 37.5 37.5v145c0 20.675781-16.820312 37.5-37.5 37.5zm-32.5-10h32.5c15.164062 0 27.5-12.339844 27.5-27.5v-145c0-15.164062-12.335938-27.5-27.5-27.5h-32.5zm0 0"/><path d="m95 140c-1.414062 0-2.792969-.601562-3.761719-1.707031l-70-80c-1.292969-1.476563-1.601562-3.574219-.792969-5.359375.8125-1.785156 2.59375-2.933594 4.554688-2.933594h70c2.761719 0 5 2.238281 5 5v80c0 2.082031-1.292969 3.949219-3.242188 4.679688-.570312.214843-1.167968.320312-1.757812.320312zm-58.980469-80 53.980469 61.691406v-61.691406zm0 0"/><path d="m246.5 340h-33c-12.957031 0-23.5-10.542969-23.5-23.5v-203c0-12.960938 10.542969-23.5 23.5-23.5h33c12.957031 0 23.5 10.539062 23.5 23.5v203c0 12.957031-10.542969 23.5-23.5 23.5zm-33-240c-7.445312 0-13.5 6.054688-13.5 13.5v203c0 7.445312 6.054688 13.5 13.5 13.5h33c7.445312 0 13.5-6.054688 13.5-13.5v-203c0-7.445312-6.054688-13.5-13.5-13.5zm0 0"/><path d="m265 140h-30c-2.761719 0-5-2.238281-5-5s2.238281-5 5-5h30c2.761719 0 5 2.238281 5 5s-2.238281 5-5 5zm0 0"/><path d="m265 180h-30c-2.761719 0-5-2.238281-5-5s2.238281-5 5-5h30c2.761719 0 5 2.238281 5 5s-2.238281 5-5 5zm0 0"/><path d="m265 220h-30c-2.761719 0-5-2.238281-5-5s2.238281-5 5-5h30c2.761719 0 5 2.238281 5 5s-2.238281 5-5 5zm0 0"/><path d="m265 260h-30c-2.761719 0-5-2.238281-5-5s2.238281-5 5-5h30c2.761719 0 5 2.238281 5 5s-2.238281 5-5 5zm0 0"/><path d="m265 300h-30c-2.761719 0-5-2.238281-5-5s2.238281-5 5-5h30c2.761719 0 5 2.238281 5 5s-2.238281 5-5 5zm0 0"/><path d="m135 200c-2.761719 0-5-2.238281-5-5v-140c0-2.761719 2.238281-5 5-5s5 2.238281 5 5v140c0 2.761719-2.238281 5-5 5zm0 0"/><path d="m325 270c-2.761719 0-5-2.238281-5-5v-210c0-2.761719 2.238281-5 5-5s5 2.238281 5 5v210c0 2.761719-2.238281 5-5 5zm0 0"/><path d="m455 430h-450c-2.761719 0-5-2.238281-5-5s2.238281-5 5-5h450c2.761719 0 5 2.238281 5 5s-2.238281 5-5 5zm0 0"/></svg>