<svg height="512" viewBox="0 0 128 128" width="512" xmlns="http://www.w3.org/2000/svg"><g id="number"><text fill="#24253a" font-family="MyriadPro-Regular, Myriad Pro" font-size="40" letter-spacing=".002em" transform="translate(43.419 -510.265)">10<tspan x="0" y="228">20</tspan><tspan x="0" y="456">30</tspan><tspan x="0" y="684">40</tspan><tspan x="0" y="912">50</tspan><tspan x="0" y="1140">60</tspan><tspan x="0" y="1368">70</tspan><tspan x="0" y="1596">80</tspan><tspan x="0" y="1824">90</tspan><tspan x="-10.299" y="2052">100</tspan><tspan x="-10.299" y="2280">110</tspan><tspan x="-10.299" y="2508">120</tspan><tspan x="-10.299" y="2736">130</tspan><tspan x="-10.299" y="2964">140</tspan><tspan x="-10.299" y="3192">150</tspan><tspan x="-10.299" y="3420">160</tspan><tspan x="-10.299" y="3648">170</tspan><tspan x="-10.299" y="3876">180</tspan><tspan x="-10.299" y="4104">190</tspan><tspan x="-10.299" y="4332">200</tspan><tspan x="-10.299" y="4560">210</tspan><tspan x="-10.299" y="4788">220</tspan><tspan x="-10.299" y="5016">230</tspan><tspan x="-10.299" y="5244">240</tspan><tspan x="-10.299" y="5472">250</tspan></text></g><g id="icon"><path d="m32.305 19.031h-22.902l14.139 30.883z" fill="#9297ab"/><path d="m31.65 21.36h-16.35l10.09 22.04-1.85 6.51-14.14-30.88h22.91z" fill="#84879c"/><path d="m23.543 50.914a1 1 0 0 1 -.909-.583l-14.141-30.883a1 1 0 0 1 .907-1.417h22.9a1 1 0 0 1 .962 1.273l-8.762 30.883a1 1 0 0 1 -.886.724zm-12.583-30.883 12.362 27 7.659-27z" fill="#2f3a5a"/><path d="m91.18 99.66-.18-5.88-.28-8.97a19.323 19.323 0 0 0 17.71-10.9c5.98-11.73.46-41.4.46-41.4s-2.07-13.79-18.17-2.99c-10.95 7.35-12.11-3.54-11.73-11.26a57.177 57.177 0 0 1 .69-6.56s26.91-1.94 33.81 4.49 6.9 12.65 8.97 33.11-2.53 41.39-31.28 50.36z" fill="#9297ab"/><path d="m91 93.78-.28-8.97a19.323 19.323 0 0 0 17.71-10.9c5.98-11.73.46-41.4.46-41.4s-2.07-13.79-18.17-2.99c-10.95 7.35-12.11-3.54-11.73-11.26 7.39-.24 24.2-.26 29.39 4.07 6.72 5.61 6.72 11.03 8.74 28.88 1.91 16.88-1.99 34.13-26.12 42.57z" fill="#84879c"/><path d="m91.182 100.664a1 1 0 0 1 -1-.969l-.46-14.854a1 1 0 0 1 1.068-1.028 18.169 18.169 0 0 0 16.748-10.358c5.756-11.291.422-40.463.367-40.756-.012-.075-.708-4.332-4.051-5.8-2.939-1.29-7.29-.1-12.575 3.453-4.038 2.711-7.275 3.31-9.62 1.782-5.754-3.744-3.259-18.891-2.959-20.606a1 1 0 0 1 .912-.824c1.116-.08 27.423-1.9 34.559 4.756 6.563 6.122 7.165 12.249 8.773 28.623.158 1.6.325 3.3.509 5.118 2.733 27.033-7.726 43.852-31.973 51.417a1.007 1.007 0 0 1 -.298.046zm.571-14.86.387 12.5c22.61-7.5 31.934-23.076 29.322-48.9-.184-1.817-.351-3.521-.509-5.124-1.6-16.269-2.137-21.75-8.146-27.355-5.866-5.47-27.821-4.523-32.266-4.273-.737 4.787-1.518 15.385 2.21 17.811 1.609 1.047 4.1.454 7.413-1.767 5.974-4.012 10.856-5.229 14.51-3.618 4.352 1.919 5.171 7.071 5.2 7.29.222 1.19 5.506 30.1-.559 42a20.488 20.488 0 0 1 -17.562 11.432z" fill="#2f3a5a"/><path d="m77.094 7.211c-4.794-3.534-14.123-4.011-18.743-4.011h-.33c-4.62 0-13.952.48-18.743 4.014a21.4 21.4 0 0 0 -3.583 3.423l16.733 5.557 5.758-.3 5.758.3 16.733-5.557a21.4 21.4 0 0 0 -3.583-3.426z" fill="#9297ab"/><path d="m80.68 10.63-2.01.67a14.526 14.526 0 0 0 -1.18-.97c-4.79-3.53-14.12-4.01-18.74-4.01h-.33c-4.62 0-13.95.48-18.74 4.01a16.957 16.957 0 0 0 -1.41 1.16l-2.58-.86a21.471 21.471 0 0 1 3.59-3.42c4.79-3.53 14.12-4.01 18.74-4.01h.33c4.62 0 13.95.48 18.74 4.01a21.475 21.475 0 0 1 3.59 3.42z" fill="#b0b3c1"/><path d="m63.943 17.192h-.052l-5.705-.292-5.706.293a.985.985 0 0 1 -.367-.049l-16.733-5.56a1 1 0 0 1 -.452-1.59 22.282 22.282 0 0 1 3.772-3.594c4.935-3.646 14.224-4.2 19.32-4.2h.332c5.095 0 14.376.557 19.329 4.2a22.312 22.312 0 0 1 3.764 3.592 1 1 0 0 1 -.452 1.59l-16.734 5.559a1 1 0 0 1 -.316.051zm-5.758-2.3h.052l5.569.286 15.107-5.017a19.2 19.2 0 0 0 -2.4-2.14l-.013-.005c-4.659-3.437-14.244-3.816-18.149-3.816h-.33c-3.9 0-13.49.382-18.148 3.819a19.538 19.538 0 0 0 -2.414 2.15l15.106 5.017 5.569-.286z" fill="#2f3a5a"/><path d="m95.546 48.929a62.97 62.97 0 0 0 -14.869-38.294h-45.083a62.97 62.97 0 0 0 -14.87 38.294c-.814 23.424 1.019 64.371 1.019 64.371s1.018 12.222 15.277 12.833h42.231c14.259-.616 15.277-12.833 15.277-12.833s1.833-40.947 1.018-64.371z" fill="#f0f5f9"/><g opacity=".5"><path d="m48.81 126.13h-5.93c-14.25-.61-15.27-12.83-15.27-12.83s-1.84-40.95-1.02-64.37a62.943 62.943 0 0 1 14.87-38.3h5.92a63.013 63.013 0 0 0 -14.87 38.3c-.81 23.42 1.02 64.37 1.02 64.37s1.02 12.22 15.28 12.83z" fill="#fff"/></g><path d="m94.53 113.3s-1.02 12.22-15.28 12.83h-42.23a18.177 18.177 0 0 1 -7.79-1.93h41.39c14.26-.61 15.28-12.83 15.28-12.83s1.83-40.94 1.02-64.37a63.816 63.816 0 0 0 -13.26-36.37h7.02a63.012 63.012 0 0 1 14.87 38.3c.81 23.42-1.02 64.37-1.02 64.37z" fill="#d9e2e9"/><path d="m60.648 127.128h-23.628c-15.008-.642-16.262-13.619-16.272-13.75-.021-.448-1.828-41.288-1.021-64.484a63.35 63.35 0 0 1 15.14-38.946 1 1 0 0 1 .727-.313h45.083a1 1 0 0 1 .727.313 63.354 63.354 0 0 1 15.142 38.946c.807 23.2-1 64.036-1.019 64.446-.014.169-1.268 13.146-16.233 13.787zm-24.608-115.493a62.819 62.819 0 0 0 -14.316 37.328c-.8 23.117 1 63.878 1.019 64.287.038.423 1.147 11.314 14.32 11.878h42.188c13.131-.563 14.24-11.455 14.281-11.918.016-.368 1.819-41.13 1.016-64.247a62.824 62.824 0 0 0 -14.318-37.328z" fill="#2f3a5a"/><path d="m21.741 113.25v.045s1.018 12.221 15.277 12.833h42.233c14.259-.611 15.277-12.828 15.277-12.828v-.045z" fill="#9297ab"/><path d="m94.56 113.25v.05s-1.02 12.22-15.28 12.83h-42.23c-4.87-.21-8.2-1.77-10.47-3.74a23.185 23.185 0 0 0 2.48.24h42.23c9.29-.4 12.96-5.72 14.4-9.38z" fill="#84879c"/><path d="m37.02 127.128c-15.008-.643-16.262-13.619-16.272-13.75l-.091-1.083 1.085-.045h73.824l-.037 1.036c-.016.224-1.27 13.2-16.235 13.841zm-14.12-12.878c.592 2.8 3.2 10.409 14.158 10.879h42.193c10.942-.47 13.532-8.05 14.118-10.878z" fill="#2f3a5a"/><path d="m56.752 34.473a7.248 7.248 0 0 0 -7.252 7.247v46.173a7.248 7.248 0 1 0 14.5 0v-46.173a7.248 7.248 0 0 0 -7.248-7.247z" fill="#9297ab"/><path d="m56.752 89.174a2.567 2.567 0 0 1 -2.564-2.564v-44.457a2.564 2.564 0 1 1 5.128 0v44.457a2.567 2.567 0 0 1 -2.564 2.564z" fill="#ebf0f3"/><path d="m56.752 96.141a8.256 8.256 0 0 1 -8.252-8.248v-46.173a8.248 8.248 0 1 1 16.5 0v46.173a8.257 8.257 0 0 1 -8.248 8.248zm0-60.668a6.255 6.255 0 0 0 -6.252 6.247v46.173a6.248 6.248 0 1 0 12.5 0v-46.173a6.255 6.255 0 0 0 -6.248-6.247z" fill="#2f3a5a"/></g></svg>