<svg id="Layer_1" enable-background="new 0 0 64 64" height="512" viewBox="0 0 64 64" width="512" xmlns="http://www.w3.org/2000/svg"><g><g><g><g><path d="m50 18c-3.581 0-6.828 1.456-9.181 3.806-.59-.2-1.2-.355-1.819-.484v-2.322h-1s-2-3-7-3c-4 0-7 3-7 3h-1v2.307c-4.551.927-8.349 3.916-10.385 7.95-1.766-2.073-4.916-5.257-7.615-5.257-1.5 0-4 0-4 0s2 3 2 4c0 11 7.727 13.291 9.595 14.702 2.462 4.915 7.533 8.298 13.405 8.298h10c5.367 0 10.062-2.828 12.713-7.065.423.042.852.065 1.287.065 7.168 0 13-5.832 13-13 0-7.169-5.832-13-13-13zm.45 21.977c.348-1.268.55-2.598.55-3.977 0-5.055-2.508-9.516-6.339-12.233 1.494-1.105 3.337-1.767 5.339-1.767 4.971 0 9 4.029 9 9 0 4.818-3.79 8.741-8.55 8.977z" fill="#ff6243"/></g><g><path d="m38 35h-6v-6l3-3 3 3z" fill="#e0e0e2"/></g></g><g><path d="m31 16c-4 0-7 3-7 3h14s-2-3-7-3z" fill="#ffbcab"/></g></g><g fill="#554431"><path d="m50 21c-2.146 0-4.197.679-5.934 1.962-.258.191-.408.493-.405.814s.16.621.421.806c3.706 2.628 5.918 6.897 5.918 11.418 0 1.221-.173 2.47-.515 3.713-.085.309-.017.641.185.891.19.237.478.374.78.374.017 0 .033 0 .05-.001 5.327-.265 9.5-4.647 9.5-9.977 0-5.514-4.486-10-10-10zm1.744 17.799c.17-.938.256-1.874.256-2.799 0-4.675-2.068-9.113-5.597-12.14 1.112-.566 2.335-.86 3.597-.86 4.411 0 8 3.589 8 8 0 3.803-2.657 7.003-6.256 7.799z"/><path d="m50 17c-3.525 0-6.856 1.3-9.445 3.675-.179-.052-.364-.102-.555-.15v-1.525c0-.552-.448-1-1-1h-.524c-.76-.858-2.781-2.676-6.476-2.961v-1.039c.552 0 1-.448 1-1s-.448-1-1-1h-2c-.552 0-1 .448-1 1s.448 1 1 1v1.061c-3.154.345-5.557 2.208-6.389 2.939h-.611c-.552 0-1 .448-1 1v1.512c-3.943 1.023-7.401 3.575-9.567 7.034-2.108-2.269-4.863-4.546-7.433-4.546h-4c-.369 0-.708.203-.881.528-.174.325-.155.719.049 1.026.944 1.417 1.8 3.032 1.832 3.446 0 9.884 5.99 13.223 8.868 14.827.375.209.709.396.949.552 2.772 5.325 8.183 8.621 14.183 8.621h10c5.336 0 10.235-2.613 13.227-7.022.261.014.52.022.773.022 7.72 0 14-6.28 14-14s-6.28-14-14-14zm-15 10.414 2 2v4.586h-4v-4.586zm-4-10.414c1.895 0 3.296.466 4.28 1h-8.128c1.054-.541 2.38-1 3.848-1zm19 26c-.401 0-.797-.021-1.189-.061-.378-.03-.745.144-.946.465-2.584 4.13-7.019 6.596-11.865 6.596h-10c-5.324 0-10.118-2.968-12.511-7.746-.069-.137-.168-.257-.292-.35-.345-.261-.791-.509-1.355-.824-2.74-1.527-7.842-4.371-7.842-13.08 0-.736-.595-1.953-1.199-3h2.199c1.7 0 4.198 1.788 6.853 4.905.217.255.549.379.88.345.332-.04.623-.244.774-.543 1.919-3.801 5.542-6.576 9.692-7.421.466-.095.8-.505.8-.98v-1.306h10v5.586l-2.707 2.707c-.187.187-.292.442-.292.707v6c0 .553.448 1 1 1h6c.552 0 1-.447 1-1v-6c0-.265-.106-.52-.293-.707l-2.707-2.707v-5.586h2v1.322c0 .474.333.883.797.979.64.133 1.196.281 1.701.452.357.121.758.029 1.028-.239 2.268-2.266 5.278-3.514 8.474-3.514 6.617 0 12 5.383 12 12s-5.383 12-12 12z"/></g></g></svg>