<svg height="512pt" viewBox="0 0 512 512.00192" width="512pt" xmlns="http://www.w3.org/2000/svg"><path d="m238.933594 234.796875h34.132812v77.148437h-34.132812zm0 0" fill="#00bcd4"/><path d="m298.667969 307.203125v29.867187h-85.332031v-29.867187c0-4.714844 3.820312-8.535156 8.53125-8.535156h68.265624c4.714844 0 8.535157 3.820312 8.535157 8.535156zm0 0" fill="#37474f"/><path d="m281.601562 226.136719c0 14.136719-11.460937 25.597656-25.601562 25.597656-3.648438-.011719-7.253906-.796875-10.582031-2.304687-9.160157-4.125-15.042969-13.246094-15.015625-23.292969 2.875-14.195313 7.910156-27.867188 14.933594-40.535157 1.023437-2.046874 2.046874-4.09375 3.070312-5.972656 1.460938-2.851562 4.394531-4.644531 7.59375-4.644531 3.203125 0 6.136719 1.792969 7.59375 4.644531 7.597656 14.675782 18.007812 37.460938 18.007812 46.507813zm0 0" fill="#ffb301"/><path d="m354.132812 401.070312h55.46875v34.132813h-41.601562zm0 0" fill="#37474f"/><path d="m418.132812 375.46875h17.066407c4.714843 0 8.535156 3.820312 8.535156 8.53125v68.269531c0 4.710938-3.820313 8.53125-8.535156 8.53125h-17.066407c-4.710937 0-8.53125-3.820312-8.53125-8.53125v-68.269531c0-4.710938 3.820313-8.53125 8.53125-8.53125zm0 0" fill="#00bcd4"/><path d="m382.550781 493.65625c.371094 2.460938-.347656 4.960938-1.96875 6.847656-1.625 1.882813-3.992187 2.96875-6.480469 2.964844h-236.203124c-2.488282.003906-4.851563-1.082031-6.476563-2.964844-1.625-1.886718-2.34375-4.386718-1.96875-6.847656l23.039063-153.601562c.660156-4.160157 4.234374-7.230469 8.449218-7.253907h190.121094c4.210938.023438 7.789062 3.09375 8.449219 7.253907zm0 0" fill="#0377bc"/><path d="m362.582031 493.65625c.375 2.460938-.347656 4.960938-1.96875 6.847656-1.625 1.882813-3.992187 2.96875-6.480469 2.964844h-216.234374c-2.488282.003906-4.851563-1.082031-6.476563-2.964844-1.625-1.886718-2.34375-4.386718-1.96875-6.847656l23.039063-153.601562c.660156-4.160157 4.234374-7.230469 8.449218-7.253907h170.152344c4.222656-.003906 7.816406 3.078125 8.449219 7.253907zm0 0" fill="#02a9f4"/><path d="m260.4375 469.078125c-5.023438.648437-10.128906.152344-14.933594-1.449219-13.953125-4.507812-23.464844-17.421875-23.636718-32.085937 1.527343-15.699219 5.46875-31.070313 11.691406-45.566407 1.792968-4.867187 3.839844-9.816406 5.972656-14.847656.679688-1.488281 2.152344-2.457031 3.785156-2.496094 1.636719-.035156 3.148438.867188 3.894532 2.324219l17.324218 34.644531 8.363282-11.179687c.925781-1.21875 2.429687-1.863281 3.953124-1.6875 1.523438.175781 2.84375 1.140625 3.46875 2.542969 4.515626 9.375 7.675782 19.34375 9.386719 29.609375 2.773438 19.121093-10.21875 36.964843-29.269531 40.191406zm0 0" fill="#ffb301"/><path d="m260.351562 226.136719c.011719 10.015625-5.824218 19.121093-14.933593 23.292969-9.160157-4.125-15.042969-13.246094-15.015625-23.292969 2.875-14.195313 7.910156-27.867188 14.933594-40.535157 7.078124 12.648438 12.144531 26.324219 15.015624 40.535157zm0 0" fill="#fdd834"/><path d="m245.503906 467.628906c-13.953125-4.507812-23.464844-17.421875-23.636718-32.085937 1.527343-15.699219 5.46875-31.070313 11.691406-45.566407l9.726562 19.625 8.449219-11.179687c.910156-1.222656 2.402344-1.867187 3.914063-1.6875 1.515624.175781 2.820312 1.144531 3.425781 2.542969 4.535156 9.375 7.726562 19.34375 9.472656 29.609375 2.183594 16.683593-7.339844 32.695312-23.042969 38.742187zm0 0" fill="#fdd834"/><path d="m17.066406 102.402344h477.867188c4.714844 0 8.535156 3.820312 8.535156 8.53125v17.066406c0 4.714844-3.820312 8.535156-8.535156 8.535156h-477.867188c-4.710937 0-8.53125-3.820312-8.53125-8.535156v-17.066406c0-4.710938 3.820313-8.53125 8.53125-8.53125zm0 0" fill="#37474f"/><path d="m277.335938 307.203125v29.867187h-64v-29.867187c0-4.714844 3.820312-8.535156 8.53125-8.535156h46.933593c4.714844 0 8.535157 3.820312 8.535157 8.535156zm0 0" fill="#607d8b"/><path d="m17.066406 93.867188h456.535156c4.710938 0 8.53125 3.820312 8.53125 8.535156v17.066406c0 4.710938-3.820312 8.53125-8.53125 8.53125h-456.535156c-4.710937 0-8.53125-3.820312-8.53125-8.53125v-17.066406c0-4.714844 3.820313-8.535156 8.53125-8.535156zm0 0" fill="#607d8b"/><path d="m374.09375 512h-236.1875c-4.972656.003906-9.699219-2.164062-12.941406-5.9375-3.246094-3.769531-4.683594-8.769531-3.9375-13.6875l23.042968-153.601562c1.304688-8.320313 8.453126-14.464844 16.878907-14.503907h190.105469c8.421874.039063 15.570312 6.183594 16.878906 14.503907l23.039062 153.601562c.746094 4.917969-.691406 9.917969-3.933594 13.6875-3.242187 3.773438-7.972656 5.941406-12.945312 5.9375zm-213.144531-170.664062-23.042969 153.597656h236.1875l-23.039062-153.597656zm0 0"/><path d="m298.667969 341.335938h-85.332031c-4.714844 0-8.535157-3.820313-8.535157-8.535157v-25.597656c0-9.425781 7.640625-17.066406 17.066407-17.066406h68.265624c9.425782 0 17.066407 7.640625 17.066407 17.066406v25.597656c0 4.714844-3.820313 8.535157-8.53125 8.535157zm-76.800781-17.066407h68.265624v-17.066406h-68.265624zm0 0"/><path d="m273.066406 307.203125h-34.132812c-4.710938 0-8.53125-3.820313-8.53125-8.535156v-51.199219c0-4.714844 3.820312-8.535156 8.53125-8.535156h34.132812c4.714844 0 8.535156 3.820312 8.535156 8.535156v51.199219c0 4.714843-3.820312 8.535156-8.535156 8.535156zm-25.597656-17.066406h17.066406v-34.136719h-17.066406zm0 0"/><path d="m494.933594 136.535156h-477.867188c-9.425781 0-17.066406-7.640625-17.066406-17.066406v-17.066406c0-9.425782 7.640625-17.066406 17.066406-17.066406h477.867188c9.425781 0 17.066406 7.640624 17.066406 17.066406v17.066406c0 9.425781-7.640625 17.066406-17.066406 17.066406zm-477.867188-34.132812v17.066406h477.867188v-17.066406zm0 0"/><path d="m256 477.867188c-23.378906-.070313-42.375-18.894532-42.664062-42.273438 0-14.898438 8.683593-43.230469 22.125-72.242188 1.375-2.976562 4.335937-4.898437 7.613281-4.949218 3.257812.027344 6.238281 1.835937 7.765625 4.71875l15.152344 30.308594 4.515624-6.015626c1.824219-2.421874 4.796876-3.695312 7.808594-3.34375 3.011719.351563 5.609375 2.273438 6.824219 5.050782 8.40625 19.03125 13.527344 31.652344 13.527344 46.082031-.027344 23.550781-19.113281 42.636719-42.667969 42.664063zm-12.246094-90.726563c-6.886718 15.351563-11.390625 31.664063-13.351562 48.378906.085937 14.136719 11.617187 25.527344 25.757812 25.441407 14.136719-.089844 25.527344-11.621094 25.441406-25.757813-.425781-8.902344-2.566406-17.640625-6.308593-25.730469l-3.933594 5.25c-1.753906 2.390625-4.636719 3.6875-7.59375 3.414063-2.929687-.28125-5.511719-2.050781-6.824219-4.6875zm0 0"/><path d="m256 477.867188c-23.378906-.070313-42.375-18.894532-42.664062-42.273438 0-14.898438 8.683593-43.230469 22.125-72.242188 1.375-2.976562 4.335937-4.898437 7.613281-4.949218 3.257812.027344 6.238281 1.835937 7.765625 4.71875l15.152344 30.308594 4.515624-6.015626c1.824219-2.421874 4.796876-3.695312 7.808594-3.34375 3.011719.351563 5.609375 2.273438 6.824219 5.050782 8.40625 19.03125 13.527344 31.652344 13.527344 46.082031-.027344 23.550781-19.113281 42.636719-42.667969 42.664063zm-12.246094-90.726563c-6.886718 15.351563-11.390625 31.664063-13.351562 48.378906.085937 14.136719 11.617187 25.527344 25.757812 25.441407 14.136719-.089844 25.527344-11.621094 25.441406-25.757813-.425781-8.902344-2.566406-17.640625-6.308593-25.730469l-3.933594 5.25c-1.753906 2.390625-4.636719 3.6875-7.59375 3.414063-2.929687-.28125-5.511719-2.050781-6.824219-4.6875zm0 0"/><path d="m314.941406 256h-36.625c-4.714844 0-8.535156-3.820312-8.535156-8.53125 0-4.714844 3.820312-8.535156 8.535156-8.535156h36.625c2.90625.003906 5.613282-1.476563 7.183594-3.921875l63.308594-98.476563h-258.867188l63.300782 98.476563c1.570312 2.449219 4.285156 3.925781 7.195312 3.921875h36.625c4.710938 0 8.53125 3.820312 8.53125 8.535156 0 4.710938-3.820312 8.53125-8.53125 8.53125h-36.625c-8.726562.019531-16.855469-4.417969-21.554688-11.765625l-71.75-111.617187c-1.6875-2.625-1.808593-5.960938-.3125-8.703126 1.496094-2.742187 4.367188-4.445312 7.488282-4.445312h290.132812c3.125 0 5.996094 1.703125 7.492188 4.445312 1.496094 2.742188 1.375 6.078126-.3125 8.703126l-71.757813 111.625c-4.703125 7.34375-12.828125 11.78125-21.546875 11.757812zm0 0"/><path d="m256 256c-18.851562 0-34.132812-15.28125-34.132812-34.132812 0-12.363282 13.253906-39.363282 18.953124-50.394532 2.921876-5.691406 8.785157-9.269531 15.179688-9.269531 6.398438 0 12.257812 3.578125 15.183594 9.269531 5.699218 11.03125 18.949218 38.03125 18.949218 50.394532 0 18.851562-15.28125 34.132812-34.132812 34.132812zm0-76.695312c-7.785156 13.253906-13.539062 27.601562-17.066406 42.5625 0 9.425781 7.640625 17.066406 17.066406 17.066406s17.066406-7.640625 17.066406-17.066406c-3.535156-14.957032-9.285156-29.304688-17.066406-42.5625zm0 0"/><path d="m128.15625 68.269531c-3.425781-.023437-6.503906-2.09375-7.820312-5.257812-1.316407-3.160157-.613282-6.804688 1.785156-9.25 2.070312-1.742188 3.460937-4.160157 3.925781-6.828125-.464844-2.640625-1.851563-5.03125-3.910156-6.75-5.402344-4.808594-8.613281-11.617188-8.890625-18.847656.285156-7.226563 3.492187-14.023438 8.890625-18.832032 2.15625-2.160156 5.300781-3 8.246093-2.214844 2.945313.789063 5.246094 3.089844 6.035157 6.035157.792969 2.945312-.050781 6.085937-2.203125 8.242187-2.058594 1.730469-3.441406 4.128906-3.902344 6.777344.460938 2.644531 1.84375 5.042969 3.902344 6.765625 5.398437 4.804687 8.613281 11.601563 8.898437 18.824219-.292969 7.238281-3.515625 14.042968-8.925781 18.859375-1.605469 1.59375-3.773438 2.480469-6.03125 2.476562zm0 0"/><path d="m213.335938 68.269531c-3.414063-.050781-6.472657-2.128906-7.773438-5.285156s-.59375-6.785156 1.796875-9.222656c2.070313-1.742188 3.460937-4.160157 3.925781-6.828125-.460937-2.636719-1.84375-5.027344-3.898437-6.75-5.421875-4.800782-8.648438-11.609375-8.933594-18.847656.285156-7.230469 3.5-14.027344 8.90625-18.832032 3.351563-3.234375 8.671875-3.1875 11.964844.101563 3.289062 3.292969 3.335937 8.613281.101562 11.960937-2.054687 1.730469-3.4375 4.128906-3.898437 6.777344.460937 2.644531 1.84375 5.042969 3.898437 6.765625 5.398438 4.808594 8.609375 11.605469 8.894531 18.824219-.296874 7.238281-3.515624 14.042968-8.925781 18.859375-1.613281 1.597656-3.792969 2.488281-6.058593 2.476562zm0 0"/><path d="m298.597656 68.269531c-3.421875-.023437-6.5-2.09375-7.816406-5.257812-1.316406-3.160157-.613281-6.804688 1.785156-9.25 2.070313-1.742188 3.460938-4.160157 3.925782-6.828125-.460938-2.636719-1.84375-5.027344-3.898438-6.75-5.40625-4.8125-8.625-11.617188-8.910156-18.847656.292968-7.226563 3.507812-14.023438 8.910156-18.832032 3.367188-3.097656 8.578125-2.984375 11.8125.25 3.230469 3.238282 3.335938 8.449219.234375 11.8125-2.058594 1.730469-3.445313 4.128906-3.90625 6.777344.460937 2.640625 1.84375 5.035156 3.898437 6.757812 5.414063 4.800782 8.636719 11.601563 8.925782 18.832032-.289063 7.238281-3.507813 14.046875-8.917969 18.859375-1.605469 1.59375-3.777344 2.484375-6.042969 2.476562zm0 0"/><path d="m384.179688 68.269531c-3.425782-.023437-6.507813-2.089843-7.824219-5.253906-1.316407-3.164063-.617188-6.808594 1.78125-9.253906 2.070312-1.742188 3.460937-4.160157 3.925781-6.828125-.460938-2.636719-1.84375-5.027344-3.898438-6.75-5.40625-4.808594-8.621093-11.617188-8.898437-18.847656.285156-7.226563 3.496094-14.023438 8.898437-18.832032 3.347657-3.234375 8.671876-3.1875 11.960938.101563 3.292969 3.292969 3.339844 8.613281.105469 11.960937-2.058594 1.730469-3.4375 4.128906-3.898438 6.777344.460938 2.644531 1.839844 5.042969 3.898438 6.765625 5.40625 4.804687 8.617187 11.601563 8.898437 18.824219-.289062 7.238281-3.507812 14.042968-8.914062 18.859375-1.605469 1.59375-3.773438 2.480469-6.035156 2.476562zm0 0"/><path d="m42.777344 68.269531c-3.449219 0-6.558594-2.082031-7.878906-5.269531-1.324219-3.1875-.59375-6.855469 1.847656-9.296875 2.070312-1.746094 3.460937-4.160156 3.925781-6.828125-.464844-2.640625-1.84375-5.03125-3.902344-6.75-5.394531-4.792969-8.609375-11.578125-8.898437-18.789062.28125-7.226563 3.496094-14.027344 8.898437-18.832032 3.351563-3.234375 8.671875-3.1875 11.964844.101563 3.289063 3.292969 3.335937 8.613281.101563 11.960937-2.054688 1.730469-3.433594 4.125-3.898438 6.769532.464844 2.636718 1.84375 5.027343 3.898438 6.75 5.410156 4.808593 8.621093 11.617187 8.902343 18.847656-.300781 7.230468-3.523437 14.023437-8.925781 18.835937-1.601562 1.597657-3.769531 2.5-6.035156 2.5zm0 0"/><path d="m469.335938 68.269531c-3.425782-.027343-6.5-2.097656-7.8125-5.261719-1.3125-3.160156-.609376-6.800781 1.785156-9.246093 2.070312-1.742188 3.460937-4.160157 3.925781-6.828125-.460937-2.636719-1.84375-5.027344-3.898437-6.75-5.410157-4.808594-8.625-11.613282-8.902344-18.847656.292968-7.230469 3.515625-14.03125 8.925781-18.832032 3.351563-3.234375 8.671875-3.1875 11.964844.101563 3.289062 3.292969 3.335937 8.613281.101562 11.960937-2.054687 1.730469-3.4375 4.128906-3.898437 6.777344.460937 2.644531 1.84375 5.042969 3.898437 6.765625 5.394531 4.808594 8.597657 11.605469 8.875 18.824219-.292969 7.238281-3.515625 14.042968-8.925781 18.859375-1.605469 1.59375-3.777344 2.484375-6.039062 2.476562zm0 0"/><path d="m409.601562 443.734375h-25.601562c-4.710938 0-8.53125-3.820313-8.53125-8.53125 0-4.714844 3.820312-8.535156 8.53125-8.535156h17.066406v-17.066407h-25.597656c-4.714844 0-8.535156-3.820312-8.535156-8.53125 0-4.714843 3.820312-8.535156 8.535156-8.535156h34.132812c4.710938 0 8.53125 3.820313 8.53125 8.535156v34.132813c0 4.710937-3.820312 8.53125-8.53125 8.53125zm0 0"/><path d="m435.199219 469.335938h-17.066407c-9.425781 0-17.066406-7.640626-17.066406-17.066407v-76.800781c0-4.714844 3.820313-8.535156 8.535156-8.535156h25.597657c9.425781 0 17.070312 7.644531 17.070312 17.066406v68.269531c0 9.425781-7.644531 17.066407-17.070312 17.066407zm-17.066407-85.335938v68.269531h17.066407v-68.269531zm0 0"/></svg>