<svg height="511pt" viewBox="-89 0 511 511.99225" width="511pt" xmlns="http://www.w3.org/2000/svg"><path d="m61.152344 306.304688.152344-.625-.152344.625c19.738281 23.890624 49.121094 37.714843 80.113281 37.6875h24c57.4375 0 104-46.5625 104-104h-232c-.035156 24.214843 8.417969 47.679687 23.886719 66.3125zm0 0" fill="#cd2a00"/><path d="m286.863281 439.992188h12.800781c14.136719 0 25.601563 11.460937 25.601563 25.601562v12.796875c0 14.140625-11.464844 25.601563-25.601563 25.601563h-12.800781c-14.136719 0-25.597656-11.460938-25.597656-25.601563v-12.796875c0-14.140625 11.460937-25.601562 25.597656-25.601562zm0 0" fill="#acabb1"/><path d="m291.328125 215.992188h-268.128906c-5.488281 0-9.933594 4.449218-9.933594 9.9375v4.125c0 5.488281 4.445313 9.9375 9.933594 9.9375h268.128906c5.488281 0 9.9375-4.449219 9.9375-9.9375v-4.125c0-5.488282-4.449219-9.9375-9.9375-9.9375zm0 0" fill="#ab2300"/><path d="m40.40625 204.449219 164.417969-164.410157c-42.734375-42.726562-112.011719-42.726562-154.746094 0l-9.671875 9.671876c-42.726562 42.730468-42.726562 112.007812 0 154.738281zm0 0" fill="#cd2a00"/><path d="m54.917969 35.199219-19.34375-19.335938-19.34375 19.335938 19.34375 19.34375zm0 0" fill="#cd2a00"/><path d="m299.664062 431.992188h-5.367187l-33.785156-128.351563c-.265625-1.007813-.730469-1.953125-1.359375-2.785156 10.296875-15.828125 16.390625-34.023438 17.703125-52.863281h14.472656c9.898437-.011719 17.921875-8.035157 17.9375-17.9375v-4.125c-.015625-9.902344-8.039063-17.925782-17.9375-17.9375h-243.144531l162.289062-162.296876c3.121094-3.125 3.121094-8.1875 0-11.3125-41.761718-41.816406-108.125-46-154.808594-9.757812l-14.398437-14.402344c-3.125-3.121094-8.191406-3.121094-11.3125 0l-19.378906 19.320313c-3.121094 3.125-3.121094 8.1875 0 11.3125l14.402343 14.402343c-35.414062 45.878907-32.074218 110.734376 7.871094 152.734376h-9.648437c-9.898438.011718-17.921875 8.035156-17.933594 17.9375v4.125c.011719 9.902343 8.035156 17.925781 17.933594 17.9375h6.472656c1.578125 22.488281 9.945313 43.972656 24 61.601562-.046875.152344-.160156.261719-.199219.414062l-48 192c-1.074218 4.289063 1.535156 8.632813 5.824219 9.703126.640625.179687 1.300781.273437 1.96875.28125 3.664063-.003907 6.859375-2.5 7.75-6.054688l26.488281-105.945312h221.824219l8.800781 33.320312c-14.613281 3.933594-24.792968 17.148438-24.863281 32.28125v12.796875c0 18.558594 15.042969 33.601563 33.597656 33.601563h12.800781c18.554688 0 33.601563-15.042969 33.601563-33.601563v-12.796875c0-18.558594-15.046875-33.601562-33.601563-33.601562zm-264.089843-404.800782 8 8-8 8-8-8zm10.488281 28.175782 9.679688-9.671876c37.410156-37.394531 97.277343-39.761718 137.523437-5.4375l-152.632813 152.65625c-34.277343-40.269531-31.917968-100.105468 5.429688-137.546874zm-24.796875 174.6875v-4.125c0-1.070313.863281-1.9375 1.933594-1.9375h268.128906c1.070313 0 1.9375.867187 1.9375 1.9375v4.125c0 1.070312-.867187 1.9375-1.9375 1.9375h-268.128906c-1.070313 0-1.933594-.867188-1.933594-1.9375zm239.671875 17.9375c-4.222656 49.714843-45.777344 87.9375-95.671875 88h-24c-49.898437-.0625-91.453125-38.285157-95.675781-88zm-209.433594 136 15.199219-60.679688c20.453125 18.449219 47.015625 28.664062 74.5625 28.679688h24c31.140625-.015626 60.859375-13.042969 81.972656-35.9375l17.882813 67.9375zm265.761719 94.398437c0 9.722656-7.882813 17.601563-17.601563 17.601563h-12.800781c-9.71875 0-17.597656-7.878907-17.597656-17.601563v-12.796875c0-9.722656 7.878906-17.601562 17.597656-17.601562h12.800781c9.71875 0 17.601563 7.878906 17.601563 17.601562zm0 0" fill="#231f20"/></svg>