<svg id="icons" enable-background="new 0 0 64 64" height="512" viewBox="0 0 64 64" width="512" xmlns="http://www.w3.org/2000/svg"><path d="m39.5 60.01h5.99v2.99h-5.99z" fill="#434a54"/><path d="m7.5 60.01h6v2.99h-6z" fill="#434a54"/><path d="m22.51 53.01h7.99v3h-7.99z" fill="#656d78"/><path d="m7.5 53.01c-2.2 0-4-1.8-4-4v-13.01-2.99c0-2.2 1.8-4 4-4h37.99c2.2 0 4 1.8 4 4v2.99 13.01c0 2.2-1.8 4-4 4h-14.99-7.99zm37.99-21h-37.99c-.54 0-1 .46-1 1v16c0 .54.46 1 1 1h37.99c.55 0 1-.46 1-1v-16c0-.54-.45-1-1-1z" fill="#ccd1d9"/><path d="m22.51 56.01h7.99v-3h14.99c2.2 0 4-1.8 4-4v7c0 2.2-1.8 4-4 4h-5.99-26-6c-2.2 0-4-1.8-4-4v-7c0 2.2 1.8 4 4 4h15.01z" fill="#545c66"/><path d="m60.5 14c0 1.659-1.34 3-3 3-1.65 0-3-1.341-3-3v-2h1.5 3 1.5z" fill="#656d78"/><path d="m22.5 1h8v3h-8z" fill="#656d78"/><path d="m46.49 8v17c0 .54-.45 1-1 1h-37.99c-.54 0-1-.46-1-1v-17c0-.54.46-1 1-1h37.99c.55 0 1 .46 1 1z" fill="#545c66"/><path d="m46.49 33.01v16c0 .54-.45 1-1 1h-37.99c-.54 0-1-.46-1-1v-16c0-.54.46-1 1-1h37.99c.55 0 1 .46 1 1z" fill="#656d78"/><path d="m6.5 25c0 .54.46 1 1 1h37.99c.55 0 1-.46 1-1v-17c0-.54-.45-1-1-1h-37.99c-.54 0-1 .46-1 1zm38.99 4h-37.99c-2.2 0-4-1.801-4-4v-17c0-2.2 1.8-4 4-4h15 8 14.99c2.2 0 4 1.8 4 4v17c0 2.199-1.8 4-4 4z" fill="#aab2bd"/><path d="m45.492 54.008h-37.994c-2.757 0-5-2.243-5-5v-15.998c0-2.757 2.243-5 5-5h37.994c2.757 0 5 2.243 5 5v15.998c0 2.757-2.243 5-5 5zm-37.994-23.998c-1.654 0-3 1.346-3 3v15.998c0 1.654 1.346 3 3 3h37.994c1.654 0 3-1.346 3-3v-15.998c0-1.654-1.346-3-3-3z"/><path d="m45.492 61.004h-37.994c-2.757 0-5-2.243-5-5v-20.002c0-.553.447-1 1-1s1 .447 1 1v20.002c0 1.654 1.346 3 3 3h37.994c1.654 0 3-1.346 3-3v-20.002c0-.553.447-1 1-1s1 .447 1 1v20.002c0 2.757-2.243 5-5 5z"/><path d="m45.492 51.008h-37.994c-1.103 0-2-.897-2-2v-15.998c0-1.084.916-2 2-2h37.994c1.084 0 2 .916 2 2v15.998c0 1.102-.897 2-2 2zm-37.994-17.998v15.998h37.982l.012-15.998z"/><path d="m45.492 29.996h-37.994c-2.757 0-5-2.243-5-5v-16.994c0-2.757 2.243-5 5-5h37.994c2.757 0 5 2.243 5 5v16.994c0 2.757-2.243 5-5 5zm-37.994-24.994c-1.654 0-3 1.346-3 3v16.994c0 1.654 1.346 3 3 3h37.994c1.654 0 3-1.346 3-3v-16.994c0-1.654-1.346-3-3-3z"/><path d="m45.492 26.996h-37.994c-1.103 0-2-.897-2-2v-16.994c0-1.103.897-2 2-2h37.994c1.103 0 2 .897 2 2v16.994c0 1.103-.897 2-2 2zm-37.994-18.994v16.994h37.982l.012-16.994z"/><path d="m7.498 64.002c-.553 0-1-.447-1-1v-2.998c0-.553.447-1 1-1s1 .447 1 1v2.998c0 .553-.447 1-1 1z"/><path d="m13.494 64.002h-5.996c-.553 0-1-.447-1-1s.447-1 1-1h5.996c.553 0 1 .447 1 1s-.447 1-1 1z"/><path d="m13.494 64.002c-.553 0-1-.447-1-1v-2.998c0-.553.447-1 1-1s1 .447 1 1v2.998c0 .553-.447 1-1 1z"/><path d="m39.494 64.002c-.553 0-1-.447-1-1v-2.998c0-.553.447-1 1-1s1 .447 1 1v2.998c0 .553-.447 1-1 1z"/><path d="m45.49 64.002h-5.996c-.553 0-1-.447-1-1s.447-1 1-1h5.996c.553 0 1 .447 1 1s-.447 1-1 1z"/><path d="m45.49 64.002c-.553 0-1-.447-1-1v-2.998c0-.553.447-1 1-1s1 .447 1 1v2.998c0 .553-.447 1-1 1z"/><path d="m10.502 51.008c-.553 0-1-.447-1-1v-17.998c0-.553.447-1 1-1s1 .447 1 1v17.998c0 .553-.447 1-1 1z"/><path d="m14.502 51.008c-.553 0-1-.447-1-1v-17.998c0-.553.447-1 1-1s1 .447 1 1v17.998c0 .553-.447 1-1 1z"/><path d="m18.502 51.008c-.553 0-1-.447-1-1v-17.998c0-.553.447-1 1-1s1 .447 1 1v17.998c0 .553-.447 1-1 1z"/><path d="m22.502 51.008c-.553 0-1-.447-1-1v-17.998c0-.553.447-1 1-1s1 .447 1 1v17.998c0 .553-.447 1-1 1z"/><path d="m26.502 51.008c-.553 0-1-.447-1-1v-17.998c0-.553.447-1 1-1s1 .447 1 1v17.998c0 .553-.447 1-1 1z"/><path d="m30.502 51.008c-.553 0-1-.447-1-1v-17.998c0-.553.447-1 1-1s1 .447 1 1v17.998c0 .553-.447 1-1 1z"/><path d="m34.502 51.008c-.553 0-1-.447-1-1v-17.998c0-.553.447-1 1-1s1 .447 1 1v17.998c0 .553-.447 1-1 1z"/><path d="m38.502 51.008c-.553 0-1-.447-1-1v-17.998c0-.553.447-1 1-1s1 .447 1 1v17.998c0 .553-.447 1-1 1z"/><path d="m42.502 51.008c-.553 0-1-.447-1-1v-17.998c0-.553.447-1 1-1s1 .447 1 1v17.998c0 .553-.447 1-1 1z"/><path d="m10.502 26.997c-.553 0-1-.447-1-1v-18.995c0-.553.447-1 1-1s1 .447 1 1v18.995c0 .553-.447 1-1 1z"/><path d="m14.502 26.997c-.553 0-1-.447-1-1v-18.995c0-.553.447-1 1-1s1 .447 1 1v18.995c0 .553-.447 1-1 1z"/><path d="m18.502 26.997c-.553 0-1-.447-1-1v-18.995c0-.553.447-1 1-1s1 .447 1 1v18.995c0 .553-.447 1-1 1z"/><path d="m22.502 26.997c-.553 0-1-.447-1-1v-18.995c0-.553.447-1 1-1s1 .447 1 1v18.995c0 .553-.447 1-1 1z"/><path d="m26.502 26.997c-.553 0-1-.447-1-1v-18.995c0-.553.447-1 1-1s1 .447 1 1v18.995c0 .553-.447 1-1 1z"/><path d="m30.502 26.997c-.553 0-1-.447-1-1v-18.995c0-.553.447-1 1-1s1 .447 1 1v18.995c0 .553-.447 1-1 1z"/><path d="m34.502 26.997c-.553 0-1-.447-1-1v-18.995c0-.553.447-1 1-1s1 .447 1 1v18.995c0 .553-.447 1-1 1z"/><path d="m38.502 26.997c-.553 0-1-.447-1-1v-18.995c0-.553.447-1 1-1s1 .447 1 1v18.995c0 .553-.447 1-1 1z"/><path d="m42.502 26.997c-.553 0-1-.447-1-1v-18.995c0-.553.447-1 1-1s1 .447 1 1v18.995c0 .553-.447 1-1 1z"/><path d="m22.502 5.002c-.553 0-1-.447-1-1v-3.004c0-.553.447-1 1-1s1 .447 1 1v3.004c0 .553-.447 1-1 1z"/><path d="m30.498 1.998h-7.996c-.553 0-1-.447-1-1s.447-1 1-1h7.996c.553 0 1 .447 1 1s-.447 1-1 1z"/><path d="m30.498 5.002c-.553 0-1-.447-1-1v-3.004c0-.553.447-1 1-1s1 .447 1 1v3.004c0 .553-.447 1-1 1z"/><path d="m30.5 57.004c-.553 0-1-.447-1-1v-3.004c0-.553.447-1 1-1s1 .447 1 1v3.004c0 .553-.447 1-1 1z"/><path d="m30.5 57.004h-7.996c-.553 0-1-.447-1-1s.447-1 1-1h7.996c.553 0 1 .447 1 1s-.447 1-1 1z"/><path d="m22.504 57.004c-.553 0-1-.447-1-1v-3.004c0-.553.447-1 1-1s1 .447 1 1v3.004c0 .553-.447 1-1 1z"/><path d="m51.498 50.008h-2.006c-.553 0-1-.447-1-1s.447-1 1-1h2.006c.553 0 1 .447 1 1s-.447 1-1 1z"/><path d="m51.5 49.998c-.553 0-1-.447-1-1s.447-1 1-1c2.757 0 5-2.243 5-5 0-.553.447-1 1-1s1 .447 1 1c0 3.859-3.141 7-7 7z"/><path d="m57.5 43.998c-.553 0-1-.447-1-1v-26c0-.553.447-1 1-1s1 .447 1 1v26c0 .553-.447 1-1 1z"/><path d="m57.502 17.996c-2.206 0-4-1.794-4-4 0-.553.447-1 1-1s1 .447 1 1c0 1.103.897 2 2 2s2-.897 2-2c0-.553.447-1 1-1s1 .447 1 1c0 2.206-1.794 4-4 4z"/><path d="m54.502 14.996c-.553 0-1-.447-1-1v-1.996c0-.553.447-1 1-1s1 .447 1 1v1.996c0 .553-.447 1-1 1z"/><path d="m60.502 13h-6c-.553 0-1-.447-1-1s.447-1 1-1h6c.553 0 1 .447 1 1s-.447 1-1 1z"/><path d="m60.502 14.996c-.553 0-1-.447-1-1v-1.996c0-.553.447-1 1-1s1 .447 1 1v1.996c0 .553-.447 1-1 1z"/><path d="m59.002 13c-.553 0-1-.447-1-1v-2c0-.553.447-1 1-1s1 .447 1 1v2c0 .553-.447 1-1 1z"/><path d="m56.002 13c-.553 0-1-.447-1-1v-2c0-.553.447-1 1-1s1 .447 1 1v2c0 .553-.447 1-1 1z"/></svg>