<svg id="Capa_1" enable-background="new 0 0 512 512" height="512" viewBox="0 0 512 512" width="512" xmlns="http://www.w3.org/2000/svg"><g><g><path d="m268.288 59.701h93.881c6.6 0 12-5.4 12-12v-9.4c0-6.6-5.4-12-12-12h-93.881c-6.6 0-12 5.4-12 12v9.4c0 6.6 5.4 12 12 12z" fill="#665e68"/><path d="m293.311 47.701v-9.4c0-6.6 5.4-12 12-12h-37.024c-6.6 0-12 5.4-12 12v9.4c0 6.6 5.4 12 12 12h37.024c-6.6 0-12-5.401-12-12z" fill="#554e56"/><path d="m32.738 326.916 13.729-23.697c1.617-2.791 5.102-3.879 8.02-2.503l84.667 38.987c-1.1 8.036-1.673 16.241-1.673 24.579v59.306l-41.76-40.331c-1.739-1.764-3.592-3.41-5.548-4.929l-55.871-43.397c-2.453-1.905-3.121-5.328-1.564-8.015z" fill="#ff656f"/><path d="m118.388 373.79c-2.066-2.096-4.268-4.052-6.592-5.857l-66.383-51.562c-2.034-1.58-3.031-4.039-2.82-6.466l-9.856 17.011c-1.556 2.687-.889 6.11 1.563 8.015l55.872 43.397c1.956 1.519 3.809 3.166 5.548 4.929l41.76 40.331v-31.36z" fill="#ff4756"/><path d="m468.43 270.24c16.831 27.36 26.545 59.565 26.545 94.043v95.895h-359.494v-95.895c0-34.478 9.715-66.683 26.545-94.043z" fill="#ff4756"/><path d="m211.465 270.24h-49.439c-16.831 27.36-26.545 59.565-26.545 94.043v95.895h49.439v-95.895c0-34.479 9.715-66.684 26.545-94.043z" fill="#fc2d39"/><path d="m135.481 460.177h359.495c5.307 0 9.609 4.302 9.609 9.609v6.148c0 5.307-4.302 9.609-9.609 9.609h-359.495c-5.307 0-9.609-4.302-9.609-9.609v-6.148c-.001-5.306 4.302-9.609 9.609-9.609z" fill="#dfebfa"/><path d="m175.311 475.935v-6.148c0-5.307 4.302-9.609 9.609-9.609h-49.44c-5.307 0-9.609 4.302-9.609 9.609v6.148c0 5.307 4.302 9.609 9.609 9.609h49.439c-5.306 0-9.608-4.303-9.608-9.609z" fill="#b1dbfc"/><path d="m296.047 166.569c3.334 7.85 10.114 12.356 19.181 12.356s15.847-4.506 19.181-12.356c51.615 6.228 96.974 36.012 122.99 78.304h-284.342c26.016-42.292 71.375-72.076 122.99-78.304z" fill="#ff4756"/><g><path d="m305.131 176.63c-4.038-2.075-7.147-5.498-9.084-10.061-51.615 6.228-96.974 36.012-122.99 78.304h49.439c18.959-30.82 48.196-54.984 82.635-68.243z" fill="#fc2d39"/></g><circle cx="315.228" cy="158.009" fill="#dfebfa" r="21.917"/><path d="m311.311 158.009c0-8.896 5.303-16.547 12.917-19.982-2.747-1.239-5.791-1.934-9-1.934-12.104 0-21.917 9.813-21.917 21.917s9.813 21.917 21.917 21.917c3.209 0 6.253-.695 9-1.934-7.614-3.437-12.917-11.089-12.917-19.984z" fill="#b1dbfc"/><path d="m162.078 243.873h306.301c5.307 0 9.609 4.302 9.609 9.609v8.148c0 5.307-4.302 9.609-9.609 9.609h-306.301c-5.307 0-9.609-4.302-9.609-9.609v-8.148c0-5.306 4.302-9.609 9.609-9.609z" fill="#ff656f"/><path d="m201.908 261.631v-8.148c0-5.307 4.302-9.609 9.609-9.609h-49.439c-5.307 0-9.609 4.302-9.609 9.609v8.148c0 5.307 4.302 9.609 9.609 9.609h49.439c-5.307 0-9.609-4.303-9.609-9.609z" fill="#ff4756"/></g><g><path d="m502.391 454.51v-45.156c0-4.143-3.357-7.5-7.5-7.5s-7.5 3.357-7.5 7.5v43.401h-344.495c0-12.756 0-78.33 0-88.395 0-29.426 7.528-59.456 23.297-86.543h297.902c15.254 26.203 23.296 56.032 23.296 86.543v9.993c0 4.143 3.357 7.5 7.5 7.5s7.5-3.357 7.5-7.5v-9.993c0-31.751-8.039-62.817-23.277-90.412 2.736-2.24 4.751-5.315 5.691-8.827 5.318-2.12 9.091-7.31 9.091-13.376v-71.742c0-67.767-46.865-126.017-112.313-140.837v-.788c0-10.752-8.748-19.5-19.5-19.5h-93.881c-10.752 0-19.5 8.748-19.5 19.5v.788c-65.448 14.82-112.313 73.07-112.313 140.837v71.742c0 6.066 3.774 11.257 9.092 13.376.94 3.511 2.955 6.586 5.691 8.826-9.475 17.156-16.154 35.655-19.853 54.829l-73.719-34.767c-6.499-3.064-14.11-.684-17.706 5.527l-13.729 23.697s-.001 0-.001.001c-3.419 5.903-1.935 13.511 3.453 17.697l55.87 43.396c1.691 1.313 3.309 2.751 4.809 4.272l37.601 38.141v27.769c-5.679 2.786-9.608 8.612-9.608 15.354v6.148c0 9.434 7.675 17.108 17.108 17.108h359.495c9.435 0 17.109-7.675 17.109-17.108v-6.148c-.001-6.741-3.93-12.567-9.61-15.353zm-31.988-193.802c0 1.163-.946 2.109-2.109 2.109h-306.301c-1.163 0-2.109-.946-2.109-2.109v-6.147c0-1.163.946-2.109 2.109-2.109h306.301c1.163 0 2.109.946 2.109 2.109zm-155.259-73.204c9.615 0 18.742-4.738 24.237-12.734 41.792 6.359 78.805 28.795 103.831 62.682h-256.138c25.027-33.887 62.04-56.322 103.831-62.682 5.579 8.117 14.763 12.734 24.239 12.734zm-14.417-29.417c0-7.949 6.468-14.417 14.417-14.417s14.417 6.468 14.417 14.417c0 7.99-6.524 14.417-14.417 14.417-7.881 0-14.417-6.412-14.417-14.417zm-149.337 21.917c0-59.977 40.959-111.63 98.464-125.692 2.695 7.543 9.892 12.966 18.35 12.966h29.44c4.143 0 7.5-3.357 7.5-7.5s-3.357-7.5-7.5-7.5h-29.44c-2.439 0-4.5-2.061-4.5-4.5v-9.399c0-2.439 2.061-4.5 4.5-4.5h93.881c2.439 0 4.5 2.061 4.5 4.5v9.399c0 2.439-2.061 4.5-4.5 4.5h-29.44c-4.143 0-7.5 3.357-7.5 7.5s3.357 7.5 7.5 7.5h29.44c8.458 0 15.655-5.423 18.35-12.966 57.504 14.062 98.463 65.714 98.463 125.692v61.154c-2.918-2.313-6.598-3.706-10.603-3.706h-6.858c-13.283-20.446-30.988-38.182-51.43-51.465-19.782-12.854-42.291-21.606-65.546-25.571.061-.769.101-1.544.101-2.329 0-16.221-13.196-29.417-29.417-29.417s-29.417 13.196-29.417 29.417c0 .784.04 1.559.101 2.328-23.255 3.964-45.764 12.717-65.546 25.571-20.442 13.282-38.146 31.019-51.431 51.465h-6.857c-4.005 0-7.685 1.393-10.604 3.707v-61.154zm-23.494 184.356v41.015l-26.918-27.305c-1.962-1.99-4.077-3.87-6.289-5.588l-54.98-42.705 12.569-21.694 76.692 36.171c-.703 6.546-1.074 14.191-1.074 20.106zm369.104 111.653c0 1.163-.946 2.108-2.109 2.108h-359.495c-1.162 0-2.108-.945-2.108-2.108v-6.148c0-1.163.946-2.109 2.108-2.109h359.495c1.163 0 2.109.946 2.109 2.109z"/><path d="m44.663 279.205c0 4.143 3.357 7.5 7.5 7.5s7.5-3.357 7.5-7.5c0-12.925-10.516-23.439-23.44-23.439h-14.439c-3.741 0-6.784-3.043-6.784-6.784 0-3.74 3.043-6.783 6.784-6.783h41.386c12.012 0 21.784-9.772 21.784-21.784s-9.772-21.785-21.784-21.785h-24.457c-4.143 0-7.5 3.357-7.5 7.5s3.357 7.5 7.5 7.5h24.457c3.741 0 6.784 3.043 6.784 6.784s-3.043 6.784-6.784 6.784h-41.386c-12.012 0-21.784 9.772-21.784 21.783s9.772 21.784 21.784 21.784h14.438c4.655.001 8.441 3.787 8.441 8.44z"/></g></g></svg>