<svg id="Filled" height="512" viewBox="0 0 512 512" width="512" xmlns="http://www.w3.org/2000/svg"><path d="m112 192h-32l-32-80h64z" fill="#a0a8b3"/><path d="m400 56h-96v288h96a64 64 0 0 0 64-64v-160a64 64 0 0 0 -64-64zm32 224a32 32 0 0 1 -32 32h-16a32 32 0 0 1 -32-32v-160a32 32 0 0 1 32-32h16a32 32 0 0 1 32 32z" fill="#414649"/><path d="m320 72c0-26.51-42.98-48-96-48s-96 21.49-96 48c-56 50.666-64 304-64 304a48 48 0 0 0 48 48h224a48 48 0 0 0 48-48s-8-253.334-64-304z" fill="#ced8dc"/><path d="m112 424h224a64 64 0 0 1 64 64 0 0 0 0 1 0 0h-352a0 0 0 0 1 0 0 64 64 0 0 1 64-64z" fill="#414649"/><path d="m336 424h-224a48 48 0 0 1 -48-48h320a48 48 0 0 1 -48 48z" fill="#a0a8b3"/><path d="m128 72c0-26.51 42.981-48 96-48s96 21.49 96 48z" fill="#414649"/><path d="m472 120a72.081 72.081 0 0 0 -72-72h-81.816c-16.421-19.054-51.935-32-94.184-32-56.094 0-100.376 22.783-103.679 52.462-8.2 8.352-15.392 20.564-21.659 35.538h-50.662a8 8 0 0 0 -7.43 10.969l32 80a7.989 7.989 0 0 0 1.28 2.139c-14.587 82.74-17.65 172.413-17.85 178.642 0 .043.022.082.021.125s-.021.081-.021.125a55.969 55.969 0 0 0 25.474 46.886 72.026 72.026 0 0 0 -41.474 65.114 8 8 0 0 0 8 8h352a8 8 0 0 0 8-8 72.026 72.026 0 0 0 -41.474-65.114 55.969 55.969 0 0 0 25.474-46.886c0-.044-.025-.081-.025-.125s.023-.082.021-.125c-.056-1.778-.357-10.474-1.081-23.75h9.085a72.081 72.081 0 0 0 72-72zm-248-88c44.609 0 77.586 15.594 85.938 32h-171.876c8.352-16.406 41.329-32 85.938-32zm-164.184 88h32.844a445.3 445.3 0 0 0 -13.275 48.921zm331.614 360h-334.86a56.088 56.088 0 0 1 55.43-48h224a56.088 56.088 0 0 1 55.43 48zm-55.43-64h-224a40.069 40.069 0 0 1 -39.195-32h302.395a40.069 40.069 0 0 1 -39.2 32zm-263.672-48c.871-19.344 3.637-70.078 10.621-124.094 8.1-62.667 18.161-102.673 28.069-128.266a7.71 7.71 0 0 0 .507-1.286c6.9-17.491 13.71-28.119 19.713-34.354h185.524c14.765 15.336 34.4 56.5 48.289 163.906 6.984 54.016 9.75 104.75 10.621 124.094zm287.556-233.761c.015-.2.116-.371.116-.575v-13.664a24.027 24.027 0 0 1 24-24h16a24.027 24.027 0 0 1 24 24v160a24.027 24.027 0 0 1 -24 24h-12.445c-4.29-50.54-12.463-117.979-27.671-169.761zm96.116 145.761a56.065 56.065 0 0 1 -56 56h-10.045c-.325-5.012-.688-10.31-1.114-16h11.159a40.047 40.047 0 0 0 40-40v-160a40.047 40.047 0 0 0 -40-40h-16a39.9 39.9 0 0 0 -35.523 22c-6.062-14.065-12.972-25.565-20.8-33.54a32.466 32.466 0 0 0 -.81-4.46h73.133a56.065 56.065 0 0 1 56 56z"/><path d="m248 448h-48a8 8 0 0 0 0 16h48a8 8 0 0 0 0-16z"/></svg>