<?xml version="1.0"?>
<svg xmlns="http://www.w3.org/2000/svg" id="Fill_out_line" data-name="Fill out line" viewBox="0 0 512 512" width="512" height="512"><polygon points="472 144 466.83 175 464 192 432 200 432 144 472 144" style="fill:#d14547"/><rect x="24" y="296" width="272" height="24" rx="11.99999" ry="11.99999" style="fill:#a3d6eb"/><path d="M48,320l13.26729,57.49157A60,60,0,0,0,119.73076,424h80.53848a60,60,0,0,0,58.46347-46.50843L272,320Z" style="fill:#8acce7"/><rect x="120" y="424" width="80" height="24" style="fill:#379ec3"/><rect x="120" y="200" width="80" height="24" style="fill:#a6b2bc"/><path d="M168,24H432a0,0,0,0,1,0,0V200a0,0,0,0,1,0,0H72a0,0,0,0,1,0,0V120A96,96,0,0,1,168,24Z" style="fill:#e44b4d"/><path d="M432,32h.00006A55.99994,55.99994,0,0,1,488,87.99994v24.00011A55.99994,55.99994,0,0,1,432.00006,168H432a0,0,0,0,1,0,0V32A0,0,0,0,1,432,32Z" style="fill:#d14547"/><rect x="24" y="120" width="48" height="48" style="fill:#d14547"/><path d="M488,468a20.007,20.007,0,0,1-20,20H84a20,20,0,0,1,0-40H186.66992a159.96686,159.96686,0,0,0,95.99-32A133.33121,133.33121,0,0,0,297.89,216q-4.02007-4.125-8.45007-7.91016L280,200H424q-5.18994,7.78491-9.57007,16A190.396,190.396,0,0,0,392,305.68994v4.93994A190.46535,190.46535,0,0,0,432.14,427.6001l3.58,4.60986A40.90341,40.90341,0,0,0,468,448a20.007,20.007,0,0,1,20,20Z" style="fill:#e44b4d"/><path d="M428.34692,208H432a7.98145,7.98145,0,0,0,1.93872-.24658l.00171.00732,32-8a7.99893,7.99893,0,0,0,5.95068-6.44531l6.156-36.93481A63.76459,63.76459,0,0,0,496,112V88a64.08155,64.08155,0,0,0-56-63.48218V24a8.00008,8.00008,0,0,0-8-8H168A104.13948,104.13948,0,0,0,64.30469,112H24a8.00008,8.00008,0,0,0-8,8v48a8.00008,8.00008,0,0,0,8,8H64v24a8.00008,8.00008,0,0,0,8,8h40v16a8.00008,8.00008,0,0,0,8,8h32v24a40.068,40.068,0,0,0-39.19507,32H36a20,20,0,0,0,0,40h5.63611l11.83606,51.29A67.63893,67.63893,0,0,0,112,431.55518V440H84a28,28,0,0,0,0,56H468a28,28,0,0,0,0-56,32.683,32.683,0,0,1-25.96387-12.69824l-3.58593-4.61035A183.40607,183.40607,0,0,1,400,310.627v-4.93847A181.91514,181.91514,0,0,1,428.34692,208ZM440,189.75391V175.48218a63.48821,63.48821,0,0,0,19.60071-5.74805l-2.62952,15.77661ZM480,88v24a48.06865,48.06865,0,0,1-40,47.32056V40.67944A48.06865,48.06865,0,0,1,480,88ZM32,160V128H64v32Zm48-40a88.09957,88.09957,0,0,1,88-88H424V192H80Zm48,88h64v8H128Zm40,24h32a8.00008,8.00008,0,0,0,8-8V208h69.04l7.189,6.16211a125.34172,125.34172,0,0,1-6.36572,195.44043A153.04215,153.04215,0,0,1,208,438.47217v-6.917A67.63893,67.63893,0,0,0,266.52783,379.29L278.36389,328H284a20,20,0,0,0,0-40H207.19507A40.068,40.068,0,0,0,168,256Zm22.62378,56H168V272A24.038,24.038,0,0,1,190.62378,288ZM152,272v16H129.37622A24.038,24.038,0,0,1,152,272ZM32,308a4.00427,4.00427,0,0,1,4-4H284a4,4,0,0,1,0,8H36A4.00427,4.00427,0,0,1,32,308Zm37.062,67.69238L58.05615,328h203.8877L250.938,375.69238A51.76427,51.76427,0,0,1,200.269,416H119.731A51.76427,51.76427,0,0,1,69.062,375.69238ZM128,432h64v7.89844c-1.7749.06347-3.55115.10156-5.32861.10156H128Zm297.82031.51367,3.58594,4.61035A48.57754,48.57754,0,0,0,468,456a12,12,0,0,1,0,24H84a12,12,0,0,1,0-24H186.67139a169.04174,169.04174,0,0,0,100.792-33.59668A141.32925,141.32925,0,0,0,301.18433,208H409.69189A197.81357,197.81357,0,0,0,384,305.68848V310.627A199.47984,199.47984,0,0,0,425.82031,432.51367Z"/></svg>
