<svg id="Fill_out_line" height="512" viewBox="0 0 512 512" width="512" xmlns="http://www.w3.org/2000/svg" data-name="Fill out line"><rect fill="#8acce7" height="304" rx="32" width="464" x="24" y="104"/><path d="m416 408h40v32h-40z" fill="#2f4054"/><path d="m56 408h40v32h-40z" fill="#2f4054"/><rect fill="#eebe33" height="176" rx="16" width="272" x="56" y="144"/><path d="m24 360h360v48h-328a32 32 0 0 1 -32-32z" fill="#379ec3"/><g fill="#c4d4e0"><rect height="304" rx="16" width="48" x="360" y="104"/><circle cx="448" cy="168" r="16"/><circle cx="448" cy="256" r="16"/><circle cx="448" cy="344" r="16"/></g><path d="m456 96h-400a40.04552 40.04552 0 0 0 -40 40v240a40.068 40.068 0 0 0 32 39.19507v24.80493a8.00008 8.00008 0 0 0 8 8h40a8.00008 8.00008 0 0 0 8-8v-24h304v24a8.00008 8.00008 0 0 0 8 8h40a8.00008 8.00008 0 0 0 8-8v-24.80493a40.068 40.068 0 0 0 32-39.19507v-240a40.04552 40.04552 0 0 0 -40-40zm-400 16h297.37616a23.88535 23.88535 0 0 0 -1.37616 8v232h-320v-216a24.0275 24.0275 0 0 1 24-24zm-24 264v-8h320v24a23.88535 23.88535 0 0 0 1.37616 8h-297.37616a24.0275 24.0275 0 0 1 -24-24zm56 56h-24v-16h24zm288-32a8.00917 8.00917 0 0 1 -8-8v-272a8.00917 8.00917 0 0 1 8-8h16a8.00917 8.00917 0 0 1 8 8v272a8.00917 8.00917 0 0 1 -8 8zm48 32v-16h24v16zm56-56a24.0275 24.0275 0 0 1 -24 24h-41.37616a23.88535 23.88535 0 0 0 1.37616-8v-272a23.88535 23.88535 0 0 0 -1.37616-8h41.37616a24.0275 24.0275 0 0 1 24 24z"/><path d="m72 328h240a24.0275 24.0275 0 0 0 24-24v-144a24.0275 24.0275 0 0 0 -24-24h-240a24.0275 24.0275 0 0 0 -24 24v144a24.0275 24.0275 0 0 0 24 24zm-8-168a8.00917 8.00917 0 0 1 8-8h240a8.00917 8.00917 0 0 1 8 8v144a8.00917 8.00917 0 0 1 -8 8h-240a8.00917 8.00917 0 0 1 -8-8z"/><path d="m176 376h32v16h-32z"/><path d="m448 144a24 24 0 1 0 24 24 24.02718 24.02718 0 0 0 -24-24zm0 32a8 8 0 1 1 8-8 8.00917 8.00917 0 0 1 -8 8z"/><path d="m448 232a24 24 0 1 0 24 24 24.02718 24.02718 0 0 0 -24-24zm0 32a8 8 0 1 1 8-8 8.00917 8.00917 0 0 1 -8 8z"/><path d="m448 320a24 24 0 1 0 24 24 24.02718 24.02718 0 0 0 -24-24zm0 32a8 8 0 1 1 8-8 8.00917 8.00917 0 0 1 -8 8z"/></svg>