<svg id="icons" enable-background="new 0 0 64 64" height="512" viewBox="0 0 64 64" width="512" xmlns="http://www.w3.org/2000/svg"><path d="m1 12.5v36h4 10 34 10 4v-36z" fill="#545c66"/><path d="m5 48.5h10v3h-10z" fill="#434a54"/><path d="m49 48.5h10v3h-10z" fill="#434a54"/><path d="m44 26.5h3v8h-3z" fill="#656d78"/><path d="m51 21.5h8v5h-8z" fill="#5d9cec"/><path d="m47 34.5v10h-42v-28h42v10h-3v8z" fill="#5d9cec"/><path d="m25.722 44.5h-5.002l3.003-28h5.002z" fill="#87bcf4"/><path d="m63 49.501h-62c-.553 0-1-.447-1-1v-36.001c0-.552.447-1 1-1h62c.553 0 1 .448 1 1v36.001c0 .553-.447 1-1 1zm-61-2h60v-34.001h-60z"/><path d="m47 45.5h-41.999c-.553 0-1-.447-1-1v-28c0-.552.447-1 1-1h41.999c.553 0 1 .448 1 1v28c0 .553-.447 1-1 1zm-40.999-2h39.999v-26h-39.999z"/><path d="m51.028 31.504c-.553 0-1.005-.448-1.005-1s.442-1 .994-1h.011c.552 0 1 .448 1 1s-.448 1-1 1z"/><path d="m55.029 31.504c-.553 0-1.005-.448-1.005-1s.442-1 .994-1h.011c.552 0 1 .448 1 1s-.448 1-1 1z"/><path d="m59.03 31.504c-.553 0-1.005-.448-1.005-1s.442-1 .994-1h.011c.552 0 1 .448 1 1s-.448 1-1 1z"/><path d="m51.028 35.505c-.553 0-1.005-.447-1.005-1s.442-1 .994-1h.011c.552 0 1 .447 1 1s-.448 1-1 1z"/><path d="m55.029 35.505c-.553 0-1.005-.447-1.005-1s.442-1 .994-1h.011c.552 0 1 .447 1 1s-.448 1-1 1z"/><path d="m59.03 35.505c-.553 0-1.005-.447-1.005-1s.442-1 .994-1h.011c.552 0 1 .447 1 1s-.448 1-1 1z"/><path d="m51.028 39.507c-.553 0-1.005-.447-1.005-1s.442-1 .994-1h.011c.552 0 1 .447 1 1s-.448 1-1 1z"/><path d="m55.029 39.507c-.553 0-1.005-.447-1.005-1s.442-1 .994-1h.011c.552 0 1 .447 1 1s-.448 1-1 1z"/><path d="m59.03 39.507c-.553 0-1.005-.447-1.005-1s.442-1 .994-1h.011c.552 0 1 .447 1 1s-.448 1-1 1z"/><path d="m58.999 27.504h-8.001c-.553 0-1-.448-1-1v-5.002c0-.552.447-1 1-1h8.001c.553 0 1 .448 1 1v5.002c0 .552-.447 1-1 1zm-7.001-2h6.001v-3.002h-6.001z"/><path d="m46.996 27.501h-2.996c-.553 0-1-.448-1-1s.447-1 1-1h2.996c.553 0 1 .448 1 1s-.447 1-1 1z"/><path d="m44 35.502c-.553 0-1-.447-1-1v-8.001c0-.552.447-1 1-1s1 .448 1 1v8.001c0 .553-.447 1-1 1z"/><path d="m46.996 35.502h-2.996c-.553 0-1-.447-1-1s.447-1 1-1h2.996c.553 0 1 .447 1 1s-.447 1-1 1z"/><path d="m5.002 52.5c-.553 0-1-.447-1-1v-2.999c0-.553.447-1 1-1s1 .447 1 1v2.999c0 .553-.447 1-1 1z"/><path d="m15.002 52.5h-10c-.553 0-1-.447-1-1s.447-1 1-1h10c.553 0 1 .447 1 1s-.447 1-1 1z"/><path d="m15.002 52.5c-.553 0-1-.447-1-1v-2.999c0-.553.447-1 1-1s1 .447 1 1v2.999c0 .553-.447 1-1 1z"/><path d="m48.998 52.5c-.553 0-1-.447-1-1v-2.999c0-.553.447-1 1-1s1 .447 1 1v2.999c0 .553-.447 1-1 1z"/><path d="m58.998 52.5h-10c-.553 0-1-.447-1-1s.447-1 1-1h10c.553 0 1 .447 1 1s-.447 1-1 1z"/><path d="m58.998 52.5c-.553 0-1-.447-1-1v-2.999c0-.553.447-1 1-1s1 .447 1 1v2.999c0 .553-.447 1-1 1z"/></svg>