<?xml version="1.0" encoding="UTF-8"?>
<svg xmlns="http://www.w3.org/2000/svg" xmlns:xlink="http://www.w3.org/1999/xlink" width="512" height="512" viewBox="0 0 52 60" version="1.1"><!-- Generator: Sketch 51.3 (57544) - http://www.bohemiancoding.com/sketch --><title>003 - Kiln</title><desc>Created with Sketch.</desc><defs/><g id="Page-1" stroke="none" stroke-width="1" fill="none" fill-rule="evenodd"><g id="003---Kiln" fill-rule="nonzero"><path d="M30,4 L30,14 C27.3937343,13.1973311 24.6062657,13.1973311 22,14 L22,4 L30,4 Z" id="Shape" fill="#37474F"/><path d="M51,36 L51.0000039,44 L0.999998954,44 L1,36 C0.996476307,23.7351534 9.89276001,13.2799019 22,11.32 C22.82,11.19 23.65,11.1 24.5,11.05 C25,11.02 25.5,11 26,11 C32.631551,10.9962832 38.9925586,13.6290106 43.681774,18.318226 C48.3709894,23.0074414 51.0037168,29.368449 51,36 Z" id="Shape" fill="#37474F"/><path d="M48,36 L48.000001,44 L0.999998954,44 L1,36 C0.996476307,23.7351534 9.89276001,13.2799019 22,11.32 C22.82,11.19 23.65,11.1 24.5,11.05 C25.35,11.1 26.18,11.19 27,11.32 C39.10724,13.2799019 48.0035237,23.7351534 48,36 Z" id="Shape" fill="#607D8B"/><path d="M51,44 L51,57 C50.9967052,58.1032019 50.1032019,58.9967052 49,59 L3,59 C1.89679813,58.9967052 1.0032948,58.1032019 1,57 L1,44 L6,44 L6,39 L46,39 L46,44 L51,44 Z" id="Shape" fill="#F57C00"/><path d="M49,44 L49,57 C48.9967052,58.1032019 48.1032019,58.9967052 47,59 L3,59 C1.89679813,58.9967052 1.0032948,58.1032019 1,57 L1,44 L6,44 L6,39 L44,39 L44,44 L49,44 Z" id="Shape" fill="#FF9801"/><path d="M21.48,21.7 L21.47,21.7 C21.3171347,21.7409541 21.1668647,21.7910441 21.02,21.85 C20.975673,21.8639583 20.932256,21.8806571 20.89,21.9 C20.78,21.94 20.67,21.98 20.57,22.02 C19.5010725,22.429189 18.4840653,22.962866 17.54,23.61 C17.36,23.74 17.2,23.86 17.03,23.98 C16.0048919,24.7437565 15.0837882,25.6379667 14.29,26.64 C14.07,26.91 13.86,27.19 13.66,27.48 L8.96,25.54 C11.3940436,21.5616919 15.1444215,18.5613896 19.56,17.06 L21.48,21.7 Z" id="Shape" fill="#FF5722"/><path d="M32.44,17.06 L30.52,21.7 C30.5017578,21.6889076 30.4812492,21.6820713 30.46,21.68 C30.32,21.63 30.17,21.59 30.03,21.55 C30.0146458,21.5419163 29.9972822,21.5384436 29.98,21.54 C29.8,21.49 29.62,21.44 29.43,21.4 C29.2488738,21.3504805 29.065292,21.3104263 28.88,21.28 C28.69,21.24 28.5,21.21 28.31,21.18 C28.2074582,21.1611207 28.1039755,21.1477681 28,21.14 C27.68,21.09 27.35,21.06 27.01,21.04 C26.88,21.03 26.74,21.02 26.61,21.02 C26.41,21 26.2,21 26,21 C25.8,21 25.59,21 25.39,21.02 C25.26,21.02 25.12,21.03 24.99,21.04 C24.65,21.06 24.32,21.09 24,21.14 C23.8960245,21.1477681 23.7925418,21.1611207 23.69,21.18 C23.5,21.21 23.31,21.24 23.12,21.28 C22.934708,21.3104263 22.7511262,21.3504805 22.57,21.4 C22.38,21.44 22.2,21.49 22.02,21.54 C22.0027178,21.5384436 21.9853542,21.5419163 21.97,21.55 C21.83,21.59 21.68,21.63 21.54,21.68 C21.5187508,21.6820713 21.4982422,21.6889076 21.48,21.7 L19.56,17.06 C23.7370184,15.6466653 28.2629816,15.6466653 32.44,17.06 Z" id="Shape" fill="#FF9801"/><path d="M43.04,25.54 L38.34,27.48 C38.1946619,27.2617817 38.0377717,27.0514821 37.87,26.85 C37.82,26.78 37.77,26.71 37.71,26.64 C36.9162118,25.6379667 35.9951081,24.7437565 34.97,23.98 C34.8,23.86 34.64,23.74 34.46,23.61 C33.5159347,22.962866 32.4989275,22.429189 31.43,22.02 C31.33,21.98 31.22,21.94 31.11,21.9 C31.067744,21.8806571 31.024327,21.8639583 30.98,21.85 C30.8331353,21.7910441 30.6828653,21.7409541 30.53,21.7 L30.52,21.7 L32.16,17.74 L32.44,17.06 C36.8555785,18.5613896 40.6059564,21.5616919 43.04,25.54 Z" id="Shape" fill="#D84315"/><path d="M41.04,25.54 L37.87,26.85 C37.82,26.78 37.77,26.71 37.71,26.64 C36.9162118,25.6379667 35.9951081,24.7437565 34.97,23.98 C34.8,23.86 34.64,23.74 34.46,23.61 C33.5159347,22.962866 32.4989275,22.429189 31.43,22.02 C31.33,21.98 31.22,21.94 31.11,21.9 C31.067744,21.8806571 31.024327,21.8639583 30.98,21.85 C30.8331353,21.7910441 30.6828653,21.7409541 30.53,21.7 L30.52,21.7 L32.16,17.74 C35.8411757,19.3813947 38.9376015,22.1012282 41.04,25.54 Z" id="Shape" fill="#FF5722"/><rect id="Rectangle-path" fill="#A0522D" x="16" y="39" width="10" height="5"/><path d="M13.66,27.48 C13.49,27.72 13.33,27.97 13.17,28.23 C12.9384308,28.6045568 12.728099,28.9918344 12.54,29.39 C12.47,29.53 12.4,29.67 12.34,29.81 C12.3218319,29.8289165 12.3111684,29.853798 12.31,29.88 C12.2382897,30.0229056 12.1748517,30.1698145 12.12,30.32 C12.0135655,30.5649114 11.9201027,30.8152581 11.84,31.07 C11.7137639,31.406945 11.6069224,31.750841 11.52,32.1 C11.4706832,32.2507505 11.4306087,32.4043691 11.4,32.56 C11.35,32.74 11.32,32.92 11.28,33.11 C11.23,33.36 11.19,33.62 11.15,33.89 L11.15,33.92 C11.12,34.1 11.1,34.29 11.08,34.47 C11.0563675,34.6524386 11.0430131,34.8360618 11.04,35.02 C11.02,35.15 11.02,35.29 11.01,35.43 C11,35.62 11,35.81 11,36 C10.9983408,36.0701487 11.0016826,36.1403264 11.01,36.21 C11.0016723,36.4335293 11.008354,36.6573655 11.03,36.88 C11.0283565,36.9169499 11.0317203,36.9539522 11.04,36.99 C11.0530162,37.3482744 11.0864034,37.7055182 11.14,38.06 C11.18,38.38 11.24,38.69 11.3,39 L5.99996757,39 L6,36 C5.99332103,32.3057165 7.01849299,28.6829804 8.96,25.54 L13.66,27.48 Z" id="Shape" fill="#FF9801"/><rect id="Rectangle-path" fill="#A0522D" x="36" y="39" width="10" height="5"/><path d="M46,36 L46.0000324,39 L40.7,39 C40.9017307,38.0127996 41.0022508,37.0075985 41,36 C41,35.81 41,35.62 40.99,35.43 C40.98,35.29 40.97,35.15 40.96,35.02 C40.9569869,34.8360618 40.9436325,34.6524386 40.92,34.47 C40.9,34.28 40.88,34.1 40.85,33.92 L40.85,33.89 C40.81,33.62 40.77,33.36 40.72,33.11 C40.6906208,32.9245095 40.6505541,32.7408705 40.6,32.56 C40.5693913,32.4043691 40.5293168,32.2507505 40.48,32.1 C40.3930776,31.750841 40.2862361,31.406945 40.16,31.07 C40.08,30.82 39.98,30.57 39.88,30.32 C39.82,30.17 39.76,30.03 39.69,29.88 C39.6888316,29.853798 39.6781681,29.8289165 39.66,29.81 C39.59,29.67 39.53,29.53 39.46,29.39 C39.271901,28.9918344 39.0615692,28.6045568 38.83,28.23 C38.67,27.97 38.51,27.72 38.34,27.48 L41.43,26.21 L43.04,25.54 C44.981507,28.6829804 46.006679,32.3057165 46,36 Z" id="Shape" fill="#F57C00"/><path d="M44,36 L44.0000302,39 L40.7,39 C40.9017307,38.0127996 41.0022508,37.0075985 41,36 C41,35.81 41,35.62 40.99,35.43 C40.98,35.29 40.97,35.15 40.96,35.02 C40.9569869,34.8360618 40.9436325,34.6524386 40.92,34.47 C40.9,34.28 40.88,34.1 40.85,33.92 L40.85,33.89 C40.81,33.62 40.77,33.36 40.72,33.11 C40.6906208,32.9245095 40.6505541,32.7408705 40.6,32.56 C40.5693913,32.4043691 40.5293168,32.2507505 40.48,32.1 C40.3930776,31.750841 40.2862361,31.406945 40.16,31.07 C40.08,30.82 39.98,30.57 39.88,30.32 C39.82,30.17 39.76,30.03 39.69,29.88 C39.6888316,29.853798 39.6781681,29.8289165 39.66,29.81 C39.59,29.67 39.53,29.53 39.46,29.39 C39.271901,28.9918344 39.0615692,28.6045568 38.83,28.23 C38.67,27.97 38.51,27.72 38.34,27.48 L41.43,26.21 C43.1203894,29.1955579 44.0059926,32.5691202 44,36 Z" id="Shape" fill="#FF9801"/><rect id="Rectangle-path" fill="#37474F" x="20" y="1" width="12" height="5" rx="1"/><rect id="Rectangle-path" fill="#607D8B" x="20" y="1" width="9" height="5" rx="1"/><path d="M51,54 L51,57 C50.9967052,58.1032019 50.1032019,58.9967052 49,59 L41,59 L41,54 L51,54 Z" id="Shape" fill="#D84315"/><rect id="Rectangle-path" fill="#A0522D" x="31" y="54" width="10" height="5"/><rect id="Rectangle-path" fill="#FF5722" x="21" y="54" width="10" height="5"/><rect id="Rectangle-path" fill="#A0522D" x="11" y="54" width="10" height="5"/><path d="M11,54 L11,59 L3,59 C1.89679813,58.9967052 1.0032948,58.1032019 1,57 L1,54 L11,54 Z" id="Shape" fill="#FF5722"/><rect id="Rectangle-path" fill="#D84315" x="46" y="49" width="5" height="5"/><path d="M49,54 L49,57 C48.9967052,58.1032019 48.1032019,58.9967052 47,59 L41,59 L41,54 L49,54 Z" id="Shape" fill="#FF5722"/><rect id="Rectangle-path" fill="#FF5722" x="46" y="49" width="3" height="5"/><rect id="Rectangle-path" fill="#A0522D" x="1" y="44" width="10" height="5"/><path d="M11.35,36.03 C11.25,36.19 11.14,36.35 11.02,36.51 C11.01,36.41 11.01,36.31 11.01,36.21 C11.1283479,36.1599925 11.2421118,36.0997646 11.35,36.03 Z" id="Shape" fill="#FEC108"/><path d="M16,33 C15.75,32.01 14.91,31.9 14.07,32.06 C14.1228731,31.6758067 14.0990815,31.2849439 14,30.91 C14.663535,30.5123089 15.3857896,30.2220571 16.14,30.05 C16.98,32.2 16,33 16,33 Z" id="Shape" fill="#FEC108"/><path d="M41,36 C41.0022508,37.0075985 40.9017307,38.0127996 40.7,39 L38.96,39 C38.99,38.67 39,38.34 39,38 C36.88,38.5 35.69,31.35 35,32 C33.75,33.17 32.76,33.72 32,32 C31.7093982,31.3304867 31.354395,30.6908113 30.94,30.09 C31.36,29.13 31.68,27.96 32,27 C32.8786148,27.8412209 33.5614171,28.8654244 34,30 C34.76,31.72 35.75,31.17 37,30 C37.69,29.35 38.88,36.5 41,36 Z" id="Shape" fill="#FEC108"/><path d="M39,38 C39,38.34 38.99,38.67 38.96,39 L11.3,39 C11.24,38.69 11.18,38.38 11.14,38.06 C11.0864034,37.7055182 11.0530162,37.3482744 11.04,36.99 C11.0317203,36.9539522 11.0283565,36.9169499 11.03,36.88 C11.02,36.76 11.02,36.64 11.02,36.51 C11.14,36.35 11.25,36.19 11.35,36.03 C12.7918711,35.1662652 13.7851788,33.7164743 14.07,32.06 C14.91,31.9 15.75,32.01 16,33 C16,33 16.98,32.2 16.14,30.05 C16.96,29.9 17.76,30.04 18,31 C18.3116876,30.6794948 18.4811075,30.2469333 18.47,29.8 C18.4148822,28.4053821 17.8977751,27.0686426 17,26 C18.9320251,26.7957151 20.7350567,27.8741639 22.35,29.2 C23.2166535,29.8678031 23.8046175,30.8334895 24,31.91 C24,31.91 23.88,27.38 25,25 C25.86,23.18 27,23 27,23 C27,23 27.38,31.72 29,31.91 L29.02,31.91 C29.87,32 30.47,31.18 30.94,30.09 C31.26,30.55 32.08,29.93 32.44,30.75 C33.2,32.47 33.75,33.17 35,32 C35.69,31.35 36.88,38.5 39,38 Z" id="Shape" fill="#FFDC00"/><path d="M14.07,32.06 C13.7851788,33.7164743 12.7918711,35.1662652 11.35,36.03 C11.9761051,35.1191649 12.2102887,33.9950838 12,32.91 C12.6436456,32.5248141 13.3413998,32.2382966 14.07,32.06 Z" id="Shape" fill="#FEC108"/><path d="M18.47,29.8 C18.4811075,30.2469333 18.3116876,30.6794948 18,31 C17.76,30.04 16.96,29.9 16.14,30.05 C15.8397857,29.3252521 15.4572763,28.6374062 15,28 C16.2025628,28.5070463 17.3628887,29.1089444 18.47,29.8 Z" id="Shape" fill="#FEC108"/><path d="M24,31.91 C23.8046175,30.8334895 23.2166535,29.8678031 22.35,29.2 C22.4782724,28.443396 22.6964856,27.704828 23,27 C23.86,25.18 25,25 25,25 C23.88,27.38 24,31.91 24,31.91 Z" id="Shape" fill="#FEC108"/><path d="M30.94,30.09 C30.47,31.18 29.87,32 29.02,31.91 C29.4,30.99 29.7,29.9 30,29 C30.3586624,29.3216347 30.6745749,29.6879588 30.94,30.09 Z" id="Shape" fill="#FEC108"/><rect id="Rectangle-path" fill="#FF5722" x="21" y="44" width="10" height="5"/><rect id="Rectangle-path" fill="#FF5722" x="6" y="49" width="10" height="5"/><rect id="Rectangle-path" fill="#FF5722" x="26" y="49" width="10" height="5"/><rect id="Rectangle-path" fill="#A0522D" x="31" y="44" width="10" height="5"/><path d="M41,36 C39.53,36.35 38.51,34.45 37.78,33.48 C37.47,33.05 37.21,32.8 37,33 C36.5394172,33.5454084 35.915167,33.927674 35.22,34.09 C34.76,34.11 34.36,33.8 34,33 C33.5614171,31.8654244 32.8786148,30.8412209 32,30 C31.7718971,30.9019035 31.340954,31.7398485 30.74,32.45 C30.2858316,32.9084713 29.6351667,33.1141412 29,33 C28.64,32.96 28.34,32.58 28.09,32.03 C27.4641692,30.0764061 27.0977004,28.0490602 27,26 C27,26 25.86,26.18 25,28 C24.7583674,28.5180189 24.5642381,29.0568949 24.42,29.61 C24.12385,30.7151294 23.9825017,31.8560116 24,33 C23.7617042,31.5369949 22.7639889,30.3107952 21.38,29.78 C20.6219632,29.4226085 19.8225285,29.1606089 19,29 C19.385546,29.5265271 19.6703399,30.1198476 19.84,30.75 C20.1442439,32.1438978 19.3517645,33.5436577 18,34 C17.8404433,33.3031125 17.3836337,32.7110873 16.75,32.38 C16.2089361,32.1052722 15.606276,31.9744089 15,32 C15.136692,32.4881052 15.0603983,33.0112621 14.79,33.44 C14.13,34.6 12.41,35.57 11.01,36.21 C11.0016826,36.1403264 10.9983408,36.0701487 11,36 C11,35.81 11,35.62 11.01,35.43 C11.02,35.29 11.03,35.15 11.04,35.02 C11.0430131,34.8360618 11.0563675,34.6524386 11.08,34.47 C11.09,34.41 11.09,34.34 11.1,34.28 C11.12,34.16 11.13,34.04 11.15,33.92 L11.15,33.89 C11.19,33.62 11.23,33.36 11.28,33.11 C11.32,32.92 11.35,32.74 11.4,32.56 C11.4306087,32.4043691 11.4706832,32.2507505 11.52,32.1 C11.6069224,31.750841 11.7137639,31.406945 11.84,31.07 C11.9201027,30.8152581 12.0135655,30.5649114 12.12,30.32 C12.1748517,30.1698145 12.2382897,30.0229056 12.31,29.88 C12.3111684,29.853798 12.3218319,29.8289165 12.34,29.81 C12.4,29.67 12.47,29.53 12.54,29.39 C12.728099,28.9918344 12.9384308,28.6045568 13.17,28.23 C13.33,27.97 13.49,27.72 13.66,27.48 C13.86,27.19 14.07,26.91 14.29,26.64 C15.0837882,25.6379667 16.0048919,24.7437565 17.03,23.98 C17.2,23.86 17.36,23.74 17.54,23.61 C18.4840653,22.962866 19.5010725,22.429189 20.57,22.02 C20.67,21.98 20.78,21.94 20.89,21.9 C20.932256,21.8806571 20.975673,21.8639583 21.02,21.85 C21.1668647,21.7910441 21.3171347,21.7409541 21.47,21.7 L21.48,21.7 C21.4982422,21.6889076 21.5187508,21.6820713 21.54,21.68 C21.68,21.63 21.83,21.59 21.97,21.55 C21.9853542,21.5419163 22.0027178,21.5384436 22.02,21.54 C22.2,21.49 22.38,21.44 22.57,21.4 C22.7511262,21.3504805 22.934708,21.3104263 23.12,21.28 C23.31,21.24 23.5,21.21 23.69,21.18 C23.7925418,21.1611207 23.8960245,21.1477681 24,21.14 L24.49,21.08 L24.51,21.08 C24.67,21.06 24.83,21.05 24.99,21.04 C25.12,21.03 25.26,21.02 25.39,21.02 C25.59,21 25.8,21 26,21 C26.2,21 26.41,21 26.61,21.02 C26.74,21.02 26.88,21.03 27.01,21.04 C27.35,21.06 27.68,21.09 28,21.14 C28.1039755,21.1477681 28.2074582,21.1611207 28.31,21.18 C28.5,21.21 28.69,21.24 28.88,21.28 C29.065292,21.3104263 29.2488738,21.3504805 29.43,21.4 C29.62,21.44 29.8,21.49 29.98,21.54 C29.9972822,21.5384436 30.0146458,21.5419163 30.03,21.55 C30.17,21.59 30.32,21.63 30.46,21.68 C30.4812492,21.6820713 30.5017578,21.6889076 30.52,21.7 L30.53,21.7 C30.6828653,21.7409541 30.8331353,21.7910441 30.98,21.85 C31.024327,21.8639583 31.067744,21.8806571 31.11,21.9 C31.22,21.94 31.33,21.98 31.43,22.02 C32.4989275,22.429189 33.5159347,22.962866 34.46,23.61 C34.64,23.74 34.8,23.86 34.97,23.98 C35.9951081,24.7437565 36.9162118,25.6379667 37.71,26.64 C37.93,26.91 38.14,27.19 38.34,27.48 C38.51,27.72 38.67,27.97 38.83,28.23 C39.0615692,28.6045568 39.271901,28.9918344 39.46,29.39 C39.53,29.53 39.59,29.67 39.66,29.81 C39.6781681,29.8289165 39.6888316,29.853798 39.69,29.88 C39.76,30.03 39.82,30.17 39.88,30.32 C39.98,30.57 40.08,30.82 40.16,31.07 C40.2862361,31.406945 40.3930776,31.750841 40.48,32.1 C40.5293168,32.2507505 40.5693913,32.4043691 40.6,32.56 C40.6505541,32.7408705 40.6906208,32.9245095 40.72,33.11 C40.77,33.36 40.81,33.62 40.85,33.89 L40.85,33.92 C40.88,34.1 40.9,34.28 40.92,34.47 C40.9436325,34.6524386 40.9569869,34.8360618 40.96,35.02 C40.97,35.15 40.98,35.29 40.99,35.43 C41,35.62 41,35.81 41,36 Z" id="Shape" fill="#FDD834"/><path d="M37.78,33.48 C37.47,33.05 37.21,32.8 37,33 C36.5394172,33.5454084 35.915167,33.927674 35.22,34.09 C34.69,33.34 34.3,32.72 34,33 C33.5614171,31.8654244 32.8786148,30.8412209 32,30 C31.7718971,30.9019035 31.340954,31.7398485 30.74,32.45 C30.2109444,32.4937801 29.7063979,32.6919824 29.289,33.02 C29.009,33.86 28.44,31.53 28.089,32.03 C27.4635087,30.0763604 27.0973763,28.0490156 27,26 C27,26 25.86,26.18 25,28 C24.7583674,28.5180189 24.5642381,29.0568949 24.42,29.61 C24.1,27.82 23.5,31 23.5,31 C23.5,31 23.675,30.458 21.48,30 C20.841,29.867 21.52,29.2 21.38,29.78 C20.6219632,29.4226085 19.8225285,29.1606089 19,29 C19.385546,29.5265271 19.6703399,30.1198476 19.84,30.75 C19.8090681,31.8320232 19.3845385,32.8656139 18.646,33.657 C19.686,35.147 17.08,31.6 16.746,32.38 C16.2061303,32.1059439 15.6049347,31.9750995 15,32 C15.136692,32.4881052 15.0603983,33.0112621 14.79,33.44 C13.6196364,33.8968225 12.6036467,34.6776326 11.861,35.691 C12.101,36.521 11.82,33.6 11.1,34.28 C11.12,34.16 11.13,34.04 11.15,33.92 L11.15,33.89 C11.19,33.62 11.23,33.36 11.28,33.11 C11.32,32.92 11.35,32.74 11.4,32.56 C11.4306087,32.4043691 11.4706832,32.2507505 11.52,32.1 C11.6069224,31.750841 11.7137639,31.406945 11.84,31.07 C11.9201027,30.8152581 12.0135655,30.5649114 12.12,30.32 C12.1748517,30.1698145 12.2382897,30.0229056 12.31,29.88 C12.3111684,29.853798 12.3218319,29.8289165 12.34,29.81 C12.4,29.67 12.47,29.53 12.54,29.39 C12.728099,28.9918344 12.9384308,28.6045568 13.17,28.23 C13.33,27.97 13.49,27.72 13.66,27.48 C13.86,27.19 14.07,26.91 14.29,26.64 C15.0837882,25.6379667 16.0048919,24.7437565 17.03,23.98 C17.2,23.86 17.36,23.74 17.54,23.61 C18.4840653,22.962866 19.5010725,22.429189 20.57,22.02 C20.67,21.98 20.78,21.94 20.89,21.9 C20.932256,21.8806571 20.975673,21.8639583 21.02,21.85 C21.1668647,21.7910441 21.3171347,21.7409541 21.47,21.7 L21.48,21.7 C21.4982422,21.6889076 21.5187508,21.6820713 21.54,21.68 C21.68,21.63 21.83,21.59 21.97,21.55 C21.9853542,21.5419163 22.0027178,21.5384436 22.02,21.54 C22.2,21.49 22.38,21.44 22.57,21.4 C22.7511262,21.3504805 22.934708,21.3104263 23.12,21.28 C23.31,21.24 23.5,21.21 23.69,21.18 C23.7925418,21.1611207 23.8960245,21.1477681 24,21.14 L24.49,21.08 L24.51,21.08 L25,21.14 C25.1039755,21.1477681 25.2074582,21.1611207 25.31,21.18 C25.5,21.21 25.69,21.24 25.88,21.28 C26.065292,21.3104263 26.2488738,21.3504805 26.43,21.4 C26.62,21.44 26.8,21.49 26.98,21.54 C26.9972822,21.5384436 27.0146458,21.5419163 27.03,21.55 C27.17,21.59 27.32,21.63 27.46,21.68 C27.4812492,21.6820713 27.5017578,21.6889076 27.52,21.7 L27.53,21.7 C27.6828653,21.7409541 27.8331353,21.7910441 27.98,21.85 C28.024327,21.8639583 28.067744,21.8806571 28.11,21.9 C28.22,21.94 28.33,21.98 28.43,22.02 C29.4989275,22.429189 30.5159347,22.962866 31.46,23.61 C31.64,23.74 31.8,23.86 31.97,23.98 C32.9951081,24.7437565 33.9162118,25.6379667 34.71,26.64 C34.93,26.91 35.14,27.19 35.34,27.48 C35.51,27.72 35.67,27.97 35.83,28.23 C36.0615692,28.6045568 36.271901,28.9918344 36.46,29.39 C36.53,29.53 36.59,29.67 36.66,29.81 C36.6781681,29.8289165 36.6888316,29.853798 36.69,29.88 C36.76,30.03 36.82,30.17 36.88,30.32 C36.98,30.57 37.08,30.82 37.16,31.07 C37.2862361,31.406945 37.3930776,31.750841 37.48,32.1 C37.5293168,32.2507505 37.5693913,32.4043691 37.6,32.56 C37.6505541,32.7408705 37.6906208,32.9245095 37.72,33.11 C37.74,33.23 37.77,33.35 37.78,33.48 Z" id="Shape" fill="#FFEB3A"/><path d="M51,37 C50.4477153,37 50,36.5522847 50,36 C50,22.745166 39.254834,12 26,12 C12.745166,12 2,22.745166 2,36 C2,36.5522847 1.55228475,37 1,37 C0.44771525,37 0,36.5522847 0,36 C1.77635684e-15,21.6405965 11.6405965,10 26,10 C40.3594035,10 52,21.6405965 52,36 C52,36.2652165 51.8946432,36.5195704 51.7071068,36.7071068 C51.5195704,36.8946432 51.2652165,37 51,37 Z" id="Shape" fill="#000000"/><path d="M30,12.32 C29.4477153,12.32 29,11.8722847 29,11.32 L29,7 L23,7 L23,11.32 C23,11.8722847 22.5522847,12.32 22,12.32 C21.4477153,12.32 21,11.8722847 21,11.32 L21,6 C21,5.44771525 21.4477153,5 22,5 L30,5 C30.5522847,5 31,5.44771525 31,6 L31,11.32 C31,11.8722847 30.5522847,12.32 30,12.32 Z" id="Shape" fill="#000000"/><path d="M31,7 L21,7 C19.8954305,7 19,6.1045695 19,5 L19,2 C19,0.8954305 19.8954305,2.02906125e-16 21,0 L31,0 C32.1045695,6.76353751e-17 33,0.8954305 33,2 L33,5 C33,6.1045695 32.1045695,7 31,7 Z M21,2 L21,5 L31,5 L31,2 L21,2 Z" id="Shape" fill="#000000"/><path d="M50.88,45 L44.33,45 C43.7777153,45 43.33,44.5522847 43.33,44 C43.33,43.4477153 43.7777153,43 44.33,43 L50.88,43 C51.4322847,43 51.88,43.4477153 51.88,44 C51.88,44.5522847 51.4322847,45 50.88,45 Z" id="Shape" fill="#000000"/><path d="M7.67,45 L1.12,45 C0.56771525,45 0.12,44.5522847 0.12,44 C0.12,43.4477153 0.56771525,43 1.12,43 L7.67,43 C8.22228475,43 8.67,43.4477153 8.67,44 C8.67,44.5522847 8.22228475,45 7.67,45 Z" id="Shape" fill="#000000"/><path d="M49,60 L3,60 C1.34314575,60 0,58.6568542 0,57 L0,36 C0,35.4477153 0.44771525,35 1,35 C1.55228475,35 2,35.4477153 2,36 L2,57 C2,57.5522847 2.44771525,58 3,58 L49,58 C49.5522847,58 50,57.5522847 50,57 L50,36 C50,35.4477153 50.4477153,35 51,35 C51.5522847,35 52,35.4477153 52,36 L52,57 C52,58.6568542 50.6568542,60 49,60 Z" id="Shape" fill="#000000"/><path d="M44.33,45 L7.67,45 C7.11771525,45 6.67,44.5522847 6.67,44 C6.67,43.4477153 7.11771525,43 7.67,43 L44.33,43 C44.8822847,43 45.33,43.4477153 45.33,44 C45.33,44.5522847 44.8822847,45 44.33,45 Z" id="Shape" fill="#000000"/><path d="M44.33,45 L7.67,45 C7.11771525,45 6.67,44.5522847 6.67,44 C6.67,43.4477153 7.11771525,43 7.67,43 L44.33,43 C44.8822847,43 45.33,43.4477153 45.33,44 C45.33,44.5522847 44.8822847,45 44.33,45 Z M40.7,40 L11.3,40 C10.8247314,40.000097 10.4150537,39.6656663 10.32,39.2 C9.02912859,32.8428646 11.7043659,26.3354222 17.0932113,22.7243468 C22.4820567,19.1132714 29.5179433,19.1132714 34.9067887,22.7243468 C40.2956341,26.3354222 42.9708714,32.8428646 41.68,39.2 C41.5849463,39.6656663 41.1752686,40.000097 40.7,40 Z M12.141,38 L39.859,38 C40.6345756,32.5766987 38.1755417,27.1993273 33.5660082,24.2385984 C28.9564747,21.2778695 23.0435253,21.2778695 18.4339918,24.2385984 C13.8244583,27.1993273 11.3654244,32.5766987 12.141,38 Z M46,37 C45.4477153,37 45,36.5522847 45,36 C45,25.5065898 36.4934102,17 26,17 C15.5065898,17 7,25.5065898 7,36 C7,36.5522847 6.55228475,37 6,37 C5.44771525,37 5,36.5522847 5,36 C5.00000017,24.4020204 14.4020204,15.0000003 26,15.0000003 C37.5979796,15.0000003 46.9999998,24.4020204 47,36 C47,36.2652165 46.8946432,36.5195704 46.7071068,36.7071068 C46.5195704,36.8946432 46.2652165,37 46,37 Z" id="Shape" fill="#000000"/><path d="M40.7,40 L11.3,40 C10.8247314,40.000097 10.4150537,39.6656663 10.32,39.2 C9.02912859,32.8428646 11.7043659,26.3354222 17.0932113,22.7243468 C22.4820567,19.1132714 29.5179433,19.1132714 34.9067887,22.7243468 C40.2956341,26.3354222 42.9708714,32.8428646 41.68,39.2 C41.5849463,39.6656663 41.1752686,40.000097 40.7,40 Z M12.141,38 L39.859,38 C40.6345756,32.5766987 38.1755417,27.1993273 33.5660082,24.2385984 C28.9564747,21.2778695 23.0435253,21.2778695 18.4339918,24.2385984 C13.8244583,27.1993273 11.3654244,32.5766987 12.141,38 Z" id="Shape" fill="#000000"/><path d="M40.7,40 L11.3,40 C10.8247314,40.000097 10.4150537,39.6656663 10.32,39.2 C9.02912859,32.8428646 11.7043659,26.3354222 17.0932113,22.7243468 C22.4820567,19.1132714 29.5179433,19.1132714 34.9067887,22.7243468 C40.2956341,26.3354222 42.9708714,32.8428646 41.68,39.2 C41.5849463,39.6656663 41.1752686,40.000097 40.7,40 Z M12.141,38 L39.859,38 C40.6345756,32.5766987 38.1755417,27.1993273 33.5660082,24.2385984 C28.9564747,21.2778695 23.0435253,21.2778695 18.4339918,24.2385984 C13.8244583,27.1993273 11.3654244,32.5766987 12.141,38 Z" id="Shape" fill="#000000"/><path d="M21.48,22.7 C21.0753276,22.6999343 20.7105849,22.455983 20.556,22.082 L18.636,17.441 C18.4921627,17.1094631 18.5383982,16.7261138 18.7569372,16.438283 C18.9754761,16.1504521 19.3323114,16.0029293 19.6903022,16.0524113 C20.048293,16.1018933 20.351732,16.3406801 20.484,16.677 L22.404,21.317 C22.5319557,21.6256131 22.4973432,21.97774 22.3117466,22.2555324 C22.1261499,22.5333248 21.8140879,22.7000841 21.48,22.7 Z" id="Shape" fill="#000000"/><path d="M38.34,28.48 C37.8629402,28.4798129 37.4524423,28.1426696 37.3595381,27.6747435 C37.2666338,27.2068174 37.5171967,26.738424 37.958,26.556 L42.658,24.616 C42.9907635,24.4659152 43.378869,24.5090793 43.6705248,24.7286105 C43.9621805,24.9481416 44.1110395,25.3091541 44.0588817,25.6704525 C44.0067238,26.0317509 43.7618375,26.3359214 43.42,26.464 L38.72,28.404 C38.5996156,28.4542463 38.4704496,28.4800795 38.34,28.48 Z" id="Shape" fill="#000000"/><path d="M13,40 L6.22,40 C5.66771525,40 5.22,39.5522847 5.22,39 C5.22,38.4477153 5.66771525,38 6.22,38 L13,38 C13.5522847,38 14,38.4477153 14,39 C14,39.5522847 13.5522847,40 13,40 Z" id="Shape" fill="#000000"/><path d="M30.52,22.7 C30.1859121,22.7000841 29.8738501,22.5333248 29.6882534,22.2555324 C29.5026568,21.97774 29.4680443,21.6256131 29.596,21.317 L31.516,16.677 C31.648268,16.3406801 31.951707,16.1018933 32.3096978,16.0524113 C32.6676886,16.0029293 33.0245239,16.1504521 33.2430628,16.438283 C33.4616018,16.7261138 33.5078373,17.1094631 33.364,17.441 L31.444,22.082 C31.2894151,22.455983 30.9246724,22.6999343 30.52,22.7 Z" id="Shape" fill="#000000"/><path d="M16,45 C15.4477153,45 15,44.5522847 15,44 L15,39 C15,38.4477153 15.4477153,38 16,38 C16.5522847,38 17,38.4477153 17,39 L17,44 C17,44.5522847 16.5522847,45 16,45 Z" id="Shape" fill="#000000"/><path d="M11,50 C10.4477153,50 10,49.5522847 10,49 L10,44 C10,43.4477153 10.4477153,43 11,43 C11.5522847,43 12,43.4477153 12,44 L12,49 C12,49.5522847 11.5522847,50 11,50 Z" id="Shape" fill="#000000"/><path d="M6,55 C5.44771525,55 5,54.5522847 5,54 L5,49 C5,48.4477153 5.44771525,48 6,48 C6.55228475,48 7,48.4477153 7,49 L7,54 C7,54.5522847 6.55228475,55 6,55 Z" id="Shape" fill="#000000"/><path d="M21,50 C20.4477153,50 20,49.5522847 20,49 L20,44 C20,43.4477153 20.4477153,43 21,43 C21.5522847,43 22,43.4477153 22,44 L22,49 C22,49.5522847 21.5522847,50 21,50 Z" id="Shape" fill="#000000"/><path d="M16,55 C15.4477153,55 15,54.5522847 15,54 L15,49 C15,48.4477153 15.4477153,48 16,48 C16.5522847,48 17,48.4477153 17,49 L17,54 C17,54.5522847 16.5522847,55 16,55 Z" id="Shape" fill="#000000"/><path d="M31,50 C30.4477153,50 30,49.5522847 30,49 L30,44 C30,43.4477153 30.4477153,43 31,43 C31.5522847,43 32,43.4477153 32,44 L32,49 C32,49.5522847 31.5522847,50 31,50 Z" id="Shape" fill="#000000"/><path d="M26,55 C25.4477153,55 25,54.5522847 25,54 L25,49 C25,48.4477153 25.4477153,48 26,48 C26.5522847,48 27,48.4477153 27,49 L27,54 C27,54.5522847 26.5522847,55 26,55 Z" id="Shape" fill="#000000"/><path d="M41,50 C40.4477153,50 40,49.5522847 40,49 L40,44 C40,43.4477153 40.4477153,43 41,43 C41.5522847,43 42,43.4477153 42,44 L42,49 C42,49.5522847 41.5522847,50 41,50 Z" id="Shape" fill="#000000"/><path d="M11,60 C10.4477153,60 10,59.5522847 10,59 L10,54 C10,53.4477153 10.4477153,53 11,53 C11.5522847,53 12,53.4477153 12,54 L12,59 C12,59.5522847 11.5522847,60 11,60 Z" id="Shape" fill="#000000"/><path d="M21,60 C20.4477153,60 20,59.5522847 20,59 L20,54 C20,53.4477153 20.4477153,53 21,53 C21.5522847,53 22,53.4477153 22,54 L22,59 C22,59.5522847 21.5522847,60 21,60 Z" id="Shape" fill="#000000"/><path d="M31,60 C30.4477153,60 30,59.5522847 30,59 L30,54 C30,53.4477153 30.4477153,53 31,53 C31.5522847,53 32,53.4477153 32,54 L32,59 C32,59.5522847 31.5522847,60 31,60 Z" id="Shape" fill="#000000"/><path d="M41,60 C40.4477153,60 40,59.5522847 40,59 L40,54 C40,53.4477153 40.4477153,53 41,53 C41.5522847,53 42,53.4477153 42,54 L42,59 C42,59.5522847 41.5522847,60 41,60 Z" id="Shape" fill="#000000"/><path d="M36,55 C35.4477153,55 35,54.5522847 35,54 L35,49 C35,48.4477153 35.4477153,48 36,48 C36.5522847,48 37,48.4477153 37,49 L37,54 C37,54.5522847 36.5522847,55 36,55 Z" id="Shape" fill="#000000"/><path d="M46,55 C45.4477153,55 45,54.5522847 45,54 L45,49 C45,48.4477153 45.4477153,48 46,48 C46.5522847,48 47,48.4477153 47,49 L47,54 C47,54.5522847 46.5522847,55 46,55 Z" id="Shape" fill="#000000"/><path d="M26,45 C25.4477153,45 25,44.5522847 25,44 L25,39 C25,38.4477153 25.4477153,38 26,38 C26.5522847,38 27,38.4477153 27,39 L27,44 C27,44.5522847 26.5522847,45 26,45 Z" id="Shape" fill="#000000"/><path d="M36,45 C35.4477153,45 35,44.5522847 35,44 L35,39 C35,38.4477153 35.4477153,38 36,38 C36.5522847,38 37,38.4477153 37,39 L37,44 C37,44.5522847 36.5522847,45 36,45 Z" id="Shape" fill="#000000"/><path d="M45.78,40 L39,40 C38.4477153,40 38,39.5522847 38,39 C38,38.4477153 38.4477153,38 39,38 L45.78,38 C46.3322847,38 46.78,38.4477153 46.78,39 C46.78,39.5522847 46.3322847,40 45.78,40 Z" id="Shape" fill="#000000"/><path d="M13.66,28.48 C13.5292139,28.4802121 13.399695,28.4543763 13.279,28.404 L8.579,26.464 C8.08712288,26.2421509 7.85995621,25.6700747 8.06565033,25.1712259 C8.27134444,24.6723772 8.83571011,24.4266795 9.341,24.616 L14.041,26.556 C14.4818033,26.738424 14.7323662,27.2068174 14.6394619,27.6747435 C14.5465577,28.1426696 14.1360598,28.4798129 13.659,28.48 L13.66,28.48 Z" id="Shape" fill="#000000"/><path d="M11.01,37.21 C10.5398732,37.2100959 10.133161,36.8827036 10.0328327,36.4234069 C9.93250436,35.9641102 10.1656547,35.496947 10.593,35.301 C12.947,34.221 14.268,33.063 14.04,32.279 C13.9549716,31.9897192 14.0050078,31.6775161 14.1761806,31.4292962 C14.3473533,31.1810762 14.6213866,31.0233418 14.922,31 C16.2801986,30.8926368 17.60079,31.4782707 18.433,32.557 C18.6351312,32.3726595 18.7866215,32.1395712 18.873,31.88 C18.9782564,31.0459322 18.7261972,30.2062189 18.179,29.568 C17.9488172,29.2372729 17.9396191,28.8007037 18.1556675,28.4605749 C18.3717159,28.1204461 18.7707977,27.9432147 19.168,28.011 C20.6786739,28.2921877 22.1028173,28.9222488 23.327,29.851 C23.4996374,29.0654193 23.7571496,28.30093 24.095,27.571 C25.151,25.336 26.674,25.036 26.844,25.009 C27.1233359,24.9637344 27.4086901,25.0401685 27.628,25.219 C27.8481776,25.396394 27.9829669,25.6587063 27.999,25.941 C28.153,28.701 28.717,31.476 29.222,32.015 C29.839,32.057 30.322,31.843 31.052,29.68 C31.1554654,29.3702416 31.4036679,29.1305219 31.7168357,29.0378864 C32.0300034,28.9452509 32.3686743,29.0113726 32.624,29.215 C33.6331143,30.1561697 34.4163159,31.3133663 34.915,32.6 C35.103,33.027 35.236,33.112 35.238,33.113 C35.6368261,32.8881075 36.0003872,32.6057495 36.317,32.275 C36.5769104,32.0282697 36.9314373,31.9070515 37.288,31.943 C37.994,32.017 38.409,32.618 38.935,33.38 C39.428,34.094 40.174,35.172 40.771,35.032 C41.1229022,34.9384009 41.4978669,35.0434852 41.749875,35.3063309 C42.001883,35.5691767 42.0910953,35.9482313 41.9827706,36.295883 C41.8744459,36.6435347 41.5857089,36.9048243 41.229,36.978 C39.3,37.435 38.042,35.607 37.289,34.516 C37.231,34.432 37.166,34.338 37.102,34.247 C36.4990186,34.8539908 35.6525625,35.1535626 34.802,35.061 C33.9962913,34.8149308 33.3576405,34.1971096 33.085,33.4 C32.8641845,32.8944605 32.6047502,32.4066839 32.309,31.941 C31.779241,33.334346 30.3621482,34.1817054 28.884,33.989 C27.216,33.789 26.474,30.915 26.155,27.958 C26.0628392,28.1082625 25.979045,28.2634987 25.904,28.423 C25.2858353,29.8531756 24.9777353,31.3981059 25,32.956 C25.0217932,33.3132656 24.851332,33.6550191 24.5528275,33.8525254 C24.2543231,34.0500317 23.8731252,34.0732847 23.5528275,33.9135254 C23.2325299,33.7537661 23.0217932,33.4352656 23,33.078 C22.7674162,31.941599 21.9469655,31.0152098 20.847,30.647 C20.9854674,31.2608429 20.9595975,31.9003474 20.772,32.501 C20.353532,33.6299234 19.4642353,34.5206804 18.336,34.941 C18.0708676,35.036591 17.7777069,35.0158622 17.5286633,34.8839148 C17.2796196,34.7519673 17.0978185,34.5210535 17.028,34.248 C16.9048788,33.7205268 16.5150141,33.2957715 16,33.128 C15.654,34.544 14.124,35.882 11.428,37.119 C11.296862,37.1791299 11.1542663,37.2101735 11.01,37.21 Z" id="Shape" fill="#000000"/><path d="M6,45 C5.44771525,45 5,44.5522847 5,44 L5,36 C5,35.4477153 5.44771525,35 6,35 C6.55228475,35 7,35.4477153 7,36 L7,44 C7,44.5522847 6.55228475,45 6,45 Z" id="Shape" fill="#000000"/><path d="M46,45 C45.4477153,45 45,44.5522847 45,44 L45,36 C45,35.4477153 45.4477153,35 46,35 C46.5522847,35 47,35.4477153 47,36 L47,44 C47,44.5522847 46.5522847,45 46,45 Z" id="Shape" fill="#000000"/><path d="M51,50 L1,50 C0.44771525,50 0,49.5522847 0,49 C0,48.4477153 0.44771525,48 1,48 L51,48 C51.5522847,48 52,48.4477153 52,49 C52,49.5522847 51.5522847,50 51,50 Z" id="Shape" fill="#000000"/><path d="M51,55 L1,55 C0.44771525,55 0,54.5522847 0,54 C0,53.4477153 0.44771525,53 1,53 L51,53 C51.5522847,53 52,53.4477153 52,54 C52,54.5522847 51.5522847,55 51,55 Z" id="Shape" fill="#000000"/></g></g></svg>
