<?xml version="1.0" encoding="iso-8859-1"?>
<!-- Generator: Adobe Illustrator 19.0.0, SVG Export Plug-In . SVG Version: 6.00 Build 0)  -->
<svg version="1.1" id="Capa_1" xmlns="http://www.w3.org/2000/svg" xmlns:xlink="http://www.w3.org/1999/xlink" x="0px" y="0px"
	 viewBox="0 0 511.925 511.925" style="enable-background:new 0 0 511.925 511.925;" xml:space="preserve">
<path style="fill:#656D78;" d="M335.95,491.928v7.999c0,4.421,3.577,7.998,7.998,7.998c4.422,0,7.999-3.577,7.999-7.998v-7.999
	H335.95z"/>
<g style="opacity:0.2;">
	<rect x="335.952" y="491.932" width="15.997" height="7.999"/>
</g>
<path style="fill:#656D78;" d="M127.982,491.928v7.999c0,4.421,3.577,7.998,7.999,7.998c4.421,0,7.998-3.577,7.998-7.998v-7.999
	H127.982z"/>
<rect x="167.972" y="51.992" style="fill:#AC92EC;" width="15.997" height="15.998"/>
<g style="opacity:0.3;">
	<rect x="167.972" y="51.992" style="fill:#FFFFFF;" width="7.998" height="15.998"/>
</g>
<path id="SVGCleanerId_0" style="fill:#E6E9ED;" d="M175.974,67.992c-39.993,0-47.992,7.999-47.992,7.999v7.999h95.985v-7.999
	C223.967,75.991,215.968,67.992,175.974,67.992z"/>
<g>
	<path id="SVGCleanerId_0_1_" style="fill:#E6E9ED;" d="M175.974,67.992c-39.993,0-47.992,7.999-47.992,7.999v7.999h95.985v-7.999
		C223.967,75.991,215.968,67.992,175.974,67.992z"/>
</g>
<rect x="103.982" y="171.972" style="fill:#656D78;" width="271.96" height="319.95"/>
<rect x="127.982" y="291.962" style="fill:#5D9CEC;" width="223.97" height="175.97"/>
<g>
	<rect x="127.982" y="251.962" style="fill:#AAB2BD;" width="223.97" height="15.998"/>
	<circle style="fill:#AAB2BD;" cx="139.982" cy="207.972" r="11.998"/>
</g>
<g style="opacity:0.5;">
	<path style="fill:#FFFFFF;" d="M135.981,207.971c0-5.218,3.351-9.608,7.998-11.264c-1.257-0.445-2.593-0.734-3.999-0.734
		c-6.624,0-11.998,5.374-11.998,11.998s5.374,11.998,11.998,11.998c1.406,0,2.742-0.289,3.999-0.734
		C139.331,217.579,135.981,213.189,135.981,207.971z"/>
</g>
<g style="opacity:0.2;">
	<path d="M143.979,207.971c0,5.218-3.351,9.608-7.998,11.264c1.257,0.445,2.593,0.734,3.999,0.734
		c6.624,0,11.998-5.374,11.998-11.998s-5.374-11.998-11.998-11.998c-1.406,0-2.742,0.289-3.999,0.734
		C140.628,198.363,143.979,202.753,143.979,207.971z"/>
</g>
<path style="fill:#AAB2BD;" d="M199.971,207.971c0,6.624-5.375,11.998-11.999,11.998c-6.623,0-11.998-5.374-11.998-11.998
	s5.375-11.998,11.998-11.998C194.596,195.973,199.971,201.347,199.971,207.971z"/>
<g style="opacity:0.5;">
	<path style="fill:#FFFFFF;" d="M183.973,207.971c0-5.218,3.352-9.608,7.999-11.264c-1.258-0.445-2.594-0.734-4-0.734
		c-6.623,0-11.998,5.374-11.998,11.998s5.375,11.998,11.998,11.998c1.406,0,2.742-0.289,4-0.734
		C187.324,217.579,183.973,213.189,183.973,207.971z"/>
</g>
<g style="opacity:0.2;">
	<path d="M191.972,207.971c0,5.218-3.352,9.608-7.999,11.264c1.258,0.445,2.594,0.734,3.999,0.734
		c6.624,0,11.999-5.374,11.999-11.998s-5.375-11.998-11.999-11.998c-1.405,0-2.741,0.289-3.999,0.734
		C188.62,198.363,191.972,202.753,191.972,207.971z"/>
</g>
<path style="fill:#AAB2BD;" d="M303.954,207.971c0,6.624-5.374,11.998-11.998,11.998c-6.623,0-11.998-5.374-11.998-11.998
	s5.375-11.998,11.998-11.998C298.58,195.973,303.954,201.347,303.954,207.971z"/>
<g style="opacity:0.5;">
	<path style="fill:#FFFFFF;" d="M287.957,207.971c0-5.218,3.351-9.608,7.999-11.264c-1.258-0.445-2.594-0.734-4-0.734
		c-6.623,0-11.998,5.374-11.998,11.998s5.375,11.998,11.998,11.998c1.406,0,2.742-0.289,4-0.734
		C291.308,217.579,287.957,213.189,287.957,207.971z"/>
</g>
<g style="opacity:0.2;">
	<path d="M295.956,207.971c0,5.218-3.352,9.608-7.999,11.264c1.258,0.445,2.593,0.734,3.999,0.734
		c6.624,0,11.998-5.374,11.998-11.998s-5.374-11.998-11.998-11.998c-1.406,0-2.741,0.289-3.999,0.734
		C292.605,198.363,295.956,202.753,295.956,207.971z"/>
</g>
<circle style="fill:#AAB2BD;" cx="339.952" cy="207.972" r="11.998"/>
<g style="opacity:0.5;">
	<path style="fill:#FFFFFF;" d="M335.95,207.971c0-5.218,3.351-9.608,7.998-11.264c-1.258-0.445-2.593-0.734-3.999-0.734
		c-6.624,0-11.998,5.374-11.998,11.998s5.374,11.998,11.998,11.998c1.406,0,2.741-0.289,3.999-0.734
		C339.301,217.579,335.95,213.189,335.95,207.971z"/>
</g>
<g style="opacity:0.2;">
	<path d="M343.948,207.971c0,5.218-3.351,9.608-7.998,11.264c1.257,0.445,2.593,0.734,3.999,0.734
		c6.624,0,11.998-5.374,11.998-11.998s-5.374-11.998-11.998-11.998c-1.406,0-2.742,0.289-3.999,0.734
		C340.598,198.363,343.948,202.753,343.948,207.971z"/>
</g>
<rect x="223.962" y="195.972" style="fill:#5D9CEC;" width="31.995" height="15.998"/>
<g style="opacity:0.3;">
	<rect x="103.982" y="171.972" style="fill:#FFFFFF;" width="7.998" height="319.95"/>
</g>
<g style="opacity:0.2;">
	<rect x="367.942" y="171.972" width="7.999" height="319.95"/>
</g>
<g style="opacity:0.3;">
	<polygon style="fill:#FFFFFF;" points="183.262,467.932 224.67,467.932 271.819,291.958 230.411,291.958 	"/>
</g>
<g style="opacity:0.3;">
	<polygon style="fill:#FFFFFF;" points="249.51,467.932 296.659,291.958 280.099,291.958 232.949,467.932 	"/>
</g>
<path style="fill:#656D78;" d="M247.963,115.985h111.983c0,0-7.999,23.996-23.996,23.996h-63.99
	C255.962,139.981,247.963,115.985,247.963,115.985z"/>
<g style="opacity:0.3;">
	<path style="fill:#FFFFFF;" d="M263.961,115.985h-15.998c0,0,7.999,23.996,23.997,23.996h15.997
		C271.96,139.981,263.961,115.985,263.961,115.985z"/>
</g>
<g style="opacity:0.2;">
	<path d="M343.948,115.985h15.998c0,0-7.999,23.996-23.996,23.996h-15.998C335.95,139.981,343.948,115.985,343.948,115.985z"/>
</g>
<path style="fill:#AC92EC;" d="M127.982,83.99h95.985c0,0,0,47.993-15.998,55.991h-63.99
	C127.982,131.983,127.982,83.99,127.982,83.99z"/>
<g style="opacity:0.3;">
	<path style="fill:#FFFFFF;" d="M135.981,83.99h-7.999c0,0,0,47.993,15.997,55.991h7.999
		C135.981,131.983,135.981,83.99,135.981,83.99z"/>
</g>
<g style="opacity:0.2;">
	<path d="M215.968,83.99h7.999c0,0,0,47.993-15.998,55.991h-7.998C215.968,131.983,215.968,83.99,215.968,83.99z"/>
</g>
<g style="opacity:0.5;">
	<rect x="127.982" y="251.962" style="fill:#FFFFFF;" width="7.999" height="15.998"/>
</g>
<g style="opacity:0.2;">
	<rect x="343.952" y="251.962" width="7.999" height="15.998"/>
</g>
<g style="opacity:0.2;">
	<polygon points="342.698,243.965 135.981,243.965 127.982,251.964 350.697,251.964 	"/>
</g>
<g style="opacity:0.3;">
	<rect x="223.962" y="195.972" style="fill:#FFFFFF;" width="7.999" height="15.998"/>
</g>
<g style="opacity:0.2;">
	<rect x="247.962" y="195.972" width="7.999" height="15.998"/>
</g>
<g>
	<path style="fill:#3A3847;" d="M375.943,495.927H103.985c-2.211,0-4-1.788-4-3.999V171.976c0-2.21,1.789-3.999,4-3.999h271.958
		c2.211,0,3.999,1.789,3.999,3.999v319.952C379.942,494.139,378.154,495.927,375.943,495.927z M107.984,487.929h263.96V175.976
		h-263.96V487.929z"/>
	<path style="fill:#3A3847;" d="M351.947,255.963H127.982c-2.211,0-4-1.789-4-4s1.789-4,4-4h223.966c2.211,0,3.999,1.789,3.999,4
		S354.158,255.963,351.947,255.963z"/>
	<path style="fill:#3A3847;" d="M351.947,271.962H127.982c-2.211,0-4-1.789-4-4s1.789-3.999,4-3.999h223.966
		c2.211,0,3.999,1.788,3.999,3.999S354.158,271.962,351.947,271.962z"/>
	<path style="fill:#3A3847;" d="M127.982,255.963c-1.023,0-2.047-0.391-2.828-1.172c-1.562-1.562-1.562-4.093,0-5.655l7.999-7.999
		c1.563-1.562,4.093-1.562,5.655,0c1.563,1.563,1.563,4.094,0,5.656l-7.999,7.999C130.028,255.573,129.005,255.963,127.982,255.963z
		"/>
	<path style="fill:#3A3847;" d="M351.947,255.963c-1.023,0-2.047-0.391-2.827-1.172l-7.999-7.999c-1.563-1.562-1.563-4.093,0-5.656
		c1.562-1.562,4.093-1.562,5.655,0l7.998,7.999c1.563,1.563,1.563,4.093,0,5.655C353.994,255.573,352.971,255.963,351.947,255.963z"
		/>
	<path style="fill:#3A3847;" d="M127.982,271.962c-2.211,0-4-1.789-4-4v-15.998c0-2.21,1.789-4,4-4s3.999,1.789,3.999,4v15.998
		C131.981,270.173,130.192,271.962,127.982,271.962z"/>
	<path style="fill:#3A3847;" d="M351.947,271.962c-2.211,0-3.999-1.789-3.999-4v-15.998c0-2.21,1.788-4,3.999-4s3.999,1.789,3.999,4
		v15.998C355.946,270.173,354.158,271.962,351.947,271.962z"/>
	<path style="fill:#3A3847;" d="M139.98,223.968c-8.819,0-15.998-7.179-15.998-15.998s7.179-15.998,15.998-15.998
		s15.997,7.179,15.997,15.998S148.799,223.968,139.98,223.968z M139.98,199.972c-4.413,0-7.999,3.585-7.999,7.999
		s3.586,7.999,7.999,7.999s7.999-3.585,7.999-7.999S144.393,199.972,139.98,199.972z"/>
	<path style="fill:#3A3847;" d="M187.972,223.968c-8.818,0-15.997-7.179-15.997-15.998s7.179-15.998,15.997-15.998
		c8.819,0,15.998,7.179,15.998,15.998S196.791,223.968,187.972,223.968z M187.972,199.972c-4.413,0-7.998,3.585-7.998,7.999
		s3.585,7.999,7.998,7.999c4.414,0,7.999-3.585,7.999-7.999S192.386,199.972,187.972,199.972z"/>
	<path style="fill:#3A3847;" d="M291.956,223.968c-8.818,0-15.997-7.179-15.997-15.998s7.179-15.998,15.997-15.998
		c8.819,0,15.998,7.179,15.998,15.998S300.775,223.968,291.956,223.968z M291.956,199.972c-4.413,0-7.998,3.585-7.998,7.999
		s3.585,7.999,7.998,7.999c4.414,0,7.999-3.585,7.999-7.999S296.37,199.972,291.956,199.972z"/>
	<path style="fill:#3A3847;" d="M339.949,223.968c-8.819,0-15.997-7.179-15.997-15.998s7.178-15.998,15.997-15.998
		s15.997,7.179,15.997,15.998S348.769,223.968,339.949,223.968z M339.949,199.972c-4.413,0-7.999,3.585-7.999,7.999
		s3.586,7.999,7.999,7.999s7.999-3.585,7.999-7.999S344.362,199.972,339.949,199.972z"/>
	<path style="fill:#3A3847;" d="M255.962,215.969h-31.995c-2.211,0-4-1.789-4-3.999v-15.998c0-2.21,1.789-4,4-4h31.995
		c2.211,0,4,1.789,4,4v15.998C259.962,214.181,258.173,215.969,255.962,215.969z M227.966,207.971h23.996v-7.999h-23.996V207.971z"
		/>
	<path style="fill:#3A3847;" d="M351.947,471.931H127.982c-2.211,0-4-1.789-4-3.999V291.958c0-2.21,1.789-3.999,4-3.999h223.966
		c2.211,0,3.999,1.789,3.999,3.999v175.974C355.946,470.142,354.158,471.931,351.947,471.931z M131.981,463.933h215.968V295.958
		H131.981V463.933z"/>
	<path style="fill:#3A3847;" d="M223.967,159.978h-95.985c-2.211,0-4-1.789-4-4s1.789-4,4-4h95.985c2.211,0,3.999,1.789,3.999,4
		S226.178,159.978,223.967,159.978z"/>
	<path style="fill:#3A3847;" d="M351.947,159.978h-95.985c-2.211,0-4-1.789-4-4s1.789-4,4-4h95.985c2.211,0,3.999,1.789,3.999,4
		S354.158,159.978,351.947,159.978z"/>
	<path style="fill:#3A3847;" d="M207.969,143.981h-63.99c-0.617,0-1.233-0.148-1.788-0.422
		c-17.701-8.85-18.209-54.406-18.209-59.569c0-2.211,1.789-4,4-4s3.999,1.789,3.999,4c0.008,17.161,3.57,45.915,13.045,51.992
		h61.897c9.475-6.077,13.037-34.831,13.044-51.992c0-2.211,1.789-4,4-4l0,0c2.211,0,3.999,1.789,3.999,4
		c0,5.163-0.508,50.719-18.208,59.569C209.203,143.832,208.586,143.981,207.969,143.981z"/>
	<path style="fill:#3A3847;" d="M231.966,87.989H119.983c-2.211,0-3.999-1.789-3.999-3.999c0-2.211,1.788-4,3.999-4h111.983
		c2.21,0,3.999,1.789,3.999,4C235.965,86.2,234.176,87.989,231.966,87.989z"/>
	<path style="fill:#3A3847;" d="M223.967,79.99c-1.023,0-2.047-0.391-2.828-1.171l0,0c-0.016,0-8.67-6.827-45.165-6.827
		c-36.627,0-45.212,6.874-45.29,6.944c-1.632,1.398-4.132,1.289-5.585-0.297c-1.452-1.578-1.46-3.961,0.055-5.476
		c1.531-1.531,11.179-9.17,50.82-9.17c39.643,0,49.29,7.64,50.82,9.17c1.563,1.562,1.563,4.093,0,5.656
		C226.014,79.6,224.99,79.99,223.967,79.99z"/>
	<path style="fill:#3A3847;" d="M167.976,63.993c-2.211,0-4-1.789-4-4v-7.999c0-2.211,1.789-4,4-4c2.21,0,3.999,1.789,3.999,4v7.999
		C171.975,62.204,170.186,63.993,167.976,63.993z"/>
	<path style="fill:#3A3847;" d="M183.973,55.994h-15.997c-2.211,0-4-1.789-4-3.999c0-2.211,1.789-4,4-4h15.997
		c2.211,0,3.999,1.789,3.999,4C187.972,54.205,186.184,55.994,183.973,55.994z"/>
	<path style="fill:#3A3847;" d="M183.973,63.993c-2.211,0-3.999-1.789-3.999-4v-7.999c0-2.211,1.788-4,3.999-4s3.999,1.789,3.999,4
		v7.999C187.972,62.204,186.184,63.993,183.973,63.993z"/>
	<path style="fill:#3A3847;" d="M135.981,511.925c-6.616,0-11.999-5.382-11.999-11.998c0-2.211,1.789-4,4-4
		c2.211,0,3.999,1.789,3.999,4c0,2.203,1.797,3.999,4,3.999c2.202,0,3.999-1.796,3.999-3.999c0-2.211,1.789-4,3.999-4
		c2.211,0,4,1.789,4,4C147.979,506.543,142.597,511.925,135.981,511.925z"/>
	<path style="fill:#3A3847;" d="M343.948,511.925c-6.616,0-11.998-5.382-11.998-11.998c0-2.211,1.789-4,4-4
		c2.21,0,3.999,1.789,3.999,4c0,2.203,1.796,3.999,3.999,3.999s4-1.796,4-3.999c0-2.211,1.788-4,3.999-4s3.999,1.789,3.999,4
		C355.946,506.543,350.565,511.925,343.948,511.925z"/>
	<path style="fill:#3A3847;" d="M271.96,143.981c-18.67,0-27.426-25.637-27.793-26.73c-0.695-2.094,0.438-4.359,2.53-5.054
		c2.07-0.703,4.359,0.43,5.063,2.523c1.983,5.913,9.49,21.263,20.2,21.263c2.21,0,3.999,1.789,3.999,3.999
		C275.959,142.192,274.17,143.981,271.96,143.981z"/>
	<path style="fill:#3A3847;" d="M359.946,119.984H247.963c-2.211,0-3.999-1.789-3.999-3.999c0-2.211,1.788-4,3.999-4h111.983
		c2.211,0,3.999,1.789,3.999,4C363.945,118.195,362.157,119.984,359.946,119.984z"/>
	<path style="fill:#3A3847;" d="M335.95,143.981c-2.211,0-4-1.789-4-4c0-2.21,1.789-3.999,4-3.999
		c12.756,0,20.129-21.052,20.199-21.263c0.711-2.093,2.977-3.218,5.063-2.531c2.093,0.703,3.226,2.968,2.53,5.062
		C363.375,118.344,354.618,143.981,335.95,143.981z"/>
	<path style="fill:#3A3847;" d="M335.95,143.981h-63.99c-2.211,0-4-1.789-4-4c0-2.21,1.789-3.999,4-3.999h63.99
		c2.21,0,3.999,1.789,3.999,3.999C339.949,142.192,338.16,143.981,335.95,143.981z"/>
	<path style="fill:#3A3847;" d="M407.939,119.984h-47.992c-2.211,0-4-1.789-4-3.999c0-2.211,1.789-4,4-4h47.992c2.211,0,4,1.789,4,4
		C411.939,118.195,410.15,119.984,407.939,119.984z"/>
	<path style="fill:#3A3847;" d="M135.981,55.994c-1.43,0-2.82-0.773-3.531-2.125c-1.039-1.953-0.297-4.375,1.656-5.405
		c0.023-0.016,4.382-2.445,4.929-6.483c0.539-3.976-2.882-8.241-5.843-11.116c-6.265-6.077-9.015-12.139-8.179-18.028
		c1.156-8.077,8.772-12.193,9.093-12.365c1.969-1.047,4.382-0.289,5.405,1.656c1.031,1.944,0.297,4.358-1.641,5.397
		c-0.141,0.078-4.405,2.5-4.944,6.491c-0.539,3.976,2.883,8.241,5.843,11.115c6.265,6.077,9.015,12.139,8.179,18.028
		c-1.156,8.077-8.772,12.193-9.093,12.365C137.253,55.845,136.613,55.994,135.981,55.994z"/>
	<path style="fill:#3A3847;" d="M271.96,95.988c-1.023,0-2.047-0.391-2.828-1.172c-1.563-1.562-1.563-4.093,0-5.655
		c1.172-1.219,4.718-5.624,0-10.342c-7.944-7.944-4.352-17.302,0-21.653c1.563-1.563,4.093-1.563,5.655,0
		c1.555,1.555,1.563,4.07,0.023,5.632l0,0c-1.195,1.242-4.741,5.647-0.023,10.366c7.944,7.944,4.351,17.302,0,21.653
		C274.006,95.597,272.983,95.988,271.96,95.988z"/>
	<path style="fill:#3A3847;" d="M303.954,95.988c-1.022,0-2.046-0.391-2.827-1.172c-1.563-1.562-1.563-4.093,0-5.655
		c1.172-1.219,4.718-5.624,0-10.342c-7.944-7.944-4.351-17.302,0-21.653c1.563-1.563,4.093-1.563,5.655,0
		c1.555,1.555,1.563,4.07,0.023,5.632l0,0c-1.195,1.242-4.741,5.647-0.023,10.366c7.944,7.944,4.352,17.302,0,21.653
		C306.001,95.597,304.978,95.988,303.954,95.988z"/>
	<path style="fill:#3A3847;" d="M335.95,95.988c-1.023,0-2.047-0.391-2.828-1.172c-1.563-1.562-1.563-4.093,0-5.655
		c1.172-1.219,4.718-5.624,0-10.342c-7.944-7.944-4.352-17.302,0-21.653c1.563-1.563,4.093-1.563,5.655,0
		c1.555,1.555,1.563,4.07,0.023,5.632l0,0c-1.195,1.242-4.741,5.647-0.023,10.366c7.944,7.944,4.351,17.302,0,21.653
		C337.996,95.597,336.973,95.988,335.95,95.988z"/>
</g>
<g style="opacity:0.2;">
	<rect x="127.982" y="491.932" width="15.997" height="7.999"/>
</g>
<g>
</g>
<g>
</g>
<g>
</g>
<g>
</g>
<g>
</g>
<g>
</g>
<g>
</g>
<g>
</g>
<g>
</g>
<g>
</g>
<g>
</g>
<g>
</g>
<g>
</g>
<g>
</g>
<g>
</g>
</svg>
