<?xml version="1.0" encoding="iso-8859-1"?>
<!-- Generator: Adobe Illustrator 19.0.0, SVG Export Plug-In . SVG Version: 6.00 Build 0)  -->
<svg version="1.1" id="Layer_1" xmlns="http://www.w3.org/2000/svg" xmlns:xlink="http://www.w3.org/1999/xlink" x="0px" y="0px"
	 viewBox="0 0 512 512" style="enable-background:new 0 0 512 512;" xml:space="preserve">
<path style="fill:#E6E7E8;" d="M319.2,78L319.2,78c3.6-3.6,5.6-8.4,5.6-14c0-10.8-8.8-19.6-19.6-19.6c-5.6,0-10.4,2.4-14,5.6l0,0
	c-3.6,3.6-5.6,8.4-5.6,14c0,10.8,8.8,20,20,20C310.8,83.6,315.6,81.6,319.2,78z M415.6,78L415.6,78c3.6-3.6,6-8.4,6-14
	c0-10.8-8.8-19.6-20-19.6c-5.6,0-10.4,2.4-14,5.6l0,0c-3.6,3.6-5.6,8.4-5.6,14c0,10.8,8.8,20,20,20C406.8,83.6,412,81.6,415.6,78z
	 M124,396h213.2h47.2c8.8,0,16-7.2,16-16V220c0-8.8-7.2-16-16-16h-260c-8.8,0-16,7.2-16,16v160C108,388.8,115.2,396,124,396z
	 M99.2,50c-3.6,3.6-5.6,8.4-5.6,14c0,10.8,8.8,20,20,20c5.6,0,10.4-2.4,14-6l0,0c3.6-3.6,5.6-8.4,5.6-14c0-10.8-8.8-19.6-19.6-19.6
	C107.6,44,102.8,46.4,99.2,50L99.2,50z M195.2,50c-3.6,3.6-5.6,8.4-5.6,14c0,10.8,8.8,20,20,20c5.6,0,10.4-2.4,14-6l0,0
	c3.6-3.6,5.6-8.4,5.6-14c0-10.8-8.8-19.6-19.6-19.6C203.6,44,198.8,46.4,195.2,50L195.2,50z M405.2,171.6c0,4.4,3.6,8,8,8s8-3.6,8-8
	c0-15.2-12.4-27.6-27.6-27.6h-272c-15.2,0-27.6,12.4-27.6,27.6c0,4.4,3.6,8,8,8s8-3.6,8-8c0-6.4,5.2-11.6,11.6-11.6h272
	C399.6,160,405.2,165.2,405.2,171.6z M468,108v344v56H44v-56V108V49.6C44,33.2,58.4,20,74.8,20H76h360h3.6C456,20,468,33.6,468,49.6
	L468,108L468,108z"/>
<rect x="76" y="4" style="fill:#6D6E71;" width="360" height="16"/>
<path style="fill:#666666;" d="M401.6,48c8.8,0,16,7.2,16,16c0,4.4-1.6,8.4-4.8,11.2L390,52.4C393.2,49.6,397.2,48,401.6,48z"/>
<path style="fill:#C4EFF2;" d="M400,220v160c0,8.8-7.2,16-16,16h-47.2H124c-8.8,0-16-7.2-16-16V220c0-8.8,7.2-16,16-16h260
	C392.8,204,400,211.2,400,220z"/>
<path style="fill:#999999;" d="M390,52.4l22.8,22.8l0,0C410,78,406,80,401.6,80c-8.8,0-16-7.2-16-16C385.6,59.6,387.2,55.6,390,52.4
	L390,52.4z"/>
<path style="fill:#666666;" d="M321.6,64c0,4.4-1.6,8.4-4.8,11.2L294,52.4c2.8-2.8,6.8-4.8,11.2-4.8C314.4,48,321.6,55.2,321.6,64z"
	/>
<path style="fill:#999999;" d="M289.2,64c0-4.4,1.6-8.4,4.8-11.2l0,0l22.8,22.8l0,0c-2.8,2.8-6.8,4.8-11.2,4.8
	C296.4,80,289.2,72.8,289.2,64z"/>
<path style="fill:#666666;" d="M209.2,48c8.8,0,16,7.2,16,16c0,4.4-1.6,8.4-4.8,11.2l-22.8-22.8C200.8,49.6,204.8,48,209.2,48z"/>
<path style="fill:#999999;" d="M193.2,64c0-4.4,1.6-8.4,4.8-11.2l0,0l22.8,22.8l0,0c-2.8,2.8-6.8,4.8-11.2,4.8
	C200.4,80,193.2,72.8,193.2,64z"/>
<path style="fill:#666666;" d="M113.2,48c8.8,0,16,7.2,16,16c0,4.4-2,8.4-4.8,11.2l-22.8-22.8C104.8,49.6,108.8,48,113.2,48z"/>
<path style="fill:#999999;" d="M113.2,80c-8.8,0-16-7.2-16-16c0-4.4,1.6-8.4,4.8-11.2l0,0l22.8,22.8l0,0C121.6,78,117.6,80,113.2,80
	z"/>
<path style="fill:#9F633C;" d="M413.2,180c-4.4,0-8-3.6-8-8c0-6.4-5.2-11.6-11.6-11.6h-272c-6.4,0-11.6,5.2-11.6,11.6
	c0,4.4-3.6,8-8,8s-8-3.6-8-8c0-15.2,12.4-27.6,27.6-27.6h272c15.2,0,27.6,12.4,27.6,27.6C421.2,176,417.6,180,413.2,180z"/>
<path d="M436,24c-2.4,0-4-1.6-4-4V8H80v12c0,2.4-1.6,4-4,4s-4-1.6-4-4V4c0-2.4,1.6-4,4-4h360c2.4,0,4,1.6,4,4v16
	C440,22.4,438.4,24,436,24z"/>
<path d="M468,512H44c-2.4,0-4-1.6-4-4V49.6C40,31.2,56,16,74.8,16h364.4c18.4,0,32.8,14.8,32.8,33.6V508
	C472,510.4,470.4,512,468,512z M48,504h416V49.6c0-14.4-10.8-25.6-24.8-25.6H74.8C60.4,24,48,36,48,49.6L48,504L48,504z"/>
<path d="M209.2,87.6c-13.2,0-24-10.8-24-24c0-6.4,2.4-12.4,6.8-16.8c1.6-1.6,4-1.6,5.6,0s1.6,4,0,5.6c-2.8,2.8-4.8,6.8-4.8,11.2
	c0,8.8,7.2,16,16,16c4,0,8-1.6,11.2-4.8c1.6-1.6,4-1.6,5.6,0s1.6,4,0,5.6C221.6,85.2,215.6,87.6,209.2,87.6z"/>
<path d="M223.2,82c-1.2,0-2-0.4-2.8-1.2c-1.6-1.6-1.6-4,0-5.6c2.8-2.8,4.8-6.8,4.8-11.2c0-8.8-7.2-16-15.6-16c-4.4,0-8,1.6-11.2,4.8
	c-1.6,1.6-4,1.6-5.6,0s-1.6-4,0-5.6c4.4-4.4,10.4-6.8,16.8-6.8c13.2,0,23.6,10.8,23.6,24c0,6.4-2.4,12.4-6.8,16.8
	C225.2,81.6,224.4,82,223.2,82z"/>
<path d="M305.2,87.6c-13.2,0-24-10.8-24-24c0-6.4,2.4-12.4,6.8-16.8c1.6-1.6,4-1.6,5.6,0s1.6,4,0,5.6c-3.2,3.2-4.8,7.2-4.8,11.2
	c0,8.8,7.2,16,16,16c4,0,8-1.6,11.2-4.8c1.6-1.6,4-1.6,5.6,0s1.6,4,0,5.6C317.6,85.2,311.6,87.6,305.2,87.6z"/>
<path d="M319.2,82c-1.2,0-2-0.4-2.8-1.2c-1.6-1.6-1.6-4,0-5.6c2.8-2.8,4.8-6.8,4.8-11.2c0-8.8-7.2-16-16-16c-4.4,0-8,1.6-11.2,4.8
	c-1.6,1.6-4,1.6-5.6,0s-1.6-4,0-5.6c4.4-4.4,10.4-6.8,16.8-6.8c13.2,0,24,10.8,24,24c0,6.4-2.4,12.4-6.8,16.8
	C321.6,81.6,320.4,82,319.2,82z"/>
<path d="M113.2,87.6c-13.2,0-24-10.8-24-24c0-6.4,2.4-12.4,6.8-16.8c1.6-1.6,4-1.6,5.6,0s1.6,4,0,5.6c-2.8,3.2-4.8,7.2-4.8,11.2
	c0,8.8,7.2,16,16,16c4,0,8-1.6,11.2-4.8c1.6-1.6,4-1.6,5.6,0s1.6,4,0,5.6C125.6,85.2,119.6,87.6,113.2,87.6z"/>
<path d="M127.2,82c-1.2,0-2-0.4-2.8-1.2c-1.6-1.6-1.6-4,0-5.6c2.8-2.8,4.8-6.8,4.8-11.2c0-8.8-7.2-16-16-16c-4.4,0-8,1.6-11.2,4.8
	c-1.6,1.6-4,1.6-5.6,0s-1.6-4,0-5.6c4.4-4.4,10.4-6.8,16.8-6.8c13.2,0,24,10.8,24,24c0,6.4-2.4,12.4-6.8,16.8
	C129.2,81.6,128,82,127.2,82z"/>
<path d="M401.6,87.6c-13.2,0-24-10.8-24-24c0-6.4,2.4-12.4,6.8-16.8c1.6-1.6,4-1.6,5.6,0s1.6,4,0,5.6c-2.8,2.8-4.8,6.8-4.8,11.2
	c0,8.8,7.2,16,16,16c4,0,8-1.6,11.2-4.8c1.6-1.6,4-1.6,5.6,0s1.6,4,0,5.6C413.6,85.2,407.6,87.6,401.6,87.6z"/>
<path d="M415.6,82c-1.2,0-2-0.4-2.8-1.2c-1.6-1.6-1.6-4,0-5.6c2.8-2.8,4.8-6.8,4.8-11.2c0-8.8-7.2-16-16-16c-4.4,0-8,1.6-11.2,4.8
	c-1.6,1.6-4,1.6-5.6,0s-1.6-4,0-5.6c4.4-4.4,10.4-6.8,16.8-6.8c13.2,0,24,10.8,24,24c0,6.4-2.4,12.4-6.8,16.8
	C417.6,81.6,416.4,82,415.6,82z"/>
<path d="M384,400H124c-11.2,0-20-8.8-20-20V220c0-11.2,8.8-20,20-20h260c11.2,0,20,8.8,20,20v160C404,391.2,395.2,400,384,400z
	 M124,208c-6.8,0-12,5.2-12,12v160c0,6.8,5.2,12,12,12h260c6.8,0,12-5.2,12-12V220c0-6.8-5.2-12-12-12H124z"/>
<path d="M413.2,184c-6.8,0-12-5.6-12-12c0-4.4-3.6-7.6-7.6-7.6h-272c-4.4,0-7.6,3.6-7.6,7.6c0,6.8-5.2,12-12,12s-12-5.6-12-12
	c0-17.6,14.4-31.6,31.6-31.6h272c17.6,0,31.6,14.4,31.6,31.6c0,3.2-1.2,6.4-3.6,8.4C419.2,182.4,416.4,184,413.2,184z M121.2,156
	h272c8.8,0,15.6,7.2,15.6,15.6c0,2.4,1.6,4,4,4c1.2,0,2-0.4,2.8-1.2c0.8-0.8,1.2-1.6,1.2-2.8c0-13.2-10.8-23.6-23.6-23.6h-272
	c-13.2,0-23.6,10.8-23.6,23.6c0,2.4,1.6,4,4,4s4-2,4-4C105.6,163.2,112.4,156,121.2,156z"/>
<path d="M408,112H44c-2.4,0-4-1.6-4-4s1.6-4,4-4h364c2.4,0,4,1.6,4,4S410.4,112,408,112z"/>
<path d="M468,112h-32c-2.4,0-4-1.6-4-4s1.6-4,4-4h32c2.4,0,4,1.6,4,4S470.4,112,468,112z"/>
<path d="M408,456H44c-2.4,0-4-1.6-4-4s1.6-4,4-4h364c2.4,0,4,1.6,4,4S410.4,456,408,456z"/>
<path d="M468,456h-32c-2.4,0-4-1.6-4-4s1.6-4,4-4h32c2.4,0,4,1.6,4,4S470.4,456,468,456z"/>
<path d="M129.2,84c-1.2,0-2-0.4-2.8-1.2l-2-2l-0.4-0.4l-2.4-2.4l-0.4-0.4l-22-22l-0.4-0.4l-2.4-2.4c0,0-0.4,0-0.4-0.4l-2-2
	c-1.6-1.6-1.6-4,0-5.6s4-1.6,5.6,0l1.6,1.6c0,0,0.4,0,0.4,0.4l2.4,2.4c0,0,0.4,0,0.4,0.4l22.8,22.8l0.4,0.4l2.4,2.4l0.4,0.4l1.6,1.6
	c1.6,1.6,1.6,4,0,5.6C131.2,83.6,130,84,129.2,84z"/>
<path d="M225.2,84c-1.2,0-2-0.4-2.8-1.2l-2-2l-0.4-0.4l-2.4-2.4l-0.4-0.4l-22-22l-0.4-0.4l-2.4-2.4l-0.4-0.4l-2-2
	c-1.6-1.6-1.6-4,0-5.6s4-1.6,5.6,0l1.6,1.6l0.4,0.4l2.4,2.4c0,0,0.4,0,0.4,0.4l22.8,22.8l0.4,0.4l2.4,2.4l0.4,0.4l1.6,1.6
	c1.6,1.6,1.6,4,0,5.6C227.2,83.6,226.4,84,225.2,84z"/>
<path d="M321.2,84c-1.2,0-2-0.4-2.8-1.2l-2-2l-0.4-0.4l-2.4-2.4l-0.4-0.4l-22-22l-0.4-0.4l-2.4-2.4c0,0-0.4,0-0.4-0.4l-2-2
	c-1.6-1.6-1.6-4,0-5.6s4-1.6,5.6,0l1.6,1.6c0,0,0.4,0,0.4,0.4l2.4,2.4c0,0,0.4,0,0.4,0.4l22.8,22.8l0.4,0.4l2.4,2.4l0.4,0.4l1.6,1.6
	c1.6,1.6,1.6,4,0,5.6C323.6,83.6,322.4,84,321.2,84z"/>
<path d="M417.6,84c-1.2,0-2-0.4-2.8-1.2l-2-2l-0.4-0.4L410,78l-0.4-0.4l-22-22l-0.4-0.4l-2.4-2.4c0,0-0.4,0-0.4-0.4l-2-2
	c-1.6-1.6-1.6-4,0-5.6s4-1.6,5.6,0l1.6,1.6c0,0,0.4,0,0.4,0.4l2.4,2.4c0,0,0.4,0,0.4,0.4l22.8,22.8l0.4,0.4l2.4,2.4l0.4,0.4l1.6,1.6
	c1.6,1.6,1.6,4,0,5.6C419.6,83.6,418.4,84,417.6,84z"/>
<path d="M232.8,252c-1.2,0-2-0.4-2.8-1.2l-43.6-43.6c-1.6-1.6-1.6-4,0-5.6s4-1.6,5.6,0l43.6,43.6c1.6,1.6,1.6,4,0,5.6
	C235.2,251.6,234,252,232.8,252z"/>
<path d="M292.8,312c-1.2,0-2-0.4-2.8-1.2l-40-40c-1.6-1.6-1.6-4,0-5.6s4-1.6,5.6,0l40,40c1.6,1.6,1.6,4,0,5.6
	C295.2,311.6,294,312,292.8,312z"/>
<path d="M336.8,400c-1.2,0-2-0.4-2.8-1.2l-124-124c-1.6-1.6-1.6-4,0-5.6s4-1.6,5.6,0l124,124c1.6,1.6,1.6,4,0,5.6
	C339.2,399.6,338,400,336.8,400z"/>
<g>
</g>
<g>
</g>
<g>
</g>
<g>
</g>
<g>
</g>
<g>
</g>
<g>
</g>
<g>
</g>
<g>
</g>
<g>
</g>
<g>
</g>
<g>
</g>
<g>
</g>
<g>
</g>
<g>
</g>
</svg>
