<?xml version="1.0" encoding="iso-8859-1"?>
<!-- Generator: Adobe Illustrator 19.0.0, SVG Export Plug-In . SVG Version: 6.00 Build 0)  -->
<svg version="1.1" id="Layer_1" xmlns="http://www.w3.org/2000/svg" xmlns:xlink="http://www.w3.org/1999/xlink" x="0px" y="0px"
	 viewBox="0 0 511.997 511.997" style="enable-background:new 0 0 511.997 511.997;" xml:space="preserve">
<g>
	<g>
		<circle cx="126.006" cy="44.591" r="44.591"/>
	</g>
</g>
<g>
	<g>
		<path d="M455.718,170.321c-1.296-1.404-3.174-2.122-5.076-1.939L270.07,185.72c-4.069-5.54-10.851-8.872-18.186-8.167
			l-78.368,7.555l-49.488-58.821l41.694,31.351l1.578-18.349c1.425-16.574-10.857-31.166-27.431-32.592l-53.52-4.601
			c-16.575-1.425-31.167,10.857-32.592,27.431C52.694,141.87,40.977,278.17,40.518,283.508l15.952,93.248L17.835,479.191
			c-4.725,12.527,1.6,26.514,14.128,31.239c12.529,4.725,26.514-1.601,31.239-14.128l40.895-108.425
			c1.481-3.926,1.917-8.17,1.267-12.315l-8.189-52.149L91.6,287.901L104.387,289l38.682,85.594l26.948,118.529
			c2.968,13.053,15.957,21.234,29.015,18.266c13.004-2.958,21.246-15.902,18.266-29.015l-27.49-120.91
			c-0.36-1.584-0.879-3.128-1.549-4.609l-33.323-73.736l3.091-35.946c-10.29-0.219-19.437-6.177-23.985-15.007l-40.876-79.911
			l56.308,66.927c4.277,5.083,10.775,7.726,17.367,7.091l88.914-8.57c7.289-0.702,13.275-5.214,16.232-11.365l51.963-4.989
			l2.621,6.814c3.01,7.828,10.87,12.69,19.219,11.888l91.225-8.76c8.349-0.802,15.139-7.07,16.606-15.328l3.627-20.427
			C457.58,173.654,457.014,171.725,455.718,170.321z"/>
	</g>
</g>
<g>
	<g>
		<path d="M410.211,100.554c-8.246-5.679-19.938-7.676-33.122-4.794c-13.184,2.773-25.363,5.404-34.396,5.391
			c-9.033,0.45-14.921-1.744-15.522,2.084c-0.601,3.013,4.199,12.023,12.445,17.35c8.246,5.679,19.938,7.677,33.122,4.795
			c13.184-2.774,25.363-5.404,34.396-5.39c9.033-0.449,14.921,1.745,15.522-2.084C423.257,114.893,418.457,105.881,410.211,100.554z
			"/>
	</g>
</g>
<g>
	<g>
		<path d="M473.698,282.218H342.47c-12.167,0-22.031,9.864-22.031,22.031v0.483h-15.915c-5.863,0-10.616,4.753-10.616,10.616v20.215
			c0,5.863,4.753,10.616,10.616,10.616h15.915v143.786c0,12.167,9.864,22.031,22.031,22.031h131.228
			c12.167,0,22.031-9.864,22.031-22.031V304.25C495.73,292.082,485.865,282.218,473.698,282.218z"/>
	</g>
</g>
<g>
</g>
<g>
</g>
<g>
</g>
<g>
</g>
<g>
</g>
<g>
</g>
<g>
</g>
<g>
</g>
<g>
</g>
<g>
</g>
<g>
</g>
<g>
</g>
<g>
</g>
<g>
</g>
<g>
</g>
</svg>
