<svg id="icons" enable-background="new 0 0 64 64" height="512" viewBox="0 0 64 64" width="512" xmlns="http://www.w3.org/2000/svg"><path d="m1 12.505v36h3 10 36 10 3v-36z" fill="#e6e9ed"/><path d="m5 33.495h39v11h-39z" fill="#5d9cec"/><path d="m58 32.495c0 1.109-.45 2.109-1.17 2.83l-5.66-5.66c.73-.72 1.73-1.17 2.83-1.17 2.21 0 4 1.79 4 4z" fill="#656d78"/><path d="m50 48.505h10v2.99h-10z" fill="#ccd1d9"/><path d="m54 17.495v8c-2.21 0-4-1.79-4-4s1.79-4 4-4z" fill="#656d78"/><path d="m5 30.495h39v3h-39z" fill="#4a89dc"/><g fill="#656d78"><path d="m51.17 29.665 5.66 5.66c-.73.72-1.73 1.17-2.83 1.17-2.21 0-4-1.79-4-4 0-1.11.45-2.11 1.17-2.83z"/><path d="m45 16.505v3h-1-39-1v-3z"/><path d="m58 21.495c0 2.21-1.79 4-4 4v-8c2.21 0 4 1.79 4 4z"/></g><path d="m4 48.505h10v2.99h-10z" fill="#ccd1d9"/><path d="m5 19.505h39v10.99h-39z" fill="#5d9cec"/><path d="m63 49.506h-62c-.553 0-1-.447-1-1v-36.005c0-.553.447-1 1-1h62c.553 0 1 .447 1 1v36.005c0 .553-.447 1-1 1zm-61-2h60v-34.005h-60z"/><path d="m44.998 20.502h-40.998c-.553 0-1-.447-1-1v-3c0-.553.447-1 1-1h40.998c.553 0 1 .447 1 1v3c0 .553-.447 1-1 1zm-39.998-2h38.998v-1h-38.998z"/><path d="m5 45.499c-.553 0-1-.447-1-1v-24.997c0-.553.447-1 1-1s1 .447 1 1v24.997c0 .553-.447 1-1 1z"/><path d="m43.998 45.499h-38.998c-.553 0-1-.447-1-1s.447-1 1-1h38.998c.553 0 1 .447 1 1s-.447 1-1 1z"/><path d="m43.998 45.5c-.553 0-1-.447-1-1v-24.998c0-.553.447-1 1-1s1 .447 1 1v24.998c0 .553-.447 1-1 1z"/><path d="m43.998 31.5h-38.998c-.553 0-1-.447-1-1s.447-1 1-1h38.998c.553 0 1 .447 1 1s-.447 1-1 1z"/><path d="m43.998 34.5h-38.998c-.553 0-1-.447-1-1s.447-1 1-1h38.998c.553 0 1 .447 1 1s-.447 1-1 1z"/><path d="m54 26.499c-2.757 0-5-2.243-5-5s2.243-5 5-5 5 2.243 5 5-2.243 5-5 5zm0-8c-1.654 0-3 1.346-3 3s1.346 3 3 3 3-1.346 3-3-1.346-3-3-3z"/><path d="m54 37.493c-2.757 0-5-2.243-5-5s2.243-5 5-5 5 2.243 5 5-2.243 5-5 5zm0-8c-1.654 0-3 1.346-3 3s1.346 3 3 3 3-1.346 3-3-1.346-3-3-3z"/><path d="m54 26.499c-.553 0-1-.447-1-1v-8c0-.553.447-1 1-1s1 .447 1 1v8c0 .553-.447 1-1 1z"/><path d="m56.828 36.321c-.256 0-.512-.098-.707-.293l-5.656-5.656c-.391-.391-.391-1.023 0-1.414s1.023-.391 1.414 0l5.656 5.656c.391.391.391 1.023 0 1.414-.195.196-.451.293-.707.293z"/><path d="m58 42.5h-8c-.553 0-1-.447-1-1s.447-1 1-1h8c.553 0 1 .447 1 1s-.447 1-1 1z"/><path d="m56 45.5h-4c-.553 0-1-.447-1-1s.447-1 1-1h4c.553 0 1 .447 1 1s-.447 1-1 1z"/><path d="m14.003 52.499h-10.002c-.553 0-1-.447-1-1v-2.993c0-.553.447-1 1-1s1 .447 1 1v1.993h8.002v-1.993c0-.553.447-1 1-1s1 .447 1 1v2.993c0 .553-.447 1-1 1z"/><path d="m59.999 52.499h-10.002c-.553 0-1-.447-1-1v-2.993c0-.553.447-1 1-1s1 .447 1 1v1.993h8.002v-1.993c0-.553.447-1 1-1s1 .447 1 1v2.993c0 .553-.447 1-1 1z"/></svg>