<svg height="512" viewBox="0 0 64 64" width="512" xmlns="http://www.w3.org/2000/svg"><g id="Layer_17" data-name="Layer 17"><path d="m9 19h40a8 8 0 0 1 8 8v22a2 2 0 0 1 -2 2h-52a2 2 0 0 1 -2-2v-22a8 8 0 0 1 8-8z" fill="#e6e6e6"/><path d="m28 48a24 24 0 0 1 -24-24 7.959 7.959 0 0 1 1.049-3.951 7.993 7.993 0 0 0 -4.049 6.951v22a2 2 0 0 0 2 2h52a2 2 0 0 0 2-2v-1z" fill="#cecece"/><path d="m5 51h6a0 0 0 0 1 0 0v2a2 2 0 0 1 -2 2h-2a2 2 0 0 1 -2-2v-2a0 0 0 0 1 0 0z" fill="#7a838b"/><path d="m5 51h6v2h-6z" fill="#5d6972"/><path d="m49 51h2a2 2 0 0 1 2 2v2a0 0 0 0 1 0 0h-6a0 0 0 0 1 0 0v-2a2 2 0 0 1 2-2z" fill="#7a838b" transform="matrix(-1 0 0 -1 100 106)"/><path d="m47 51h6v2h-6z" fill="#5d6972"/><path d="m57 27h4a2 2 0 0 1 2 2 2 2 0 0 1 -2 2h-4a0 0 0 0 1 0 0v-4a0 0 0 0 1 0 0z" fill="#7a838b"/><path d="m57 27h2v4h-2z" fill="#5d6972"/><path d="m57 41h2a2 2 0 0 1 2 2v2a2 2 0 0 1 -2 2h-2a0 0 0 0 1 0 0v-6a0 0 0 0 1 0 0z" fill="#7a838b"/><path d="m57 41h2v6h-2z" fill="#5d6972"/><path d="m15 9h6a6 6 0 0 1 6 6v4a0 0 0 0 1 0 0h-18a0 0 0 0 1 0 0v-4a6 6 0 0 1 6-6z" fill="#fcab68"/><path d="m16 17a4 4 0 0 1 -4-4 5.97 5.97 0 0 1 1.327-3.759 6 6 0 0 0 -4.327 5.759v4h18v-2z" fill="#ea8e49"/><path d="m37 9h6a6 6 0 0 1 6 6v4a0 0 0 0 1 0 0h-18a0 0 0 0 1 0 0v-4a6 6 0 0 1 6-6z" fill="#fcab68"/><path d="m38 17a4 4 0 0 1 -4-4 5.97 5.97 0 0 1 1.327-3.759 6 6 0 0 0 -4.327 5.759v4h18v-2z" fill="#ea8e49"/><path d="m61 32a3 3 0 0 0 0-6h-3.059a9.013 9.013 0 0 0 -7.941-7.941v-3.059a7.008 7.008 0 0 0 -7-7h-6a7.008 7.008 0 0 0 -7 7v3h-2v-3a7.008 7.008 0 0 0 -7-7h-6a7.008 7.008 0 0 0 -7 7v3.059a9.011 9.011 0 0 0 -8 8.941v22a3 3 0 0 0 3 3h1v1a3 3 0 0 0 3 3h2a3 3 0 0 0 3-3v-1h34v1a3 3 0 0 0 3 3h2a3 3 0 0 0 3-3v-1h1a3 3 0 0 0 3-3v-1h1a3 3 0 0 0 3-3v-2a3 3 0 0 0 -3-3h-1v-8zm1-3a1 1 0 0 1 -1 1h-3v-2h3a1 1 0 0 1 1 1zm-52-14a5.006 5.006 0 0 1 5-5h6a4.971 4.971 0 0 1 3.8 1.787l-2.506 2.506a1 1 0 1 0 1.414 1.414l2.078-2.078a4.937 4.937 0 0 1 .214 1.371v3h-12.586l1.293-1.293a1 1 0 0 0 -1.414-1.414l-2.707 2.707h-.586zm0 38a1 1 0 0 1 -1 1h-2a1 1 0 0 1 -1-1v-1h4zm42 0a1 1 0 0 1 -1 1h-2a1 1 0 0 1 -1-1v-1h4zm4-4a1 1 0 0 1 -1 1h-52a1 1 0 0 1 -1-1v-22a7.008 7.008 0 0 1 7-7h32a1 1 0 0 0 0-2h-5.586l1.293-1.293a1 1 0 0 0 -1.414-1.414l-2.707 2.707h-.586v-3a5.006 5.006 0 0 1 5-5h6a4.971 4.971 0 0 1 3.8 1.787l-2.506 2.506a1 1 0 1 0 1.414 1.414l2.078-2.078a4.937 4.937 0 0 1 .214 1.371v3h-3a1 1 0 0 0 0 2h4a7.008 7.008 0 0 1 7 7zm3-7a1 1 0 0 1 1 1v2a1 1 0 0 1 -1 1h-1v-4z"/><path d="m17 15a1 1 0 0 0 .707-.293l2-2a1 1 0 0 0 -1.414-1.414l-2 2a1 1 0 0 0 .707 1.707z"/><path d="m40.293 11.293-2 2a1 1 0 1 0 1.414 1.414l2-2a1 1 0 0 0 -1.414-1.414z"/><path d="m49 22h-2a1 1 0 0 1 0-2h2a1 1 0 0 1 0 2z" fill="#fff"/></g></svg>