<svg id="Filloutline" enable-background="new 0 0 128 128" height="512" viewBox="0 0 128 128" width="512" xmlns="http://www.w3.org/2000/svg" xmlns:xlink="http://www.w3.org/1999/xlink"><linearGradient id="lg1"><stop offset="0" stop-color="#916656"/><stop offset="1" stop-color="#725440"/></linearGradient><linearGradient id="SVGID_1_" gradientUnits="userSpaceOnUse" x1="56.558" x2="75.391" xlink:href="#lg1" y1="6.341" y2="17.007"/><linearGradient id="lg2"><stop offset="0" stop-color="#f0f1f1"/><stop offset="1" stop-color="#e5e6e7"/></linearGradient><linearGradient id="SVGID_2_" gradientUnits="userSpaceOnUse" x1="-25.91" x2="-10.41" xlink:href="#lg2" y1="65.389" y2="66.639"/><linearGradient id="SVGID_3_" gradientUnits="userSpaceOnUse" x1="7.461" x2="-19.789" xlink:href="#lg2" y1="73.759" y2="73.509"/><linearGradient id="SVGID_4_" gradientUnits="userSpaceOnUse" x1="132.487" x2="144.153" xlink:href="#lg1" y1="61.622" y2="66.789"/><linearGradient id="SVGID_5_" gradientUnits="userSpaceOnUse" x1="16.124" x2="33.387" y1="49.5" y2="49.5"><stop offset="0" stop-color="#a6b046"/><stop offset="1" stop-color="#9ca728"/></linearGradient><linearGradient id="SVGID_6_" gradientUnits="userSpaceOnUse" x1="25.224" x2="33.763" y1="49.5" y2="49.5"><stop offset="0" stop-color="#809000"/><stop offset="1" stop-color="#6b7f00"/></linearGradient><linearGradient id="SVGID_7_" gradientUnits="userSpaceOnUse" x1="103.062" x2="102.062" xlink:href="#lg2" y1="69.8" y2="71.05"/><linearGradient id="SVGID_8_" gradientUnits="userSpaceOnUse" x1="64" x2="64" y1="35.75" y2="89.251"><stop offset=".0399" stop-color="#f98453"/><stop offset=".8094" stop-color="#fc754f"/></linearGradient><linearGradient id="lg3"><stop offset="0" stop-color="#ffd486"/><stop offset=".8238" stop-color="#ff9c34"/></linearGradient><linearGradient id="SVGID_9_" gradientUnits="userSpaceOnUse" x1="56.688" x2="67.25" xlink:href="#lg3" y1="84" y2="84"/><linearGradient id="SVGID_10_" gradientUnits="userSpaceOnUse" x1="13.587" x2="26.025" xlink:href="#lg3" y1="82.287" y2="83.037"/><linearGradient id="SVGID_11_" gradientUnits="userSpaceOnUse" x1="104.997" x2="102.081" xlink:href="#lg3" y1="61.065" y2="74.398"/><linearGradient id="SVGID_12_" gradientUnits="userSpaceOnUse" x1="114.245" x2="134.912" xlink:href="#lg3" y1="92.49" y2="96.323"/><linearGradient id="lg4"><stop offset="0" stop-color="#c02f37"/><stop offset="1" stop-color="#aa1d26"/></linearGradient><linearGradient id="SVGID_13_" gradientUnits="userSpaceOnUse" x1="27.691" x2="35.941" xlink:href="#lg4" y1="37.452" y2="15.702"/><linearGradient id="SVGID_14_" gradientUnits="userSpaceOnUse" x1="82.797" x2="91.047" xlink:href="#lg4" y1="58.354" y2="36.604"/><linearGradient id="SVGID_15_" gradientUnits="userSpaceOnUse" x1="108.662" x2="116.912" xlink:href="#lg4" y1="68.165" y2="46.415"/><linearGradient id="SVGID_16_" gradientUnits="userSpaceOnUse" x1="53.848" x2="62.098" xlink:href="#lg4" y1="45.856" y2="24.106"/><linearGradient id="lg5"><stop offset=".0399" stop-color="#fc9f4b"/><stop offset=".8094" stop-color="#f47e3e"/></linearGradient><linearGradient id="SVGID_17_" gradientUnits="userSpaceOnUse" x1="137.777" x2="171.038" xlink:href="#lg5" y1="81" y2="81"/><linearGradient id="SVGID_18_" gradientUnits="userSpaceOnUse" x1="142.321" x2="175.583" xlink:href="#lg5" y1="82" y2="82"/><linearGradient id="SVGID_19_" gradientUnits="userSpaceOnUse" x1="129.286" x2="162.548" xlink:href="#lg5" y1="109" y2="109"/><linearGradient id="SVGID_20_" gradientUnits="userSpaceOnUse" x1="151.25" x2="184.512" xlink:href="#lg5" y1="65" y2="65"/><linearGradient id="SVGID_21_" gradientUnits="userSpaceOnUse" x1="149.328" x2="182.59" xlink:href="#lg5" y1="63" y2="63"/><linearGradient id="lg6"><stop offset="0" stop-color="#dc464e"/><stop offset="1" stop-color="#c72e37"/></linearGradient><linearGradient id="SVGID_22_" gradientUnits="userSpaceOnUse" x1="-1.677" x2="9.657" xlink:href="#lg6" y1="82.864" y2="81.198"/><linearGradient id="SVGID_23_" gradientUnits="userSpaceOnUse" x1="3.649" x2="14.983" xlink:href="#lg6" y1="119.081" y2="117.414"/><linearGradient id="SVGID_24_" gradientUnits="userSpaceOnUse" x1="2.515" x2="13.848" xlink:href="#lg6" y1="111.366" y2="109.699"/><linearGradient id="SVGID_25_" gradientUnits="userSpaceOnUse" x1="-3.912" x2="7.421" xlink:href="#lg6" y1="67.664" y2="65.997"/><linearGradient id="SVGID_26_" gradientUnits="userSpaceOnUse" x1="-3.802" x2="7.531" y1="68.412" y2="66.745"><stop offset="0" stop-color="#e05c63"/><stop offset=".4062" stop-color="#dd585f"/><stop offset=".8264" stop-color="#d34b53"/><stop offset="1" stop-color="#cd444c"/></linearGradient><linearGradient id="SVGID_27_" gradientUnits="userSpaceOnUse" x1="1.85" x2="13.183" xlink:href="#lg6" y1="106.846" y2="105.179"/><linearGradient id="SVGID_28_" gradientUnits="userSpaceOnUse" x1="94.282" x2="102.532" xlink:href="#lg4" y1="62.711" y2="40.961"/><linearGradient id="SVGID_29_" gradientUnits="userSpaceOnUse" x1="102.785" x2="105.285" xlink:href="#lg6" y1="56.409" y2="72.409"/><linearGradient id="SVGID_30_" gradientUnits="userSpaceOnUse" x1="52.933" x2="58.626" xlink:href="#lg6" y1="47.116" y2="32.106"/><g><g><g><path d="m86 51 23.961-41.013c1.531-2.428 1.509-5.031-1-7-1.812-1.343-4.719-1.844-7 2l-24.961 46.013z" fill="url(#SVGID_1_)"/></g><path d="m119 31c-.519-1.676-2.17-3-3.924-3h-51.076-51.076c-1.754 0-3.405 1.324-3.924 3-2.088 6.745-7 23.914-7 35 0 42.147 27.758 55 62 55s62-12.853 62-55c0-11.086-4.912-28.255-7-35z" fill="url(#SVGID_2_)"/><path d="m116 34.965c-.48-1.532-1.378-2.965-3-2.965h-98c-1.622 0-2.52 1.433-3 2.965-1.931 6.165-6 21.495-6 31.628 0 38.521 26.336 50.407 58 50.407s58-11.886 58-50.407c0-10.133-4.069-25.463-6-31.628z" fill="url(#SVGID_3_)"/><path d="m87.307 32-10.307 19h9l11.1-19z" fill="url(#SVGID_4_)"/><g><path d="m42.003 42c-10.978 0-16.424 6.529-12.973 15 8.147 0 12.973-1.154 12.973-15z" fill="url(#SVGID_5_)"/><path d="m16 42c11.343.204 16.396 6.583 13 15-8.748 0-13-1.154-13-15z" fill="url(#SVGID_6_)"/></g><path d="m92 126h-56c-2.761 0-5-2.239-5-5l2-9h62l2 9c0 2.761-2.239 5-5 5z" fill="url(#SVGID_7_)"/><path d="m64 53c-22.343 7.205-46.239.893-55.15-6.274-1.508 6.525-2.85 14.05-2.85 19.867 0 38.521 26.336 50.407 58 50.407s58-11.886 58-50.407c0-5.314-1.121-12.052-2.464-18.153-14.79-5.259-37.304-1.32-55.536 4.56z" fill="url(#SVGID_8_)"/><g><circle cx="42" cy="84" fill="url(#SVGID_9_)" r="13"/><path d="m42 67c-9.389 0-17 7.611-17 17s7.611 17 17 17 17-7.611 17-17-7.611-17-17-17zm0 30c-7.18 0-13-5.82-13-13s5.82-13 13-13 13 5.82 13 13-5.82 13-13 13z" fill="url(#SVGID_10_)"/></g><g><path d="m89 106 28-28c-3.619-3.619-8.477-6-14-6-11.046 0-20 8.954-20 20 0 5.523 2.381 10.381 6 14z" fill="url(#SVGID_11_)"/><path d="m102.984 76c-8.828 0-15.984 7.163-15.984 16 0 4.419 2.106 8.104 5 11l22-22c-2.894-2.903-6.595-5-11.016-5z" fill="url(#SVGID_12_)"/></g><g><g><circle cx="18" cy="63" fill="url(#SVGID_13_)" r="6"/></g></g><g><g><circle cx="67" cy="100" fill="url(#SVGID_14_)" r="6"/></g></g><g><g><circle cx="111" cy="62" fill="url(#SVGID_15_)" r="6"/></g></g><g><g><circle cx="50" cy="56" fill="url(#SVGID_16_)" r="6"/></g></g><circle cx="17" cy="81" fill="url(#SVGID_17_)" r="3"/><circle cx="73" cy="82" fill="url(#SVGID_18_)" r="3"/><circle cx="51" cy="109" fill="url(#SVGID_19_)" r="3"/><circle cx="95" cy="65" fill="url(#SVGID_20_)" r="3"/><circle cx="64" cy="63" fill="url(#SVGID_21_)" r="3"/><circle cx="79" cy="71" fill="url(#SVGID_22_)" r="2"/><circle cx="79" cy="108" fill="url(#SVGID_23_)" r="2"/><circle cx="107" cy="96" fill="url(#SVGID_24_)" r="2"/><circle cx="89" cy="54" fill="url(#SVGID_25_)" r="2"/><circle cx="33" cy="63" fill="url(#SVGID_26_)" r="2"/><circle cx="28" cy="103" fill="url(#SVGID_27_)" r="2"/><g><g><circle cx="101" cy="45" fill="url(#SVGID_28_)" r="6"/></g></g><path d="m106.895 46.096c.066-.355.105-.721.105-1.096 0-3.314-2.686-6-6-6s-6 2.686-6 6c0 .466.058.917.159 1.352 4.041-.358 7.991-.472 11.736-.256z" fill="url(#SVGID_29_)"/><path d="m55.914 55.028c-.465-2.85-2.932-5.028-5.914-5.028-3.314 0-6 2.686-6 6 0 .057.007.112.009.169 3.892-.047 7.891-.401 11.905-1.141z" fill="url(#SVGID_30_)"/></g><g fill="#3a322b"><path d="m127 66c0-11.317-4.927-28.453-7.045-35.295-.664-2.146-2.717-3.705-4.88-3.705h-13.895l9.627-16.48c1.942-3.082 1.483-6.192-1.25-8.337-1.338-.991-2.859-1.378-4.296-1.09-1.621.327-3.021 1.465-4.179 3.417l-12.201 22.49h-75.956c-2.163 0-4.216 1.558-4.88 3.704-2.118 6.843-7.045 23.979-7.045 35.296 0 25.59 10.055 42.491 29.968 50.535l-.944 4.248c-.016.071-.024.144-.024.217 0 3.309 2.691 6 6 6h56c3.309 0 6-2.691 6-6 0-.073-.008-.146-.023-.217l-.944-4.248c19.912-8.044 29.967-24.945 29.967-50.535zm-24.179-60.503c.837-1.411 1.791-2.233 2.835-2.443 1.17-.237 2.202.36 2.688.72 2.406 1.889 1.747 4.131.754 5.709l-10.234 17.517h-7.707zm-6.822 115.607c-.056 2.158-1.828 3.896-3.999 3.896h-56c-2.171 0-3.943-1.738-3.999-3.896l.857-3.855c8.643 3.156 19.02 4.751 31.142 4.751s22.499-1.595 31.142-4.751zm-31.999-1.104c-40.477 0-61-18.168-61-54 0-11.354 5.323-29.434 6.955-34.705.399-1.287 1.703-2.295 2.97-2.295h102.15c1.267 0 2.571 1.008 2.97 2.295 1.632 5.271 6.955 23.351 6.955 34.705 0 35.832-20.523 54-61 54z"/><path d="m116.954 34.666c-.999-3.19-2.906-3.666-3.954-3.666h-98c-1.048 0-2.955.476-3.954 3.666-.868 2.771-2.055 7.03-3.149 11.769-.005.016-.007.032-.011.048-1.538 6.667-2.886 14.283-2.886 20.11 0 18.25 5.898 31.861 17.532 40.453 9.84 7.268 23.792 10.954 41.468 10.954s31.628-3.686 41.468-10.954c11.634-8.592 17.532-22.203 17.532-40.453 0-9.985-3.955-25.25-6.046-31.927zm-1.908.598c.861 2.75 2.042 6.981 3.126 11.679-3.189-.956-6.627-1.514-10.18-1.777.001-.056.008-.11.008-.166 0-3.86-3.141-7-7-7s-7 3.14-7 7c0 .153.013.302.023.452-1.305.13-2.604.284-3.891.458l7.542-12.91h15.326c.887 0 1.575.762 2.046 2.264zm-19.019 10.008c-.005-.092-.027-.179-.027-.272 0-2.757 2.243-5 5-5s5 2.243 5 5c0 .017-.005.033-.005.05-3.278-.14-6.631-.045-9.968.222zm9.537 1.75c-.779 1.75-2.528 2.978-4.564 2.978-1.955 0-3.634-1.138-4.455-2.778 3.024-.23 6.055-.313 9.019-.2zm-10.206-14.022-7.757 13.277c-2.645.413-5.22.899-7.674 1.424l7.975-14.701zm-82.404 2.264c.471-1.502 1.159-2.264 2.046-2.264h70.627l-8.287 15.278c-5.572 1.29-10.359 2.71-13.646 3.77-2.328.751-4.679 1.343-7.032 1.809-.908-2.814-3.55-4.857-6.662-4.857-3.573 0-6.525 2.693-6.944 6.156-1.158-.002-2.305-.032-3.44-.087 2.346-2.416 3.387-6.537 3.387-13.069 0-.552-.447-1-1-1-5.858 0-10.472 1.842-12.961 5.108-2.456-3.187-7.079-5.001-13.024-5.108-.269-.003-.527.098-.719.287-.192.188-.299.444-.299.713 0 3.074.216 5.587.651 7.623-2.238-1.032-4.152-2.149-5.678-3.3 1.043-4.448 2.158-8.431 2.981-11.059zm32.134 19.867c.414-2.342 2.453-4.131 4.912-4.131 2.129 0 3.938 1.343 4.658 3.222-3.215.533-6.422.827-9.57.909zm9.89 1.084c-.115 2.655-2.295 4.785-4.978 4.785-2.346 0-4.306-1.63-4.842-3.813 3.211-.093 6.499-.408 9.82-.972zm-37.003-5.6c-.591-1.868-.912-4.354-.966-7.578 4.83.264 8.522 1.777 10.461 4.305 1.336 1.741 1.811 3.946 1.404 6.419-4.025-.794-7.712-1.881-10.899-3.146zm12.209-2.593c1.813-2.996 5.674-4.797 10.809-5.002-.157 8.352-2.268 10.751-4.415 11.837-1.966-.175-3.883-.424-5.74-.737.374-2.222.154-4.287-.654-6.098zm33.816 67.978c-37.822 0-57-16.623-57-49.407 0-5.238 1.128-11.992 2.489-18.145 1.924 1.338 4.385 2.643 7.248 3.826.004.002.008.003.011.005 6.872 2.837 16.119 4.946 26.284 4.946.027 0 .055-.001.082-.001.581 3.277 3.444 5.776 6.886 5.776 3.859 0 7-3.14 7-7 0-.053-.007-.104-.008-.156 2.432-.488 4.876-1.106 7.315-1.892 6.244-2.013 17.971-5.354 30.129-6.545.984 2.676 3.551 4.593 6.564 4.593 3.114 0 5.758-2.046 6.664-4.863 3.886.278 7.616.929 11.016 2.075 1.284 5.944 2.321 12.36 2.321 17.38-.001 32.785-19.179 49.408-57.001 49.408z"/><path d="m18 56c-3.859 0-7 3.14-7 7 0 3.859 3.141 7 7 7s7-3.141 7-7c0-3.86-3.141-7-7-7zm0 12c-2.757 0-5-2.243-5-5s2.243-5 5-5 5 2.243 5 5-2.243 5-5 5z"/><path d="m67 93c-3.859 0-7 3.141-7 7s3.141 7 7 7 7-3.141 7-7-3.141-7-7-7zm0 12c-2.757 0-5-2.243-5-5s2.243-5 5-5 5 2.243 5 5-2.243 5-5 5z"/><path d="m111 69c3.859 0 7-3.141 7-7 0-3.86-3.141-7-7-7s-7 3.14-7 7c0 3.859 3.141 7 7 7zm0-12c2.757 0 5 2.243 5 5s-2.243 5-5 5-5-2.243-5-5 2.243-5 5-5z"/><path d="m17 77c-2.206 0-4 1.794-4 4s1.794 4 4 4 4-1.794 4-4-1.794-4-4-4zm0 6c-1.103 0-2-.897-2-2s.897-2 2-2 2 .897 2 2-.897 2-2 2z"/><path d="m73 78c-2.206 0-4 1.794-4 4s1.794 4 4 4 4-1.794 4-4-1.794-4-4-4zm0 6c-1.103 0-2-.897-2-2s.897-2 2-2 2 .897 2 2-.897 2-2 2z"/><path d="m51 105c-2.206 0-4 1.794-4 4s1.794 4 4 4 4-1.794 4-4-1.794-4-4-4zm0 6c-1.103 0-2-.897-2-2s.897-2 2-2 2 .897 2 2-.897 2-2 2z"/><path d="m95 69c2.206 0 4-1.794 4-4s-1.794-4-4-4-4 1.794-4 4 1.794 4 4 4zm0-6c1.103 0 2 .897 2 2s-.897 2-2 2-2-.897-2-2 .897-2 2-2z"/><path d="m64 67c2.206 0 4-1.794 4-4s-1.794-4-4-4-4 1.794-4 4 1.794 4 4 4zm0-6c1.103 0 2 .897 2 2s-.897 2-2 2-2-.897-2-2 .897-2 2-2z"/><path d="m79 74c1.654 0 3-1.346 3-3s-1.346-3-3-3-3 1.346-3 3 1.346 3 3 3zm0-4c.552 0 1 .448 1 1s-.448 1-1 1-1-.448-1-1 .448-1 1-1z"/><path d="m79 105c-1.654 0-3 1.346-3 3s1.346 3 3 3 3-1.346 3-3-1.346-3-3-3zm0 4c-.552 0-1-.448-1-1s.448-1 1-1 1 .448 1 1-.448 1-1 1z"/><path d="m107 93c-1.654 0-3 1.346-3 3s1.346 3 3 3 3-1.346 3-3-1.346-3-3-3zm0 4c-.552 0-1-.448-1-1s.448-1 1-1 1 .448 1 1-.448 1-1 1z"/><path d="m89 57c1.654 0 3-1.346 3-3s-1.346-3-3-3-3 1.346-3 3 1.346 3 3 3zm0-4c.552 0 1 .449 1 1s-.448 1-1 1-1-.449-1-1 .448-1 1-1z"/><path d="m33 66c1.654 0 3-1.346 3-3s-1.346-3-3-3-3 1.346-3 3 1.346 3 3 3zm0-4c.552 0 1 .449 1 1s-.448 1-1 1-1-.449-1-1 .448-1 1-1z"/><path d="m28 100c-1.654 0-3 1.346-3 3s1.346 3 3 3 3-1.346 3-3-1.346-3-3-3zm0 4c-.552 0-1-.448-1-1s.448-1 1-1 1 .448 1 1-.448 1-1 1z"/><path d="m60 84c0-9.925-8.075-18-18-18s-18 8.075-18 18 8.075 18 18 18 18-8.075 18-18zm-18 16c-8.822 0-16-7.178-16-16s7.178-16 16-16 16 7.178 16 16-7.178 16-16 16z"/><path d="m42 70c-7.72 0-14 6.28-14 14s6.28 14 14 14 14-6.28 14-14-6.28-14-14-14zm9.155 21.741-6.741-6.741h9.535c-.212 2.558-1.226 4.889-2.794 6.741zm-21.104-6.741h9.535l-6.741 6.741c-1.568-1.852-2.582-4.183-2.794-6.741zm2.794-8.741 6.741 6.741h-9.535c.212-2.558 1.226-4.889 2.794-6.741zm10.155-4.208c2.558.213 4.889 1.226 6.741 2.795l-6.741 6.74zm-2 9.535-6.741-6.741c1.852-1.569 4.183-2.582 6.741-2.795zm0 4.828v9.535c-2.558-.213-4.889-1.226-6.741-2.795zm2 0 6.741 6.741c-1.852 1.569-4.183 2.582-6.741 2.795zm1.414-3.414 6.741-6.741c1.569 1.852 2.582 4.183 2.795 6.741z"/><path d="m103 71c-11.579 0-21 9.421-21 21 0 5.426 2.234 10.649 6.293 14.707.195.195.451.293.707.293s.512-.098.707-.293l13.999-13.999.003-.003.997-.997.003-.003 12.999-12.999c.391-.391.391-1.023 0-1.414-4.059-4.058-9.282-6.292-14.708-6.292zm9.56 10.026-7.56 7.56v-11.409c2.685.427 5.217 1.715 7.56 3.849zm-9.56 8.56-9.321-9.321c2.558-2.038 5.789-3.265 9.305-3.265.005 0 .01.001.016.001zm-10.801-7.973 9.387 9.387h-13.535c.241-3.634 1.771-6.915 4.148-9.387zm8.387 11.387-8.558 8.558c-2.4-2.643-3.735-5.514-3.974-8.558zm13.386-13.386c-2.897-2.652-6.173-4.209-9.597-4.538-.116-.047-.242-.076-.375-.076-.076 0-.144.027-.216.043-.267-.015-.532-.043-.8-.043-9.365 0-16.984 7.626-16.984 17 0 3.962 1.564 7.645 4.614 10.972l-1.597 1.597c-3.243-3.565-5.017-7.992-5.017-12.569 0-10.477 8.523-19 19-19 4.577 0 9.004 1.774 12.569 5.017z"/></g></g></svg>