<svg height="512" viewBox="0 0 64 64" width="512" xmlns="http://www.w3.org/2000/svg"><g id="Layer_31" data-name="Layer 31"><path d="m7 17h9v-4h-11a4 4 0 0 0 -4 4v10a8 8 0 0 0 8 8h7v-4h-7a4 4 0 0 1 -4-4v-8a2 2 0 0 1 2-2z" fill="#7a838b"/><path d="m9.533 17h6.467v-4h-6.733z" fill="#5d6972"/><path d="m16 31h-5.533l.266 4h5.267z" fill="#5d6972"/><path d="m35.258 39h-18.516a4 4 0 0 1 -3.991-3.734l-1.751-26.266h30l-1.751 26.266a4 4 0 0 1 -3.991 3.734z" fill="#a7d0e1"/><path d="m38.258 36h-1.676a22 22 0 0 1 -21.951-20.537l-.431-6.463h-3.2l1.751 26.266a4 4 0 0 0 3.991 3.734h18.516a3.992 3.992 0 0 0 3.888-3.109 4 4 0 0 1 -.888.109z" fill="#80bbce"/><path d="m13 5h26a2 2 0 0 1 2 2v2a0 0 0 0 1 0 0h-30a0 0 0 0 1 0 0v-2a2 2 0 0 1 2-2z" fill="#7a838b"/><path d="m16 5h-3a2 2 0 0 0 -2 2v2h3v-2a2 2 0 0 1 2-2z" fill="#5d6972"/><path d="m23 1h6a2 2 0 0 1 2 2v2a0 0 0 0 1 0 0h-10a0 0 0 0 1 0 0v-2a2 2 0 0 1 2-2z" fill="#7a838b"/><path d="m26 1h-3a2 2 0 0 0 -2 2v2h3v-2a2 2 0 0 1 2-2z" fill="#5d6972"/><path d="m41 63.034h-30l1.7-20.4a4 4 0 0 1 3.986-3.669h18.633a4 4 0 0 1 3.986 3.669z" fill="#7a838b"/><path d="m33.558 60a18 18 0 0 1 -17.938-19.491l.08-.909a3.95 3.95 0 0 1 .1-.56 3.994 3.994 0 0 0 -3.1 3.56l-1.7 20.4h30l-.249-3z" fill="#5d6972"/><circle cx="26" cy="53" fill="#a7d0e1" r="6"/><path d="m28.707 56.293a5.989 5.989 0 0 1 -5.37-8.663 6 6 0 1 0 8.033 8.033 5.952 5.952 0 0 1 -2.663.63z" fill="#80bbce"/><path d="m39 9h8l-8 8z" fill="#a7d0e1"/><path d="m33.657 17a4 4 0 0 0 -2.829 1.172l-2 2a4 4 0 0 1 -5.656 0l-2-2a4 4 0 0 0 -2.829-1.172h-6.81l1.218 18.266a4 4 0 0 0 3.991 3.734h18.516a4 4 0 0 0 3.991-3.734l1.218-18.266z" fill="#f8c460"/><path d="m39.15 35.89a4 4 0 0 1 -3.89 3.11h-18.52a4 4 0 0 1 -3.99-3.73l-1.22-18.27h3.27a21.972 21.972 0 0 0 21.78 19h1.68a3.8 3.8 0 0 0 .89-.11z" fill="#eaac47"/><circle cx="19" cy="28" fill="#f97878" r="3"/><path d="m17.725 25.294a2.993 2.993 0 1 0 3.624 4.551 22.008 22.008 0 0 1 -3.624-4.551z" fill="#ed5d5d"/><path d="m32 27a2.626 2.626 0 0 0 -2 1.038 2.626 2.626 0 0 0 -2-1.038c-1.657 0-3 1.791-3 4s1.343 4 3 4a2.626 2.626 0 0 0 2-1.038 2.626 2.626 0 0 0 2 1.038c1.657 0 3-1.791 3-4s-1.343-4-3-4z" fill="#f97878"/><path d="m25.39 32.935a2.991 2.991 0 0 0 2.61 2.065 2.308 2.308 0 0 0 1.135-.31 21.913 21.913 0 0 1 -3.745-1.755z" fill="#ed5d5d"/><path d="m59.129 63h-12.258a2 2 0 0 1 -2-1.867l-1.871-28.133h20l-1.876 28.133a2 2 0 0 1 -1.995 1.867z" fill="#a7d0e1"/><path d="m61.1 60a14 14 0 0 1 -13.971-13.069l-.929-13.931h-3.2l1.876 28.133a2 2 0 0 0 2 1.867h12.253a2 2 0 0 0 2-1.867l.071-1.133z" fill="#80bbce"/><path d="m60.071 41a5 5 0 0 0 -3.535 1.464 5 5 0 0 1 -7.072 0 5 5 0 0 0 -3.535-1.464h-2.4l1.343 20.133a2 2 0 0 0 2 1.867h12.257a2 2 0 0 0 2-1.867l1.338-20.133z" fill="#f8c460"/><path d="m61.1 60a14 14 0 0 1 -13.971-13.069l-.39-5.851a4.974 4.974 0 0 0 -.81-.08h-2.4l1.343 20.133a1.972 1.972 0 0 0 .308.926c.034.053.065.107.1.157a1.98 1.98 0 0 0 1.591.784h12.258a2 2 0 0 0 2-1.867l.071-1.133z" fill="#eaac47"/><rect fill="#f8c460" height="30" rx="2" width="4" x="51" y="23"/><path d="m38.264 38.963a4.981 4.981 0 0 0 1.983-3.631l1.3-19.462 6.163-6.163a1 1 0 0 0 -.71-1.707h-5v-1a3 3 0 0 0 -3-3h-7v-1a3 3 0 0 0 -3-3h-6a3 3 0 0 0 -3 3v1h-7a3 3 0 0 0 -3 3l.2 5h-5.2a5.006 5.006 0 0 0 -5 5v10a9.01 9.01 0 0 0 9 9h2.863a4.982 4.982 0 0 0 1.873 2.963 4.987 4.987 0 0 0 -2.036 3.589l-1.7 20.398a1 1 0 0 0 1 1.083h30a1 1 0 0 0 1-1.083l-1.7-20.4a4.987 4.987 0 0 0 -2.036-3.587zm3.482-26.123.189-2.84h2.651zm-19.746-9.84a1 1 0 0 1 1-1h6a1 1 0 0 1 1 1v1h-8zm-10 4a1 1 0 0 1 1-1h26a1 1 0 0 1 1 1v1h-3a1 1 0 0 0 0 2h2.931l-.4 6h-5.874a4.968 4.968 0 0 0 -3.535 1.465l-2 2a3.005 3.005 0 0 1 -4.244 0l-2-2a4.968 4.968 0 0 0 -3.535-1.465h-5.874l-.4-6h20.931a1 1 0 0 0 0-2h-21zm-10 20v-10a3 3 0 0 1 3-3h5.331l.134 2h-3.465a3 3 0 0 0 -3 3 1 1 0 0 0 2 0 1 1 0 0 1 1-1h3.6l.8 12h-2.4a3 3 0 0 1 -3-3v-4a1 1 0 0 0 -2 0v4a5.006 5.006 0 0 0 5 5h2.531l.134 2h-2.665a7.008 7.008 0 0 1 -7-7zm11.749 8.2-1.149-17.2h5.741a3.017 3.017 0 0 1 2.121.879l2 2a5.007 5.007 0 0 0 7.072 0l2-2a3.017 3.017 0 0 1 2.123-.879h5.743l-1.149 17.2a3 3 0 0 1 -2.792 2.781h-18.918a3 3 0 0 1 -2.792-2.781zm-1.663 26.833 1.606-19.315a3.012 3.012 0 0 1 2.848-2.738h18.92a3.012 3.012 0 0 1 2.848 2.738l1.606 19.315z"/><path d="m26 46a7 7 0 1 0 7 7 7.008 7.008 0 0 0 -7-7zm0 12a5 5 0 1 1 5-5 5.006 5.006 0 0 1 -5 5z"/><path d="m24.707 50.293a1 1 0 0 0 -1.414 1.414l2 2a1 1 0 0 0 1.414-1.414z"/><path d="m26 45a1 1 0 0 0 1-1v-1a1 1 0 0 0 -2 0v1a1 1 0 0 0 1 1z"/><path d="m20 48a1 1 0 0 0 .707-1.707l-1-1a1 1 0 0 0 -1.414 1.414l1 1a1 1 0 0 0 .707.293z"/><path d="m33.707 45.293a1 1 0 0 0 -1.414 0l-1 1a1 1 0 1 0 1.414 1.414l1-1a1 1 0 0 0 0-1.414z"/><path d="m17 52h-1a1 1 0 0 0 0 2h1a1 1 0 0 0 0-2z"/><path d="m36 52h-1a1 1 0 0 0 0 2h1a1 1 0 0 0 0-2z"/><path d="m23 28a3.962 3.962 0 0 0 -5.339-3.753l-.539-.54a1 1 0 0 1 0-1.414l.586-.586a1 1 0 0 0 -1.414-1.414l-.586.586a3 3 0 0 0 0 4.242l.279.279a3.963 3.963 0 0 0 -.987 2.6 4 4 0 0 0 8 0zm-6 0a2 2 0 1 1 2 2 2 2 0 0 1 -2-2z"/><path d="m28 36a3.383 3.383 0 0 0 2-.673 3.383 3.383 0 0 0 2 .673c2.206 0 4-2.243 4-5s-1.794-5-4-5a3.236 3.236 0 0 0 -1 .162v-1.162a1 1 0 0 1 1-1 1 1 0 0 0 0-2 3 3 0 0 0 -3 3v1.162a3.236 3.236 0 0 0 -1-.162c-2.206 0-4 2.243-4 5s1.794 5 4 5zm0-8a1.668 1.668 0 0 1 1.231.678 1.034 1.034 0 0 0 1.538 0 1.668 1.668 0 0 1 1.231-.678c1.084 0 2 1.374 2 3s-.916 3-2 3a1.668 1.668 0 0 1 -1.231-.678 1 1 0 0 0 -1.538 0 1.668 1.668 0 0 1 -1.231.678c-1.084 0-2-1.374-2-3s.916-3 2-3z"/><path d="m63.73 32.316a1 1 0 0 0 -.73-.316h-7v-7a3 3 0 0 0 -6 0v7h-7a1 1 0 0 0 -1 1.066l1.878 28.134a3.008 3.008 0 0 0 2.993 2.8h12.258a3.008 3.008 0 0 0 2.993-2.8l1.878-28.134a1 1 0 0 0 -.27-.75zm-1.799 1.684-.4 6h-1.46a5.949 5.949 0 0 0 -4.071 1.6v-7.6zm-9.931-9a1 1 0 0 1 2 0v26a1 1 0 0 1 -2 0zm-2 9v7.6a5.953 5.953 0 0 0 -4.071-1.6h-1.46l-.4-6zm10.127 27.066a1 1 0 0 1 -1 .934h-12.256a1 1 0 0 1 -1-.934l-1.271-19.066h1.327a3.97 3.97 0 0 1 2.829 1.173 6.055 6.055 0 0 0 1.244.933v6.894a3 3 0 0 0 6 0v-6.889a6.036 6.036 0 0 0 1.243-.939 3.969 3.969 0 0 1 2.828-1.172h1.329z"/><path d="m59 48a1 1 0 0 0 -1 1v1a1 1 0 0 0 2 0v-1a1 1 0 0 0 -1-1z"/><path d="m48 46v-1a1 1 0 0 0 -2 0v1a1 1 0 0 0 2 0z"/><path d="m48.707 55.293a1 1 0 0 0 -1.414 1.414l1 1a1 1 0 0 0 1.414-1.414z"/><path d="m57 58h-1a1 1 0 0 0 0 2h1a1 1 0 0 0 0-2z"/><g fill="#fff"><path d="m38 12h-3a1 1 0 0 1 0-2h3a1 1 0 0 1 0 2z"/><path d="m61 36h-3a1 1 0 0 1 0-2h3a1 1 0 0 1 0 2z"/></g></g></svg>