<svg height="512" viewBox="0 0 512 512" width="512" xmlns="http://www.w3.org/2000/svg"><g id="filled_outline" data-name="filled outline"><path d="m256 216h-168v96l24 8 8 136h272l8-136 24-8v-96z" fill="#cbcbcb"/><path d="m80 88h352v128h-352z" fill="#eaeae8"/><path d="m296 40h16a48 48 0 0 1 48 48h-24a24 24 0 0 0 -24-24h-16z" fill="#d32b39"/><path d="m256 24a56 56 0 0 1 56 56v8a0 0 0 0 1 0 0h-112a0 0 0 0 1 0 0v-8a56 56 0 0 1 56-56z" fill="#d32b39"/><path d="m216 216h80v32h-80z" fill="#a8a8a8"/><path d="m312 248h48v32h-48z" fill="#a8a8a8"/><path d="m312 248h8v32h-8z" fill="#656666"/><path d="m392 240h56a24 24 0 0 1 24 24 24 24 0 0 1 -24 24h-56z" fill="#422509"/><path d="m200 248h112a0 0 0 0 1 0 0v32a16 16 0 0 1 -16 16h-80a16 16 0 0 1 -16-16v-32a0 0 0 0 1 0 0z" fill="#eaeae8"/><g fill="#fbb540"><path d="m392 240v48h-16l-16-8v-32l16-8z"/><circle cx="296" cy="152" r="24"/><circle cx="376" cy="152" r="24"/></g><path d="m184 368a32 32 0 0 0 -32 32 32 32 0 0 0 32 32h32v-32a8 8 0 0 1 -8 8h-24a8 8 0 0 1 0-16h24a8 8 0 0 1 8 8v-32z" fill="#d32b39"/><path d="m256 368a56 56 0 0 1 56 56v32a0 0 0 0 1 0 0h-112a0 0 0 0 1 0 0v-32a56 56 0 0 1 56-56z" fill="#d32b39" transform="matrix(-1 0 0 -1 512 824)"/><path d="m216 368a8 8 0 0 1 -8-8v-16a24.027 24.027 0 0 1 24-24 8 8 0 0 1 0 16 8.009 8.009 0 0 0 -8 8v16a8 8 0 0 1 -8 8z" fill="#683b0d"/><path d="m296 352a8 8 0 0 1 -8-8 8.009 8.009 0 0 0 -8-8 8 8 0 0 1 0-16 24.027 24.027 0 0 1 24 24 8 8 0 0 1 -8 8z" fill="#683b0d"/><path d="m280 336h-48v-18.041a21.959 21.959 0 0 1 21.959-21.959h4.082a21.959 21.959 0 0 1 21.959 21.959z" fill="#a8a8a8"/><path d="m96 456h320v32h-320z" fill="#eaeae8"/><path d="m296 184a32 32 0 1 0 -32-32 32.036 32.036 0 0 0 32 32zm0-48a16 16 0 1 1 -16 16 16.019 16.019 0 0 1 16-16z"/><path d="m376 184a32 32 0 1 0 -32-32 32.036 32.036 0 0 0 32 32zm0-48a16 16 0 1 1 -16 16 16.019 16.019 0 0 1 16-16z"/><path d="m426.53 319.589a8 8 0 0 0 5.47-7.589v-16h16a32 32 0 0 0 0-64h-16v-8a8 8 0 0 0 8-8v-128a8 8 0 0 0 -8-8h-64.581a56.078 56.078 0 0 0 -55.419-48h-13.736a63.951 63.951 0 0 0 -106.264 48h-112a8 8 0 0 0 -8 8v128a8 8 0 0 0 8 8v88a8 8 0 0 0 5.47 7.589l18.862 6.287 7.184 122.124h-15.516a8 8 0 0 0 -8 8v32a8 8 0 0 0 8 8h320a8 8 0 0 0 8-8v-32a8 8 0 0 0 -8-8h-15.516l7.184-122.124zm37.47-55.589a16.019 16.019 0 0 1 -16 16h-48v-32h48a16.019 16.019 0 0 1 16 16zm-96-11.056 9.889-4.944h6.111v32h-6.111l-9.889-4.944zm48-20.944h-40a7.994 7.994 0 0 0 -3.578.845l-14.311 7.155h-54.111v-16h112zm-144 85.958v2.042h-32v-2.042a13.975 13.975 0 0 1 13.959-13.958h4.082a13.975 13.975 0 0 1 13.959 13.958zm-56-29.958a8.009 8.009 0 0 1 -8-8v-24h96v24a8.009 8.009 0 0 1 -8 8zm8-64h64v16h-64zm96 32h32v16h-32zm31.2-176h-8.209a32.075 32.075 0 0 0 -27.6-23.815 63.735 63.735 0 0 0 -4-8.185h.609a40.071 40.071 0 0 1 39.2 32zm-31.487-6.012a16.105 16.105 0 0 1 6.122 6.012h-5.835c0-2.028-.106-4.032-.291-6.012zm-63.713-41.988a48.054 48.054 0 0 1 48 48h-96a48.054 48.054 0 0 1 48-48zm-168 64h336v112h-336zm31.986 223.53a8 8 0 0 0 -5.456-7.119l-18.53-6.177v-82.234h112v16h-8a8 8 0 0 0 -8 8v32a24.028 24.028 0 0 0 24 24h11.462a29.773 29.773 0 0 0 -3.462 13.958v3.418a24.039 24.039 0 0 0 -16 22.624v16h-24a40 40 0 0 0 0 80h22.093a64.511 64.511 0 0 0 7.643 8h-86.193zm136.014 128.47a48.054 48.054 0 0 1 -48-48v-24h96v24a48.054 48.054 0 0 1 -48 48zm-64-56h-8a8 8 0 0 0 0 16h8.518a63.426 63.426 0 0 0 4.169 16h-12.687a24 24 0 0 1 0-48h8zm216 88h-304v-16h304zm-109.736-32a63.85 63.85 0 0 0 21.736-48v-32a8 8 0 0 0 -8-8h-88v-16a8.009 8.009 0 0 1 8-8h48a8.009 8.009 0 0 1 8 8 8 8 0 0 0 16 0 24.039 24.039 0 0 0 -16-22.624v-3.418a29.773 29.773 0 0 0 -3.462-13.958h11.462a24.039 24.039 0 0 0 22.624-16h39.487l14.311 7.155a7.994 7.994 0 0 0 3.578.845h40v10.234l-18.53 6.177a8 8 0 0 0 -5.456 7.119l-7.557 128.47z"/></g></svg>