<svg id="Capa_1" enable-background="new 0 0 512 512" height="512" viewBox="0 0 512 512" width="512" xmlns="http://www.w3.org/2000/svg"><g><g><g><path d="m134.612 383.753h-66.479c-33.433 0-60.633-27.2-60.633-60.633v-55.121c0-33.433 27.2-60.633 60.633-60.633h66.479c8.579 0 15.534 6.955 15.534 15.534s-6.955 15.534-15.534 15.534h-66.479c-16.302 0-29.565 13.263-29.565 29.565v55.121c0 16.302 13.263 29.565 29.565 29.565h66.479c8.579 0 15.534 6.955 15.534 15.534s-6.955 15.534-15.534 15.534z" fill="#596c76"/></g><path d="m422.605 336.569 80.987-130.968c2.477-4.006-.404-9.176-5.114-9.176h-39.943c-1.75 0-3.436.654-4.728 1.833l-82.844 75.587z" fill="#d5e3f4"/><ellipse cx="258.382" cy="277.519" fill="#e5eef9" rx="175.385" ry="167.869"/><path d="m258.382 109.651c-7.197 0-14.29.425-21.26 1.231 86.835 10.044 154.125 80.815 154.125 166.638s-67.29 156.593-154.125 166.638c6.97.806 14.063 1.231 21.26 1.231 96.862 0 175.385-75.157 175.385-167.869s-78.523-167.869-175.385-167.869z" fill="#d5e3f4"/><path d="m332.072 469.166h-147.38c-11.723 0-21.227-9.504-21.227-21.227 0-11.723 9.504-21.227 21.227-21.227h147.38c11.723 0 21.227 9.504 21.227 21.227 0 11.724-9.504 21.227-21.227 21.227z" fill="#596c76"/><path d="m209.311 138.214h98.145v110.757h-98.145z" fill="#b3ceec"/><path d="m282.1 104.806h-52.783v-35.581c0-14.575 11.816-26.391 26.391-26.391 14.575 0 26.391 11.816 26.391 26.391v35.581z" fill="#596c76"/><path d="m255.709 42.834c-5.218 0-10.078 1.521-14.173 4.134 7.344 4.686 12.218 12.9 12.218 22.257v35.581h28.346v-35.581c0-14.576-11.816-26.391-26.391-26.391z" fill="#465a61"/><path d="m356.302 138.214h-195.84c-2.654 0-4.805-2.151-4.805-4.805v-11.887c0-18.268 14.809-33.078 33.078-33.078h139.296c18.268 0 33.078 14.809 33.078 33.078v11.887c-.002 2.653-2.153 4.805-4.807 4.805z" fill="#596c76"/><path d="m328.029 88.443h-28.346c18.268 0 33.078 14.809 33.078 33.078v11.887c0 2.654-2.151 4.805-4.806 4.805h28.346c2.654 0 4.806-2.151 4.806-4.805v-11.887c0-18.269-14.809-33.078-33.078-33.078z" fill="#465a61"/><path d="m402.676 248.971h-288.589c-2.023 9.22-3.091 18.768-3.091 28.549 0 52.513 30.658 98.351 75.875 122.264h143.021c45.217-23.913 75.875-69.751 75.875-122.264 0-9.782-1.068-19.33-3.091-28.549z" fill="#87523e"/><path d="m209.311 248.971v39.917c0 6.627 5.373 12 12 12h74.145c6.627 0 12-5.373 12-12v-39.917z" fill="#7c4b37"/><path d="m332.072 426.712h-39.685c11.723 0 21.227 9.504 21.227 21.227s-9.504 21.227-21.227 21.227h39.685c11.723 0 21.227-9.504 21.227-21.227s-9.504-21.227-21.227-21.227z" fill="#465a61"/><path d="m402.676 248.971h-13.964c1.661 9.279 2.535 18.816 2.535 28.549 0 43.096-16.972 82.394-44.862 112.116 36.016-25.523 59.382-66.274 59.382-112.116 0-9.782-1.068-19.33-3.091-28.549z" fill="#7c4b37"/></g><path d="m498.478 188.925h-39.943c-3.629 0-7.104 1.347-9.783 3.793l-20.807 18.985c-12.56-29.753-33.138-55.326-59.922-74.552.76-2.374.586-2.746.586-15.63 0-22.374-18.203-40.577-40.578-40.577h-38.429v-11.719c0-18.688-15.204-33.891-33.892-33.891s-33.892 15.203-33.892 33.891v11.719h-33.084c-22.374 0-40.577 18.203-40.577 40.577 0 12.863-.173 13.257.586 15.629-7.442 5.354-14.474 11.259-20.983 17.627-2.961 2.897-3.013 7.646-.116 10.606s7.646 3.012 10.606.116c7.474-7.313 15.699-13.961 24.478-19.786h39.084v95.757h-87.724c-3.522 0-6.571 2.452-7.326 5.893-2.166 9.877-3.265 20.022-3.265 30.156 0 53.45 30.604 102.84 79.869 128.894 1.08.571 2.283.87 3.506.87h143.021c1.223 0 2.426-.299 3.506-.87 49.265-26.054 79.868-75.443 79.868-128.894 0-10.139-1.099-20.284-3.266-30.156-.755-3.441-3.803-5.893-7.325-5.893h-87.721v-95.757h39.082c30.139 19.986 52.255 48.314 63.709 81.222.018.056.026.114.045.171 5.405 15.603 8.476 32.592 8.476 50.413 0 18.88-3.423 37.896-10.649 56.301-.082.209-.138.422-.2.635-14.255 36.049-41.905 66.471-79.028 85.097-1.45-.227-2.894-.341-4.317-.341h-147.382c-1.424 0-2.868.114-4.317.341-55.505-27.849-89.878-82.049-89.878-142.033 0-31.222 9.514-61.172 26.392-86.35 2.307-3.44 1.388-8.1-2.054-10.405s-8.1-1.387-10.405 2.054c-3.699 5.518-7.052 11.211-10.062 17.047h-26.234c-37.569 0-68.133 30.565-68.133 68.133v55.121c0 37.569 30.564 68.134 68.133 68.134h51.062c12.833 14.432 28.023 26.8 45.003 36.597-5.084 5.185-8.234 12.272-8.234 20.09 0 15.84 12.887 28.727 28.728 28.727h147.381c15.84 0 28.727-12.887 28.727-28.727 0-7.818-3.15-14.905-8.234-20.09 24.553-14.166 45.384-33.693 60.728-57.08 6.388-9.736 11.699-20.012 15.94-30.66l47.292-76.479c2.179-3.522 1.089-8.145-2.435-10.323-3.521-2.179-8.145-1.09-10.323 2.435l-23.232 37.569c.49-5.261.731-11.169.731-15.791 0-16.761-2.475-33.85-7.74-50.608l25.195-22.987h37.088l-13.634 22.049c-2.179 3.522-1.089 8.145 2.435 10.323 3.52 2.177 8.144 1.089 10.323-2.435 16.396-26.517 17.066-26.475 17.066-31.412 0-7.458-6.066-13.526-13.522-13.526zm-261.661-119.7c0-10.416 8.475-18.891 18.892-18.891s18.892 8.475 18.892 18.891v11.719h-37.783v-11.719zm159.678 187.246c1.177 6.94 1.771 13.996 1.771 21.049 0 47.293-26.871 91.101-70.261 114.764h-139.247c-43.391-23.662-70.262-67.471-70.262-114.764 0-7.05.595-14.106 1.771-21.049h81.543v32.417c0 10.752 8.748 19.5 19.5 19.5h74.145c10.752 0 19.5-8.748 19.5-19.5v-32.417zm-179.684 0h83.145v32.417c0 2.481-2.019 4.5-4.5 4.5h-74.145c-2.481 0-4.5-2.019-4.5-4.5zm83.144-15h-83.145v-95.757h83.145zm-136.799-110.757v-9.193c0-14.104 11.474-25.577 25.577-25.577h139.296c14.104 0 25.578 11.474 25.578 25.577v9.193c-1.706 0-185.74 0-190.451 0zm-73.512 214.471h-21.511c-12.166 0-22.064-9.898-22.064-22.065v-55.121c0-12.166 9.898-22.064 22.064-22.064h10.334c-1.967 10.357-2.97 20.923-2.97 31.586-.001 23.399 4.853 46.358 14.147 67.664zm17.584 31.068h-39.095c-29.298 0-53.133-23.836-53.133-53.134v-55.121c0-29.298 23.835-53.133 53.133-53.133h19.396c-2.101 5.269-3.939 10.63-5.498 16.068h-13.898c-20.438 0-37.064 16.627-37.064 37.064v55.121c0 20.438 16.627 37.065 37.064 37.065h28.923c3.321 5.95 6.618 11.073 10.173 16.068h-.001zm224.844 85.413h-147.381c-7.569 0-13.728-6.158-13.728-13.727 0-7.684 6.32-13.728 13.728-13.728h147.381c7.449 0 13.727 6.079 13.727 13.728 0 7.569-6.158 13.727-13.727 13.727z"/></g></svg>