<svg id="Filled_Expand" height="512" viewBox="0 0 64 64" width="512" xmlns="http://www.w3.org/2000/svg" data-name="Filled Expand"><path d="m48 23v4h6a2 2 0 0 1 2 2v8a6 6 0 0 1 -6 6h-4v4h4a10 10 0 0 0 10-10v-8a6 6 0 0 0 -6-6z" fill="#b4d203"/><path d="m46 43h4v4h-4z" fill="#a5c100"/><path d="m46 23h4v4h-4z" fill="#a5c100"/><path d="m16 20h32a0 0 0 0 1 0 0v27a9 9 0 0 1 -9 9h-14a9 9 0 0 1 -9-9v-27a0 0 0 0 1 0 0z" fill="#b4d203"/><ellipse cx="32" cy="38" fill="#91550a" rx="7" ry="10" transform="matrix(.707 -.707 .707 .707 -17.498 33.757)"/><path d="m36.95 33.05c-3.9052-3.9052-9.2871-4.855-12.0208-2.1212a11.8976 11.8976 0 0 0 7.0708 7.0712 11.898 11.898 0 0 1 7.0711 7.0711c2.7336-2.7337 1.7839-8.1156-2.1211-12.0211z" fill="#a06416"/><ellipse cx="12.632" cy="51.368" fill="#91550a" rx="7" ry="10" transform="matrix(.707 -.707 .707 .707 -32.623 23.978)"/><path d="m23.1016 52.5205a14.4149 14.4149 0 0 0 -4.1055-7.5166 15.9818 15.9818 0 0 0 -2.9961-2.3516v4.3477a9.0014 9.0014 0 0 0 7.1318 8.8032 9.6742 9.6742 0 0 0 -.0302-3.2827z" fill="#a5c100"/><path d="m17.5818 46.4181c-3.9052-3.9052-9.2871-4.855-12.0208-2.1212a11.8976 11.8976 0 0 0 7.0711 7.071 11.8976 11.8976 0 0 1 7.071 7.0711c2.7337-2.7337 1.7839-8.1156-2.1213-12.0209z" fill="#a06416"/><path d="m54 22h-5v-2a1 1 0 0 0 -1-1h-32a1 1 0 0 0 -1 1v23.2209a11.9977 11.9977 0 0 0 -3.6943-1.3381 7.0891 7.0891 0 0 0 -6.4517 1.7072c-3.12 3.1192-2.168 9.1465 2.1211 13.4351a12.6623 12.6623 0 0 0 8.6309 3.9575 6.6393 6.6393 0 0 0 4.804-1.8366 6.1722 6.1722 0 0 0 1.5433-2.6337 9.8511 9.8511 0 0 0 3.0467.4877h14a10.0131 10.0131 0 0 0 9.9493-9h1.0507a11.0125 11.0125 0 0 0 11-11v-8a7.0078 7.0078 0 0 0 -7-7zm-5 6h5a1.0013 1.0013 0 0 1 1 1v8a5.0059 5.0059 0 0 1 -5 5h-1zm-38.0415 15.8525a11.4016 11.4016 0 0 1 5.9165 3.2725 11.4086 11.4086 0 0 1 3.2725 5.9165 6.0054 6.0054 0 0 1 -.2686 3.3618 12.989 12.989 0 0 0 -6.9053-5.9751 10.9585 10.9585 0 0 1 -6.2182-5.8388 5.4585 5.4585 0 0 1 4.2031-.7369zm-2.5693 11.7583c-2.9411-2.9414-4.0765-6.7552-2.9923-9.2917a12.9789 12.9789 0 0 0 6.8931 5.989 10.9424 10.9424 0 0 1 6.2044 5.8461c-2.4706 1.7758-6.8317.7311-10.1052-2.5434zm30.6108-.6108h-14a7.8745 7.8745 0 0 1 -2.7391-.499 9.3981 9.3981 0 0 0 -.1442-1.8067 13.414 13.414 0 0 0 -3.8276-6.9834 15.299 15.299 0 0 0 -1.2891-1.1409v-23.57h30v26a8.0092 8.0092 0 0 1 -8 8zm20-18a9.01 9.01 0 0 1 -9 9h-1v-2h1a7.0078 7.0078 0 0 0 7-7v-8a3.0033 3.0033 0 0 0 -3-3h-5v-2h5a5.0059 5.0059 0 0 1 5 5z"/><path d="m24.2579 30.19-.015.013-.0212.0185c-3.1192 3.12-2.1675 9.1465 2.1216 13.435a12.6641 12.6641 0 0 0 8.6313 3.9576 6.6485 6.6485 0 0 0 4.7692-1.8051l.0131-.0117.0214-.0192c3.1192-3.12 2.1675-9.1465-2.1216-13.435-4.2728-4.2731-10.2704-5.2315-13.3988-2.1531zm3.4994 12.0525c-2.941-2.9414-4.0765-6.7546-2.9927-9.2913a12.9782 12.9782 0 0 0 6.8936 5.9888 10.9435 10.9435 0 0 1 6.2044 5.847c-2.4679 1.7747-6.8296.7308-10.1053-2.5443zm11.478.8061a12.9772 12.9772 0 0 0 -6.8935-5.9886 10.9444 10.9444 0 0 1 -6.1973-5.83 4.8961 4.8961 0 0 1 2.9038-.876 10.725 10.725 0 0 1 7.1944 3.4033c2.941 2.9414 4.0765 6.7548 2.9926 9.2915z"/><path d="m31.293 16.707a1 1 0 0 0 1.414-1.414 3.2469 3.2469 0 0 1 0-4.586 5.2485 5.2485 0 0 0 0-7.414 1 1 0 0 0 -1.414 1.414 3.2469 3.2469 0 0 1 0 4.586 5.2485 5.2485 0 0 0 0 7.414z"/><path d="m39.293 16.707a1 1 0 0 0 1.414-1.414 3.2469 3.2469 0 0 1 0-4.586 5.2485 5.2485 0 0 0 0-7.414 1 1 0 0 0 -1.414 1.414 3.2469 3.2469 0 0 1 0 4.586 5.2485 5.2485 0 0 0 0 7.414z"/><path d="m23.293 16.707a1 1 0 0 0 1.414-1.414 3.2469 3.2469 0 0 1 0-4.586 5.2485 5.2485 0 0 0 0-7.414 1 1 0 0 0 -1.414 1.414 3.2469 3.2469 0 0 1 0 4.586 5.2485 5.2485 0 0 0 0 7.414z"/></svg>