<svg id="Layer_1" enable-background="new 0 0 512 512" height="512" viewBox="0 0 512 512" width="512" xmlns="http://www.w3.org/2000/svg"><g><g clip-rule="evenodd" fill-rule="evenodd"><path d="m394.673 168.692h66.87c23.613 0 42.974 19.333 42.974 42.974v92.552c0 23.613-19.36 42.974-42.974 42.974h-66.87v-34.583h66.87c4.535 0 8.391-3.855 8.391-8.391v-92.552c0-4.563-3.855-8.391-8.391-8.391h-66.87z" fill="#fc7070"/><path d="m432.289 168.692h29.254c23.613 0 42.974 19.333 42.974 42.974v92.552c0 23.613-19.36 42.974-42.974 42.974h-29.254c23.642 0 42.974-19.36 42.974-42.974v-92.552c0-23.642-19.332-42.974-42.974-42.974z" fill="#d15a63"/><path d="m56.949 446.349c21.118 13.89 49.521 8.022 63.412-13.097 13.89-21.118 8.021-49.493-13.097-63.383-21.487-13.947-56.722-14.655-80.959-8.958-2.976.68-8.816 1.418-10.233 4.309-1.248 2.495.312 8.731.85 11.594 4.509 24.039 19.107 55.56 40.027 69.535z" fill="#95d6a4"/><path d="m85.239 425.287c18.283 32.202 59.188 43.484 91.39 25.2 32.174-18.255 43.484-59.16 25.201-91.362-18.908-32.996-66.304-58.139-102.361-66.303-2.749-.624-9.779-2.552-12.217-1.815-3.316.992-4.365 6.35-5.414 9.354-11.282 33.052-14.344 76.536-3.147 109.986 1.757 5.217 3.855 10.121 6.548 14.94z" fill="#b3e59f"/><path d="m7.513 440.85v25.285c0 12.218 10.006 22.252 22.252 22.252h452.5c12.245 0 22.252-10.035 22.252-22.252v-25.285c0-3.203-2.637-5.84-5.868-5.84h-152.336l-85.579-19.021-66.956 19.021h-180.426c-3.204 0-5.839 2.637-5.839 5.84z" fill="#ffe07d"/><path d="m364.796 396.742v19.758c0 10.176-8.307 18.51-18.482 18.51h-152.536c-10.147 0-18.481-8.334-18.481-18.51v-19.757l-34.753-66.417c0-66.388 0-129.601 0-195.99 0-2.948 2.409-5.329 5.357-5.329h248.317c2.921 0 5.33 2.381 5.33 5.329v195.99z" fill="#fc7070"/><path d="m364.796 396.742v19.758c0 10.176-8.307 18.51-18.482 18.51h-29.227c10.148 0 18.482-8.334 18.482-18.51v-19.757h29.227zm5.527-49.551v-212.856c0-2.948-2.41-5.329-5.357-5.329h29.253c2.921 0 5.33 2.381 5.33 5.329v212.856z" fill="#d15a63"/><path d="m232.047 178.386c23.245 0 42.095 10.233 42.095 22.848v72.908c0 2.92-2.409 5.33-5.357 5.33h-73.503c-2.92 0-5.329-2.41-5.329-5.33 0-24.321 0-48.615 0-72.908-.001-12.615 18.85-22.848 42.094-22.848z" fill="#b3e59f"/><path d="m192.361 330.325c-9.185.113-17.802 4.252-22.847 12.047-3.374 5.159-3.231 4.28-6.436-.539-4.932-7.399-13.748-11.396-22.535-11.509v31.692c0 19.105 15.646 34.725 34.753 34.725h189.499c19.105 0 34.753-15.62 34.753-34.725v-14.826-16.866c-9.185.113-17.773 4.252-22.848 12.047-3.373 5.131-3.147 4.365-6.435-.51-4.989-7.427-13.664-11.424-22.508-11.537-9.185.113-17.802 4.252-22.876 12.019-3.316 5.13-3.175 4.337-6.406-.482-4.989-7.427-13.72-11.424-22.536-11.537-9.155.113-17.772 4.252-22.848 12.019-3.345 5.13-3.175 4.337-6.406-.51-4.988-7.399-13.748-11.396-22.535-11.509-9.185.113-17.745 4.252-22.848 12.019-3.373 5.13-3.175 4.28-6.406-.51-4.988-7.398-13.775-11.394-22.535-11.508z" fill="#ffe07d"/><g fill="#ffd064"><path d="m335.569 396.742h29.227c19.105 0 34.753-15.62 34.753-34.725v-14.826-16.866c-9.185.113-17.773 4.252-22.848 12.047-3.345 5.102-3.147 4.365-6.378-.454v5.272 14.826c0 19.107-15.648 34.726-34.754 34.726z"/><path d="m453.039 488.387h29.225c12.245 0 22.252-10.035 22.252-22.252v-25.285c0-3.203-2.637-5.84-5.868-5.84h-29.225c3.231 0 5.84 2.637 5.84 5.84v25.285c0 12.218-10.007 22.252-22.224 22.252z"/></g></g><path d="m407.032 161.18h54.511c13.89 0 26.504 5.669 35.632 14.825 9.156 9.156 14.825 21.77 14.825 35.66v92.552c0 13.89-5.669 26.504-14.825 35.66-9.128 9.128-21.742 14.797-35.632 14.797h-54.511v7.342c0 11.622-4.734 22.167-12.388 29.82-5.981 5.982-13.72 10.177-22.337 11.736v12.928c0 3.94-.879 7.654-2.467 10.998h134.676c4.139 0 7.483 3.373 7.483 7.512v31.125c0 8.192-3.345 15.619-8.73 21.005-5.386 5.386-12.813 8.731-21.005 8.731h-195.224c-4.139 0-7.512-3.345-7.512-7.483 0-4.167 3.373-7.512 7.512-7.512h195.225c4.054 0 7.738-1.672 10.403-4.337 2.692-2.664 4.337-6.378 4.337-10.403v-23.641c-160.67 0-321.34 0-482.009 0v23.641c0 4.025 1.672 7.711 4.337 10.403 2.692 2.665 6.378 4.337 10.432 4.337h223.287c4.139 0 7.513 3.345 7.513 7.512 0 4.138-3.374 7.483-7.513 7.483h-223.287c-8.192 0-15.647-3.345-21.033-8.731s-8.732-12.841-8.732-21.005v-31.125c0-4.139 3.374-7.512 7.513-7.512h21.797c-4.705-7.228-8.844-15.307-12.217-23.754-4.961-12.331-8.419-25.853-9.241-39.147-.198-3.232 1.729-6.35 4.933-7.483 8.787-3.147 18.453-5.245 28.262-6.265 7.851-.85 15.817-1.021 23.556-.567 1.275-21.203 5.811-43.371 14.286-62.901 1.305-2.976 4.423-4.847 7.796-4.422 9.241 1.19 18.652 3.316 27.922 6.179 6.236 1.928 12.388 4.195 18.454 6.747v-60.832c0-4.139 3.345-7.483 7.483-7.483 4.139 0 7.512 3.345 7.512 7.483v88.641c3.09.68 6.095 1.729 8.929 3.175 3.544 1.814 6.775 4.224 9.497 7.229 2.664-2.948 5.754-5.33 9.184-7.115 5.018-2.665 10.715-4.054 16.611-4.11 5.585 0 11.48 1.418 16.47 3.94 3.571 1.814 6.804 4.252 9.553 7.256 2.637-2.919 5.755-5.301 9.185-7.115 5.018-2.636 10.715-4.025 16.583-4.082 9.666 0 19.474 3.997 25.994 11.197 2.664-2.919 5.782-5.301 9.213-7.086 5.017-2.665 10.715-4.054 16.582-4.11 5.613 0 11.509 1.418 16.498 3.969 3.543 1.842 6.804 4.252 9.524 7.257 2.637-2.948 5.755-5.33 9.185-7.115 5.046-2.665 10.743-4.054 16.583-4.11 5.641 0 11.509 1.418 16.498 3.969 3.543 1.814 6.774 4.252 9.496 7.257 2.664-2.948 5.811-5.33 9.241-7.115 2.862-1.531 5.952-2.636 9.155-3.316 0-62.392 0-124.783 0-187.174h-152.477v34.753c9.921.879 18.879 3.486 25.823 7.257 8.589 4.648 16.215 12.331 16.215 22.734v72.908c0 7.059-5.755 12.841-12.814 12.841h-19.757c-4.139 0-7.483-3.373-7.483-7.512s3.345-7.484 7.483-7.484h17.631v-70.753c0-3.345-3.231-6.747-8.419-9.553-6.576-3.571-15.846-5.782-26.192-5.782-10.347 0-19.615 2.211-26.192 5.782-5.187 2.807-8.391 6.208-8.391 9.553v70.753h17.604c4.139 0 7.483 3.345 7.483 7.484s-3.345 7.512-7.483 7.512h-19.786c-3.515 0-6.746-1.445-9.071-3.77-2.324-2.324-3.741-5.527-3.741-9.071v-72.908c0-9.298 6.208-17.292 16.243-22.734 6.944-3.77 15.902-6.378 25.823-7.257v-34.758h-76.479v64.603c0 4.139-3.373 7.483-7.512 7.483s-7.483-3.345-7.483-7.483v-66.757c0-7.086 5.754-12.841 12.841-12.841h248.317c7.059 0 12.813 5.783 12.813 12.841v26.844zm-202.764-58.451c0 4.139-3.373 7.483-7.513 7.483-4.139 0-7.483-3.345-7.483-7.483 0-6.35 3.033-11.622 6.095-16.923 2.013-3.486 4.054-7.002 4.054-9.44 0-2.466-2.041-5.953-4.054-9.467-3.061-5.272-6.095-10.573-6.095-16.895 0-6.35 3.033-11.623 6.095-16.923 2.013-3.487 4.054-7.002 4.054-9.44 0-4.139 3.345-7.512 7.483-7.512 4.139 0 7.512 3.373 7.512 7.512 0 6.321-3.061 11.622-6.094 16.895-2.041 3.515-4.054 7.002-4.054 9.468 0 2.438 2.013 5.953 4.054 9.439 3.033 5.301 6.094 10.573 6.094 16.923 0 6.322-3.061 11.623-6.094 16.895-2.042 3.515-4.054 7.002-4.054 9.468zm136.432 0c0 4.139-3.373 7.483-7.512 7.483s-7.483-3.345-7.483-7.483c0-6.35 3.033-11.622 6.095-16.923 2.013-3.486 4.025-7.002 4.025-9.44 0-2.466-2.013-5.953-4.025-9.467-3.062-5.272-6.095-10.573-6.095-16.895 0-6.35 3.033-11.623 6.095-16.923 2.013-3.487 4.025-7.002 4.025-9.44 0-4.139 3.373-7.512 7.512-7.512s7.512 3.373 7.512 7.512c0 6.321-3.062 11.622-6.123 16.895-2.013 3.515-4.025 7.002-4.025 9.468 0 2.438 2.013 5.953 4.025 9.439 3.061 5.301 6.123 10.573 6.123 16.923 0 6.322-3.062 11.623-6.123 16.895-2.013 3.515-4.026 7.002-4.026 9.468zm-68.23 0c0 4.139-3.345 7.483-7.483 7.483-4.139 0-7.512-3.345-7.512-7.483 0-6.35 3.062-11.622 6.094-16.923 2.041-3.486 4.054-7.002 4.054-9.44 0-2.466-2.013-5.953-4.054-9.467-3.032-5.272-6.094-10.573-6.094-16.895 0-6.35 3.062-11.623 6.094-16.923 2.041-3.487 4.054-7.002 4.054-9.44 0-4.139 3.345-7.512 7.512-7.512 4.14 0 7.484 3.373 7.484 7.512 0 6.321-3.033 11.622-6.095 16.895-2.013 3.515-4.054 7.002-4.054 9.468 0 2.438 2.041 5.953 4.054 9.439 3.062 5.301 6.095 10.573 6.095 16.923 0 6.322-3.033 11.623-6.095 16.895-2.013 3.515-4.054 7.002-4.054 9.468zm-28.885 103.777c4.138 0 7.483 3.374 7.483 7.512 0 4.139-3.346 7.484-7.483 7.484h-23.075c-4.139 0-7.483-3.345-7.483-7.484 0-4.138 3.345-7.512 7.483-7.512zm0 31.607c4.138 0 7.483 3.373 7.483 7.512s-3.346 7.512-7.483 7.512h-23.075c-4.139 0-7.483-3.373-7.483-7.512s3.345-7.512 7.483-7.512zm-195.849 189.385h30.189c-8.788-16.328-13.323-38.637-13.663-62.221-7.115-.453-14.485-.312-21.686.454-6.662.708-13.153 1.928-19.247 3.685 1.19 9.496 3.883 19.389 7.625 28.772 4.395 10.97 10.206 21.174 16.782 29.31zm47.85 0h74.665c-1.587-3.345-2.466-7.058-2.466-10.998v-12.926c-8.617-1.559-16.357-5.754-22.338-11.736-7.653-7.653-12.387-18.198-12.387-29.82v-49.749c-7.455-3.458-15.138-6.435-22.848-8.815-6.634-2.069-13.267-3.686-19.758-4.819-7.427 19.22-11.169 41.67-11.254 63.129-.085 23.13 4.082 44.901 12.558 59.839 1.135 2.011 2.467 4.024 3.828 5.895zm52.47-88.272v22.791c0 7.483 3.062 14.287 7.993 19.219 4.962 4.961 11.765 8.022 19.248 8.022h189.499c7.483 0 14.286-3.061 19.247-8.022 4.932-4.932 7.993-11.735 7.993-19.219v-14.826-7.965c-.736.284-1.474.624-2.183.992-2.721 1.417-5.102 3.515-6.888 6.236-7.342 11.226-12.104 9.695-18.907-.425-1.701-2.551-4.025-4.507-6.719-5.896-2.92-1.474-6.236-2.268-9.581-2.325-3.458.057-6.804.879-9.723 2.41-2.75 1.446-5.131 3.515-6.86 6.208-6.321 9.667-11.735 10.517-18.17.737-2.098-3.203-3.94-5.216-7.455-7.001-2.92-1.502-6.236-2.296-9.61-2.353-3.43.057-6.774.879-9.694 2.41-2.721 1.417-5.102 3.515-6.888 6.236-7.315 11.197-12.133 9.582-18.88-.454-3.571-5.301-10.091-8.107-16.327-8.192-3.458.057-6.774.879-9.695 2.41-2.721 1.417-5.102 3.515-6.888 6.236-6.265 9.553-11.679 10.545-18.085.793-2.069-3.146-3.94-5.244-7.54-7.058-2.948-1.531-6.294-2.325-9.582-2.381-3.458.057-6.803.879-9.723 2.41-2.75 1.446-5.103 3.543-6.86 6.236-7.256 11.169-12.245 9.525-18.907-.454-1.672-2.495-4.025-4.479-6.689-5.839-.681-.341-1.389-.652-2.126-.936zm34.753 65.028v12.246c0 3.033 1.219 5.783 3.231 7.767 1.984 1.984 4.734 3.231 7.738 3.231h152.535c3.004 0 5.754-1.247 7.767-3.231 1.984-1.984 3.231-4.734 3.231-7.767v-12.246zm224.223-99.158h54.511c.396 0 .879-.482.879-.878v-92.552c0-.425-.482-.907-.879-.907h-54.511zm54.511-128.921h-54.511v19.587h54.511c4.337 0 8.306 1.814 11.196 4.678 2.892 2.891 4.678 6.888 4.678 11.225v92.552c0 4.337-1.785 8.334-4.678 11.197-2.891 2.892-6.859 4.706-11.196 4.706h-54.511v19.559h54.511c9.723 0 18.596-3.997 25.03-10.432 6.435-6.434 10.432-15.279 10.432-25.03v-92.552c0-9.751-3.997-18.624-10.432-25.059-6.434-6.434-15.307-10.431-25.03-10.431z"/></g></svg>