<svg height="512" viewBox="0 0 60 58" width="512" xmlns="http://www.w3.org/2000/svg"><g id="Page-1" fill="none" fill-rule="evenodd"><g id="066---Coffee-Beans" fill-rule="nonzero"><path id="Shape" d="m53.11.99999276-6 47.00000724h-14.6c.8354779-2.2527601.6342144-4.759405-.55-6.85-.2426468-.3783144-.5241767-.7302268-.84-1.05-2.79-2.77-7.79-2.4-11.78.66-.92-3.96-3.28-7.05-6.26-8.24l3.92-30.65c.0626778-.49853749.4875415-.8719026.99-.87z" fill="#ff9801"/><path id="Shape" d="m50.11 1-6 47h3l6-47z" fill="#f57c00"/><path id="Shape" d="m58.99 41.17c.0725492.4781438-.2106199.9388219-.67 1.09l-5.21 1.74-6 4 6-47z" fill="#d84315"/><path id="Shape" d="m23.719 18c-.4981381.0000755-.9202607.3667678-.99.86l-1.72 12c-.0405706.286935.0453261.5773591.2354462.7960643.1901201.2187053.465765.3441816.7555538.3439357h18.24c.4981381-.0000755.9202607-.3667678.99-.86l1.72-12c.040546-.2867621-.0452221-.5770182-.2351184-.7956867-.1898962-.2186684-.4652673-.3442694-.7548816-.3443133z" fill="#a0522d"/><path id="Shape" d="m31.96 41.15h-.01c-2.46 2.34-4.33.56-6.79 3.02-2.51 2.5-.63 4.38-3.14 6.88-2.47 2.46-4.33.68-6.8 3.02-2.07-3.27-1.01-8.38 2.73-12.09.4364844-.436275.9007913-.8437962 1.39-1.22 3.99-3.06 8.99-3.43 11.78-.66.3158233.3197732.5973532.6716856.84 1.05z" fill="#91562d"/><path id="Shape" d="m32.51 48c-.6593658 1.983455-1.7840509 3.7802079-3.28 5.24-4.15 4.15-10.05 4.98-13.17 1.88-.06-.06-.12-.13-.17-.19-.2518193-.2632906-.4763002-.5514302-.67-.86 2.47-2.34 4.33-.56 6.8-3.02 2.51-2.5.63-4.38 3.14-6.88 2.46-2.46 4.33-.68 6.79-3.02h.01c1.1842144 2.090595 1.3854779 4.5972399.55 6.85z" fill="#6d4122"/><path id="Shape" d="m17.95 41.98c-3.74 3.71-4.8 8.82-2.73 12.09.1936998.3085698.4181807.5967094.67.86-1.1458245.9281245-2.4909303 1.5784301-3.93 1.9v-.01c-.1-4-3.14-4.06-3.14-8.15 0-4.17 3.14-4.17 3.14-8.34 0-4.09-3.04-4.15-3.14-8.15.5155119-.1152538 1.04177988-.1755902 1.57-.18.9216845-.0004402 1.8348816.1760886 2.69.52 2.98 1.19 5.34 4.28 6.26 8.24-.4892087.3762038-.9535156.783725-1.39 1.22z" fill="#783e22"/><path id="Shape" d="m8.82 48.67c0 4.09 3.04 4.15 3.14 8.15v.01c-5.88 1.25-10.97-4.76-10.96-12.33-.01-6.18 3.38-11.33 7.82-12.32.1 4 3.14 4.06 3.14 8.15 0 4.17-3.14 4.17-3.14 8.34z" fill="#a0522d"/><path id="Shape" d="m37 24h-10c-.5522847 0-1-.4477153-1-1s.4477153-1 1-1h10c.5522847 0 1 .4477153 1 1s-.4477153 1-1 1z" fill="#ffe0b2"/><path id="Shape" d="m35 28h-7c-.5522847 0-1-.4477153-1-1s.4477153-1 1-1h7c.5522847 0 1 .4477153 1 1s-.4477153 1-1 1z" fill="#ffe0b2"/><g fill="#000"><path id="Shape" d="m36.65 49h10.461c.1105991-.0017035.2201251-.0219861.324-.06.0343278-.0142203.0677271-.0305859.1-.049.0438668-.0161816.0863409-.0359137.127-.059l5.89-3.926 5.078-1.693c.9192425-.3066511 1.4864045-1.2281839 1.346-2.187l-5.876-40.171c0-.027-.021-.048-.027-.075-.0152691-.05946088-.0360248-.117376-.062-.173-.0289708-.07101681-.0665879-.13819032-.112-.2-.0113001-.02340376-.0239894-.04611094-.038-.068-.02-.023-.049-.032-.071-.053-.0602456-.05746681-.1274322-.10718487-.2-.148-.042052-.02420426-.0858384-.04526182-.131-.063-.0791959-.02881438-.1619649-.04664674-.246-.053-.0338639-.00938088-.0682586-.01672734-.103-.022h-35.12c-1.0060153-.00283967-1.8562516.74487069-1.982 1.743l-3.4 26.611c-.069864.5481426.3178574 1.049136.866 1.119s1.049136-.3178574 1.119-.866l3.397-26.607h33.985l-5.746 45h-9.579c-.5522847 0-1 .4477153-1 1s.4477153 1 1 1zm16.528-40.632 4.822 32.948-3.89 1.3v-12.616c0-.5522847-.4477153-1-1-1s-1 .4477153-1 1v13.465l-3.73 2.487z"/><path id="Shape" d="m47 10c.5522847 0 1-.44771525 1-1s-.4477153-1-1-1h-2c-.5522847 0-1 .44771525-1 1s.4477153 1 1 1z"/><path id="Shape" d="m41 10c.5522847 0 1-.44771525 1-1s-.4477153-1-1-1h-2c-.5522847 0-1 .44771525-1 1s.4477153 1 1 1z"/><path id="Shape" d="m35 10c.5522847 0 1-.44771525 1-1s-.4477153-1-1-1h-2c-.5522847 0-1 .44771525-1 1s.4477153 1 1 1z"/><path id="Shape" d="m28.909 10c.5522847 0 1-.44771525 1-1s-.4477153-1-1-1h-2c-.5522847 0-1 .44771525-1 1s.4477153 1 1 1z"/><path id="Shape" d="m20.909 10h2c.5522847 0 1-.44771525 1-1s-.4477153-1-1-1h-2c-.5522847 0-1 .44771525-1 1s.4477153 1 1 1z"/><path id="Shape" d="m42.221 31.281 1.72-12.009c.0785807-.5724307-.0942421-1.1508743-.4739649-1.5863768-.3797229-.4355024-.929236-.6855025-1.5070351-.6856232h-18.241c-.9944999.0039411-1.8364502.734907-1.98 1.719l-1.721 12.009c-.0786044.5726036.0943471 1.1512146.4742935 1.5867536.3799465.435539.9297329.6854147 1.5077065.6852464h18.24c.9944006-.0047224 1.8361988-.7351873 1.981-1.719zm-18.502-12.281h18.24l-1.719 12h-18.24z"/><path id="Shape" d="m17.241 41.275c-2.4764036 2.3354458-3.9359448 5.5504587-4.064 8.952-.0982033 2.0859239.6880618 4.1164988 2.1654277 5.5923417 1.477366 1.4758429 3.5087508 2.2600131 5.5945723 2.1596583 3.4116197-.1189348 6.6415379-1.5670148 9-4.035 2.4746637-2.3332781 3.933773-5.545258 4.063-8.944.0628624-2.084304-.7223157-4.1049827-2.176-5.6-3.513-3.5-10.056-2.652-14.583 1.875zm11.284 11.251c-3.75 3.752-9.027 4.6-11.758 1.885-.054-.054-.091-.12-.142-.176.6405576-.3681643 1.3568025-.5850217 2.094-.634 3.1265965-.243844 5.6118172-2.7248244 5.861-5.851.1245329-2.2429589 1.9186909-4.0319439 4.162-4.15 1.0111972-.0848253 1.9900335-.3976563 2.863-.915.2693095.7386477.4031202 1.5198307.395 2.306-.1430559 2.8658726-1.3881127 5.5655858-3.475 7.535zm1.887-11.718c.053.053.09.119.141.175-.6406833.3680264-1.3568178.5851923-2.094.635-3.1258854.2433647-5.6107626 2.7235774-5.86 5.849-.1221645 2.2456346-1.9181063 4.0376947-4.164 4.155-1.0116089.0843338-1.9908782.3971939-2.864.915-.2696854-.738867-.4031776-1.5205075-.394-2.307.1426114-2.8673463 1.3880674-5.5685812 3.476-7.539 1.9792542-2.0959464 4.6952327-3.3411732 7.575-3.473 1.5512304-.0511655 3.0582519.5215315 4.184 1.59z"/><path id="Shape" d="m8.6 31.2c-5 1.117-8.614 6.711-8.6 13.3-.011 7.433 4.65 13.489 10.393 13.5.6060806.0035914 1.2104019-.0655698 1.8-.206.0746247-.0185111.1470414-.0449969.216-.079.3465839-.1730567.5620378-.530718.553-.918-.0304061-1.6864487-.657125-3.3076279-1.769-4.576-.8937856-.9649282-1.38186224-2.2368638-1.363-3.552-.01519208-1.3190018.4708836-2.5945932 1.36-3.569 2.3533884-2.7381444 2.3533884-6.7848556 0-9.523-.6413865-.7273363-1.0846242-1.6076125-1.287-2.556.166-.014.3283333-.021.487-.021 2.659.009 5.1 1.687 6.7 4.6.2713904.4712703.8696442.6392678 1.3466934.378169s.6579907-.8555657.4073066-1.338169c-1.93-3.52-5.089-5.629-8.451-5.64-.6031954.0006621-1.20448446.0677329-1.793.2zm2.354 9.127c.0162675 1.320756-.4706869 2.5982067-1.362 3.573-2.35353655 2.7384686-2.35353655 6.7855314 0 9.524.642751.7275715 1.0861425 1.6091866 1.287 2.559-.156.013-.316.019-.48.019-4.642-.011-8.408-5.169-8.399-11.502-.008-5.057 2.489-9.545 5.961-11 .26889364 1.210668.83180178 2.3364843 1.639 3.278.8912478.9660786 1.3770787 2.2377598 1.357 3.552z"/></g></g></g></svg>