<svg id="Filloutline" enable-background="new 0 0 128 128" height="512" viewBox="0 0 128 128" width="512" xmlns="http://www.w3.org/2000/svg" xmlns:xlink="http://www.w3.org/1999/xlink"><linearGradient id="lg1"><stop offset=".0399" stop-color="#fb9e4b"/><stop offset=".8094" stop-color="#f37e3e"/></linearGradient><linearGradient id="SVGID_1_" gradientTransform="matrix(-1 0 0 1 -247.066 0)" gradientUnits="userSpaceOnUse" x1="-339.431" x2="-353.392" xlink:href="#lg1" y1="15.5" y2="15.5"/><linearGradient id="SVGID_2_" gradientTransform="matrix(-.81 -.333 -.389 .947 97.996 -152.965)" gradientUnits="userSpaceOnUse" x1="-49.119" x2="-59.105" y1="184.919" y2="181.407"><stop offset="0" stop-color="#93634d"/><stop offset="1" stop-color="#93634d"/></linearGradient><linearGradient id="SVGID_3_" gradientTransform="matrix(-.707 .707 .707 .707 -251.091 404.283)" gradientUnits="userSpaceOnUse" x1="-509.449" x2="-524.246" xlink:href="#lg1" y1="-26.935" y2="-12.137"/><linearGradient id="lg2"><stop offset="0" stop-color="#f1f2f2"/><stop offset="1" stop-color="#e6e7e8"/></linearGradient><linearGradient id="SVGID_4_" gradientTransform="matrix(-1 0 0 1 -247.066 0)" gradientUnits="userSpaceOnUse" x1="-262.066" x2="-293.066" xlink:href="#lg2" y1="82.5" y2="82.5"/><linearGradient id="SVGID_5_" gradientTransform="matrix(.373 .928 .928 -.373 263.6 749.483)" gradientUnits="userSpaceOnUse" x1="-756.771" x2="-752.913" y1="84.078" y2="93.668"><stop offset=".0081" stop-color="#809000"/><stop offset="1" stop-color="#a5b636"/></linearGradient><linearGradient id="SVGID_6_" gradientTransform="matrix(-.928 .373 .373 .928 -287.067 206.184)" gradientUnits="userSpaceOnUse" x1="-382.486" x2="-406.225" y1="-57.059" y2="-47.509"><stop offset=".0081" stop-color="#809000"/><stop offset="1" stop-color="#9ca730"/></linearGradient><linearGradient id="lg3"><stop offset="0" stop-color="#ffd385"/><stop offset=".8238" stop-color="#ff9b34"/></linearGradient><linearGradient id="SVGID_7_" gradientTransform="matrix(-1 0 0 1 -247.066 0)" gradientUnits="userSpaceOnUse" x1="-220.459" x2="-469.312" xlink:href="#lg3" y1="21" y2="21"/><linearGradient id="SVGID_8_" gradientTransform="matrix(-.707 .707 .707 .707 -251.091 404.283)" gradientUnits="userSpaceOnUse" x1="-500.404" x2="-515.201" xlink:href="#lg1" y1="-37.394" y2="-22.597"/><linearGradient id="SVGID_9_" gradientTransform="matrix(-.707 .707 .707 .707 -251.091 404.283)" gradientUnits="userSpaceOnUse" x1="-505.953" x2="-520.532" xlink:href="#lg1" y1="-31.847" y2="-17.268"/><linearGradient id="SVGID_10_" gradientTransform="matrix(-1 0 0 1 -247.066 0)" gradientUnits="userSpaceOnUse" x1="-254.771" x2="-271.8" xlink:href="#lg2" y1="78.5" y2="78.5"/><linearGradient id="SVGID_11_" gradientTransform="matrix(-1 0 0 1 -247.066 0)" gradientUnits="userSpaceOnUse" x1="-276.872" x2="-417.939" xlink:href="#lg3" y1="80" y2="80"/><linearGradient id="SVGID_12_" gradientTransform="matrix(-1 0 0 1 -247.066 0)" gradientUnits="userSpaceOnUse" x1="-288.099" x2="-352.096" xlink:href="#lg2" y1="29" y2="29"/><linearGradient id="SVGID_13_" gradientTransform="matrix(-1 0 0 1 -247.066 0)" gradientUnits="userSpaceOnUse" x1="-291.207" x2="-355.1" xlink:href="#lg2" y1="33" y2="33"/><linearGradient id="SVGID_14_" gradientTransform="matrix(-1 0 0 1 -247.066 0)" gradientUnits="userSpaceOnUse" x1="-290.16" x2="-351.104" xlink:href="#lg2" y1="37" y2="37"/><linearGradient id="lg4"><stop offset="0" stop-color="#ffe785"/><stop offset="1" stop-color="#ffc86a"/></linearGradient><linearGradient id="SVGID_15_" gradientTransform="matrix(-1 0 0 1 -247.066 0)" gradientUnits="userSpaceOnUse" x1="-264.733" x2="-278.852" xlink:href="#lg4" y1="66" y2="66"/><linearGradient id="lg5"><stop offset=".0399" stop-color="#fc9f4b"/><stop offset="1" stop-color="#f68741"/></linearGradient><linearGradient id="SVGID_16_" gradientTransform="matrix(-1 0 0 1 -247.066 0)" gradientUnits="userSpaceOnUse" x1="-360.236" x2="-383.717" xlink:href="#lg5" y1="66" y2="66"/><linearGradient id="SVGID_17_" gradientTransform="matrix(-1 0 0 1 -247.066 0)" gradientUnits="userSpaceOnUse" x1="-278.733" x2="-292.852" xlink:href="#lg4" y1="94" y2="94"/><linearGradient id="SVGID_18_" gradientTransform="matrix(-1 0 0 1 -247.066 0)" gradientUnits="userSpaceOnUse" x1="-374.236" x2="-397.717" xlink:href="#lg5" y1="94" y2="94"/><linearGradient id="lg6"><stop offset=".0399" stop-color="#fb9e4b"/><stop offset="1" stop-color="#f58641"/></linearGradient><linearGradient id="SVGID_19_" gradientTransform="matrix(-1 0 0 1 -247.066 0)" gradientUnits="userSpaceOnUse" x1="-292.864" x2="-309.274" xlink:href="#lg6" y1="48" y2="48"/><linearGradient id="SVGID_20_" gradientTransform="matrix(-1 0 0 1 -247.066 0)" gradientUnits="userSpaceOnUse" x1="-309.26" x2="-325.671" xlink:href="#lg6" y1="68" y2="68"/><linearGradient id="SVGID_21_" gradientTransform="matrix(-1 0 0 1 -247.066 0)" gradientUnits="userSpaceOnUse" x1="-208.552" x2="-224.962" xlink:href="#lg6" y1="88" y2="88"/><linearGradient id="SVGID_22_" gradientTransform="matrix(-1 0 0 1 -247.066 0)" gradientUnits="userSpaceOnUse" x1="-201.476" x2="-217.886" xlink:href="#lg6" y1="106" y2="106"/><linearGradient id="SVGID_23_" gradientTransform="matrix(-1 0 0 1 -247.066 0)" gradientUnits="userSpaceOnUse" x1="-221.755" x2="-238.166" xlink:href="#lg6" y1="115" y2="115"/><g><g><path d="m83 20h4c1.105 0 2-.895 2-2v-5c0-1.105-.895-2-2-2h-4c-1.105 0-2 .895-2 2v5c0 1.105.895 2 2 2z" fill="url(#SVGID_1_)"/><path d="m70 71 6 4 30-70-6-3z" fill="url(#SVGID_2_)"/><path d="m102.003 29.996 3-3c1.146-1.167 1.479-2.479 0-4l-3-3c-1.396-1.5-2.916-1.146-4 0l-3 3c-1.187 1.042-1.479 2.458 0 4l3 3c1.354 1.355 2.646 1.334 4 0z" fill="url(#SVGID_3_)"/><g><path d="m45 114v-10l-17-2c-2.019-.233-3-1.989-3-4.021v-32.038c0-1.993 1.041-3.656 3-3.941l18-1v-10l-19 1c-7.066.815-12 6.827-12 13.941v32.038c0 7.114 4.934 13.206 12 14.021z" fill="url(#SVGID_4_)"/></g><g><path d="m48 13.995c4.875 8.25 10.792 8.708 17 4-2.375-6.931-8.5-9.479-17-4z" fill="url(#SVGID_5_)"/></g><g><path d="m67 2c-8.25 4.875-8.708 10.792-4 17 6.931-2.375 9.479-8.5 4-17z" fill="url(#SVGID_6_)"/></g><path d="m85 18c3.923 0 8.692.763 10 5 0 0 5.035 1.115 5.035 8h-51c0-7.944 4.965-8 4.965-8 1.308-4.766 8-5 8-5 2.615-5.826 14-7 14-7 0 1.571.518 2.642 2 3 5.361 1.295 7 2.035 7 4z" fill="url(#SVGID_7_)"/><path d="m56.003 28.996 3-3c1.146-1.167 1.479-2.479 0-4l-3-3c-1.396-1.5-2.916-1.146-4 0l-3 3c-1.187 1.042-1.479 2.458 0 4l3 3c1.354 1.355 2.646 1.334 4 0z" fill="url(#SVGID_8_)"/><path d="m76.003 27.997 2-2c1.172-1.172 1.5-2.609 0-4l-2-2c-1.549-1.475-2.828-1.172-4 0l-2 2c-1.172 1.172-1.494 2.388 0 4l2 2c1.494 1.494 2.829 1.171 4 0z" fill="url(#SVGID_9_)"/><path d="m44.033 43v-12h61v12c9 4 8 13.582 8 18l-.031 48c0 9.389-7.611 17-17 17h-43c-9.389 0-17-7.611-17-17l.031-48c0-4.418-1-14 8-18z" fill="url(#SVGID_10_)"/><path d="m49 46v-7h51v7c8 3 8 10 8 16v45c0 9.389-8.576 14-17.965 14h-32c-9.389 0-17.035-4.611-17.035-14v-45c0-6 0-13 8-16z" fill="url(#SVGID_11_)"/><path d="m43.033 31h63c1.105 0 2-.895 2-2 0-1.105-.895-2-2-2h-63c-1.105 0-2 .895-2 2 0 1.105.895 2 2 2z" fill="url(#SVGID_12_)"/><path d="m43 35h63c1.105 0 2-.895 2-2 0-1.105-.895-2-2-2h-63c-1.105 0-2 .895-2 2 0 1.105.895 2 2 2z" fill="url(#SVGID_13_)"/><path d="m43 39h63c1.105 0 2-.895 2-2 0-1.105-.895-2-2-2h-63c-1.105 0-2 .895-2 2 0 1.105.895 2 2 2z" fill="url(#SVGID_14_)"/><g><circle cx="67" cy="66" fill="url(#SVGID_15_)" r="21"/><circle cx="67" cy="66" fill="url(#SVGID_16_)" r="17"/></g><g><circle cx="81" cy="94" fill="url(#SVGID_17_)" r="21"/><circle cx="81" cy="94" fill="url(#SVGID_18_)" r="17"/></g><g><circle cx="90" cy="48" fill="url(#SVGID_19_)" r="2"/><circle cx="100" cy="68" fill="url(#SVGID_20_)" r="2"/><circle cx="51" cy="88" fill="url(#SVGID_21_)" r="2"/><circle cx="49" cy="106" fill="url(#SVGID_22_)" r="2"/><circle cx="60" cy="115" fill="url(#SVGID_23_)" r="2"/></g></g><g fill="#3a322b"><path d="m106.033 42.364v-2.368c1.639-.018 2.967-1.353 2.967-2.996 0-.768-.29-1.469-.766-2 .476-.531.766-1.232.766-2 0-.759-.283-1.453-.749-1.981.485-.533.782-1.242.782-2.019 0-1.399-.967-2.568-2.265-2.898.48-1.271.141-2.58-1.058-3.812l-2.975-2.974c-.461-.495-.922-.806-1.353-1.004l5.536-12.917c.209-.487.002-1.052-.472-1.289l-6-3c-.246-.122-.529-.138-.789-.045-.258.094-.466.29-.575.541l-7.23 16.629c-.565-.257-1.182-.474-1.853-.65v-4.581c0-1.654-1.346-3-3-3h-4c-1.654 0-3 1.346-3 3v.469c-.557-.144-1.139-.29-1.766-.441-.76-.184-1.233-.588-1.233-2.028 0-.283-.12-.553-.33-.743-.21-.189-.491-.282-.772-.252-.205.021-2.346.255-4.971.981.166-2.879-.858-6.073-3.086-9.529-.292-.451-.888-.593-1.35-.319-4.084 2.413-6.525 5.217-7.258 8.332-.072.308-.122.619-.161.932-2.579-.738-6.419-.598-11.615 2.752-.451.291-.592.887-.319 1.349 1.073 1.815 2.242 3.3 3.477 4.467l-2.272 2.274c-.838.734-1.301 1.614-1.341 2.544-.032.75.205 1.489.711 2.211h-4.68c-1.654 0-3 1.346-3 3 0 .759.283 1.453.749 1.981-.485.535-.782 1.243-.782 2.02 0 .768.29 1.469.766 2-.476.531-.766 1.232-.766 2 0 1.654 1.346 3 3 3h.033v2.364c-3.99 1.965-6.004 5.009-7.022 8.16l-9.126.482c-7.466.862-12.885 7.142-12.885 14.935v32.038c0 7.839 5.419 14.153 12.89 15.015l8.827.981c2.165 7.51 9.087 13.025 17.285 13.025h43c9.925 0 18-8.075 18-18l.031-48c0-.367.007-.77.015-1.202.081-4.706.232-13.371-8.015-17.434zm-1.747-18.67c.853.877.924 1.52.273 2.306h-4.633c-.902-1.761-2.17-2.786-3.169-3.344l1.973-1.973c.416-.44.875-.683 1.293-.683h.004c.408.001.826.229 1.269.704zm-3.79-20.328 4.213 2.106-5.405 12.612c-.724.168-1.422.584-2.008 1.205l-1.977 1.977c-.439-.774-1.012-1.449-1.73-2.013zm-18.496 9.634c0-.551.448-1 1-1h4c.552 0 1 .449 1 1v4.188c-.671-.087-1.372-.151-2.123-.175-.393-1.448-1.742-2.267-3.877-2.966zm-4.234 1.972c5.292 1.278 6.234 1.904 6.234 3.028 0 .552.447 1 1 1 5.194 0 8.152 1.405 9.045 4.295.006.019.017.034.024.053.008.021.019.04.028.061.047.103.108.197.185.278.005.005.007.013.012.018.002.002.005.003.007.004.087.086.19.152.304.201.019.008.037.014.056.021.04.015.078.035.12.044.019.005 1.574.397 2.798 2.025h-18.277c.475-.674.719-1.388.706-2.103-.018-.949-.464-1.835-1.298-2.608l-2.018-2.017c-1.777-1.691-3.692-1.685-5.396.017l-2 2c-1.511 1.512-1.707 3.087-.572 4.71h-8.425c1.086-1.541.895-3.186-.589-4.71l-1.417-1.417c1.843-.784 3.724-.872 3.746-.873.379-.015.718-.244.873-.589 1.919-4.274 9.441-5.84 12.185-6.275.281 1.524 1.174 2.476 2.669 2.837zm-6.345 11.028-.684-.683c-1.079-1.165-.868-1.771-.026-2.613l2-2c.943-.942 1.602-.938 2.586 0l2.027 2.026c.447.415.678.82.686 1.205.01.521-.383 1.024-.713 1.354l-.711.711zm-10.24-16.072c.555-2.359 2.401-4.561 5.494-6.553 1.803 3.054 2.538 5.884 2.171 8.269-2.473.887-5.032 2.223-6.661 4.204-1.086-2.111-1.432-4.098-1.004-5.92zm-11.805 4.392c3.717-2.2 7.033-2.801 9.684-1.796.161 1.5.672 3.047 1.543 4.632-1.013.165-2.443.506-3.813 1.215l-.054-.054c-1.008-1.083-2.024-1.313-2.7-1.315-.004 0-.008 0-.012 0-.663 0-1.321.23-1.923.628-.948-.876-1.863-1.974-2.725-3.31zm.349 10.984c-.343-.357-.747-.895-.724-1.43.016-.376.238-.755.709-1.171l3.02-3.02c.416-.44.875-.683 1.293-.683h.004c.408.001.826.229 1.269.704l2.99 2.99c.94.966.94 1.647.01 2.596l-.711.71h-7.165zm-6.692 2.696h63c.552 0 1 .449 1 1s-.448 1-1.033 1h-62.967c-.552 0-1-.449-1-1s.448-1 1-1zm0 4h62.967c.552 0 1 .449 1 1s-.448 1-1 1h-63c-.552 0-1-.449-1-1s.448-1 1.033-1zm-1.033 5c0-.551.448-1 1-1h63c.552 0 1 .449 1 1s-.448 1-1 1h-63c-.552 0-1-.449-1-1zm57.648 9.937c7.352 2.756 7.352 9.013 7.352 15.063v45c0 8.98-8.521 13-16.965 13h-32c-7.752 0-16.035-3.415-16.035-13v-45c0-6.05 0-12.307 7.352-15.063.389-.147.648-.52.648-.937v-6h49v6c0 .417.259.79.648.937zm-64.641 54.88-6.892-.811c-1.963-.226-2.115-2.374-2.115-3.027v-32.038c0-.619.154-2.662 2.056-2.942l6.977-.388zm-7.893 9.19c-6.439-.744-11.114-6.223-11.114-13.028v-32.038c0-6.76 4.675-12.205 11.053-12.942l8.433-.444c-.537 2.687-.501 5.303-.467 7.243.005.292.007.548.01.81l-7.172.402c-2.343.341-3.857 2.276-3.857 4.931v32.038c0 2.774 1.525 4.743 3.883 5.015l7.122.838-.003 5.168c0 .994.102 1.962.258 2.912zm84.934-51.244c-.008.445-.015.859-.015 1.236l-.031 48c0 8.822-7.178 16-16 16h-43c-8.822 0-16-7.178-16-16l.031-48c0-.377-.007-.792-.015-1.237-.081-4.658-.216-12.455 7.421-15.85.361-.16.594-.519.594-.914v-3h2.967v5.322c-8.001 3.375-8 10.736-8 16.68v45c0 9.112 7.079 15 18.035 15h32c9.439 0 18.965-4.638 18.965-15v-45c0-5.944.001-13.305-8-16.678v-5.322h3.033v3c0 .395.232.753.594.914 7.637 3.394 7.502 11.191 7.421 15.849z"/><path d="m87.793 73.078c.785-2.295 1.207-4.668 1.207-7.078 0-12.131-9.869-22-22-22s-22 9.869-22 22c0 9.528 6.197 17.951 15.189 20.881-.767 2.234-1.189 4.628-1.189 7.119 0 12.131 9.869 22 22 22s22-9.869 22-22c0-9.76-6.391-18.052-15.207-20.922zm-40.793-7.078c0-11.028 8.972-20 20-20s20 8.972 20 20c0 2.23-.397 4.425-1.137 6.548-.655-.148-1.32-.267-1.995-.355.738-1.994 1.132-4.068 1.132-6.193 0-9.925-8.075-18-18-18s-18 8.075-18 18c0 7.939 5.32 14.971 12.828 17.228-.328.581-.628 1.177-.903 1.789-8.238-2.627-13.925-10.315-13.925-19.017zm15.942 15.456c-2.657-.697-5.023-2.058-6.936-3.883l9.994-9.28v9.634c-1.139 1.064-2.165 2.247-3.058 3.529zm16.433-25.583c2.064 2.518 3.359 5.678 3.574 9.127h-13.402zm-11.375 7.833v-13.655c3.867.241 7.361 1.853 10.005 4.365zm-2 .001-10.005-9.291c2.644-2.513 6.138-4.124 10.005-4.365zm-11.375-7.834 9.828 9.127h-13.402c.215-3.449 1.51-6.609 3.574-9.127zm9.828 11.127-9.813 9.112c-2.079-2.541-3.38-5.712-3.596-9.112zm3.547 1.294 5.435 5.047c-1.957.719-3.783 1.711-5.435 2.926zm7.645 4.368-6.098-5.662h13.399c-.109 1.722-.496 3.403-1.159 5.02-.261-.009-.523-.02-.787-.02-1.847 0-3.64.232-5.355.662zm5.355 41.338c-11.028 0-20-8.972-20-20s8.972-20 20-20 20 8.972 20 20-8.972 20-20 20z"/><path d="m90 51c1.654 0 3-1.346 3-3s-1.346-3-3-3-3 1.346-3 3 1.346 3 3 3zm0-4c.552 0 1 .449 1 1s-.448 1-1 1-1-.449-1-1 .448-1 1-1z"/><path d="m97 68c0 1.654 1.346 3 3 3s3-1.346 3-3-1.346-3-3-3-3 1.346-3 3zm3-1c.552 0 1 .449 1 1s-.448 1-1 1-1-.449-1-1 .448-1 1-1z"/><path d="m51 85c-1.654 0-3 1.346-3 3s1.346 3 3 3 3-1.346 3-3-1.346-3-3-3zm0 4c-.552 0-1-.449-1-1s.448-1 1-1 1 .449 1 1-.448 1-1 1z"/><path d="m49 103c-1.654 0-3 1.346-3 3s1.346 3 3 3 3-1.346 3-3-1.346-3-3-3zm0 4c-.552 0-1-.449-1-1s.448-1 1-1 1 .449 1 1-.448 1-1 1z"/><path d="m60 112c-1.654 0-3 1.346-3 3s1.346 3 3 3 3-1.346 3-3-1.346-3-3-3zm0 4c-.552 0-1-.449-1-1s.448-1 1-1 1 .449 1 1-.448 1-1 1z"/><path d="m81 76c-9.925 0-18 8.075-18 18s8.075 18 18 18 18-8.075 18-18-8.075-18-18-18zm1 2.051c3.867.241 7.361 1.853 10.005 4.365l-10.005 9.29zm-2 13.655-10.005-9.291c2.644-2.513 6.138-4.124 10.005-4.365zm-1.547 1.294h-13.402c.215-3.449 1.51-6.609 3.574-9.127zm0 2-9.828 9.127c-2.064-2.518-3.359-5.678-3.574-9.127zm1.547 1.294v13.656c-3.867-.241-7.361-1.853-10.005-4.365zm2 0 10.005 9.291c-2.644 2.513-6.138 4.124-10.005 4.365zm1.547-1.294h13.402c-.215 3.449-1.51 6.609-3.574 9.127zm0-2 9.828-9.127c2.064 2.518 3.359 5.678 3.574 9.127z"/></g></g></svg>