<svg id="Capa_1" enable-background="new 0 0 512 512" height="512" viewBox="0 0 512 512" width="512" xmlns="http://www.w3.org/2000/svg"><g><g><path clip-rule="evenodd" d="m227.263 457.831h.114.114c116.121 0 211.232-107.094 219.409-242.821.369-6.044-1.959-19.24-16.893-19.24l-202.629.255h-190.678c-12.748 0-29.754-3.036-29.186 11.975 5.252 139.048 101.641 249.831 219.749 249.831z" fill="#fece85" fill-rule="evenodd"/></g><g><path clip-rule="evenodd" d="m306.815 401.56c-5.593 14.387-14.707 25.114-25.354 32.123 10.648-7.01 19.761-17.736 25.354-32.123zm83.13-186.55c-4.543 75.568-36.057 142.253-83.13 186.55-13.458 12.628-28.164 23.439-43.893 32.123h18.54 38.414c62.177-34.279 108.625-102.072 122.963-183.882 1.987-11.351 3.35-22.957 4.06-34.79.369-6.044-1.959-19.24-16.893-19.24l-55.136.085c13.315 1.021 15.416 13.365 15.075 19.154z" fill="#fdb440" fill-rule="evenodd"/></g><g><path clip-rule="evenodd" d="m149.839 384.106c-5.423 28.519 5.678 48.156 21.038 57.038 5.423 3.121 11.357 4.909 17.319 5.306h.142c5.224.312 10.448-.482 15.331-2.44 4.599-1.816 16.208-11.091 12.18-8.201 9.514-6.824 5.131-53.82-13.685-71.623l-.909-.653-37.59-26.93c-2.356-1.703-4.685-.766-5.224 2.072z" fill="#4fc122" fill-rule="evenodd"/></g><g><path clip-rule="evenodd" d="m231.663 331.042c-14.309 9.762-23.906 21.254-29.499 33.144-9.681 20.46-7.609 42.111 2.158 58.173 3.095 5.108 6.984 9.677 11.527 13.451 2.442 2.043 5.11 3.831 7.921 5.392 35.915 19.779 93.266-6.754 88.695-77.242l-4.372-67.367c-.256-4.228-3.492-5.988-7.183-3.973l-59.281 32.35c-3.549 1.928-6.871 3.972-9.966 6.072z" fill="#80d261" fill-rule="evenodd"/></g><g><path clip-rule="evenodd" d="m286.374 300.536 3.237 50.057c3.549 54.512-29.981 82.747-61.978 83.57-3.265.085-6.558-.113-9.767-.624-1.959-.284-3.89-.709-5.82-1.22 1.221 1.22 2.498 2.384 3.804 3.49 2.442 2.043 5.11 3.831 7.921 5.392 35.915 19.779 93.266-6.754 88.695-77.242l-4.372-67.367c-.256-4.228-3.492-5.988-7.183-3.973z" fill="#4fc122" fill-rule="evenodd"/></g><g><path clip-rule="evenodd" d="m181.212 366.087c-9.653 20.46-7.581 42.111 2.186 58.173 1.164 1.93 2.47 3.802 3.861 5.562.88 1.107 1.789 2.185 2.754 3.235 1.533 1.646 3.18 3.207 4.912 4.654 2.442 2.043 5.11 3.831 7.921 5.392.426.255.88.482 1.334.709 4.401-1.844 8.347-4.597 11.669-8.002-1.306-1.107-2.584-2.27-3.804-3.49-2.924-2.98-5.536-6.328-7.722-9.96-.852-1.39-1.618-2.809-2.356-4.257-7.666-15.522-8.631-35.216.199-53.916l-.909-.653-12.975-9.279c-2.811 3.858-5.168 7.831-7.07 11.832z" fill="#44a91f" fill-rule="evenodd"/></g><g><path clip-rule="evenodd" d="m33.066 433.682h394.981c2.3 0 4.202 1.901 4.202 4.2v25.397c0 10.301-8.432 18.7-18.71 18.7h-365.965c-10.306 0-18.71-8.4-18.71-18.7v-25.397c0-2.299 1.874-4.2 4.202-4.2z" fill="#f8f2f0" fill-rule="evenodd"/></g><g><path clip-rule="evenodd" d="m428.046 433.682h-56.953c2.3 0 4.202 1.901 4.202 4.2v25.397c0 10.301-8.432 18.7-18.738 18.7h56.981c10.278 0 18.71-8.4 18.71-18.7v-25.397c0-2.299-1.902-4.2-4.202-4.2z" fill="#d6dcea" fill-rule="evenodd"/></g><g><path clip-rule="evenodd" d="m81.7 239.329c-4.259 0-7.751 3.49-7.751 7.719v59.96c0 4.257 3.492 7.719 7.751 7.719h37.59c4.259 0 7.722-3.462 7.722-7.719v-59.96c0-4.228-3.464-7.719-7.722-7.719h-18.795z" fill="#f8f2f0" fill-rule="evenodd"/></g><g><path clip-rule="evenodd" d="m105.18 247.047v59.96c0 4.257-3.464 7.719-7.722 7.719h21.833c4.259 0 7.722-3.462 7.722-7.719v-59.96c0-4.228-3.464-7.719-7.722-7.719h-18.795-3.038c4.258.001 7.722 3.491 7.722 7.719z" fill="#d6dcea" fill-rule="evenodd"/></g><g><path d="m501.96 253.251c-9.776-13.582-29.53-21.542-49.676-15.785.949-7.258 1.654-14.595 2.1-21.998.175-2.863.206-12.779-6.727-20.149-3.024-3.215-8.542-7.047-17.66-7.047l-176.026.198c-4.142.005-7.496 3.366-7.491 7.508.005 4.138 3.361 7.491 7.499 7.491h.008l176.019-.198c3.054 0 5.255.761 6.728 2.326 2.391 2.543 2.81 6.827 2.679 8.964-3.076 51.103-18.922 98.876-44.402 137.932-.19.254-.362.524-.52.803-20.102 30.56-46.127 55.727-76.565 72.888h-13.812c11.871-16.323 17.433-37.971 15.831-62.702l-1.25-19.536-3.117-47.791c-.273-4.622-2.511-8.427-6.139-10.439-3.632-2.013-8.046-1.898-12.118.319l-59.288 32.348c-16.913 9.234-29.941 21.122-38.406 34.761l-31.58-22.624c-3.245-2.338-7.055-2.9-10.454-1.548-3.395 1.353-5.77 4.379-6.517 8.306l-8.608 45.433c-3.099 16.318-1.408 31.265 4.689 43.474h-10.331c-71.637-40.4-118.256-123.906-121.82-218.465-.052-1.378.145-2.429.525-2.812 1.93-1.939 10.294-1.668 15.29-1.509 1.938.063 3.943.128 5.877.128h56.296v28.305h-11.294c-8.409 0-15.251 6.827-15.251 15.217v59.96c0 8.392 6.841 15.218 15.251 15.218h37.59c8.393 0 15.222-6.827 15.222-15.218v-59.96c0-8.391-6.828-15.217-15.222-15.217h-11.296v-28.305h109.133c4.142 0 7.499-3.357 7.499-7.499s-3.358-7.499-7.499-7.499h-180.427c-1.692 0-3.489-.059-5.392-.12-9.319-.302-19.881-.643-26.41 5.922-3.456 3.475-5.097 8.171-4.878 13.955 1.874 49.74 15.328 97.76 38.905 138.87 18.404 32.089 42.368 59.01 70.149 79.03h-76.008c-6.452 0-11.701 5.249-11.701 11.699v25.397c0 14.447 11.757 26.2 26.209 26.2h165.238c4.142 0 7.499-3.357 7.499-7.499s-3.358-7.499-7.499-7.499h-165.238c-6.182 0-11.21-5.025-11.21-11.201v-22.098h98.514 26.51c.013 0 .026.002.04.002s.028-.002.042-.002h125.373c.012 0 .024.002.036.002.008 0 .015-.002.023-.002h32.974 104.874v22.098c0 6.176-5.029 11.201-11.211 11.201h-164.926c-4.142 0-7.499 3.357-7.499 7.499s3.358 7.499 7.499 7.499h164.925c14.452 0 26.21-11.753 26.21-26.2v-25.397c0-6.451-5.25-11.699-11.701-11.699h-82.347c22.74-16.372 42.626-37.163 58.979-61.204 5.568.609 10.997.92 16.268.92 35.901-.002 64.457-13.98 80.021-39.797 14.331-23.774 14.74-53.729.992-72.854zm-382.447-6.204v59.96c0 .115-.106.22-.223.22h-37.59c-.133 0-.252-.123-.252-.22v-59.96c0-.07.119-.219.252-.219h37.59c.111 0 .223.127.223.219zm125.707 84.5 55.656-30.365 2.852 43.73 1.25 19.532c1.694 26.166-5.718 47.963-20.905 61.738h-36.441l13.806-35.224 23.536-10.28c3.796-1.658 5.529-6.079 3.871-9.874s-6.077-5.527-9.874-3.871l-9.792 4.277 4.728-12.064c1.512-3.856-.389-8.208-4.245-9.719-3.859-1.513-8.208.39-9.719 4.245l-15.766 40.225-4.28-9.788c-1.659-3.796-6.082-5.527-9.876-3.867-3.795 1.66-5.526 6.081-3.866 9.876l10.284 23.52-4.917 12.544h-14.953c-9.998-10.684-14.744-25.963-12.749-41.47.755-5.872 2.433-11.564 4.969-17.007.107-.203.206-.409.294-.618 6.689-13.948 19.058-26.216 36.137-35.54zm-88.015 53.958 7.391-39.01 28.319 20.289c-1.926 5.17-3.265 10.521-3.971 16.015-1.987 15.447 1.292 30.78 8.926 43.384h-33.026c-8.022-10.037-10.744-24.334-7.639-40.678zm330.917-67.146c-8.28 13.736-28.661 35.099-74.375 32.347 17.005-28.698 29.274-61.296 35.805-96.079 15.852-8.089 32.901-2.804 40.233 7.382 10.181 14.165 9.483 37.863-1.663 56.35z"/><path d="m125.529 130.127c-2.857 2.999-2.741 7.745.258 10.603 1.452 1.383 3.313 2.069 5.171 2.069 1.98 0 3.957-.78 5.431-2.327 14.962-15.707 7.96-29.205 3.328-38.138-4.716-9.094-7.084-13.659 2.447-22.685 3.007-2.848 3.135-7.595.288-10.602-2.849-3.009-7.595-3.136-10.602-.288-17.73 16.794-10.338 31.048-5.447 40.48 4.464 8.609 6.706 12.931-.874 20.888z"/><path d="m215.533 85.912c-2.859 2.997-2.746 7.743.251 10.603 1.452 1.385 3.315 2.072 5.175 2.072 1.979 0 3.954-.778 5.428-2.324 14.962-15.688 7.968-29.18 3.339-38.108-4.714-9.092-7.08-13.656 2.465-22.686 3.009-2.846 3.14-7.593.293-10.602-2.847-3.01-7.593-3.14-10.602-.294-17.753 16.797-10.362 31.053-5.471 40.486 4.457 8.598 6.694 12.914-.878 20.853z"/><path d="m313.852 132.11c-2.858 2.997-2.746 7.743.252 10.603 1.452 1.385 3.314 2.072 5.174 2.072 1.978 0 3.955-.778 5.428-2.324 14.962-15.689 7.972-29.182 3.346-38.111-4.711-9.093-7.075-13.657 2.459-22.686 3.008-2.848 3.136-7.595.288-10.602-2.848-3.009-7.595-3.135-10.602-.288-17.731 16.793-10.348 31.045-5.462 40.475 4.457 8.601 6.693 12.918-.883 20.861z"/></g></g></svg>