<svg id="Capa_1" enable-background="new 0 0 512 512" height="512" viewBox="0 0 512 512" width="512" xmlns="http://www.w3.org/2000/svg"><g><g><path d="m456.786 477.195h-202.96l28.878-232.76h200.03l-18.973 226.345c-.304 3.626-3.336 6.415-6.975 6.415z" fill="#eaf6ff"/><path d="m482.734 244.435h-140.03-60l-28.878 232.76h29.999 76.439l-17.716-184.001c-.715-17.047 12.912-31.257 29.974-31.257h108.745z" fill="#d8ecfe"/><path d="m36.364 168.565 6.36 75.87 11.55 137.93 7.412 88.415c.304 3.626 3.336 6.415 6.976 6.415h215.164c3.64 0 6.672-2.789 6.976-6.416l2.313-27.644h.01l5.09-60.77 11.56-137.93 6.36-75.87-11.633-7h-256z" fill="#fedba6"/><path d="m337.994 101.685h-26.55l-11.834-61.209c-.637-3.293-3.519-5.671-6.873-5.671h-232.987c-3.354 0-6.236 2.379-6.873 5.671l-11.834 61.209h-26.54c-3.866 0-7 3.134-7 7v52.88c0 3.866 3.134 7 7 7h323.49c3.866 0 7-3.134 7-7v-52.88c.001-3.866-3.134-7-6.999-7z" fill="#eaf6ff"/><path d="m371.308 396.155h49.315c3.866 0 7-3.134 7-7v-69.099c0-3.866-3.134-7-7-7h-49.315c-3.866 0-7 3.134-7 7v69.099c0 3.866 3.134 7 7 7z" fill="#b0ef9a"/><path d="m398.465 244.435v68.621h-17.157c-3.866 0-7 3.134-7 7v69.099c0 3.866 3.134 7 7 7h49.315c3.866 0 7-3.134 7-7v-69.099c0-3.866-3.134-7-7-7h-17.157v-68.621z" fill="#d8ecfe"/><path d="m398.465 236.937h15v15h-15z" fill="#d8ecfe"/><path d="m54.273 382.365 7.412 88.415c.304 3.627 3.336 6.415 6.976 6.415h43.562l-7.95-94.83z" fill="#fece85"/><path d="m311.444 101.685-11.834-61.209c-.637-3.293-3.519-5.671-6.873-5.671h-232.987c-3.354 0-6.236 2.379-6.873 5.671l-11.834 61.209z" fill="#d8ecfe"/><path d="m311.684 375.953 10.441-123.93c.344-4.083-2.877-7.588-6.975-7.588h-277.803c-4.098 0-7.319 3.504-6.975 7.587l10.432 123.93c.305 3.626 3.337 6.413 6.975 6.413h256.929c3.639 0 6.67-2.787 6.976-6.412z" fill="#e19974"/><path d="m309.51 91.685h-202.296c-12.569 0-22.022-11.456-19.636-23.796l6.396-33.084h-34.224c-3.354 0-6.236 2.379-6.873 5.671l-11.834 61.209h40 230.4z" fill="#c4e2ff"/><path d="m7.503 108.685v52.88c0 3.866 3.134 7 7 7h66.558v-66.88h-66.558c-3.866 0-7 3.134-7 7z" fill="#d8ecfe"/><path d="m316.133 168.565h-229.769-50l6.36 75.87h50l-1.959-23.364c-1.467-17.496 12.338-32.506 29.895-32.506h193.797z" fill="#fece85"/><path d="m30.372 252.022 10.432 123.93c.305 3.626 3.337 6.413 6.975 6.413h56.494l-11.55-137.93h-55.376c-4.097 0-7.319 3.504-6.975 7.587z" fill="#dc8758"/><path d="m371.308 396.155h49.315c3.866 0 7-3.134 7-7v-69.099c0-3.866-3.134-7-7-7h-49.315c-3.866 0-7 3.134-7 7v69.099c0 3.866 3.134 7 7 7z" fill="#b0ef9a"/></g><path d="m7.5 176.06h21.965l5.104 60.881h-4.839c-2.099 0-4.101.879-5.521 2.424s-2.128 3.614-1.952 5.705l11.61 137.92c.327 3.885 3.575 6.871 7.474 6.871h6.036l7.374 87.962c.326 3.885 3.574 6.873 7.474 6.873h227.943c.031 0 .062.005.094.005h172.96c3.899 0 7.148-2.988 7.474-6.873l13.05-155.67c.346-4.128-2.719-7.755-6.847-8.101-4.12-.339-7.754 2.72-8.1 6.847l-12.476 148.796h-157.906l2.137-25.548c.01-.077.017-.155.025-.232.001-.009.002-.017.003-.025.005-.045.011-.089.015-.134l4.515-53.9h6.028c.652 0 1.283-.09 1.888-.248.073-.019.149-.032.221-.054.089-.026.175-.061.263-.09.132-.044.266-.085.395-.136.063-.025.123-.057.185-.084.149-.064.299-.127.443-.2.064-.033.125-.072.188-.107 2.147-1.171 3.672-3.359 3.89-5.952l11.041-131.05h58.81v53.615h-24.157c-4.142 0-7.5 3.357-7.5 7.5v83.1c0 4.143 3.358 7.5 7.5 7.5h63.314c4.142 0 7.5-3.357 7.5-7.5v-83.1c0-4.143-3.358-7.5-7.5-7.5h-24.157v-53.615h71.11l-3.039 36.273c-.346 4.128 2.72 7.754 6.848 8.1 4.128.345 7.754-2.72 8.1-6.848l3.144-37.528h14.873c4.142 0 7.5-3.357 7.5-7.5s-3.358-7.5-7.5-7.5h-101.035v-10.185c0-4.143-3.358-7.5-7.5-7.5s-7.5 3.357-7.5 7.5v10.185h-70.537l5.103-60.878h21.959c4.142 0 7.5-3.357 7.5-7.5v-66.88c0-4.143-3.358-7.5-7.5-7.5h-27.361l-11.755-60.804c-.682-3.527-3.771-6.076-7.364-6.076h-244.54c-3.593 0-6.682 2.549-7.364 6.076l-11.755 60.805h-27.351c-4.142 0-7.5 3.357-7.5 7.5v66.88c0 4.142 3.358 7.5 7.5 7.5zm412.622 144.496v68.1h-48.314v-68.1h16.657v13.528c0 4.143 3.358 7.5 7.5 7.5s7.5-3.357 7.5-7.5v-13.528zm-112.143-144.491-5.103 60.869h-253.255l-5.103-60.869zm-197.919 198.795h-61.825l-10.347-122.92h276.658l-10.303 122.92h-6.033-155.47c-4.142 0-7.5 3.357-7.5 7.5s3.358 7.5 7.5 7.5h147.316l-3.834 45.778h-219.956l-3.838-45.778h47.632c4.142 0 7.5-3.357 7.5-7.5s-3.358-7.5-7.5-7.5zm-42.537 75.779h217.433l-1.594 19.057h-214.241zm-52.523-341.459h26.04 191.87c4.142 0 7.5-3.357 7.5-7.5s-3.358-7.5-7.5-7.5h-182.781l10.03-51.88h232.162l10.03 51.88h-36.751c-4.142 0-7.5 3.357-7.5 7.5s3.358 7.5 7.5 7.5h45.84 26.05v51.88h-322.49z"/></g></svg>