<svg id="Layer_1" height="512" viewBox="0 0 64 64" width="512" xmlns="http://www.w3.org/2000/svg" data-name="Layer 1"><ellipse cx="32" cy="52" fill="#c0ca33" rx="18" ry="7"/><path d="m32 18c-8.28 0-15-1.79-15-4l2.19 16.33c6.91-6.75 16.81.29 25.39 1.67l2.42-18c0 2.21-6.72 4-15 4z" fill="#cde7f9"/><path d="m19.19 30.33 2.81 20.88c0 1.54 4.48 2.79 10 2.79s10-1.25 10-2.79l2.58-19.21c-8.58-1.38-18.48-8.42-25.39-1.67z" fill="#fdd835"/><path d="m32 10c-8.28 0-15 1.79-15 4s6.72 4 15 4 15-1.79 15-4-6.72-4-15-4z" fill="#cde7f9"/><path d="m18 3a11 11 0 0 0 0 22h.47a11 11 0 0 0 9.82-7.12 10.81 10.81 0 0 0 .71-3.88 11 11 0 0 0 -11-11z" fill="#ffa726"/><path d="m47.11 6.66-8.11 5.41v7.53c-1.17.18-2.51.32-4 .4v-9a2 2 0 0 1 .89-1.66l9-6a2 2 0 0 1 2.22 3.32z" fill="#ef5350"/><path d="m35 17.92v25.08a2 2 0 0 0 4 0v-25.46c-1.24.17-2.58.3-4 .38z" fill="#ef5350"/><g fill="#f2f2f2"><rect height="5" rx="1" width="5" x="23" y="25"/><circle cx="27" cy="41" r="2"/><circle cx="31" cy="35" r="2"/></g><path d="m43.76 46.15c1-7.63 3.16-23.56 4.2-31.28a1.52 1.52 0 0 0 0-.67c-.19-1.39-1.72-2.51-4.57-3.35l4.27-2.85a3 3 0 1 0 -3.32-5l-9 6a3 3 0 0 0 -.62.56c-1.92-.08-4-.08-5.78 0a12 12 0 1 0 -11.35 16.92l2.65 19.67c-4.61 1.47-7.24 3.76-7.24 6.35 0 4.56 8.17 8 19 8s19-3.44 19-8c0-2.59-2.63-4.88-7.24-6.35zm0-14.81a33.19 33.19 0 0 1 -3.76-.92v-11.53a21.38 21.38 0 0 0 5.62-1.59zm2.24-16.87v.11c-.19.46-1.75 1.55-6 2.29v-3.76l1.14-.77c3.86.84 4.8 1.86 4.86 2.13zm-10-3a1 1 0 0 1 .45-.83l9-6a1 1 0 0 1 1.1 1.66l-6.15 4.1-1.91 1.28a1 1 0 0 0 -.45.83v4.57c-.65.08-1.32.15-2 .2zm0 19.7v-11.83c.68-.05 1.35-.11 2-.18v24.34a1 1 0 0 1 -2 0zm1 15.3a3 3 0 0 0 3-3v-11a32.87 32.87 0 0 0 3.47.83l-2.47 18.35c-.29.64-3.64 1.85-9 1.85s-8.72-1.21-9-1.79c0-.13-2.65-19.66-2.65-19.79a8.67 8.67 0 0 1 1.65-1.43 1 1 0 0 0 1 1h5a1 1 0 0 0 1-1v-1.21a32.41 32.41 0 0 1 5 1.26v13a3 3 0 0 0 3 2.96zm-13-19.03v-.94h3v.62a12 12 0 0 0 -3 .32zm3 1.67v.39h-2.92a9.49 9.49 0 0 1 2.92-.39zm2.62-17.56c1.4-.06 2.92-.06 4.38 0v5.91c-1.55.06-3 .05-4.38 0a11.6 11.6 0 0 0 0-5.89zm-.68 7.85c1.6.1 3.39.12 5.06.06v9a30.18 30.18 0 0 0 -5-1.18v-1.78a1 1 0 0 0 -1-1h-3.38a12.11 12.11 0 0 0 4.32-5.1zm-20.94-4.9a10 10 0 1 1 10 10 10 10 0 0 1 -10-10zm12 15-.42-3.1a12.74 12.74 0 0 0 2.42-.6v2.37a10 10 0 0 0 -2 1.31zm12 29c-10 0-17-3.17-17-6 0-1.56 2.09-3.18 5.51-4.34l.49 3.62c.12 2.93 7 3.72 11 3.72s10.88-.79 11-3.72l.49-3.62c3.42 1.16 5.51 2.78 5.51 4.34 0 2.83-7 6-17 6z"/><path d="m27 38.5a3 3 0 1 0 3 3 3 3 0 0 0 -3-3zm0 4a1 1 0 1 1 1-1 1 1 0 0 1 -1 1z"/><path d="m31 32.5a3 3 0 1 0 3 3 3 3 0 0 0 -3-3zm0 4a1 1 0 1 1 1-1 1 1 0 0 1 -1 1z"/><path d="m18 12.5a1 1 0 0 0 1-1v-4a1 1 0 0 0 -2 0v4a1 1 0 0 0 1 1z"/><path d="m15.13 13.11a1 1 0 0 0 1.42 0 1 1 0 0 0 0-1.41l-2.83-2.83a1 1 0 0 0 -1.42 0 1 1 0 0 0 0 1.41z"/><path d="m16 14.57a1 1 0 0 0 -1-1h-4a1 1 0 0 0 0 2h4a1 1 0 0 0 1-1z"/><path d="m15.15 16-2.83 2.83a1 1 0 0 0 0 1.41 1 1 0 0 0 1.42 0l2.83-2.83a1 1 0 0 0 0-1.41 1 1 0 0 0 -1.42 0z"/><path d="m18 16.62a1 1 0 0 0 -1 1v4a1 1 0 1 0 2 0v-4a1 1 0 0 0 -1-1z"/><path d="m20.9 16a1 1 0 0 0 -1.42 0 1 1 0 0 0 0 1.41l2.83 2.83a1 1 0 0 0 1.42 0 1 1 0 0 0 0-1.41z"/><path d="m20.08 14.54a1 1 0 0 0 1 1h4a1 1 0 0 0 0-2h-4a1 1 0 0 0 -1 1z"/><path d="m20.88 13.09 2.83-2.83a1 1 0 0 0 0-1.41 1 1 0 0 0 -1.42 0l-2.83 2.83a1 1 0 0 0 0 1.41 1 1 0 0 0 1.42 0z"/></svg>