<svg height="452pt" viewBox="-45 0 452 452.66766" width="452pt" xmlns="http://www.w3.org/2000/svg"><g fill="#eaac2e"><path d="m259.488281 234.640625h-141.546875l14.550782 127.773437 9.175781 80.570313h74.707031l53.871094-22.636719 21.144531-185.707031zm0 0"/><path d="m102.902344 102.542969 65.855468 65.859375 7.007813-8.886719c10.394531-13.230469 16.96875-29.054687 19.011719-45.753906l1.371094-11.21875zm0 0"/><path d="m159.863281 29.71875c-13.230469-10.390625-29.054687-16.964844-45.753906-19.011719l-11.207031-1.363281v93.179688l65.855468-65.859376zm0 0"/><path d="m30.078125 45.570312c-10.394531 13.230469-16.96875 29.054688-19.015625 45.753907l-1.359375 11.21875h93.179687l-65.839843-65.859375zm0 0"/><path d="m45.929688 175.367188c13.234374 10.390624 29.054687 16.964843 45.753906 19.011718l11.21875 1.363282v-93.199219l-65.859375 65.859375zm0 0"/></g><path d="m113.4375 195.121094 11.007812-2.640625c12.914063-3.074219 25-8.914063 35.429688-17.125l8.894531-7.003907-65.859375-65.859374zm0 0" fill="#ffe252"/><path d="m45.929688 29.71875-8.886719 7.007812 65.859375 65.855469v-93.238281l-11.21875 1.363281c-16.699219 2.050781-32.523438 8.625-45.753906 19.011719zm0 0" fill="#ffe252"/><path d="m11.082031 113.761719c2.046875 16.699219 8.621094 32.523437 19.015625 45.753906l7.003906 8.886719 65.859376-65.859375h-93.238282zm0 0" fill="#ffe252"/><path d="m194.707031 91.324219c-2.042969-16.699219-8.617187-32.523438-19.011719-45.753907l-7.003906-8.886718-65.859375 65.859375h93.175781zm0 0" fill="#ffe252"/><path d="m258.734375 432.976562.070313-.640624-1.519532.640624zm0 0" fill="#b52828"/><path d="m267.664062 442.984375h-59.796874l62.816406-26.53125zm0 0" fill="#b52828"/><path d="m271.285156 102.542969h-75.4375l-.878906 9.007812c-3.851562 39.609375-33.734375 73.050781-72.671875 81.429688l-8.878906 1.902343 4.523437 39.726563h173.449219l15.011719-132.097656zm0 0" fill="#bdd8ff"/><path d="m180.34375 263.382812 55.347656-20.105468 20.101563 55.34375-55.34375 20.105468zm0 0" fill="#fff2e9"/><path d="m136.363281 363.957031 21.621094-54.773437 54.773437 21.621094-21.621093 54.773437zm0 0" fill="#fff2e9"/><path d="m192.339844 386.109375 53.835937-22.71875 22.71875 53.835937-53.835937 22.71875zm0 0" fill="#fff2e9"/><path d="m347.78125 1.25-71.832031 39.398438c-2.640625 1.460937-4.476563 4.035156-5.003907 7.003906l-8.007812 44.875h-58c-5.527344-56.355469-55.691406-97.558594-112.042969-92.03125-56.355469 5.527344-97.558593 55.691406-92.03125 112.042968 5.148438 52.480469 49.265625 92.5 101.996094 92.519532h1.601563l27.222656 239.066406c.574218 5.058594 4.855468 8.878906 9.945312 8.875h125.992188c5.09375.003906 9.375-3.816406 9.949218-8.875l38.769532-340.441406c.621094-5.492188-3.320313-10.449219-8.8125-11.074219-.378906-.042969-.757813-.0625-1.136719-.0625h-23.15625l6.535156-36.648437 67.640625-37.085938c4.847656-2.660156 6.617188-8.742188 3.960938-13.589844s-8.742188-6.621094-13.589844-3.964844zm-309.828125 50.496094 40.789063 40.789062h-57.722657c1.8125-14.886718 7.667969-28.996094 16.933594-40.789062zm-16.933594 60.804687h57.714844l-40.78125 40.789063c-9.265625-11.792969-15.121094-25.902344-16.933594-40.789063zm71.875 71.921875c-14.898437-1.832031-29.007812-7.71875-40.789062-17.011718l40.789062-40.789063zm0-106.078125-40.789062-40.800781c11.792969-9.265625 25.898437-15.121094 40.789062-16.929688zm91.886719 14.152344h-57.722656l40.789062-40.792969c9.257813 11.796875 15.113282 25.898438 16.933594 40.78125zm0 20.011719c-1.816406 14.890625-7.671875 28.992187-16.933594 40.792968l-40.789062-40.792968zm-71.871094-91.894532c14.886719 1.808594 28.996094 7.664063 40.789063 16.929688l-40.789063 40.800781zm3.171875 109.21875 37.617188 37.578126c-9.308594 7.304687-20.085938 12.511718-31.59375 15.269531zm8.304688 72.914063c43.585937-9.421875 76.121093-45.875 80.550781-90.246094h54.398438l-20.015626 112.082031h-112.441406zm82.0625 103.074219-13.273438-36.527344 36.539063-13.269531 13.269531 36.527343zm15.621093 15.703125-.742187 4.164062c-.675781-1.140625-1.570313-2.140625-2.632813-2.933593zm-4.164062 23.367187-3.5625 19.953125c-.066406.386719-.113281.773438-.128906 1.164063l-5.574219 2.351562zm-18.175781-8.488281-14.238281 36.160156-36.148438-14.273437 14.261719-36.15625zm-60.84375-6.234375-9.734375-85.519531h73.472656l-25.6875 9.324219c-5.199219 1.878906-7.890625 7.617187-6.011719 12.8125 0 .007812.003907.011718.003907.019531l15.5625 42.820312-24.90625-9.828125c-5.136719-2.042968-10.957032.464844-13 5.601563-.003907.011719-.007813.023437-.011719.03125zm11.710937 102.808594-6.277344-55.140625 40.429688 15.960937 16.542969 39.179688zm69.820313-6.164063-14.910157-35.449219 35.394532-14.929687 14.929687 35.386719zm44.203125-45.523437-9.207032-21.808594c-2.148437-5.09375-8.015624-7.480469-13.109374-5.332031l-6.183594 2.609375 7.683594-43.128906 15.421874-5.59375c5.195313-1.882813 7.886719-7.621094 6.007813-12.816407-.003906 0-.003906-.003906-.003906-.003906l-12.289063-33.847656c.226563-.582031.394532-1.183594.5-1.800781l2.671875-15.007813h24.066407zm30.601562-268.738282-12.757812 112.082032h-22.789063l20.015625-112.082032zm0 0"/></svg>