<svg id="Layer_1" enable-background="new 0 0 513.259 513.259" height="512" viewBox="0 0 513.259 513.259" width="512" xmlns="http://www.w3.org/2000/svg"><g id="XMLID_2451_"><path id="XMLID_2463_" d="m372.63 174.926c-3.365 0-6.7.128-10 .379v52.281c3.277-.42 6.609-.66 10-.66 43.078 0 78 34.922 78 78s-34.922 78-78 78c-3.391 0-6.723-.24-10-.66v52.281c3.3.251 6.635.379 10 .379 71.797 0 130-58.203 130-130s-58.203-130-130-130z" fill="#99ebfa"/><path id="XMLID_2462_" d="m306.13 503.259h-239c-31.204 0-56.5-25.296-56.5-56.5v-311.5h352v311.5c0 31.204-25.296 56.5-56.5 56.5z" fill="#99ebfa"/><path id="XMLID_2461_" d="m291.327 257.259h-54.667c-10.661 0-19.303 8.642-19.303 19.303v68.606c0 10.661 8.642 19.303 19.303 19.303h54.667c10.661 0 19.303-8.642 19.303-19.303v-68.606c0-10.66-8.643-19.303-19.303-19.303z" fill="#ffcd69"/><g id="XMLID_328_"><path id="XMLID_340_" d="m372.63 164.926v-29.667c0-5.523-4.477-10-10-10h-352c-5.523 0-10 4.477-10 10v311.5c0 36.668 29.832 66.5 66.5 66.5h74.5c5.523 0 10-4.477 10-10s-4.477-10-10-10h-74.5c-25.64 0-46.5-20.86-46.5-46.5v-301.5h233.363v102h-17.333c-16.158 0-29.303 13.146-29.303 29.303v68.606c0 16.158 13.146 29.303 29.303 29.303h54.667c16.158 0 29.303-13.146 29.303-29.303v-68.606c0-16.158-13.146-29.303-29.303-29.303h-17.333v-102h78.637v301.5c0 25.64-20.86 46.5-46.5 46.5h-74.5c-5.523 0-10 4.477-10 10s4.477 10 10 10h74.5c36.668 0 66.5-29.832 66.5-66.5v-1.833c77.196 0 140-62.804 140-140s-62.805-140-140.001-140zm-72 111.637v68.606c0 5.13-4.173 9.303-9.303 9.303h-54.667c-5.13 0-9.303-4.173-9.303-9.303v-68.606c0-5.13 4.173-9.303 9.303-9.303h54.667c5.129-.001 9.303 4.173 9.303 9.303zm72-39.637c37.495 0 68 30.505 68 68s-30.505 68-68 68zm0 188v-32c48.523 0 88-39.477 88-88s-39.477-88-88-88v-32c66.168 0 120 53.832 120 120s-53.832 120-120 120z"/><path id="XMLID_861_" d="m79.586 71.889c0 10.464 4.075 20.302 11.474 27.702 1.953 1.953 4.512 2.929 7.071 2.929s5.119-.976 7.071-2.929c3.905-3.905 3.905-10.237 0-14.143-3.622-3.622-5.617-8.437-5.617-13.559s1.995-9.937 5.617-13.559c15.274-15.274 15.274-40.128 0-55.402-3.905-3.904-10.237-3.904-14.143 0-3.905 3.905-3.905 10.237 0 14.143 3.622 3.622 5.616 8.437 5.616 13.559s-1.994 9.937-5.616 13.559c-7.398 7.398-11.473 17.236-11.473 27.7z"/><path id="XMLID_961_" d="m179.558 99.59c1.953 1.953 4.512 2.929 7.071 2.929s5.119-.977 7.071-2.929c3.905-3.905 3.906-10.237 0-14.142-7.477-7.477-7.477-19.642 0-27.118 15.274-15.274 15.274-40.128 0-55.402-3.905-3.904-10.237-3.904-14.143 0-3.905 3.905-3.905 10.237 0 14.143 3.622 3.622 5.617 8.437 5.617 13.559s-1.995 9.937-5.617 13.559c-15.273 15.273-15.273 40.127.001 55.401z"/><path id="XMLID_1049_" d="m268.057 99.59c1.953 1.953 4.512 2.929 7.071 2.929s5.119-.977 7.071-2.929c3.905-3.905 3.906-10.237 0-14.142-7.477-7.477-7.477-19.642 0-27.118 15.274-15.274 15.274-40.128 0-55.402-3.905-3.904-10.237-3.904-14.143 0-3.905 3.905-3.905 10.237 0 14.143 3.622 3.622 5.617 8.437 5.617 13.559s-1.995 9.937-5.617 13.559c-15.273 15.273-15.273 40.127.001 55.401z"/><path id="XMLID_1079_" d="m186.63 493.259c-2.63 0-5.21 1.07-7.07 2.93s-2.93 4.44-2.93 7.07 1.07 5.21 2.93 7.07 4.44 2.93 7.07 2.93 5.21-1.07 7.07-2.93 2.93-4.44 2.93-7.07-1.07-5.21-2.93-7.07-4.44-2.93-7.07-2.93z"/></g></g></svg>