<svg id="Layer_1" enable-background="new 0 0 64 64" height="512" viewBox="0 0 64 64" width="512" xmlns="http://www.w3.org/2000/svg"><g><g><path d="m46.33 10.56v-.01l-.92-6.55h12.59c1.38 0 2.63.56 3.54 1.46.9.91 1.46 2.16 1.46 3.54v22c-1.66 0-3.16-.67-4.24-1.76-1.09-1.08-1.76-2.58-1.76-4.24v-14l-10.4 1.49z" fill="#b5e5e5"/><path d="m45.41 4 .92 6.55c-.19-.21-3.33-3.55-8.33-3.55-3.18 0-5.34 1.32-7.53 2.6-1.78-1.36-3.65-2.6-6.47-2.6-5.16 0-9 5-9 5l-6.08-6.95c-.4-.45-.6-1.03-.6-1.61 0-.26.04-.52.12-.77.34-1 1.27-1.67 2.32-1.67h32.11c1.22 0 2.26.9 2.42 2.11z" fill="#d7f6f7"/><g fill="#f9e073"><path d="m46.33 10.55v.01c-1.16.88-3.88 2.44-8.33 2.44-3.37 0-5.39-1.78-7.53-3.4 2.19-1.28 4.35-2.6 7.53-2.6 5 0 8.14 3.34 8.33 3.55z"/><circle cx="27.5" cy="17.5" r="2.5"/><path d="m20.22 21c1.66 0 3 1.34 3 3s-1.34 3-3 3-3-1.34-3-3c0-.21.02-.41.06-.61.28-1.36 1.49-2.39 2.94-2.39z"/><path d="m36.71 18.67c1.66 1.85 2.41 4.2 2.28 6.5l-8.99-.5z"/></g><path d="m30 24.67 8.99.5c-.13 2.3-1.14 4.55-2.99 6.21z" fill="#fceba2"/><path d="m30 24.67 6 6.71c-1.85 1.66-4.2 2.41-6.5 2.28z" fill="#f9e073"/><path d="m30 24.67-.5 8.99c-2.3-.13-4.55-1.14-6.21-2.99z" fill="#fceba2"/><path d="m39.69 16c4.78 5.35 4.33 13.57-1.02 18.36s-13.57 4.33-18.36-1.02l2.98-2.67c1.66 1.85 3.91 2.86 6.21 2.99s4.65-.62 6.5-2.28 2.86-3.91 2.99-6.21-.62-4.65-2.28-6.5z" fill="#f99430"/><path d="m34.02 51.67 2.98 2.67c-4.79 5.35-13.01 5.81-18.36 1.02s-5.8-13.01-1.01-18.36l2.98 2.67c-1.66 1.85-2.41 4.2-2.29 6.5.13 2.3 1.14 4.55 2.99 6.21s4.2 2.41 6.5 2.28 4.55-1.14 6.21-2.99z" fill="#f99430"/><path d="m18.32 46.17c-.12-2.3.63-4.65 2.29-6.5l6.7 6-8.98.5z" fill="#f9e073"/><path d="m27.31 45.67-6 6.71c-1.85-1.66-2.86-3.91-2.99-6.21h.01z" fill="#fceba2"/><path d="m27.31 45.67.5 8.99c-2.3.13-4.65-.62-6.5-2.28z" fill="#f9e073"/><path d="m27.31 45.67 6.71 6c-1.66 1.85-3.91 2.86-6.21 2.99z" fill="#fceba2"/><circle cx="34.5" cy="43.5" fill="#f9e073" r="2.5"/><circle cx="44" cy="49" fill="#f9e073" r="3"/><path d="m17.22 24c0 1.66 1.34 3 3 3s3-1.34 3-3-1.34-3-3-3c-1.45 0-2.66 1.03-2.94 2.39-.04.2-.06.4-.06.61zm29.78 25c0-1.66-1.34-3-3-3s-3 1.34-3 3 1.34 3 3 3 3-1.34 3-3zm-.4-36.51 5.27 37.61c.09.6.13 1.2.13 1.81 0 2.03-.47 4.04-1.38 5.85l-1.28 2.56c-.82 1.64-2.5 2.68-4.34 2.68h-30c-1.84 0-3.52-1.04-4.34-2.68l-1.34-2.69c-.87-1.73-1.32-3.64-1.32-5.57 0-.71.06-1.41.18-2.1l6.82-37.96s3.84-5 9-5c2.82 0 4.69 1.24 6.47 2.6 2.14 1.62 4.16 3.4 7.53 3.4 4.45 0 7.17-1.56 8.33-2.44zm-7.93 21.87c5.35-4.79 5.8-13.01 1.02-18.36l-2.98 2.67-6.71 6-6.71 6-2.98 2.67c4.79 5.35 13.01 5.81 18.36 1.02zm-1.67 19.98-2.98-2.67-6.71-6-6.7-6-2.98-2.67c-4.79 5.35-4.34 13.57 1.01 18.36s13.57 4.33 18.36-1.02zm0-10.84c0-1.38-1.12-2.5-2.5-2.5s-2.5 1.12-2.5 2.5 1.12 2.5 2.5 2.5 2.5-1.12 2.5-2.5zm-7-26c0-1.38-1.12-2.5-2.5-2.5s-2.5 1.12-2.5 2.5 1.12 2.5 2.5 2.5 2.5-1.12 2.5-2.5z" fill="#f9bb3d"/><path d="m49.054 4h-3.644l.92 6.55v.01l.27 1.93 5.459-.782c-2.268-2.21-2.857-5.934-3.005-7.708z" fill="#9fd1cf"/></g><g fill="#252525"><path d="m45.34 43.13 1.088 7.718c.047.37.072.727.072 1.062 0 1.176-.278 2.348-.803 3.39-.249.493-.05 1.094.443 1.343.145.073.298.107.449.107.366 0 .718-.201.894-.55.666-1.319 1.017-2.803 1.017-4.29 0-.42-.03-.864-.09-1.33l-1.09-7.73c-.077-.547-.592-.934-1.13-.851-.546.078-.927.584-.85 1.131z"/><path d="m15.812 31.986c.688.033 1.071-.33 1.154-.817l2.22-13c.093-.544-.273-1.061-.817-1.154-.548-.094-1.061.274-1.154.817l-2.22 13c-.094.544.272 1.061.817 1.154z"/><path d="m62.243 4.749c-1.14-1.128-2.647-1.749-4.243-1.749h-11.716l-.003-.021c-.224-1.698-1.691-2.979-3.411-2.979h-32.11c-1.477 0-2.79.944-3.272 2.365-.112.347-.168.709-.168 1.075 0 .848.303 1.656.848 2.268l5.763 6.588-6.736 37.493c-.13.743-.195 1.507-.195 2.271 0 2.082.493 4.163 1.425 6.016l1.341 2.691c.997 1.994 3.002 3.233 5.234 3.233h30c2.232 0 4.237-1.239 5.234-3.233l1.279-2.558c.973-1.935 1.487-4.113 1.487-6.299 0-.684-.046-1.325-.14-1.949l-5.131-36.623 8.271-1.185v12.847c0 1.878.73 3.637 2.049 4.944 1.314 1.326 3.073 2.056 4.951 2.056.552 0 1-.448 1-1v-22c0-1.596-.621-3.103-1.757-4.251zm-52.576-.364c-.224-.252-.467-.838-.28-1.393.199-.594.753-.992 1.373-.992h32.11c.721 0 1.335.534 1.429 1.244l.688 4.92c-1.57-1.039-3.963-2.164-6.987-2.164-3.166 0-5.372 1.187-7.462 2.404-1.726-1.268-3.695-2.404-6.538-2.404-4.216 0-7.546 2.941-9.001 4.481zm35.032 6.038c-1.294.719-3.504 1.577-6.699 1.577-2.425 0-4.086-1.052-5.727-2.283 1.688-.945 3.415-1.717 5.727-1.717 3.139 0 5.497 1.469 6.699 2.423zm6.301 41.487c0 1.876-.44 3.743-1.274 5.402l-1.28 2.56c-.656 1.313-1.977 2.128-3.446 2.128h-30c-1.469 0-2.79-.815-3.445-2.126l-1.342-2.693c-.794-1.579-1.213-3.35-1.213-5.121 0-.649.056-1.298.165-1.923l6.774-37.704c.702-.833 3.977-4.433 8.061-4.433 3.387 0 6.386 2.794 6.386 2.794 2.055 1.576 4.181 3.206 7.614 3.206 3.487 0 5.966-.896 7.555-1.763l.055.393v.002s0 .001.001.002l5.27 37.615c.08.533.119 1.077.119 1.661zm11-22.009c-.957-.192-1.833-.662-2.536-1.371-.944-.935-1.464-2.189-1.464-3.53v-14c0-.29-.126-.565-.345-.755s-.512-.275-.797-.234l-9.407 1.348-.887-6.359h11.436c1.065 0 2.073.416 2.829 1.163.755.764 1.171 1.772 1.171 2.837z"/><path d="m40.436 15.333c-.177-.198-.425-.317-.69-.332-.266-.019-.525.076-.723.254l-9.682 8.663c-.006.005-.011.01-.017.015l-6.69 5.985c-.004.003-.008.004-.012.007-.003.003-.005.008-.008.011l-2.971 2.659c-.411.368-.446 1-.078 1.412 2.764 3.087 6.597 4.659 10.445 4.659 3.325 0 6.662-1.174 9.327-3.561 5.748-5.147 6.241-14.016 1.099-19.772zm-4.404 14.582-3.678-4.113 5.512.307c-.258 1.414-.887 2.72-1.834 3.806zm-7.471 2.621c-1.413-.258-2.718-.886-3.805-1.832l4.111-3.677zm2.303-5.399 3.679 4.114c-1.182.822-2.551 1.302-3.985 1.399zm1.604-3.331 4.113-3.679c.822 1.182 1.301 2.549 1.398 3.985zm5.535 9.809c-4.679 4.189-11.765 4.021-16.25-.225l1.498-1.34c1.701 1.559 3.866 2.477 6.193 2.609.192.011.384.016.576.016 2.459 0 4.8-.894 6.646-2.549 0 0 .001 0 .001-.001 0 0 0 0 0-.001 0 0 .001 0 .001-.001 1.99-1.786 3.17-4.235 3.321-6.898.131-2.333-.54-4.587-1.903-6.446l1.495-1.34c3.717 4.928 3.098 11.989-1.578 16.176z"/><path d="m34.693 50.932c-.002-.002-.003-.005-.005-.007s-.005-.002-.007-.004l-16.384-14.666c-.198-.177-.455-.269-.723-.254-.265.015-.513.134-.69.332-5.151 5.753-4.663 14.623 1.088 19.772 2.666 2.387 6.001 3.562 9.327 3.561 3.848 0 7.682-1.573 10.445-4.659.368-.411.333-1.043-.078-1.412zm-15.249-3.822 5.512-.307-3.678 4.113c-.947-1.088-1.577-2.394-1.834-3.806zm1.295-5.983 4.11 3.678-5.513.307c.101-1.438.583-2.805 1.403-3.985zm5.707 7.01.307 5.512c-1.44-.096-2.805-.576-3.985-1.398zm2.303 5.399-.307-5.514 4.112 3.68c-1.086.947-2.392 1.576-3.805 1.834zm-9.442 1.079c-4.679-4.188-5.293-11.25-1.569-16.175l1.496 1.34c-1.36 1.855-2.035 4.108-1.913 6.446.151 2.662 1.331 5.112 3.321 6.897 0 0 .001 0 .001.001v.001s.001 0 .001.001c1.846 1.655 4.186 2.549 6.646 2.549.191 0 .384-.005.576-.016 2.327-.132 4.492-1.05 6.193-2.609l1.498 1.341c-4.484 4.244-11.571 4.413-16.25.224z"/><path d="m20.22 26c-.552 0-1 .448-1 1s.448 1 1 1c2.206 0 4-1.794 4-4 0-1.535-.894-2.952-2.277-3.612-.496-.236-1.094-.027-1.333.473-.237.499-.026 1.095.473 1.333.701.334 1.137 1.026 1.137 1.806 0 1.103-.897 2-2 2z"/><path d="m45 52c0-.552-.448-1-1-1-1.103 0-2-.897-2-2 0-.848.535-1.606 1.332-1.887.521-.184.794-.754.611-1.275-.184-.521-.755-.794-1.275-.611-1.596.562-2.668 2.078-2.668 3.773 0 2.206 1.794 4 4 4 .552 0 1-.448 1-1z"/><path d="m34.5 40c-1.93 0-3.5 1.57-3.5 3.5s1.57 3.5 3.5 3.5 3.5-1.57 3.5-3.5-1.57-3.5-3.5-3.5zm0 5c-.827 0-1.5-.673-1.5-1.5s.673-1.5 1.5-1.5 1.5.673 1.5 1.5-.673 1.5-1.5 1.5z"/><path d="m27.5 21c1.93 0 3.5-1.57 3.5-3.5s-1.57-3.5-3.5-3.5-3.5 1.57-3.5 3.5 1.57 3.5 3.5 3.5zm0-5c.827 0 1.5.673 1.5 1.5s-.673 1.5-1.5 1.5-1.5-.673-1.5-1.5.673-1.5 1.5-1.5z"/><circle cx="18.78" cy="14.584" r="1"/><circle cx="41.5" cy="40.5" r="1.5"/><circle cx="44.217" cy="58.5" r="1"/></g></g></svg>