<?xml version="1.0" encoding="iso-8859-1"?>
<!-- Generator: Adobe Illustrator 19.0.0, SVG Export Plug-In . SVG Version: 6.00 Build 0)  -->
<svg version="1.1" id="Capa_1" xmlns="http://www.w3.org/2000/svg" xmlns:xlink="http://www.w3.org/1999/xlink" x="0px" y="0px"
	 viewBox="0 0 512.001 512.001" style="enable-background:new 0 0 512.001 512.001;" xml:space="preserve">
<path style="fill:#FAD06A;" d="M451.019,340.584H60.983c-7.446,0-13.482-6.036-13.482-13.482v-0.037
	c0-7.446,6.036-13.482,13.482-13.482H451.02c7.446,0,13.482,6.036,13.482,13.482v0.037
	C464.501,334.549,458.465,340.584,451.019,340.584z"/>
<path style="fill:#71DB9E;" d="M372.839,504.501H139.163c-16.069,0-29.948-11.24-33.288-26.957L76.77,340.584h358.461
	l-29.105,136.959C402.787,493.261,388.908,504.501,372.839,504.501z"/>
<path style="fill:#F0AF46;" d="M451.019,313.584h-20.037c7.446,0,13.482,6.036,13.482,13.482v0.037
	c0,7.446-6.036,13.482-13.482,13.482h20.037c7.446,0,13.482-6.036,13.482-13.482v-0.037
	C464.501,319.62,458.465,313.584,451.019,313.584z"/>
<path style="fill:#62C473;" d="M415.195,340.584L386.09,477.543c-3.34,15.718-17.219,26.957-33.288,26.957h20.037
	c16.069,0,29.948-11.24,33.288-26.957l29.105-136.959H415.195z"/>
<polygon style="fill:#71DB9E;" points="135.429,313.538 376.573,313.538 256.001,147.87 "/>
<path style="fill:#FA9450;" d="M157.507,180.377h196.986c0,0,2.68-98-98.492-98S157.507,180.377,157.507,180.377z"/>
<path style="fill:#71DB9E;" d="M296.23,7.512c-10.583,0.859-40.229,6.903-40.229,47.668c0,0,42.055,9.094,43.868-44.185
	C299.937,8.988,298.232,7.35,296.23,7.512z"/>
<path style="fill:#E37749;" d="M256.001,82.377c-3.464,0-6.794,0.125-10.018,0.347c90.962,6.258,88.474,97.653,88.474,97.653h20.037
	C354.493,180.377,357.173,82.377,256.001,82.377z"/>
<path d="M451.02,306.084h-70.6l-86.027-118.207h60.101c4.063,0,7.386-3.234,7.497-7.295c0.037-1.355,0.699-33.519-17.49-62.22
	c-2.217-3.499-6.852-4.539-10.35-2.32c-3.499,2.217-4.538,6.851-2.32,10.35c10.887,17.179,13.97,36.313,14.835,46.486H165.32
	c1.063-12.695,5.59-39.359,24.642-58.938c15.536-15.966,37.755-24.062,66.04-24.062c21.614,0,39.784,4.749,54.004,14.114
	c3.458,2.278,8.11,1.321,10.389-2.139c2.278-3.459,1.321-8.11-2.139-10.389c-14.984-9.868-33.381-15.36-54.754-16.393V63.247
	c7.037-0.1,17.025-1.706,25.838-8.574c11.279-8.789,17.344-23.398,18.025-43.423c0.105-3.096-1.122-6.1-3.367-8.242
	c-2.242-2.139-5.296-3.223-8.374-2.972c-6.063,0.492-17.769,2.498-28.047,10.399c-15.766,12.12-19.076,31.022-19.076,44.746
	c0,0.487,0.051,0.963,0.141,1.427c-0.09,0.465-0.141,0.945-0.141,1.436v17.032c-28.977,1.388-52.27,10.911-69.29,28.402
	c-30.107,30.941-29.253,75.234-29.202,77.104c0.111,4.061,3.435,7.295,7.497,7.295h60.103l-86.027,118.207h-70.6
	c-11.569,0-20.981,9.412-20.981,21.019c0,11.569,9.412,20.981,20.981,20.981h9.715l3.32,15.625c0.86,4.051,4.843,6.641,8.895,5.777
	c4.052-0.861,6.638-4.843,5.777-8.895l-2.658-12.507h339.938l-16.147,75.987c-0.861,4.052,1.725,8.034,5.777,8.895
	c0.526,0.112,1.05,0.166,1.566,0.166c3.466,0,6.58-2.417,7.329-5.942l16.81-79.105h9.715c11.569,0,20.981-9.412,20.981-21.019
	C472.001,315.497,462.589,306.084,451.02,306.084z M292.072,15.621c-1.16,12.728-5.135,21.844-11.844,27.135
	c-5.388,4.25-11.771,5.351-16.384,5.489C266.244,25.042,280.76,17.737,292.072,15.621z M225.461,306.041l23.04-95.249v95.249
	H225.461z M263.501,306.041v-95.249l23.04,95.249H263.501z M301.973,306.041l-22.765-94.113l46.385,94.113H301.973z
	 M210.029,306.041h-23.62l46.385-94.113L210.029,306.041z M342.316,306.041l-40.958-83.101l60.478,83.101H342.316z M210.644,222.94
	l-40.958,83.101h-19.52L210.644,222.94z M451.02,333.084h-15.789H76.771H60.982c-3.298,0-5.981-2.683-5.981-6.019
	c0-3.298,2.683-5.981,5.981-5.981h390.037c3.298,0,5.981,2.683,5.981,6.019C457.001,330.401,454.318,333.084,451.02,333.084z"/>
<path d="M411.745,451.108c-4.055-0.863-8.034,1.726-8.896,5.777l-4.058,19.1c-2.588,12.178-13.502,21.016-25.952,21.016H139.163
	c-12.45,0-23.364-8.838-25.952-21.016l-16.946-79.74c-0.861-4.052-4.843-6.636-8.895-5.777c-4.052,0.861-6.638,4.844-5.777,8.896
	l16.946,79.74c4.051,19.062,21.136,32.897,40.624,32.897h233.676c19.488,0,36.573-13.835,40.625-32.898l4.059-19.1
	C418.383,455.952,415.796,451.969,411.745,451.108z"/>
<circle cx="235.961" cy="113.321" r="7.5"/>
<circle cx="287.661" cy="114.881" r="7.5"/>
<circle cx="251.911" cy="140.321" r="7.5"/>
<circle cx="202.691" cy="147.871" r="7.5"/>
<circle cx="300.361" cy="143.541" r="7.5"/>
<g>
</g>
<g>
</g>
<g>
</g>
<g>
</g>
<g>
</g>
<g>
</g>
<g>
</g>
<g>
</g>
<g>
</g>
<g>
</g>
<g>
</g>
<g>
</g>
<g>
</g>
<g>
</g>
<g>
</g>
</svg>
