<svg height="512" viewBox="0 0 64 64" width="512" xmlns="http://www.w3.org/2000/svg"><g id="Fill_Outline" data-name="Fill Outline"><g id="Color"><g><g><path d="m28.456 43.293v4.163h-4.163a20.342 20.342 0 0 1 -14.456-5.891 20.167 20.167 0 0 1 -5.678-11.45l-1.159-8.115 8.115 1.159a20.167 20.167 0 0 1 11.45 5.678 20.342 20.342 0 0 1 5.891 14.456z" fill="#7ab92d"/><path d="m22.565 28.837a19.872 19.872 0 0 0 -2.565-2.158v4.242a5.012 5.012 0 0 1 -7.551 4.308 19.7 19.7 0 0 1 -4.068-3.12 20.056 20.056 0 0 1 -5.295-9.509l1.073 7.516a20.07 20.07 0 0 0 20.134 17.34h4.163v-4.163a20.342 20.342 0 0 0 -5.891-14.456z" fill="#5ba006"/></g><g><circle cx="46.645" cy="51" fill="#f89c8d" r="10"/><path d="m51.645 53a10 10 0 0 1 -9.4-6.6l2.4-2.4 1.383 6.59 3.617-4.59 2.022 5.022 3.84-4.645a10.009 10.009 0 1 0 1.1 5.295 9.946 9.946 0 0 1 -4.962 1.328z" fill="#f8664f"/><path d="m58.061 34a10.523 10.523 0 0 0 -8.561 4.407l-1.855 2.593 3 1a10.992 10.992 0 0 1 9.58-3.07l.42.07.3-1.486a2.938 2.938 0 0 0 -2.884-3.514z" fill="#a1d51c"/><path d="m56.645 37a19.839 19.839 0 0 1 -5.182-.657 10.5 10.5 0 0 0 -1.963 2.064l-1.855 2.593 3 1a10.992 10.992 0 0 1 9.58-3.07l.42.07.3-1.486a2.893 2.893 0 0 0 .015-.959 20.565 20.565 0 0 1 -4.315.445z" fill="#7ab92d"/><path d="m42.622 38.528-.692.865a3.532 3.532 0 0 0 -.521 3.517l1.236 3.09 3-3 1.383 6.59 3.617-4.59 2.022 5.022 3.908-4.722a3.529 3.529 0 0 0 .74-2.942 3.531 3.531 0 0 0 -4.043-2.791l-1.25.208a3.526 3.526 0 0 1 -2.539-.545l-2.144-1.43a3.533 3.533 0 0 0 -4.717.728z" fill="#a1d51c"/><path d="m54.645 44c-4.971 0-9-2.91-9-6.5 0-.092.014-.182.019-.274a3.519 3.519 0 0 0 -3.042 1.3l-.692.865a3.532 3.532 0 0 0 -.521 3.517l1.236 3.092 3-3 1.383 6.59 3.617-4.59 2.022 5.022 3.908-4.722a3.524 3.524 0 0 0 .729-1.584 12.256 12.256 0 0 1 -2.659.284z" fill="#7ab92d"/></g><path d="m23 15h22a0 0 0 0 1 0 0v42a4 4 0 0 1 -4 4h-14a4 4 0 0 1 -4-4v-42a0 0 0 0 1 0 0z" fill="#84d2f4"/><path d="m37 3h4v24h-4z" fill="#f9e109"/><path d="m29 39v-24h-6v42a4 4 0 0 0 4 4h14a4 4 0 0 0 4-4v-2a16 16 0 0 1 -16-16z" fill="#57b7eb"/><path d="m39 18v-15h-2v24h4v-5.555a3.982 3.982 0 0 1 -2-3.445z" fill="#fcbc04"/><path d="m43 26a5.409 5.409 0 0 0 -6 0 5.409 5.409 0 0 1 -6 0 5.409 5.409 0 0 0 -6 0l-2 1.333v29.667a4 4 0 0 0 4 4h14a4 4 0 0 0 4-4v-29.667z" fill="#a1d51c"/><path d="m29 39v-13.8a5.393 5.393 0 0 0 -4 .8l-2 1.333v29.667a4 4 0 0 0 4 4h14a4 4 0 0 0 4-4v-2a16 16 0 0 1 -16-16z" fill="#7ab92d"/><g><path d="m18 46a4 4 0 0 0 -3.209-3.92 2.962 2.962 0 0 0 .209-1.08 3 3 0 0 0 -6 0c0 .05.012.1.015.146a3.956 3.956 0 0 0 -1.015-.146 4 4 0 0 0 -4 4 3.952 3.952 0 0 0 .5 1.9 3.96 3.96 0 0 0 .553 6.574 3.035 3.035 0 0 0 -.053.526 3 3 0 0 0 3 3 2.97 2.97 0 0 0 1.47-.4 2.994 2.994 0 0 0 5.306-2.729 3.936 3.936 0 0 0 .956-4.28 3.988 3.988 0 0 0 2.268-3.591z" fill="#a1d51c"/><path d="m15.2 42.2c-.049.05-.108.09-.155.143-.023.025-.044.052-.066.078a4.1 4.1 0 0 0 -.45.633 3.035 3.035 0 0 0 -.529-.054 3 3 0 0 0 -3 3 2.966 2.966 0 0 0 .644 1.836 3.945 3.945 0 0 0 .491 4.929 2.9 2.9 0 0 1 -1.135.235 3 3 0 0 1 -3-3 3.035 3.035 0 0 1 .053-.526 3.96 3.96 0 0 1 -.553-6.574 3.982 3.982 0 0 1 -.491-1.762 3.952 3.952 0 0 0 -2.509 5.762 3.96 3.96 0 0 0 .553 6.574 3.035 3.035 0 0 0 -.053.526 3 3 0 0 0 3 3 2.97 2.97 0 0 0 1.47-.4 2.994 2.994 0 0 0 5.306-2.729 3.936 3.936 0 0 0 .956-4.28 3.978 3.978 0 0 0 -.532-7.391z" fill="#7ab92d"/></g><g><path d="m33 39a3 3 0 0 0 -5.473-1.7 3.993 3.993 0 0 0 -5.438 2.864 3.889 3.889 0 0 0 -4.563 1.884 3.035 3.035 0 0 0 -.526-.048 3 3 0 0 0 -3 3 2.966 2.966 0 0 0 .644 1.836 3.964 3.964 0 0 0 .973 5.36 2.969 2.969 0 0 0 -.617 1.804 2.992 2.992 0 0 0 5.872.819 3.877 3.877 0 0 0 4-1.043 2.993 2.993 0 0 0 3.905-3.905 3.884 3.884 0 0 0 1.078-3.886c.049 0 .1.015.146.015a2.988 2.988 0 0 0 2.221-5 2.978 2.978 0 0 0 .778-2z" fill="#c4f236"/><path d="m29.862 47.986a3.023 3.023 0 0 1 -.991-.21 3.877 3.877 0 0 1 -4 1.043 2.991 2.991 0 1 1 -5.254-2.619 3.964 3.964 0 0 1 -.973-5.36c-.008-.01-.014-.022-.022-.032a4.056 4.056 0 0 0 -1.1 1.249 3.035 3.035 0 0 0 -.522-.057 3 3 0 0 0 -3 3 2.966 2.966 0 0 0 .644 1.836 3.964 3.964 0 0 0 .973 5.36 2.969 2.969 0 0 0 -.617 1.804 2.992 2.992 0 0 0 5.872.819 3.877 3.877 0 0 0 4-1.043 2.993 2.993 0 0 0 3.905-3.905 4 4 0 0 0 1.085-1.885z" fill="#a1d51c"/></g><g><path d="m47 53h4a0 0 0 0 1 0 0 8 8 0 0 1 -8 8h-4a0 0 0 0 1 0 0 8 8 0 0 1 8-8z" fill="#c4f236"/><path d="m43.728 58.963a8.006 8.006 0 0 0 -2.228-3.763 7.97 7.97 0 0 0 -2.5 5.8h4a8 8 0 0 0 8-8h-.26a8 8 0 0 1 -7.012 5.963z" fill="#a1d51c"/><path d="m31 53h4a8 8 0 0 1 8 8 0 0 0 0 1 0 0h-4a8 8 0 0 1 -8-8 0 0 0 0 1 0 0z" fill="#c4f236" transform="matrix(-1 0 0 -1 74 114)"/><path d="m41 59a8 8 0 0 1 -7.738-6h-2.262a8 8 0 0 0 8 8h4a7.992 7.992 0 0 0 -.262-2z" fill="#a1d51c"/></g></g></g><g id="Outline_copy" data-name="Outline copy"><g fill="#39519d"><path d="m61.106 34.441a3.924 3.924 0 0 0 -3.045-1.441 11.537 11.537 0 0 0 -9.2 4.608l-.966-.644a4.459 4.459 0 0 0 -1.895-.694v-21.27a1 1 0 0 0 -1-1h-3v-11a1 1 0 0 0 -2 0v21.088a6.374 6.374 0 0 0 -2 .333v-21.421a1 1 0 0 0 -2 0v22.419a4.386 4.386 0 0 1 -4.445-.251 6.4 6.4 0 0 0 -7.11 0l-.445.3v-9.468h9a1 1 0 0 0 0-2h-10a1 1 0 0 0 -1 1v11.959a21.113 21.113 0 0 0 -10.743-4.79l-8.115-1.159a1 1 0 0 0 -1.132 1.132l1.159 8.114a21.29 21.29 0 0 0 2.616 7.624 1 1 0 0 0 1.735-1 19.282 19.282 0 0 1 -2.371-6.911l-.97-6.794 6.8.97a19.068 19.068 0 0 1 10.884 5.4c.051.051.1.1.142.157v4.657a1 1 0 0 0 2 0v-6.49l1.555-1.037a4.4 4.4 0 0 1 4.89 0 6.4 6.4 0 0 0 7.11 0 4.4 4.4 0 0 1 4.89 0l1.55 1.037v24.658a8.978 8.978 0 0 0 -3 1.783 8.954 8.954 0 0 0 -6-2.31h-4a1 1 0 0 0 -1 1 9.01 9.01 0 0 0 9 9h4a9.059 9.059 0 0 0 1.755-.174 10.945 10.945 0 0 0 12.89-10.826 10.848 10.848 0 0 0 -.914-4.325l.614-.743a4.536 4.536 0 0 0 -.235-6.04 9.8 9.8 0 0 1 2.951.025l.419.069a1 1 0 0 0 1.145-.789l.3-1.487a3.926 3.926 0 0 0 -.819-3.269zm-17.551-9.273a6.426 6.426 0 0 0 -1.555-.747v-8.421h2v9.465zm.375 34.763a8.534 8.534 0 0 0 -.157-.911l1.782-1.188a1 1 0 1 0 -1.11-1.664l-1.359.906a9 9 0 0 0 -.754-1.275 6.987 6.987 0 0 1 4.668-1.799h2.929a7.011 7.011 0 0 1 -5.999 5.931zm-11.859-5.931h2.929a7.007 7.007 0 0 1 6.739 5.128l-5.243-3a1 1 0 0 0 -.992 1.736l3.731 2.136h-.235a7.011 7.011 0 0 1 -6.929-6zm23.574-3a9.009 9.009 0 0 1 -6.626 8.672 8.972 8.972 0 0 0 2.981-6.672 1 1 0 0 0 -1-1h-4a8.991 8.991 0 0 0 -1 .058v-13.774a2.449 2.449 0 0 1 .784.344l2.145 1.43a4.534 4.534 0 0 0 3.258.7l1.25-.209a2.532 2.532 0 0 1 2.367 4.11l-2.837 3.431-1.395-3.464a1 1 0 0 0 -1.713-.245l-2.214 2.81a1 1 0 1 0 1.57 1.238l1.146-1.454 1.378 3.425a1 1 0 0 0 .775.614.976.976 0 0 0 .153.012 1 1 0 0 0 .77-.363l1.822-2.2a8.865 8.865 0 0 1 .386 2.537zm4.317-13.683-.11.55a11.986 11.986 0 0 0 -5.569.684 4.548 4.548 0 0 0 -1.175.025l-1.25.208a2.494 2.494 0 0 1 -1.28-.126 9.535 9.535 0 0 1 7.483-3.658 1.938 1.938 0 0 1 1.9 2.317z"/><path d="m31 60h-4a3 3 0 0 1 -3-3v-1.433a5.1 5.1 0 0 0 1.121-.666 3.929 3.929 0 0 0 .879.099 4 4 0 0 0 4-4 3.885 3.885 0 0 0 -.1-.879 4.944 4.944 0 0 0 1.1-3.121c0-.042 0-.084 0-.126a4.007 4.007 0 0 0 3-3.874 1 1 0 0 0 -2 0 1.994 1.994 0 0 1 -1.942 2c-.03 0-.125-.014-.156-.016a1.038 1.038 0 0 0 -.826.37 1 1 0 0 0 -.189.885 2.885 2.885 0 0 1 -.806 2.912 1 1 0 0 0 -.231 1.095 1.993 1.993 0 0 1 -1.85 2.754 1.974 1.974 0 0 1 -.752-.15 1 1 0 0 0 -1.1.232 2.971 2.971 0 0 1 -2.148.918 2.942 2.942 0 0 1 -.845-.14 1 1 0 0 0 -1.245.685 2.009 2.009 0 0 1 -1.161 1.3 20 20 0 0 1 1.009-3.4l3.375-.453a1 1 0 1 0 -.266-1.982l-2.1.282a20.144 20.144 0 0 1 1.454-2.292h3.779a1 1 0 0 0 0-2h-2.1a19.991 19.991 0 0 1 2.079-1.893l1.574.788a1 1 0 1 0 .894-1.79l-.606-.3c.521-.322 1.052-.631 1.606-.907a1 1 0 1 0 -.894-1.79c-.534.267-1.048.561-1.553.866v-.974a1 1 0 0 0 -2 0v2.328a22.112 22.112 0 0 0 -2.69 2.439l-.362-1.083a1 1 0 1 0 -1.9.632l.749 2.249a22.158 22.158 0 0 0 -1.327 1.969l-.49-2.712a1 1 0 1 0 -1.968.356l.964 5.34a22.13 22.13 0 0 0 -1.217 4.041 1.963 1.963 0 0 1 -.349-2.759 1 1 0 0 0 -.2-1.4 2.965 2.965 0 0 1 -.733-4.016 1 1 0 0 0 -.051-1.158 1.975 1.975 0 0 1 -.426-1.226 2 2 0 0 1 2-2 1.954 1.954 0 0 1 .351.038 1 1 0 0 0 1.047-.5 3 3 0 0 1 2.602-1.538 2.968 2.968 0 0 1 .815.131 1 1 0 0 0 1.252-.755 3 3 0 0 1 4.079-2.147 1 1 0 0 0 1.207-.358 2 2 0 0 1 3.647 1.129 2.022 2.022 0 0 1 -.019.271 1 1 0 0 0 1.981.275 3.921 3.921 0 0 0 .038-.546 4 4 0 0 0 -6.8-2.853 4.927 4.927 0 0 0 -1.2-.147 5.025 5.025 0 0 0 -4.581 3.005l-1.907-1.905-.668-6.016a1 1 0 0 0 -1.989.221l.393 3.531-2.032-2.036-1.347-5.388a1 1 0 0 0 -1.939.485l.538 2.155-3.811-3.809a1 1 0 0 0 -1.414 1.414l4.243 4.243-1.98-.282a1 1 0 1 0 -.283 1.982l4.619.66 2.3 2.3h-3.242a.98.98 0 0 0 -.814.453c-.029 0-.056-.009-.085-.009a4.007 4.007 0 0 0 -3.874 3 4.993 4.993 0 0 0 -5.127 4.996 4.807 4.807 0 0 0 .3 1.663 4.95 4.95 0 0 0 .7 7.316v.021a4 4 0 0 0 4 4 3.834 3.834 0 0 0 .48-.037l.534 3.2a1 1 0 0 0 .986.837.927.927 0 0 0 .165-.014 1 1 0 0 0 .822-1.151l-.348-2.089a3.947 3.947 0 0 0 1.361.254 4 4 0 0 0 .75-.07 1 1 0 0 0 -.373-1.965 2.042 2.042 0 0 1 -2.062-.9.906.906 0 0 0 -.15-.159l-.22-1.319c-.081-.487-.131-.976-.163-1.465l2.636-1.214a1 1 0 0 0 -.836-1.816l-1.782.818a14.861 14.861 0 0 1 .356-2.189l3.112-1.321a4.949 4.949 0 0 0 1.075 5 3.917 3.917 0 0 0 -.343 1.6 4.007 4.007 0 0 0 2.434 3.68l-.425 3.188a1 1 0 1 0 1.982.264l.422-3.16a4.013 4.013 0 0 0 3.055-2.005 4.512 4.512 0 0 0 .532.011v1.022a5.006 5.006 0 0 0 5 5h4a1 1 0 0 0 0-2zm-12-20.583a5.08 5.08 0 0 0 -1.978 1.583h-.022a3.952 3.952 0 0 0 -1.008.145c0-.049.008-.1.008-.145a3.964 3.964 0 0 0 -.856-2.444h3zm-7.487 3.726a1 1 0 0 0 -1.372.342 16.763 16.763 0 0 0 -.925 1.81l-.3-.692a1 1 0 0 0 -1.836.794l1.171 2.7q-.184.751-.3 1.516l-.132-.189a1 1 0 0 0 -1.64 1.144l1.594 2.287a16.785 16.785 0 0 0 .2 2.057l.177 1.063c-.05.009-.1.025-.15.025a2 2 0 0 1 -2-2 2.142 2.142 0 0 1 .037-.352 1 1 0 0 0 -.494-1.048 2.96 2.96 0 0 1 -.414-4.925 1 1 0 0 0 .25-1.256 2.948 2.948 0 0 1 -.379-1.419 3 3 0 0 1 3-3 2.963 2.963 0 0 1 .76.113.992.992 0 0 0 .881-.187 1 1 0 0 0 .373-.82.345.345 0 0 0 -.014-.106 2 2 0 0 1 4 0 1.962 1.962 0 0 1 -.141.717.992.992 0 0 0 .039.788 3.964 3.964 0 0 0 -.898 2.495c0 .111.011.221.021.33l-2.011.856a14.715 14.715 0 0 1 .847-1.671 1 1 0 0 0 -.342-1.372z"/><circle cx="40" cy="35" r="1"/><circle cx="41" cy="49" r="1"/><circle cx="40" cy="30" r="1"/><circle cx="35" cy="49" r="1"/><circle cx="38" cy="45" r="1"/><circle cx="28" cy="57" r="1"/><circle cx="27" cy="33" r="1"/><circle cx="35" cy="35" r="1"/><circle cx="32" cy="31" r="1"/><circle cx="39" cy="41" r="1"/></g></g></g></svg>