<svg height="512" viewBox="0 0 60 60" width="512" xmlns="http://www.w3.org/2000/svg"><g id="Page-1" fill="none" fill-rule="evenodd"><g id="034---Milk-and-Jug" fill-rule="nonzero"><path id="Rectangle-path" d="m1 19h22v40h-22z" fill="#02a9f4"/><path id="Rectangle-path" d="m20 19h3v40h-3z" fill="#0377bc"/><path id="Shape" d="m23 19h-22l11-12z" fill="#02a9f4"/><path id="Shape" d="m12 7-1.5 1.636 9.5 10.364h3z" fill="#0377bc"/><path id="Shape" d="m36.75 50-.48 5.75c-.0699319.8362635.2135982 1.6635893.7817721 2.2811696.568174.6175804 1.3690455.968952 2.2082279.9688304h-16.26v-40h17v16.1c-1.2296573.3217333-2.123104 1.3834524-2.23 2.65l-.02.25z" fill="#0377bc"/><path id="Shape" d="m40 19h-17l-11-12h17z" fill="#0377bc"/><path id="Shape" d="m29 2v5h-17v-5c0-.55228475.4477153-1 1-1h15c.5522847 0 1 .44771525 1 1z" fill="#00bcd4"/><path id="Shape" d="m28 1h-3c.5522847 0 1 .44771525 1 1v5h3v-5c0-.55228475-.4477153-1-1-1z" fill="#00838f"/><path id="Shape" d="m17 33 .0000113 4.76c-.7398333-.495024-1.6098511-.7595095-2.5000113-.76h-5c-.89016017.0004905-1.76017801.264976-2.50001125.76l.00001125-4.76c-.00265674-1.2451208.46525642-2.4452645 1.31-3.36.02100473-.0374933.04803198-.0712773.08-.1.9314238-.9699035 2.2135865-1.5247509 3.5582191-1.5397958 1.3446325-.0150448 2.6388889.5109756 3.5917809 1.4597958.02.03.05.05.07.08.031968.0287227.0589953.0625067.08.1.8447436.9147355 1.3126567 2.1148792 1.31 3.36z" fill="#f5f5f5"/><path id="Shape" d="m19 41.5c-.0038545 2.483683-2.016317 4.4961455-4.5 4.5h-5c-2.48528137 0-4.5-2.0147186-4.5-4.5s2.01471863-4.5 4.5-4.5h5c1.1934742 0 2.3380668.4741058 3.1819805 1.3180195s1.3180195 1.9885063 1.3180195 3.1819805z" fill="#ef314c"/><path id="Shape" d="m17 37.76c-.739822-.495024-1.6098398-.7595095-2.5-.76h-3c2.4852814 0 4.5 2.0147186 4.5 4.5s-2.0147186 4.5-4.5 4.5h3c1.9811377-.0010908 3.7285091-1.2977119 4.3036923-3.1935157s-.1571462-3.9447612-1.8036923-5.0464843z" fill="#bb193b"/><path id="Shape" d="m8.31 29.64c-.84474358.9147355-1.31265674 2.1148792-1.31 3.36v.82c-4.89-2.72-2.33-7.82-2.33-7.82z" fill="#37474f"/><path id="Shape" d="m17 33.82v-.82c.0026567-1.2451208-.4652564-2.4452645-1.31-3.36l3.64-3.64s2.56 5.1-2.33 7.82z" fill="#37474f"/><path id="Shape" d="m58.97 36.24-3.72 13.76.48 5.75c.0677624.8357533-.216511 1.6618424-.7842201 2.2789175s-1.3672864.9690847-2.2057799.9710825h-13.48c-.8391824.0001216-1.6400539-.35125-2.2082279-.9688304-.5681739-.6175803-.851704-1.4449061-.7817721-2.2811696l.48-5.75 1-12 .02-.25c.106896-1.2665476 1.0003427-2.3282667 2.23-2.65.2473775-.0688716.5032268-.102536.76-.1h17.24c.307341.0002375.597502.1417889.7868662.3838627s.2568957.557779.1831338.8561373z" fill="#9e9e9e"/><path id="Shape" d="m58.97 36.24c.0737619-.2983583.0062304-.6140635-.1831338-.8561373s-.4795252-.3836252-.7868662-.3838627h-3c.307341.0002375.597502.1417889.7868662.3838627s.2568957.557779.1831338.8561373l-3.628 13.421c-.0608673.2242628-.0821862.4574174-.063.689l.451 5.4c.0677624.8357533-.216511 1.6618424-.7842201 2.2789175s-1.3672864.9690847-2.2057799.9710825h3c.8384935-.0019978 1.6380708-.3540074 2.2057799-.9710825s.8519825-1.4431642.7842201-2.2789175l-.48-5.75z" fill="#707070"/><path id="Shape" d="m8 56h-3c-.55228475 0-1-.4477153-1-1v-3c0-.5522847.44771525-1 1-1s1 .4477153 1 1v2h2c.55228475 0 1 .4477153 1 1s-.44771525 1-1 1z" fill="#f5f5f5"/><path id="Shape" d="m51.649 56h-2.649c-.5522847 0-1-.4477153-1-1s.4477153-1 1-1h1.562l-.162-1.95c-.033411-.3580782.1280281-.7065192.4227987-.9125447.2947707-.2060256.6774685-.2379011 1.0022613-.0834799s.5416519.4713532.56794.8300246l.253 3.033c.0232621.2792785-.0717331.5555025-.2618496.7613988-.1901166.2058962-.4579065.3225683-.7381504.3216012z" fill="#f5f5f5"/><g fill="#000"><path id="Shape" d="m1 60h31.95c.5522847 0 1-.4477153 1-1s-.4477153-1-1-1h-8.95v-38h15v11.04c0 .5522847.4477153 1 1 1s1-.4477153 1-1v-12.04c-.0056142-.0477432-.0153165-.0949164-.029-.141-.0055764-.074862-.0203544-.1487519-.044-.22-.0306518-.0663116-.0685492-.1290268-.113-.187-.0221702-.0446748-.047921-.0874813-.077-.128l-10.737-11.713v-4.611c0-1.1045695-.8954305-2-2-2h-15c-1.1045695 0-2 .8954305-2 2v4.611l-10.737 11.713c-.02907904.0405187-.05482983.0833252-.077.128-.04445076.0579732-.08234817.1206884-.113.187-.02364562.0712481-.0384236.145138-.044.22-.01368349.0460836-.02338577.0932568-.029.141v40c0 .5522847.44771525 1 1 1zm27.56-52 9.167 10h-14.287l-9.167-10zm-16.56.48 8.727 9.52h-17.454zm3 49.52h-13v-38h20v38zm-2-56h15v4h-15z"/><circle id="Oval" cx="10" cy="33" r="1"/><circle id="Oval" cx="14" cy="33" r="1"/><path id="Shape" d="m10 40c-.55228475 0-1 .4477153-1 1v1c0 .5522847.44771525 1 1 1 .5522847 0 1-.4477153 1-1v-1c0-.5522847-.4477153-1-1-1z"/><path id="Shape" d="m14 40c-.5522847 0-1 .4477153-1 1v1c0 .5522847.4477153 1 1 1s1-.4477153 1-1v-1c0-.5522847-.4477153-1-1-1z"/><path id="Shape" d="m20.224 25.551c-.1442415-.2866509-.4172849-.4866669-.7340888-.5377516-.3168039-.0510846-.6388785.0529686-.8659112.2797516l-2.958 2.958c-2.1568551-1.6700097-5.1701449-1.6700097-7.327 0l-2.962-2.958c-.22703271-.226783-.54910727-.3308362-.86591119-.2797516-.31680393.0510847-.58984732.2511007-.73408881.5377516-1.66312657 3.0710293-.6970328 6.9041139 2.223 8.82v2.89c-1.7871324 1.4774323-2.45570765 3.9169937-1.67149664 6.0991168.78421102 2.1821232 2.85273727 3.6380255 5.17149664 3.6398832h5c2.3187594-.0018577 4.3872856-1.45776 5.1714966-3.6398832.7842111-2.1821231.1156358-4.6216845-1.6714966-6.0991168v-2.89c2.9203909-1.9155726 3.8869357-5.7487224 2.224-8.82zm-1.328 2.3c.3484887 1.4257287-.0252916 2.9316895-1 4.029-.1471577-.7683978-.4441367-1.5003119-.874-2.154zm-13.796-.008 1.879 1.879c-.42986752.6562806-.72586606 1.3910094-.871 2.162-.98900563-1.0945431-1.36707292-2.6101879-1.008-4.041zm9.4 17.157h-5c-1.93299662 0-3.5-1.5670034-3.5-3.5s1.56700338-3.5 3.5-3.5h5c1.9329966 0 3.5 1.5670034 3.5 3.5s-1.5670034 3.5-3.5 3.5zm0-9h-5c-.50746516.0009997-1.0123171.0726886-1.5.213v-3.213c.00313734-1.608973.96860726-3.0599455 2.4515089-3.6842907 1.4829016-.6243452 3.195454-.3008989 4.3484911.8212907l.039.043c.015.018.03.034.046.051.7159367.7439685 1.1156022 1.736501 1.115 2.769l.0000007 3.213c-.4876836-.1403114-.9925355-.2120003-1.5000007-.213z"/><path id="Shape" d="m47.675 22.569c.816602-.6041449 1.3061862-1.5533839 1.325-2.569 0-.5522847-.4477153-1-1-1s-1 .4477153-1 1c0 .458-.2.654-.675 1.094-.8309032.5922319-1.3242151 1.5496379-1.3242151 2.57s.4933119 1.9777681 1.3242151 2.57c.481.441.676.639.676 1.1s-.2.656-.676 1.1c-.8155374.603709-1.304958 1.5515227-1.325 2.566 0 .5522847.4477153 1 1 1s1-.4477153 1-1c0-.459.2-.657.676-1.1.8309154-.5926703 1.3241726-1.5503734 1.3241726-2.571s-.4932572-1.9783297-1.3241726-2.571c-.481-.441-.676-.638-.676-1.1s.2-.649.675-1.089z"/><path id="Shape" d="m53.675 22.569c.816602-.6041449 1.3061862-1.5533839 1.325-2.569 0-.5522847-.4477153-1-1-1s-1 .4477153-1 1c0 .458-.2.654-.675 1.094-.8309032.5922319-1.3242151 1.5496379-1.3242151 2.57s.4933119 1.9777681 1.3242151 2.57c.481.441.676.639.676 1.1s-.2.656-.676 1.1c-.8155374.603709-1.304958 1.5515227-1.325 2.566 0 .5522847.4477153 1 1 1s1-.4477153 1-1c0-.459.2-.657.676-1.1.8309154-.5926703 1.3241726-1.5503734 1.3241726-2.571s-.4932572-1.9783297-1.3241726-2.571c-.481-.441-.676-.638-.676-1.1s.2-.649.675-1.089z"/><path id="Shape" d="m58 34h-17.24c-1.8162716.0142462-3.3978493 1.2434516-3.86 3h-1.72c-2.0757469.0113731-3.8024029 1.5994462-3.987 3.667l-.5 6c-.090668 1.1144374.2883105 2.2160878 1.0454065 3.0388861.7570959.8227983 1.8234761 1.2919377 2.9415935 1.2941139h.983l-.389 4.668c-.092839 1.1146822.2852902 2.2173157 1.0426637 3.0404322.7573736.8231165 1.8247946 1.2915124 2.9433363 1.2915678h13.479c1.1185417-.0000554 2.1859627-.4684513 2.9433363-1.2915678.7573735-.8231165 1.1355027-1.92575 1.0426637-3.0404322l-.464-5.576 3.679-13.607c.1493326-.5974237.0151245-1.2303318-.3638213-1.715734-.3789459-.4854023-.9603741-.7691728-1.5761787-.769266zm-23.32 15c-.5588695-.0018187-1.0916446-.2366981-1.469967-.6480502-.3783225-.4113521-.5678906-.9618805-.523033-1.5189498l.5-6c.0918455-1.0337233.9552177-1.8277831 1.993-1.833h1.483l-.833 10zm21.093-4.765-.356-4.27c-.0509487-.5460361-.5321638-.9491663-1.0786793-.9036462-.5465154.0455201-.9544077.5227054-.9143207 1.0696462l1.308 15.7c.0473064.5578363-.1413592 1.1099635-.5201462 1.5222008-.378787.4122374-.9130152.646842-1.4728538.6467992h-13.479c-.5592708-.0000277-1.0929813-.2342256-1.4716681-.6457839-.3786868-.4115582-.5677514-.962875-.5213319-1.5202161l1.5-18c.091812-1.033896.9550513-1.8282667 1.993-1.834h17.24z"/></g></g></g></svg>