<svg height="495pt" viewBox="-91 0 495 495.72199" width="495pt" xmlns="http://www.w3.org/2000/svg"><path d="m240.359375 487.722656h-208l-8-256-16-40v-144h256v136l-16 48zm0 0" fill="#ebfec0"/><path d="m232.359375 111.722656v72l-16 47.03125-8 232.96875h-144l-8-232.074218-16-47.925782v-88c32 0 32 16 64 16s32-16 64-16 32 16 64 16zm0 0" fill="#fff200"/><path d="m144.359375 191.722656c0 26.511719-14.328125 40-32 40s-32-13.488281-32-40c0-26.511718 32-56 32-56s32 29.488282 32 56zm0 0" fill="#c2fb3b"/><path d="m181.738281 321.035156c-13.855469 22.597656-33.121093 26.613282-48.183593 17.382813-15.066407-9.230469-20.242188-28.222657-6.402344-50.824219s56.5625-31.070312 56.5625-31.070312 11.847656 41.902343-1.976563 64.511718zm0 0" fill="#c2fb3b"/><path d="m208.359375 151.722656c0 13.253906-10.742187 24-24 24-13.253906 0-24-10.746094-24-24s10.746094-24 24-24c13.257813 0 24 10.746094 24 24zm0 0" fill="#ffeb99"/><path d="m120.359375 391.722656c0 8.835938-7.160156 16-16 16-8.835937 0-16-7.164062-16-16 0-8.835937 7.164063-16 16-16 8.839844 0 16 7.164063 16 16zm0 0" fill="#ffeb99"/><path d="m184.359375 415.722656c0 8.835938-7.160156 16-16 16-8.835937 0-16-7.164062-16-16 0-8.835937 7.164063-16 16-16 8.839844 0 16 7.164063 16 16zm0 0" fill="#ffeb99"/><path d="m304.359375 47.722656c0 22.089844-17.90625 40-40 40-22.089844 0-40-17.910156-40-40 0-22.09375 17.910156-40 40-40 22.09375 0 40 17.90625 40 40zm0 0" fill="#d7df23"/><g fill="#231f20"><path d="m232.359375 103.722656c-9.953125.277344-19.789063-2.203125-28.421875-7.160156-10.863281-6.058594-23.140625-9.113281-35.578125-8.839844-12.433594-.273437-24.714844 2.78125-35.574219 8.839844-8.632812 4.957031-18.472656 7.4375-28.425781 7.160156-9.953125.277344-19.789063-2.203125-28.421875-7.160156-10.863281-6.058594-23.140625-9.113281-35.578125-8.839844-4.417969 0-8 3.582032-8 8v88c.003906.859375.140625 1.710938.410156 2.527344l15.632813 46.839844 8 230.902344c.144531 4.296874 3.660156 7.710937 7.957031 7.730468h144c4.316406 0 7.855469-3.417968 8-7.730468l7.953125-231.78125 15.625-45.914063c.28125-.828125.421875-1.699219.421875-2.574219v-72c0-4.417968-3.582031-8-8-8zm-8 78.679688-15.574219 45.777344c-.253906.742187-.398437 1.519531-.425781 2.300781l-7.726563 225.242187h-128.542968l-7.730469-224.34375c-.027344-.769531-.167969-1.527344-.40625-2.257812l-15.59375-46.695313v-78.289062c7.1875.878906 14.128906 3.167969 20.425781 6.746093 10.859375 6.058594 23.140625 9.109376 35.574219 8.839844 12.433594.28125 24.710937-2.753906 35.578125-8.800781 8.628906-4.972656 18.464844-7.464844 28.421875-7.199219 9.953125-.277344 19.792969 2.199219 28.425781 7.160156 8.5 4.722657 17.890625 7.617188 27.574219 8.496094zm0 0"/><path d="m128.359375 79.722656c4.417969 0 8-3.582031 8-8 0-4.417968-3.582031-8-8-8h-96c-4.417969 0-8 3.582032-8 8 0 4.417969 3.582031 8 8 8zm0 0"/><path d="m152.359375 79.722656h8c4.417969 0 8-3.582031 8-8 0-4.417968-3.582031-8-8-8h-8c-4.417969 0-8 3.582032-8 8 0 4.417969 3.582031 8 8 8zm0 0"/><path d="m104.359375 238.921875v16.800781c0 4.417969 3.582031 8 8 8s8-3.582031 8-8v-16.800781c16.953125-3.511719 32-18.472656 32-47.160156 0-29.671875-33.167969-60.574219-34.574219-61.878907-3.0625-2.828124-7.785156-2.828124-10.847656 0-1.410156 1.261719-34.578125 32.167969-34.578125 61.839844 0 28.6875 15.050781 43.648438 32 47.199219zm8-91.816406c9.65625 10.402343 24 29.152343 24 44.65625 0 15.847656-6 26.746093-16 30.480469v-22.519532c0-4.417968-3.582031-8-8-8s-8 3.582032-8 8v22.480469c-10-3.738281-16-14.632813-16-30.480469 0-15.457031 14.355469-34.25 24-44.65625zm0 0"/><path d="m182.167969 248.714844c-1.886719.375-46.320313 9.390625-61.824219 34.695312-14.992188 24.464844-9.976562 45.078125 2.640625 56.9375l-8.800781 14.351563c-1.546875 2.4375-1.65625 5.519531-.292969 8.066406 1.363281 2.542969 3.996094 4.15625 6.882813 4.214844 2.886718.0625 5.582031-1.4375 7.050781-3.921875l8.800781-14.402344c4.0625 1.503906 8.355469 2.289062 12.6875 2.320312 13.425781 0 27.921875-7.335937 39.199219-25.742187 15.511719-25.304687 3.378906-68.992187 2.855469-70.832031-1.125-3.996094-5.121094-6.464844-9.199219-5.6875zm-7.253907 68.144531c-8.28125 13.503906-19.097656 19.65625-29.601562 17.597656l11.746094-19.199219c1.730468-2.433593 1.960937-5.628906.597656-8.285156-1.363281-2.660156-4.089844-4.335937-7.078125-4.351562-2.984375-.015625-5.730469 1.632812-7.121094 4.277344l-11.742187 19.199218c-6.578125-8.40625-6-20.800781 2.277344-34.351562 8.074218-13.175782 30.128906-21.703125 43.800781-25.535156 2.785156 13.949218 5.191406 37.472656-2.878907 50.648437zm0 0"/><path d="m152.359375 151.722656c0 17.671875 14.328125 32 32 32 17.675781 0 32-14.328125 32-32s-14.324219-32-32-32c-17.671875 0-32 14.328125-32 32zm48 0c0 8.835938-7.160156 16-16 16-8.835937 0-16-7.164062-16-16 0-8.835937 7.164063-16 16-16 8.839844 0 16 7.164063 16 16zm0 0"/><path d="m104.359375 367.722656c-13.253906 0-24 10.746094-24 24s10.746094 24 24 24c13.257813 0 24-10.746094 24-24s-10.742187-24-24-24zm0 32c-4.417969 0-8-3.582031-8-8 0-4.417968 3.582031-8 8-8s8 3.582032 8 8c0 4.417969-3.582031 8-8 8zm0 0"/><path d="m168.359375 391.722656c-13.253906 0-24 10.746094-24 24s10.746094 24 24 24c13.257813 0 24-10.746094 24-24s-10.742187-24-24-24zm0 32c-4.417969 0-8-3.582031-8-8 0-4.417968 3.582031-8 8-8s8 3.582032 8 8c0 4.417969-3.582031 8-8 8zm0 0"/><path d="m312.359375 47.722656c-.140625-24.847656-19.222656-45.476562-43.980469-47.554687-24.761718-2.078125-47.011718 15.082031-51.296875 39.554687h-208.722656c-4.417969 0-8 3.582032-8 8v144c0 1.015625.195313 2.023438.570313 2.96875l15.480468 38.695313 7.949219 254.582031c.136719 4.324219 3.679687 7.753906 8 7.753906h208c4.324219 0 7.867187-3.429687 8-7.753906l8-254.824219 15.632813-46.894531c.257812-.816406.382812-1.671875.367187-2.527344v-88.71875c23.066406-3.921875 39.957031-23.886718 40-47.28125zm-56 30.863282c-11.191406-2.925782-19.933594-11.667969-22.863281-22.863282h22.863281zm-15.589844 150.609374c-.246093.734376-.382812 1.503907-.410156 2.277344l-7.75 248.25h-192.496094l-7.753906-248.25c-.03125-.929687-.222656-1.851562-.566406-2.71875l-15.433594-38.566406v-134.464844h200.722656c3.433594 20.097656 19.179688 35.84375 39.277344 39.28125v87.421875zm31.589844-150.609374v-30.863282c0-4.417968-3.582031-8-8-8h-30.863281c3.871094-15.097656 18.074218-25.199218 33.605468-23.898437 15.53125 1.304687 27.855469 13.625 29.15625 29.15625 1.300782 15.535156-8.796874 29.738281-23.898437 33.605469zm0 0"/></g></svg>