<svg id="Capa_1" enable-background="new 0 0 512 512" height="512" viewBox="0 0 512 512" width="512" xmlns="http://www.w3.org/2000/svg"><g><g><g><path d="m406.141 392.031h-60.191c-7.366 0-13.336-5.971-13.336-13.336s5.971-13.336 13.336-13.336h60.191c39.529 0 71.687-32.159 71.687-71.688 0-12.218-9.94-22.158-22.158-22.158h-109.72c-7.366 0-13.336-5.971-13.336-13.336s5.971-13.336 13.336-13.336h109.72c26.925 0 48.83 21.905 48.83 48.83 0 54.236-44.124 98.36-98.359 98.36z" fill="#ebebeb"/></g><path d="m455.67 244.841h-39.203c19.137 0 35.728 11.07 43.731 27.138 10.054 2.096 17.631 11.025 17.631 21.692 0 25.487-13.381 47.895-33.475 60.61-18.021 22.968-46.024 37.75-77.415 37.75h39.203c54.235 0 98.359-44.124 98.359-98.36-.001-26.924-21.906-48.83-48.831-48.83z" fill="#e2e2e2"/><path d="m243.284 444.229c-104.871 0-189.885-85.014-189.885-189.885v-44.881c0-6.356 5.152-11.508 11.508-11.508h356.754c6.356 0 11.508 5.152 11.508 11.508v44.881c0 104.871-85.014 189.885-189.885 189.885z" fill="#ebebeb"/><path d="m447.188 484.08h-407.807c-17.607 0-31.881-14.273-31.881-31.881 0-4.402 3.568-7.97 7.97-7.97h455.628c4.402 0 7.97 3.568 7.97 7.97 0 17.607-14.273 31.881-31.88 31.881z" fill="#bfbfbf"/><path d="m153.872 248.882-28.154 28.42c-2.016 2.035-3.147 4.783-3.147 7.647v62.703c0 6.001 4.865 10.866 10.866 10.866h56.308c6.001 0 10.866-4.865 10.866-10.866v-62.703c0-2.864-1.131-5.613-3.147-7.647l-28.154-28.42c-4.25-4.292-11.186-4.292-15.438 0z" fill="#57be92"/><path d="m421.661 197.956h-39.203c6.356 0 11.508 5.152 11.508 11.508v44.881c0 98.252-74.623 179.072-170.283 188.882 6.444.661 12.983 1.002 19.601 1.002 104.87 0 189.885-85.014 189.885-189.884v-44.881c0-6.356-5.152-11.508-11.508-11.508z" fill="#e2e2e2"/><path d="m471.098 444.229h-39.203c4.402 0 7.97 3.568 7.97 7.97 0 17.607-14.273 31.88-31.881 31.88h39.203c17.607 0 31.881-14.273 31.881-31.88 0-4.402-3.568-7.97-7.97-7.97z" fill="#acacac"/></g><path d="m471.098 436.729h-152.366c21.56-8.952 41.201-21.617 58.123-37.197h29.286c58.371 0 105.859-47.488 105.859-105.86 0-31.061-25.27-56.331-56.33-56.331h-15.001v-27.877c0-10.481-8.527-19.008-19.008-19.008h-356.754c-10.481 0-19.008 8.527-19.008 19.008v33.269c0 4.142 3.358 7.5 7.5 7.5s7.5-3.358 7.5-7.5v-33.269c0-2.21 1.798-4.008 4.008-4.008h89.185v34.316c-2.042.915-3.925 2.194-5.548 3.832l-28.154 28.42c-3.429 3.462-5.318 8.053-5.318 12.926v62.703c0 10.127 8.239 18.366 18.366 18.366h56.308c10.127 0 18.367-8.239 18.367-18.366v-62.703c0-4.874-1.889-9.464-5.319-12.926l-28.153-28.419c-1.623-1.639-3.507-2.918-5.548-3.833v-34.316h252.569c2.21 0 4.008 1.798 4.008 4.008v44.853.063c-.018 100.286-81.595 182.349-182.385 182.349-92.03 0-169.852-68.773-181.021-159.973-.503-4.111-4.243-7.041-8.356-6.533-4.111.503-7.036 4.245-6.533 8.356 8.858 72.328 56.445 131.619 120.429 158.15h-152.334c-8.53 0-15.47 6.94-15.47 15.47 0 21.715 17.666 39.381 39.381 39.381h322c4.142 0 7.5-3.358 7.5-7.5s-3.358-7.5-7.5-7.5h-322c-13.444 0-24.381-10.937-24.381-24.381 0-.259.211-.47.47-.47h455.628c.259 0 .47.211.47.47 0 13.444-10.937 24.381-24.381 24.381h-50.807c-4.142 0-7.5 3.358-7.5 7.5s3.358 7.5 7.5 7.5h50.807c21.715 0 39.381-17.666 39.381-39.381 0-8.531-6.94-15.47-15.47-15.47zm-278.961-154.149c.629.635.975 1.476.975 2.37v62.703c0 1.856-1.51 3.366-3.367 3.366h-56.308c-1.856 0-3.366-1.51-3.366-3.366v-62.703c0-.894.346-1.735.975-2.37l23.045-23.263v21.334c0 4.142 3.358 7.5 7.5 7.5s7.5-3.358 7.5-7.5v-21.334zm246.993-3.567h16.54c8.083 0 14.658 6.576 14.658 14.658 0 33.613-25.976 61.254-58.904 63.952 14.443-23.426 24.133-50.079 27.706-78.61zm1.545-26.672h14.995c22.79 0 41.33 18.541 41.33 41.331 0 50.1-40.759 90.86-90.859 90.86h-14.501c3.309-3.77 6.476-7.666 9.489-11.672h5.012c43.664 0 79.188-35.523 79.188-79.188 0-16.354-13.305-29.658-29.658-29.658h-15.239c.187-3.876.238-7.792.243-11.673z"/><path d="m233.406 170.574c4.092 0 7.409-3.317 7.409-7.409 0-18.362 19.757-19.588 19.757-45.108 0-25.545-19.757-26.711-19.757-45.114 0-18.344 19.757-19.609 19.757-45.114 0-4.092-3.317-7.409-7.409-7.409s-7.409 3.317-7.409 7.409c0 18.363-19.757 19.592-19.757 45.114 0 25.548 19.757 26.709 19.757 45.114 0 18.361-19.757 19.589-19.757 45.108 0 4.092 3.317 7.409 7.409 7.409z"/><path d="m289.41 170.574c4.092 0 7.409-3.317 7.409-7.409 0-18.362 19.757-19.588 19.757-45.108 0-25.545-19.757-26.711-19.757-45.114 0-18.344 19.757-19.609 19.757-45.114 0-4.092-3.317-7.409-7.409-7.409s-7.409 3.317-7.409 7.409c0 18.363-19.757 19.592-19.757 45.114 0 25.548 19.757 26.709 19.757 45.114 0 18.361-19.757 19.589-19.757 45.108 0 4.092 3.317 7.409 7.409 7.409z"/><path d="m177.402 170.574c4.092 0 7.409-3.317 7.409-7.409 0-18.362 19.757-19.588 19.757-45.108 0-25.545-19.757-26.711-19.757-45.114 0-18.344 19.757-19.609 19.757-45.114 0-4.092-3.317-7.409-7.409-7.409s-7.409 3.317-7.409 7.409c0 18.363-19.757 19.592-19.757 45.114 0 25.548 19.757 26.709 19.757 45.114 0 18.361-19.757 19.589-19.757 45.108 0 4.092 3.317 7.409 7.409 7.409z"/></g></svg>