<?xml version="1.0" encoding="iso-8859-1"?>
<!-- Generator: Adobe Illustrator 19.0.0, SVG Export Plug-In . SVG Version: 6.00 Build 0)  -->
<svg xmlns="http://www.w3.org/2000/svg" xmlns:xlink="http://www.w3.org/1999/xlink" version="1.1" id="Capa_1" x="0px" y="0px" viewBox="0 0 512 512" style="enable-background:new 0 0 512 512;" xml:space="preserve" width="512" height="512">
<g>
	<g>
		<path style="fill:#EDEBED;" d="M424.29,119.643h-64.168v256.672h64.168c44.299,0,80.21-35.911,80.21-80.21v-96.252    C504.5,155.554,468.589,119.643,424.29,119.643z M472.416,296.105c0,26.579-21.547,48.126-48.126,48.126    s-48.126-21.547-48.126-48.126v-96.252c0-26.579,21.547-48.126,48.126-48.126s48.126,21.547,48.126,48.126V296.105z"/>
		<path style="fill:#DBD9DC;" d="M405.728,340.512c-17.362-7.266-29.564-24.408-29.564-44.407v-96.252    c0-22.563,15.549-41.446,36.502-46.653l1.243-33.557h-53.786v256.672h44.28L405.728,340.512z"/>
		<path style="fill:#EDEBED;" d="M360.705,488.609H38.699c-8.629,0-15.712-6.825-16.031-15.448L7.506,63.793    c-0.168-4.543,3.469-8.318,8.016-8.318h368.361c4.546,0,8.184,3.775,8.016,8.318l-15.162,409.368    C376.417,481.784,369.334,488.609,360.705,488.609z"/>
		<path style="fill:#DBD9DC;" d="M7.506,63.793l15.163,409.368c0.319,8.623,7.402,15.448,16.03,15.448h322.007    c8.628,0,15.711-6.826,16.03-15.448l0.617-16.636H119.492l-7.613-401.05H15.522C10.976,55.475,7.338,59.25,7.506,63.793z"/>
		<path style="fill:#FFAC73;" d="M22.052,456.525h355.301l12.294-331.96c-6.832,1.81-14.992,3.099-26.44,3.099    c-40.902,0-40.902-16.042-81.804-16.042c-40.875,0-40.875,16.042-81.748,16.042c-40.887,0-40.887-16.042-81.774-16.042    c-40.873,0-40.873,16.042-81.745,16.042c-11.418,0-19.559-1.287-26.378-3.091L22.052,456.525z"/>
		<path style="fill:#EB9664;" d="M119.492,456.525l-6.544-344.78c-35.918,1.258-37.689,15.919-76.812,15.919    c-11.418,0-19.559-1.287-26.378-3.091l6.409,173.059l5.885,158.893H119.492z"/>
		<path style="fill:#EB9664;" d="M215.744,456.525H71.366c-8.86,0-16.042-7.182-16.042-16.042V269.829    c0-3.753,1.316-7.387,3.718-10.27l33.982-40.778c1.524-1.829,3.781-2.886,6.162-2.886h88.738c2.38,0,4.638,1.057,6.162,2.886    l33.982,40.778c2.403,2.883,3.718,6.517,3.718,10.27v170.654C231.786,449.343,224.604,456.525,215.744,456.525z"/>
		<path style="fill:#FFE1A0;" d="M336.059,336.21h-48.126c-4.43,0-8.021-3.591-8.021-8.021v-52.825c0-2.127,0.845-4.167,2.349-5.672    l29.735-29.735l29.735,29.735c1.504,1.504,2.349,3.544,2.349,5.672v52.825C344.08,332.619,340.489,336.21,336.059,336.21z"/>
		<path style="fill:#D68458;" d="M187.636,328.4c-22.062,0-22.062,11.298-44.121,11.298c-22.042,0-22.042-11.298-44.083-11.298    c-22.053,0-22.053,11.298-44.107,11.298v100.785c0,8.86,7.183,16.042,16.042,16.042h144.378c8.859,0,16.042-7.182,16.042-16.042    V339.698C209.711,339.698,209.711,328.4,187.636,328.4z"/>
		<path style="fill:#D68458;" d="M99.186,215.895c-2.38,0-4.638,1.057-6.162,2.886l-33.982,40.778    c-2.403,2.883-3.719,6.517-3.719,10.27v170.654c0,8.86,7.183,16.042,16.042,16.042h48.126l-4.568-240.63H99.186z"/>
		<path style="fill:#C87850;" d="M71.366,456.525h48.126l-2.366-124.604c-4.364-1.96-9.507-3.521-17.696-3.521    c-22.053,0-22.053,11.298-44.107,11.298v100.785C55.324,449.343,62.507,456.525,71.366,456.525z"/>
	</g>
	<path d="M424.29,112.143h-26.678l1.781-48.074c0.157-4.251-1.382-8.28-4.334-11.344c-2.952-3.063-6.921-4.75-11.176-4.75h-86.48   c-16.835-19.627-41.802-32.084-69.627-32.084c-27.019,0-52.203,11.651-69.678,32.084H15.521c-4.254,0-8.224,1.687-11.176,4.75   c-2.953,3.064-4.492,7.093-4.334,11.345l15.162,409.369c0.471,12.713,10.805,22.671,23.526,22.671h322.007   c12.721,0,23.055-9.958,23.526-22.671l3.319-89.624h36.74c48.363,0,87.71-39.347,87.71-87.71v-96.252   C512,151.49,472.654,112.143,424.29,112.143z M395.423,171.269c7.609-7.678,18.01-12.042,28.868-12.042   c22.401,0,40.626,18.225,40.626,40.626v96.252c0,22.401-18.225,40.626-40.626,40.626c-13.885,0-26.869-7.203-34.297-18.878   L395.423,171.269z M383.883,62.975c0.055,0,0.221,0,0.375,0.16s0.148,0.326,0.146,0.381l-2.01,54.277   c-6.656,1.622-13.709,2.372-22.308,2.372c-18.618,0-27.711-3.636-37.339-7.485c-1.076-0.43-2.156-0.862-3.25-1.29v-3.778   c0-16.194-4.224-31.417-11.62-44.637H383.883z M311.996,279.542c4.142,0,7.5-3.358,7.5-7.5v-13.978l16.933,16.933   c0.096,0.097,0.152,0.23,0.152,0.367v52.825c0,0.287-0.234,0.521-0.521,0.521h-48.126c-0.287,0-0.521-0.234-0.521-0.521v-52.825   c0-0.137,0.055-0.271,0.153-0.368l16.931-16.932v13.977C304.496,276.184,307.854,279.542,311.996,279.542z M227.776,30.891   c18.243,0,35.01,6.411,48.192,17.084h-96.485C193.005,36.981,209.912,30.891,227.776,30.891z M15.146,63.134   c0.154-0.16,0.32-0.16,0.375-0.16h274.594c8.854,12.331,14.144,27.375,14.355,43.63c-6.537-1.492-14.374-2.483-24.632-2.483   c-21.493,0-32.367,4.351-42.882,8.558c-9.62,3.849-18.707,7.484-37.31,7.484c-18.61,0-27.7-3.636-37.323-7.484   c-3.58-1.432-7.202-2.88-11.269-4.168v-0.901c0-6.183,0.736-12.333,2.188-18.277c0.983-4.023-1.482-8.083-5.506-9.065   c-4.02-0.98-8.082,1.482-9.065,5.506c-1.545,6.323-2.408,12.834-2.581,19.39c-4.793-0.654-10.253-1.043-16.662-1.043   c-21.492,0-32.365,4.351-42.88,8.558c-9.62,3.849-18.706,7.484-37.309,7.484c-10.08,0-17.071-1.083-22.229-2.338L15,63.515   C14.998,63.461,14.992,63.294,15.146,63.134z M143.555,239.437c4.142,0,7.5-3.358,7.5-7.5v-8.542h25.626l-33.126,44.168   l-33.126-44.168h25.626v8.542C136.055,236.079,139.413,239.437,143.555,239.437z M95.119,227.982l21.404,28.539H71.337   L95.119,227.982z M149.555,284.563l9.781-13.042h64.949v60.073c-4.502-0.818-7.576-2.387-11.159-4.221   c-5.928-3.034-12.647-6.473-25.493-6.473c-12.839,0-19.554,3.439-25.479,6.474c-5.263,2.695-9.42,4.824-18.642,4.824   c-9.21,0-13.363-2.128-18.621-4.823c-5.921-3.035-12.631-6.475-25.462-6.475c-12.836,0-19.549,3.439-25.473,6.474   c-3.575,1.831-6.644,3.399-11.134,4.217v-60.071h64.949l9.781,13.042c1.417,1.889,3.639,3,6,3S148.138,286.452,149.555,284.563z    M62.824,440.484v-93.735c8.185-1.024,13.329-3.645,17.973-6.024c5.261-2.695,9.417-4.824,18.634-4.824   c9.21,0,13.363,2.128,18.621,4.823c5.921,3.035,12.631,6.475,25.462,6.475c12.839,0,19.554-3.439,25.479-6.474   c5.263-2.695,9.42-4.824,18.642-4.824c9.23,0,13.391,2.129,18.659,4.825c4.649,2.379,9.798,5,17.993,6.023v93.735   c0,4.71-3.832,8.542-8.542,8.542H71.366C66.656,449.026,62.824,445.193,62.824,440.484z M170.586,256.521l21.404-28.539   l23.782,28.539H170.586z M95.429,208.395c-2.226,0-4.337,0.989-5.762,2.699L49.562,259.22c-1.123,1.348-1.738,3.047-1.738,4.801   v176.462c0,3.013,0.575,5.892,1.611,8.542H29.279L17.585,133.291c6.591,1.278,13.579,1.873,21.656,1.873   c21.492,0,32.366-4.351,42.881-8.558c9.62-3.849,18.706-7.484,37.308-7.484c6.593,0,11.975,0.463,16.625,1.223v88.05H95.429z    M360.705,481.109H38.698c-4.616,0-8.365-3.613-8.536-8.226l-0.328-8.858h298.202c4.142,0,7.5-3.358,7.5-7.5s-3.358-7.5-7.5-7.5   h-90.362c1.036-2.65,1.611-5.529,1.611-8.542V264.021c0-1.754-0.615-3.454-1.738-4.801l-40.105-48.126   c-1.425-1.71-3.536-2.699-5.762-2.699h-40.626v-84.008c1.929,0.715,3.804,1.463,5.698,2.22c10.519,4.207,21.395,8.557,42.894,8.557   c21.493,0,32.366-4.351,42.882-8.558c9.62-3.849,18.707-7.484,37.31-7.484c10.753,0,18.321,1.216,24.657,2.982v114.747   l-27.537,27.537c-2.933,2.931-4.547,6.829-4.547,10.976v52.825c0,8.558,6.963,15.521,15.521,15.521h48.126   c8.558,0,15.521-6.963,15.521-15.521v-52.825c0-4.146-1.615-8.044-4.546-10.975l-27.538-27.538V127.53   c9.852,3.897,20.656,7.634,40.589,7.634c8.02,0,15.104-0.627,21.735-1.909l-11.696,315.77h-10.006c-4.142,0-7.5,3.358-7.5,7.5   s3.358,7.5,7.5,7.5h9.45l-0.328,8.858C369.071,477.496,365.321,481.109,360.705,481.109z M497,296.105   c0,40.092-32.618,72.71-72.71,72.71h-36.184l1.095-29.578c9.789,7.941,22.159,12.494,35.089,12.494   c30.672,0,55.626-24.954,55.626-55.626v-96.252c0-30.672-24.954-55.626-55.626-55.626c-9.991,0-19.696,2.702-28.15,7.661   l0.916-24.745h27.234c40.092,0,72.71,32.618,72.71,72.71V296.105z"/>
</g>















</svg>
