<?xml version="1.0" encoding="iso-8859-1"?>
<!-- Generator: Adobe Illustrator 19.0.0, SVG Export Plug-In . SVG Version: 6.00 Build 0)  -->
<svg xmlns="http://www.w3.org/2000/svg" xmlns:xlink="http://www.w3.org/1999/xlink" version="1.1" id="Capa_1" x="0px" y="0px" viewBox="0 0 512 512" style="enable-background:new 0 0 512 512;" xml:space="preserve" width="512" height="512">
<g>
	<g>
		<path style="fill:#F7D291;" d="M159.871,235.948l16.039-32.078H47.598l16.039,32.078L7.5,412.378l19.625,39.251    c2.717,5.434,8.271,8.866,14.346,8.866h140.565c6.075,0,11.629-3.432,14.346-8.866l19.625-39.251L159.871,235.948z"/>
		<path style="fill:#9A6C5E;" d="M395.007,251.309L273.97,280.74c-4.224,1.027-8.497-1.498-9.635-5.693l-4.307-15.882    c-1.138-4.195,1.274-8.533,5.438-9.781l119.321-35.756c10.524-3.154,21.577,2.992,24.453,13.595l0,0    C412.116,237.826,405.682,248.713,395.007,251.309z"/>
		<circle style="fill:#785353;" cx="424.72" cy="223.024" r="16.039"/>
		<path style="fill:#9A6C5E;" d="M451.482,199.148c-9.401,2.55-14.572,12.949-10.365,22.22c3.302,7.276,11.878,10.607,19.589,8.516    l37.872-10.271c4.275-1.159,6.8-5.564,5.641-9.839l-4.198-15.48c-1.159-4.275-5.564-6.8-9.839-5.641L451.482,199.148z"/>
		<path style="fill:#785353;" d="M286.94,242.948l-21.474,6.435c-4.164,1.248-6.576,5.586-5.438,9.782l4.307,15.881    c1.139,4.195,5.411,6.72,9.635,5.694l22.478-5.465L286.94,242.948z"/>
		<path style="fill:#F0C382;" d="M73.614,418.25L73.614,418.25c-1.288-3.863-1.671-7.97-1.121-12.005l21.752-159.511    c0.979-7.182,1.471-14.422,1.471-21.671V203.87H47.598l16.039,32.078L7.5,412.378l19.626,39.251    c2.717,5.434,8.27,8.866,14.345,8.866h140.564c6.075,0,11.629-3.432,14.346-8.866l7.597-15.192H98.846    C87.398,436.436,77.234,429.111,73.614,418.25z"/>
	</g>
	<g>
		<path d="M511.457,207.81l-4.198-15.48c-1.085-4.001-3.664-7.34-7.26-9.401c-3.596-2.062-7.778-2.6-11.781-1.515l-38.7,10.496    c-5.787,1.569-10.702,5.26-13.828,10.294c-5.285-2.791-11.335-3.471-17.132-1.898c-5.478,1.486-10.123,4.83-13.278,9.477    c-0.57-0.375-1.152-0.737-1.755-1.072c-6.427-3.573-13.846-4.378-20.891-2.268l-119.321,35.756    c-8.12,2.433-12.743,10.748-10.524,18.929l0.191,0.705l-70.887,19.222l-14.152-44.478l12.603-25.207h3.384    c4.142,0,7.5-3.358,7.5-7.5s-3.358-7.5-7.5-7.5H39.578c-4.142,0-7.5,3.358-7.5,7.5s3.358,7.5,7.5,7.5h3.384l12.603,25.207    L0.353,410.104c-0.592,1.861-0.435,3.881,0.439,5.628l19.625,39.25c4.013,8.026,12.081,13.013,21.054,13.013h140.565    c8.973,0,17.041-4.986,21.054-13.013l19.625-39.25c0.874-1.747,1.031-3.767,0.439-5.628l-36.508-114.741l70.261-19.053l0.19,0.699    c1.881,6.936,8.053,11.469,14.907,11.469c1.231,0,2.484-0.146,3.738-0.451l121.037-29.431c7.146-1.737,13.142-6.181,16.883-12.512    c0.349-0.59,0.666-1.193,0.967-1.801c3.174,1.513,6.594,2.29,10.054,2.29c2.068,0,4.15-0.275,6.199-0.831    c5.855-1.588,10.757-5.299,13.905-10.457c3.439,1.752,7.325,2.71,11.317,2.71c2.176,0,4.384-0.283,6.565-0.875l37.873-10.271    C508.8,224.609,513.697,216.068,511.457,207.81z M69.121,243.448h42.634c4.142,0,7.5-3.358,7.5-7.5s-3.358-7.5-7.5-7.5H68.272    l-8.539-17.078h104.042l-8.539,17.078h-11.405c-4.142,0-7.5,3.358-7.5,7.5s3.358,7.5,7.5,7.5h10.556l51.364,161.43H17.757    L69.121,243.448z M189.674,448.274c-1.457,2.912-4.383,4.721-7.638,4.721H41.471c-3.255,0-6.182-1.809-7.638-4.721l-14.198-28.396    h184.237L189.674,448.274z M272.199,273.453c-0.274,0.067-0.55-0.095-0.625-0.369l-4.307-15.881    c-0.075-0.274,0.08-0.553,0.352-0.634l15.881-4.759l4.808,17.726L272.199,273.453z M400.748,238.453    c-1.665,2.817-4.333,4.795-7.513,5.568l-90.348,21.969l-5.014-18.488l89.067-26.69c1.146-0.343,2.313-0.514,3.473-0.514    c2.015,0,4.009,0.513,5.824,1.522c2.861,1.59,4.908,4.206,5.765,7.364C402.858,232.344,402.413,235.636,400.748,238.453z     M426.956,231.265c-2.202,0.597-4.504,0.301-6.482-0.833c-1.979-1.134-3.397-2.971-3.995-5.173    c-1.232-4.544,1.462-9.244,6.006-10.476c0.744-0.202,1.499-0.302,2.249-0.302c1.471,0,2.923,0.384,4.234,1.135    c1.979,1.134,3.397,2.971,3.994,5.172l0,0C434.194,225.333,431.5,230.033,426.956,231.265z M496.615,212.373l-37.872,10.271    c-4.398,1.191-9.142-0.729-10.796-4.377c-1.082-2.384-1.081-4.966,0.004-7.27c1.07-2.274,3.073-3.955,5.495-4.612l38.699-10.495    c0.051-0.014,0.208-0.057,0.395,0.051c0.187,0.107,0.229,0.263,0.243,0.314l4.198,15.48    C497.055,212.012,496.891,212.298,496.615,212.373z"/>
		<path d="M96.234,163.773c0,4.142,3.358,7.5,7.5,7.5s7.5-3.358,7.5-7.5c0-6.158,2.436-8.895,6.123-13.038    c4.418-4.965,9.917-11.144,9.917-23.009c0-11.877-5.497-18.063-9.913-23.035c-3.689-4.152-6.126-6.896-6.126-13.071    c0-6.176,2.437-8.919,6.135-13.081c2.751-3.097,2.467-7.833-0.63-10.583c-3.097-2.752-7.842-2.466-10.592,0.63    c-4.416,4.971-9.913,11.158-9.913,23.035s5.496,18.063,9.913,23.034c3.689,4.152,6.126,6.896,6.126,13.072    c0,6.158-2.436,8.895-6.122,13.038C101.733,145.728,96.234,151.907,96.234,163.773z"/>
		<path d="M144.352,127.723c0,6.035-0.987,11.773-2.934,17.056c-1.433,3.887,0.557,8.199,4.443,9.631    c0.856,0.315,1.731,0.465,2.593,0.465c3.052,0,5.921-1.877,7.038-4.908c2.561-6.949,3.86-14.433,3.86-22.243    c0-15.471-4.852-28.923-14.833-41.123c-2.622-3.206-7.348-3.678-10.554-1.056s-3.679,7.348-1.056,10.554    C140.608,105.51,144.352,115.855,144.352,127.723z"/>
		<path d="M84.567,135.208c1.658,0,3.327-0.547,4.716-1.672c3.219-2.607,3.715-7.33,1.108-10.549    c-7.56-9.334-11.235-19.596-11.235-31.369c0-18.847,9.407-29.44,14.468-35.139c2.75-3.097,2.466-7.834-0.631-10.584    c-3.096-2.75-7.84-2.466-10.591,0.631c-5.459,6.148-18.245,20.546-18.245,45.091c0,15.348,4.769,28.697,14.578,40.81    C80.216,134.257,82.382,135.208,84.567,135.208z"/>
	</g>
</g>















</svg>
