<svg id="Capa_1" enable-background="new 0 0 497 497" height="512" viewBox="0 0 497 497" width="512" xmlns="http://www.w3.org/2000/svg"><g id="_x3C_Group_x3E__17_"><path d="m342.407 325.506h36.269v69.473h-36.269z" fill="#f7f9fa" transform="matrix(.707 -.707 .707 .707 -149.13 360.454)"/><path d="m385.282 384.625-23.684-23.679c-1.534-1.534-1.575-4.019-.07-5.582 3.251-3.378 6.382-6.842 9.394-10.389l-22.12-22.12-12.65 12.65-13 13 22.14 22.14c.001-.001.002-.001.002-.002l26.988 26.982z" fill="#e9edf1"/><circle cx="202.972" cy="202.945" fill="#61aab8" r="202.945"/><path d="m353.302 339.275c-37.13 40.92-90.73 66.61-150.33 66.61-112.08 0-202.95-90.86-202.95-202.94 0-59.6 25.7-113.2 66.61-150.33-32.69 36.02-52.61 83.85-52.61 136.33 0 112.08 90.87 202.94 202.95 202.94 52.48 0 100.3-19.92 136.33-52.61z" fill="#5595a2"/><ellipse cx="202.972" cy="202.945" fill="#5595a2" rx="171.961" ry="170.658"/><path d="m334.324 187.635c7.72-23.05-13-59.898-44.011-71.39-6.242-2.314-12.275-3.367-17.72-3.701-11.18-.685-21.679-5.549-29.427-13.637-11.466-11.967-30.008-26.378-52.135-25.139-21.806 1.222-47.771 11.069-59.716 35.263-5.637 11.417-14.751 20.649-25.91 26.779-16.088 8.838-28.414 23.673-33.966 41.495v.001c-1.914 7.658-9.841 44.104 11.612 69.947 8.63 10.396 19.49 16.036 28.438 19.131 7.75 2.68 13.555 9.195 15.41 17.183 2.129 9.17 5.482 15.903 7.839 19.98 13.227 22.874 37.417 35.284 49.129 34.288 1.295-.11 12.358-1.229 12.358-1.229 7.515-1.514 14.574-4.384 20.94-8.357 9.037-5.641 19.377-8.852 30.03-8.837h.13c19.745 0 74.703-35.278 71.646-74.205-.826-10.517-5.252-13.227-3.833-23.999 2.248-17.071 14.65-20.032 19.186-33.573z" fill="#fff9df"/><path d="m312.682 271.705c-14.6 27.1-50.26 47.71-65.36 47.71h-.13c-10.65-.02-20.99 3.19-30.03 8.84-3.18 1.99-6.54 3.69-10.04 5.1-3.5 1.4-7.14 2.49-10.9 3.25 0 0-11.06 1.12-12.36 1.23-11.71 1-35.9-11.41-49.13-34.29-2.35-4.07-5.71-10.81-7.83-19.98-1.86-7.98-7.66-14.5-15.41-17.18-8.95-3.09-19.81-8.73-28.44-19.13-11.63-14.01-14.63-31.13-14.63-45.09 0-11.81 2.14-21.35 3.02-24.86 3.3-10.61 9.01-20.16 16.47-28.02-.51 1.32-.98 2.66-1.41 4.02-.9 3.51-3.08 13.05-3.08 24.85 0 13.97 3.06 31.09 14.93 45.1 8.8 10.4 19.89 16.04 29.02 19.13 7.91 2.68 13.83 9.2 15.73 17.18 2.17 9.17 5.59 15.91 8 19.98 13.5 22.88 38.18 35.29 50.13 34.29 1.33-.11 12.62-1.23 12.62-1.23 3.83-.76 7.55-1.85 11.12-3.25 3.57-1.41 7-3.11 10.25-5.1 9.22-5.65 19.77-8.86 30.64-8.84h.14c10.37 0 30.24-9.34 46.68-23.71z" fill="#fff3bf"/><g fill="#ffc736"><circle cx="246.301" cy="168.188" r="26.1"/><circle cx="141.902" cy="191.217" r="27.635"/><circle cx="211.757" cy="256.722" r="26.867"/></g><path d="m271.812 173.695c-2.52 11.77-12.99 20.59-25.51 20.59-14.42 0-26.1-11.68-26.1-26.1 0-12.52 8.82-22.99 20.59-25.51-.39 1.78-.59 3.62-.59 5.51 0 14.42 11.68 26.1 26.1 26.1 1.89 0 3.73-.2 5.51-.59z" fill="#faaa0a"/><path d="m168.692 198.015c-3.03 11.97-13.88 20.84-26.79 20.84-15.26 0-27.64-12.38-27.64-27.64 0-12.91 8.87-23.76 20.84-26.79-.55 2.17-.84 4.45-.84 6.79 0 15.26 12.38 27.64 27.64 27.64 2.34 0 4.62-.29 6.79-.84z" fill="#faaa0a"/><path d="m237.902 262.875c-2.77 11.87-13.43 20.71-26.15 20.71-14.83 0-26.86-12.02-26.86-26.86 0-12.72 8.84-23.38 20.72-26.15-.48 1.98-.72 4.03-.72 6.15 0 14.84 12.03 26.86 26.86 26.86 2.12 0 4.17-.24 6.15-.71z" fill="#faaa0a"/><path d="m487.653 486.977c-12.984 13.491-34.907 13.238-48.147-.001l-40.873-40.874c-1.916-1.916-3.586-4.064-4.97-6.394l-30.285-50.982 25.646-25.646 49.981 30.275c2.238 1.356 4.304 2.976 6.154 4.826l42.037 42.038c12.888 12.885 13.04 33.684.457 46.758z" fill="#61aab8"/><path d="m492.822 479.945c-1.37 2.51-3.1 4.87-5.17 7.03-12.98 13.49-34.91 13.24-48.15 0l-40.87-40.87c-1.92-1.92-3.58-4.07-4.97-6.4l-30.28-50.98 13-13 30.28 50.98c1.39 2.33 3.05 4.48 4.97 6.4l40.87 40.87c10.84 10.84 27.51 12.97 40.32 5.97z" fill="#5595a2"/></g></svg>