<?xml version="1.0" encoding="UTF-8" standalone="no"?>
<!DOCTYPE svg PUBLIC "-//W3C//DTD SVG 1.1//EN" "http://www.w3.org/Graphics/SVG/1.1/DTD/svg11.dtd">
<svg version="1.1" xmlns="http://www.w3.org/2000/svg" xmlns:xlink="http://www.w3.org/1999/xlink" preserveAspectRatio="xMidYMid meet" viewBox="0 0 640 640" width="640" height="640"><defs><path d="M635.15 620.53L55.68 620.53C55.68 342.36 55.68 187.83 55.68 156.92C55.68 145.21 60.2 133.98 68.25 125.7C76.3 117.42 87.22 112.77 98.61 112.77C147.97 112.77 542.87 112.77 592.23 112.77C603.62 112.77 614.54 117.42 622.59 125.7C630.64 133.98 635.16 145.21 635.15 156.92C635.15 218.74 635.15 373.27 635.15 620.53Z" id="c30JIEyEKl"></path><path d="M611.91 620.53L4.01 620.53C4.01 342.36 4.01 187.83 4.01 156.92C3.29 133.22 23.45 113.46 49.04 112.77C100.83 112.77 515.1 112.77 566.88 112.77C592.48 113.46 612.63 133.22 611.91 156.92C611.91 218.74 611.91 373.27 611.91 620.53Z" id="hJpRl86tF"></path><path d="M621.97 117.51C627.44 117.51 631.88 121.94 631.88 127.42C631.88 226.04 631.88 512 631.88 610.62C631.88 616.09 627.44 620.53 621.97 620.53C499.31 620.53 141.25 620.53 18.6 620.53C13.12 620.53 8.69 616.09 8.69 610.62C8.69 512 8.69 226.04 8.69 127.42C8.69 121.94 13.12 117.51 18.6 117.51C141.25 117.51 499.31 117.51 621.97 117.51Z" id="c34M8oiDUU"></path><path d="M513.06 564.82C506.26 564.8 499.48 563.94 492.89 562.27C457.26 553.1 432.37 520.98 432.37 484.2C432.37 447.42 457.26 415.3 492.89 406.13C499.46 404.34 506.25 403.44 513.06 403.44C557.61 403.48 593.72 439.58 593.75 484.13C593.72 528.68 557.61 564.79 513.06 564.82Z" id="ai0mjBloh"></path><path d="M492.89 562.27C457.27 553.1 432.37 520.98 432.37 484.2C432.37 447.42 457.27 415.3 492.89 406.13C528.47 415.31 553.36 447.38 553.4 484.13C553.32 520.9 528.46 552.99 492.89 562.27Z" id="f2xD5NsZp"></path><path d="M607.2 484.13C607.2 432.14 565.05 389.99 513.06 389.99C461.07 389.99 418.92 432.14 418.92 484.13C418.98 536.1 461.09 578.21 513.06 578.27C565.05 578.27 607.2 536.13 607.2 484.13ZM580.3 484.13C580.3 521.27 550.2 551.38 513.06 551.38C475.92 551.38 445.82 521.27 445.82 484.13C445.86 447.01 475.94 416.93 513.06 416.89C550.2 416.89 580.3 447 580.3 484.13Z" id="f2a86qjFI6"></path><path d="M553.4 484.13C553.4 461.85 535.34 443.79 513.06 443.79C490.78 443.79 472.71 461.85 472.71 484.13C472.74 506.4 490.79 524.45 513.06 524.48C535.34 524.48 553.4 506.41 553.4 484.13ZM526.51 484.13C526.51 491.56 520.49 497.58 513.06 497.58C505.63 497.58 499.61 491.56 499.61 484.13C499.62 476.71 505.63 470.69 513.06 470.68C520.49 470.68 526.51 476.71 526.51 484.13Z" id="a100YgQm4F"></path><path d="M117.48 564.83C110.67 564.8 103.9 563.95 97.31 562.27C61.68 553.1 36.79 520.98 36.79 484.2C36.79 447.42 61.68 415.3 97.31 406.13C103.88 404.34 110.67 403.44 117.48 403.44C162.03 403.48 198.14 439.58 198.17 484.13C198.14 528.68 162.03 564.79 117.48 564.83Z" id="c1dbEB3nX"></path><path d="M97.31 562.27C61.68 553.1 36.79 520.98 36.79 484.2C36.79 447.42 61.68 415.3 97.31 406.13C132.89 415.31 157.78 447.38 157.82 484.13C157.74 520.9 132.88 552.99 97.31 562.27Z" id="a64ZHB7Du"></path><path d="M157.82 484.2C157.82 461.92 139.76 443.85 117.48 443.85C95.2 443.85 77.13 461.92 77.13 484.2C77.16 506.47 95.21 524.52 117.48 524.55C139.76 524.55 157.82 506.48 157.82 484.2ZM130.93 484.2C130.93 491.63 124.91 497.65 117.48 497.65C110.05 497.65 104.03 491.63 104.03 484.2C104.04 476.78 110.05 470.76 117.48 470.75C124.91 470.75 130.93 476.77 130.93 484.2Z" id="i8EXmUVVs"></path><path d="M23.34 484.13C23.34 536.12 65.49 578.27 117.48 578.27C169.47 578.27 211.62 536.13 211.62 484.13C211.56 432.16 169.45 390.05 117.48 389.99C65.49 389.99 23.34 432.14 23.34 484.13ZM50.23 484.13C50.23 447 80.34 416.89 117.48 416.89C154.62 416.89 184.72 447 184.72 484.13C184.68 521.25 154.6 551.33 117.48 551.38C80.34 551.38 50.23 521.27 50.23 484.13Z" id="iVcK2vim8"></path><path d="M117.48 330.98C110.67 330.96 103.9 330.1 97.31 328.42C61.68 319.25 36.79 287.14 36.79 250.35C36.79 213.57 61.68 181.45 97.31 172.28C103.88 170.5 110.67 169.59 117.48 169.59C162.03 169.63 198.14 205.74 198.17 250.29C198.14 294.84 162.03 330.94 117.48 330.98Z" id="a3Gi18eTab"></path><path d="M97.31 328.42C61.68 319.25 36.79 287.14 36.79 250.35C36.79 213.57 61.68 181.45 97.31 172.28C132.89 181.46 157.78 213.53 157.82 250.29C157.74 287.05 132.88 319.15 97.31 328.42Z" id="b2nKdmSByT"></path><path d="M157.82 250.35C157.82 228.07 139.76 210.01 117.48 210.01C95.2 210.01 77.13 228.07 77.13 250.35C77.16 272.63 95.21 290.68 117.48 290.7C139.76 290.7 157.82 272.64 157.82 250.35ZM130.93 250.35C130.93 257.78 124.91 263.8 117.48 263.8C110.05 263.8 104.03 257.78 104.03 250.35C104.04 242.93 110.05 236.91 117.48 236.91C124.91 236.91 130.93 242.93 130.93 250.35Z" id="a3kUzBH7il"></path><path d="M23.34 250.29C23.34 302.28 65.49 344.43 117.48 344.43C169.47 344.43 211.62 302.28 211.62 250.29C211.56 198.32 169.45 156.2 117.48 156.15C65.49 156.15 23.34 198.29 23.34 250.29ZM50.23 250.29C50.23 213.15 80.34 183.04 117.48 183.04C154.62 183.04 184.72 213.15 184.72 250.29C184.68 287.41 154.6 317.49 117.48 317.53C80.34 317.53 50.23 287.42 50.23 250.29Z" id="a1uXMx3nlQ"></path><path d="M513.06 330.98C506.25 330.96 499.48 330.1 492.89 328.42C457.26 319.25 432.37 287.14 432.37 250.35C432.37 213.57 457.26 181.45 492.89 172.28C499.46 170.5 506.25 169.59 513.06 169.59C557.61 169.63 593.72 205.74 593.75 250.29C593.72 294.84 557.61 330.94 513.06 330.98Z" id="aFJV0JqnH"></path><path d="M492.89 328.42C457.26 319.25 432.37 287.14 432.37 250.35C432.37 213.57 457.26 181.45 492.89 172.28C528.47 181.46 553.36 213.53 553.4 250.29C553.32 287.05 528.46 319.15 492.89 328.42Z" id="a4VELhOA7Q"></path><path d="M418.92 250.29C418.92 302.28 461.07 344.43 513.06 344.43C565.05 344.43 607.2 302.28 607.2 250.29C607.14 198.32 565.03 156.2 513.06 156.15C461.07 156.15 418.92 198.29 418.92 250.29ZM445.81 250.29C445.81 213.15 475.92 183.04 513.06 183.04C550.2 183.04 580.3 213.15 580.3 250.29C580.26 287.41 550.18 317.49 513.06 317.53C475.92 317.53 445.81 287.42 445.81 250.29Z" id="cKw879qht"></path><path d="M553.4 250.35C553.4 228.07 535.34 210.01 513.06 210.01C490.78 210.01 472.71 228.07 472.71 250.35C472.74 272.63 490.79 290.68 513.06 290.7C535.34 290.7 553.4 272.64 553.4 250.35ZM526.51 250.35C526.51 257.78 520.49 263.8 513.06 263.8C505.63 263.8 499.61 257.78 499.61 250.35C499.62 242.93 505.63 236.91 513.06 236.91C520.49 236.91 526.51 242.93 526.51 250.35Z" id="d4hOfqCvnc"></path><path d="M315.62 330.98C308.82 330.96 302.04 330.1 295.45 328.42C259.83 319.25 234.93 287.14 234.93 250.35C234.93 213.57 259.83 181.45 295.45 172.28C302.02 170.5 308.81 169.59 315.62 169.59C360.17 169.63 396.28 205.74 396.31 250.29C396.28 294.84 360.17 330.94 315.62 330.98Z" id="auvqZ5ygd"></path><path d="M295.45 328.42C259.83 319.25 234.93 287.14 234.93 250.35C234.93 213.57 259.83 181.45 295.45 172.28C331.03 181.46 355.92 213.53 355.97 250.29C355.88 287.05 331.03 319.15 295.45 328.42Z" id="a1jqYwsn2C"></path><path d="M221.48 250.29C221.48 302.28 263.63 344.43 315.62 344.43C367.61 344.43 409.76 302.28 409.76 250.29C409.7 198.32 367.59 156.2 315.62 156.15C263.63 156.15 221.48 198.29 221.48 250.29ZM248.38 250.29C248.38 213.15 278.48 183.04 315.62 183.04C352.76 183.04 382.87 213.15 382.87 250.29C382.82 287.41 352.74 317.49 315.62 317.53C278.48 317.53 248.38 287.42 248.38 250.29Z" id="a5HXWdi12"></path><path d="M355.97 250.35C355.97 228.07 337.9 210.01 315.62 210.01C293.34 210.01 275.27 228.07 275.27 250.35C275.3 272.63 293.35 290.68 315.62 290.7C337.9 290.7 355.97 272.64 355.97 250.35ZM329.07 250.35C329.07 257.78 323.05 263.8 315.62 263.8C308.19 263.8 302.17 257.78 302.17 250.35C302.18 242.93 308.2 236.91 315.62 236.91C323.05 236.91 329.07 242.93 329.07 250.35Z" id="a2uS3LU82"></path><path d="M315.62 564.83C308.82 564.8 302.04 563.95 295.45 562.27C259.83 553.1 234.93 520.98 234.93 484.2C234.93 447.42 259.83 415.3 295.45 406.13C302.02 404.34 308.81 403.44 315.62 403.44C360.17 403.48 396.28 439.58 396.31 484.13C396.28 528.68 360.17 564.79 315.62 564.83Z" id="a19AsBnLPO"></path><path d="M295.45 562.27C259.83 553.1 234.93 520.98 234.93 484.2C234.93 447.42 259.83 415.3 295.45 406.13C331.03 415.31 355.92 447.38 355.97 484.13C355.88 520.9 331.03 552.99 295.45 562.27Z" id="aV9tpgrWd"></path><path d="M355.97 484.2C355.97 461.92 337.9 443.85 315.62 443.85C293.34 443.85 275.27 461.92 275.27 484.2C275.3 506.47 293.35 524.52 315.62 524.55C337.9 524.55 355.97 506.48 355.97 484.2ZM329.07 484.2C329.07 491.63 323.05 497.65 315.62 497.65C308.19 497.65 302.17 491.63 302.17 484.2C302.18 476.78 308.2 470.76 315.62 470.75C323.05 470.75 329.07 476.77 329.07 484.2Z" id="d32CUuvSCg"></path><path d="M221.48 484.13C221.48 536.12 263.63 578.27 315.62 578.27C367.61 578.27 409.76 536.13 409.76 484.13C409.7 432.16 367.59 390.05 315.62 389.99C263.63 389.99 221.48 432.14 221.48 484.13ZM248.38 484.13C248.38 447 278.48 416.89 315.62 416.89C352.76 416.89 382.87 447 382.87 484.13C382.82 521.25 352.74 551.33 315.62 551.38C278.48 551.38 248.38 521.27 248.38 484.13Z" id="bhK2IdOe"></path></defs><g><g><g><use xlink:href="#c30JIEyEKl" opacity="1" fill="#37474f" fill-opacity="1"></use><g><use xlink:href="#c30JIEyEKl" opacity="1" fill-opacity="0" stroke="#000000" stroke-width="1" stroke-opacity="0"></use></g></g><g><use xlink:href="#hJpRl86tF" opacity="1" fill="#607d8b" fill-opacity="1"></use><g><use xlink:href="#hJpRl86tF" opacity="1" fill-opacity="0" stroke="#000000" stroke-width="1" stroke-opacity="0"></use></g></g><g><use xlink:href="#c34M8oiDUU" opacity="1" fill="#ac2ec0" fill-opacity="0"></use><g><use xlink:href="#c34M8oiDUU" opacity="1" fill-opacity="0" stroke="#000000" stroke-width="18" stroke-opacity="1"></use></g></g><g><use xlink:href="#ai0mjBloh" opacity="1" fill="#adadad" fill-opacity="1"></use><g><use xlink:href="#ai0mjBloh" opacity="1" fill-opacity="0" stroke="#000000" stroke-width="1" stroke-opacity="0"></use></g></g><g><use xlink:href="#f2xD5NsZp" opacity="1" fill="#e6e6e6" fill-opacity="1"></use><g><use xlink:href="#f2xD5NsZp" opacity="1" fill-opacity="0" stroke="#000000" stroke-width="1" stroke-opacity="0"></use></g></g><g><use xlink:href="#f2a86qjFI6" opacity="1" fill="#000000" fill-opacity="1"></use><g><use xlink:href="#f2a86qjFI6" opacity="1" fill-opacity="0" stroke="#000000" stroke-width="1" stroke-opacity="0"></use></g></g><g><use xlink:href="#a100YgQm4F" opacity="1" fill="#000000" fill-opacity="1"></use><g><use xlink:href="#a100YgQm4F" opacity="1" fill-opacity="0" stroke="#000000" stroke-width="1" stroke-opacity="0"></use></g></g><g><use xlink:href="#c1dbEB3nX" opacity="1" fill="#adadad" fill-opacity="1"></use><g><use xlink:href="#c1dbEB3nX" opacity="1" fill-opacity="0" stroke="#000000" stroke-width="1" stroke-opacity="0"></use></g></g><g><use xlink:href="#a64ZHB7Du" opacity="1" fill="#e6e6e6" fill-opacity="1"></use><g><use xlink:href="#a64ZHB7Du" opacity="1" fill-opacity="0" stroke="#000000" stroke-width="1" stroke-opacity="0"></use></g></g><g><use xlink:href="#i8EXmUVVs" opacity="1" fill="#000000" fill-opacity="1"></use><g><use xlink:href="#i8EXmUVVs" opacity="1" fill-opacity="0" stroke="#000000" stroke-width="1" stroke-opacity="0"></use></g></g><g><use xlink:href="#iVcK2vim8" opacity="1" fill="#000000" fill-opacity="1"></use><g><use xlink:href="#iVcK2vim8" opacity="1" fill-opacity="0" stroke="#000000" stroke-width="1" stroke-opacity="0"></use></g></g><g><use xlink:href="#a3Gi18eTab" opacity="1" fill="#d84315" fill-opacity="1"></use><g><use xlink:href="#a3Gi18eTab" opacity="1" fill-opacity="0" stroke="#000000" stroke-width="1" stroke-opacity="0"></use></g></g><g><use xlink:href="#b2nKdmSByT" opacity="1" fill="#ff5722" fill-opacity="1"></use><g><use xlink:href="#b2nKdmSByT" opacity="1" fill-opacity="0" stroke="#000000" stroke-width="1" stroke-opacity="0"></use></g></g><g><use xlink:href="#a3kUzBH7il" opacity="1" fill="#000000" fill-opacity="1"></use><g><use xlink:href="#a3kUzBH7il" opacity="1" fill-opacity="0" stroke="#000000" stroke-width="1" stroke-opacity="0"></use></g></g><g><use xlink:href="#a1uXMx3nlQ" opacity="1" fill="#000000" fill-opacity="1"></use><g><use xlink:href="#a1uXMx3nlQ" opacity="1" fill-opacity="0" stroke="#000000" stroke-width="1" stroke-opacity="0"></use></g></g><g><use xlink:href="#aFJV0JqnH" opacity="1" fill="#adadad" fill-opacity="1"></use><g><use xlink:href="#aFJV0JqnH" opacity="1" fill-opacity="0" stroke="#000000" stroke-width="1" stroke-opacity="0"></use></g></g><g><use xlink:href="#a4VELhOA7Q" opacity="1" fill="#e6e6e6" fill-opacity="1"></use><g><use xlink:href="#a4VELhOA7Q" opacity="1" fill-opacity="0" stroke="#000000" stroke-width="1" stroke-opacity="0"></use></g></g><g><use xlink:href="#cKw879qht" opacity="1" fill="#000000" fill-opacity="1"></use><g><use xlink:href="#cKw879qht" opacity="1" fill-opacity="0" stroke="#000000" stroke-width="1" stroke-opacity="0"></use></g></g><g><use xlink:href="#d4hOfqCvnc" opacity="1" fill="#000000" fill-opacity="1"></use><g><use xlink:href="#d4hOfqCvnc" opacity="1" fill-opacity="0" stroke="#000000" stroke-width="1" stroke-opacity="0"></use></g></g><g><use xlink:href="#auvqZ5ygd" opacity="1" fill="#adadad" fill-opacity="1"></use><g><use xlink:href="#auvqZ5ygd" opacity="1" fill-opacity="0" stroke="#000000" stroke-width="1" stroke-opacity="0"></use></g></g><g><use xlink:href="#a1jqYwsn2C" opacity="1" fill="#e6e6e6" fill-opacity="1"></use><g><use xlink:href="#a1jqYwsn2C" opacity="1" fill-opacity="0" stroke="#000000" stroke-width="1" stroke-opacity="0"></use></g></g><g><use xlink:href="#a5HXWdi12" opacity="1" fill="#000000" fill-opacity="1"></use><g><use xlink:href="#a5HXWdi12" opacity="1" fill-opacity="0" stroke="#000000" stroke-width="1" stroke-opacity="0"></use></g></g><g><use xlink:href="#a2uS3LU82" opacity="1" fill="#000000" fill-opacity="1"></use><g><use xlink:href="#a2uS3LU82" opacity="1" fill-opacity="0" stroke="#000000" stroke-width="1" stroke-opacity="0"></use></g></g><g><use xlink:href="#a19AsBnLPO" opacity="1" fill="#adadad" fill-opacity="1"></use><g><use xlink:href="#a19AsBnLPO" opacity="1" fill-opacity="0" stroke="#000000" stroke-width="1" stroke-opacity="0"></use></g></g><g><use xlink:href="#aV9tpgrWd" opacity="1" fill="#e6e6e6" fill-opacity="1"></use><g><use xlink:href="#aV9tpgrWd" opacity="1" fill-opacity="0" stroke="#000000" stroke-width="1" stroke-opacity="0"></use></g></g><g><use xlink:href="#d32CUuvSCg" opacity="1" fill="#000000" fill-opacity="1"></use><g><use xlink:href="#d32CUuvSCg" opacity="1" fill-opacity="0" stroke="#000000" stroke-width="1" stroke-opacity="0"></use></g></g><g><use xlink:href="#bhK2IdOe" opacity="1" fill="#000000" fill-opacity="1"></use><g><use xlink:href="#bhK2IdOe" opacity="1" fill-opacity="0" stroke="#000000" stroke-width="1" stroke-opacity="0"></use></g></g></g></g></svg>