<?xml version="1.0" encoding="UTF-8" standalone="no"?>
<!DOCTYPE svg PUBLIC "-//W3C//DTD SVG 1.1//EN" "http://www.w3.org/Graphics/SVG/1.1/DTD/svg11.dtd">
<svg version="1.1" xmlns="http://www.w3.org/2000/svg" xmlns:xlink="http://www.w3.org/1999/xlink" preserveAspectRatio="xMidYMid meet" viewBox="0 0 640 640" width="640" height="640"><defs><path d="M635.15 620.53L55.68 620.53C55.68 342.36 55.68 187.83 55.68 156.92C55.68 145.21 60.2 133.98 68.25 125.7C76.3 117.42 87.22 112.77 98.61 112.77C147.97 112.77 542.87 112.77 592.23 112.77C603.62 112.77 614.54 117.42 622.59 125.7C630.64 133.98 635.16 145.21 635.15 156.92C635.15 218.74 635.15 373.27 635.15 620.53Z" id="b6rct4fJYR"></path><path d="M611.91 620.53L4.01 620.53C4.01 342.36 4.01 187.83 4.01 156.92C3.29 133.22 23.45 113.46 49.04 112.77C100.83 112.77 515.1 112.77 566.88 112.77C592.48 113.46 612.63 133.22 611.91 156.92C611.91 218.74 611.91 373.27 611.91 620.53Z" id="antzKcTbT"></path><path d="M621.97 117.51C627.44 117.51 631.88 121.94 631.88 127.42C631.88 226.04 631.88 512 631.88 610.62C631.88 616.09 627.44 620.53 621.97 620.53C499.31 620.53 141.25 620.53 18.6 620.53C13.12 620.53 8.69 616.09 8.69 610.62C8.69 512 8.69 226.04 8.69 127.42C8.69 121.94 13.12 117.51 18.6 117.51C141.25 117.51 499.31 117.51 621.97 117.51Z" id="a1QepANIfA"></path><path d="M505.95 564.82C499.15 564.8 492.37 563.94 485.78 562.27C450.16 553.1 425.26 520.98 425.26 484.2C425.26 447.42 450.16 415.3 485.78 406.13C492.36 404.34 499.14 403.44 505.95 403.44C550.5 403.48 586.61 439.58 586.65 484.13C586.61 528.68 550.5 564.79 505.95 564.82Z" id="aKyYkPpFV"></path><path d="M485.78 562.27C450.16 553.1 425.26 520.98 425.26 484.2C425.26 447.42 450.16 415.3 485.78 406.13C521.37 415.31 546.25 447.38 546.3 484.13C546.21 520.9 521.36 552.99 485.78 562.27Z" id="d4Pc3Afg0g"></path><path d="M600.09 484.13C600.09 432.14 557.95 389.99 505.95 389.99C453.96 389.99 411.81 432.14 411.81 484.13C411.87 536.1 453.99 578.21 505.95 578.27C557.95 578.27 600.09 536.13 600.09 484.13ZM573.2 484.13C573.2 521.27 543.09 551.38 505.95 551.38C468.82 551.38 438.71 521.27 438.71 484.13C438.75 447.01 468.83 416.93 505.95 416.89C543.09 416.89 573.2 447 573.2 484.13Z" id="ayx4CVKJ4"></path><path d="M546.3 484.13C546.3 461.85 528.24 443.79 505.95 443.79C483.67 443.79 465.61 461.85 465.61 484.13C465.63 506.4 483.68 524.45 505.95 524.48C528.24 524.48 546.3 506.41 546.3 484.13ZM519.4 484.13C519.4 491.56 513.38 497.58 505.95 497.58C498.53 497.58 492.51 491.56 492.51 484.13C492.51 476.71 498.53 470.69 505.95 470.68C513.38 470.68 519.4 476.71 519.4 484.13Z" id="ei4GRMsFO"></path><path d="M122.4 564.83C115.59 564.8 108.82 563.95 102.22 562.27C66.6 553.1 41.7 520.98 41.7 484.2C41.7 447.42 66.6 415.3 102.22 406.13C108.8 404.34 115.58 403.44 122.4 403.44C166.95 403.48 203.05 439.58 203.09 484.13C203.05 528.68 166.95 564.79 122.4 564.83Z" id="dm9YPfk3m"></path><path d="M102.22 562.27C66.6 553.1 41.7 520.98 41.7 484.2C41.7 447.42 66.6 415.3 102.22 406.13C137.81 415.31 162.69 447.38 162.74 484.13C162.66 520.9 137.8 552.99 102.22 562.27Z" id="blHHVB53u"></path><path d="M162.74 484.2C162.74 461.92 144.68 443.85 122.4 443.85C100.11 443.85 82.05 461.92 82.05 484.2C82.07 506.47 100.12 524.52 122.4 524.55C144.68 524.55 162.74 506.48 162.74 484.2ZM135.84 484.2C135.84 491.63 129.82 497.65 122.4 497.65C114.97 497.65 108.95 491.63 108.95 484.2C108.95 476.78 114.97 470.76 122.4 470.75C129.82 470.75 135.84 476.77 135.84 484.2Z" id="a4x4vB71As"></path><path d="M28.26 484.13C28.26 536.12 70.41 578.27 122.4 578.27C174.39 578.27 216.54 536.13 216.54 484.13C216.48 432.16 174.36 390.05 122.4 389.99C70.4 389.99 28.26 432.14 28.26 484.13ZM55.15 484.13C55.15 447 85.26 416.89 122.4 416.89C159.53 416.89 189.64 447 189.64 484.13C189.6 521.25 159.52 551.33 122.4 551.38C85.26 551.38 55.15 521.27 55.15 484.13Z" id="aCgxa1h35"></path><path d="M117.48 330.98C110.67 330.96 103.9 330.1 97.31 328.42C61.68 319.25 36.79 287.14 36.79 250.35C36.79 213.57 61.68 181.45 97.31 172.28C103.88 170.5 110.67 169.59 117.48 169.59C162.03 169.63 198.14 205.74 198.17 250.29C198.14 294.84 162.03 330.94 117.48 330.98Z" id="b9qrqj99Lp"></path><path d="M97.31 328.42C61.68 319.25 36.79 287.14 36.79 250.35C36.79 213.57 61.68 181.45 97.31 172.28C132.89 181.46 157.78 213.53 157.82 250.29C157.74 287.05 132.88 319.15 97.31 328.42Z" id="b47D8ZkUJy"></path><path d="M157.82 250.35C157.82 228.07 139.76 210.01 117.48 210.01C95.2 210.01 77.13 228.07 77.13 250.35C77.16 272.63 95.21 290.68 117.48 290.7C139.76 290.7 157.82 272.64 157.82 250.35ZM130.93 250.35C130.93 257.78 124.91 263.8 117.48 263.8C110.05 263.8 104.03 257.78 104.03 250.35C104.04 242.93 110.05 236.91 117.48 236.91C124.91 236.91 130.93 242.93 130.93 250.35Z" id="aKWKEwf6v"></path><path d="M23.34 250.29C23.34 302.28 65.49 344.43 117.48 344.43C169.47 344.43 211.62 302.28 211.62 250.29C211.56 198.32 169.45 156.2 117.48 156.15C65.49 156.15 23.34 198.29 23.34 250.29ZM50.23 250.29C50.23 213.15 80.34 183.04 117.48 183.04C154.62 183.04 184.72 213.15 184.72 250.29C184.68 287.41 154.6 317.49 117.48 317.53C80.34 317.53 50.23 287.42 50.23 250.29Z" id="bxmyYCmVp"></path><path d="M513.06 330.98C506.25 330.96 499.48 330.1 492.89 328.42C457.26 319.25 432.37 287.14 432.37 250.35C432.37 213.57 457.26 181.45 492.89 172.28C499.46 170.5 506.25 169.59 513.06 169.59C557.61 169.63 593.72 205.74 593.75 250.29C593.72 294.84 557.61 330.94 513.06 330.98Z" id="cHBV0QUlT"></path><path d="M492.89 328.42C457.26 319.25 432.37 287.14 432.37 250.35C432.37 213.57 457.26 181.45 492.89 172.28C528.47 181.46 553.36 213.53 553.4 250.29C553.32 287.05 528.46 319.15 492.89 328.42Z" id="aSOPR6GI1"></path><path d="M418.92 250.29C418.92 302.28 461.07 344.43 513.06 344.43C565.05 344.43 607.2 302.28 607.2 250.29C607.14 198.32 565.03 156.2 513.06 156.15C461.07 156.15 418.92 198.29 418.92 250.29ZM445.81 250.29C445.81 213.15 475.92 183.04 513.06 183.04C550.2 183.04 580.3 213.15 580.3 250.29C580.26 287.41 550.18 317.49 513.06 317.53C475.92 317.53 445.81 287.42 445.81 250.29Z" id="a6gqFLHGBa"></path><path d="M553.4 250.35C553.4 228.07 535.34 210.01 513.06 210.01C490.78 210.01 472.71 228.07 472.71 250.35C472.74 272.63 490.79 290.68 513.06 290.7C535.34 290.7 553.4 272.64 553.4 250.35ZM526.51 250.35C526.51 257.78 520.49 263.8 513.06 263.8C505.63 263.8 499.61 257.78 499.61 250.35C499.62 242.93 505.63 236.91 513.06 236.91C520.49 236.91 526.51 242.93 526.51 250.35Z" id="j24YExfJl3"></path><path d="M316.55 447.34C309.75 447.32 302.97 446.46 296.38 444.79C260.76 435.62 235.86 403.5 235.86 366.72C235.86 329.93 260.76 297.82 296.38 288.65C302.95 286.86 309.74 285.95 316.55 285.96C361.1 285.99 397.21 322.1 397.24 366.65C397.21 411.2 361.1 447.31 316.55 447.34Z" id="gLTZyCNM"></path><path d="M296.38 444.79C260.76 435.62 235.86 403.5 235.86 366.72C235.86 329.93 260.76 297.82 296.38 288.65C331.96 297.82 356.85 329.9 356.9 366.65C356.81 403.42 331.96 435.51 296.38 444.79Z" id="d9TZ8KQrW"></path><path d="M356.9 366.72C356.9 344.43 338.83 326.37 316.55 326.37C294.27 326.37 276.2 344.43 276.2 366.72C276.23 388.99 294.28 407.04 316.55 407.06C338.83 407.06 356.9 389 356.9 366.72ZM330 366.72C330 374.14 323.98 380.16 316.55 380.16C309.12 380.16 303.1 374.14 303.1 366.72C303.11 359.29 309.13 353.28 316.55 353.27C323.98 353.27 330 359.29 330 366.72Z" id="c2RvWzCHI"></path><path d="M222.41 366.65C222.41 418.64 264.56 460.79 316.55 460.79C368.54 460.79 410.69 418.64 410.69 366.65C410.63 314.68 368.52 272.57 316.55 272.51C264.56 272.51 222.41 314.66 222.41 366.65ZM249.31 366.65C249.31 329.51 279.41 299.4 316.55 299.4C353.69 299.4 383.79 329.51 383.79 366.65C383.75 403.77 353.67 433.85 316.55 433.89C279.41 433.89 249.31 403.79 249.31 366.65Z" id="b10ulYDmdS"></path></defs><g><g><g><use xlink:href="#b6rct4fJYR" opacity="1" fill="#37474f" fill-opacity="1"></use><g><use xlink:href="#b6rct4fJYR" opacity="1" fill-opacity="0" stroke="#000000" stroke-width="1" stroke-opacity="0"></use></g></g><g><use xlink:href="#antzKcTbT" opacity="1" fill="#607d8b" fill-opacity="1"></use><g><use xlink:href="#antzKcTbT" opacity="1" fill-opacity="0" stroke="#000000" stroke-width="1" stroke-opacity="0"></use></g></g><g><use xlink:href="#a1QepANIfA" opacity="1" fill="#ac2ec0" fill-opacity="0"></use><g><use xlink:href="#a1QepANIfA" opacity="1" fill-opacity="0" stroke="#000000" stroke-width="18" stroke-opacity="1"></use></g></g><g><use xlink:href="#aKyYkPpFV" opacity="1" fill="#adadad" fill-opacity="1"></use><g><use xlink:href="#aKyYkPpFV" opacity="1" fill-opacity="0" stroke="#000000" stroke-width="1" stroke-opacity="0"></use></g></g><g><use xlink:href="#d4Pc3Afg0g" opacity="1" fill="#e6e6e6" fill-opacity="1"></use><g><use xlink:href="#d4Pc3Afg0g" opacity="1" fill-opacity="0" stroke="#000000" stroke-width="1" stroke-opacity="0"></use></g></g><g><use xlink:href="#ayx4CVKJ4" opacity="1" fill="#000000" fill-opacity="1"></use><g><use xlink:href="#ayx4CVKJ4" opacity="1" fill-opacity="0" stroke="#000000" stroke-width="1" stroke-opacity="0"></use></g></g><g><use xlink:href="#ei4GRMsFO" opacity="1" fill="#000000" fill-opacity="1"></use><g><use xlink:href="#ei4GRMsFO" opacity="1" fill-opacity="0" stroke="#000000" stroke-width="1" stroke-opacity="0"></use></g></g><g><use xlink:href="#dm9YPfk3m" opacity="1" fill="#adadad" fill-opacity="1"></use><g><use xlink:href="#dm9YPfk3m" opacity="1" fill-opacity="0" stroke="#000000" stroke-width="1" stroke-opacity="0"></use></g></g><g><use xlink:href="#blHHVB53u" opacity="1" fill="#e6e6e6" fill-opacity="1"></use><g><use xlink:href="#blHHVB53u" opacity="1" fill-opacity="0" stroke="#000000" stroke-width="1" stroke-opacity="0"></use></g></g><g><use xlink:href="#a4x4vB71As" opacity="1" fill="#000000" fill-opacity="1"></use><g><use xlink:href="#a4x4vB71As" opacity="1" fill-opacity="0" stroke="#000000" stroke-width="1" stroke-opacity="0"></use></g></g><g><use xlink:href="#aCgxa1h35" opacity="1" fill="#000000" fill-opacity="1"></use><g><use xlink:href="#aCgxa1h35" opacity="1" fill-opacity="0" stroke="#000000" stroke-width="1" stroke-opacity="0"></use></g></g><g><use xlink:href="#b9qrqj99Lp" opacity="1" fill="#adadad" fill-opacity="1"></use><g><use xlink:href="#b9qrqj99Lp" opacity="1" fill-opacity="0" stroke="#000000" stroke-width="1" stroke-opacity="0"></use></g></g><g><use xlink:href="#b47D8ZkUJy" opacity="1" fill="#e6e6e6" fill-opacity="1"></use><g><use xlink:href="#b47D8ZkUJy" opacity="1" fill-opacity="0" stroke="#000000" stroke-width="1" stroke-opacity="0"></use></g></g><g><use xlink:href="#aKWKEwf6v" opacity="1" fill="#000000" fill-opacity="1"></use><g><use xlink:href="#aKWKEwf6v" opacity="1" fill-opacity="0" stroke="#000000" stroke-width="1" stroke-opacity="0"></use></g></g><g><use xlink:href="#bxmyYCmVp" opacity="1" fill="#000000" fill-opacity="1"></use><g><use xlink:href="#bxmyYCmVp" opacity="1" fill-opacity="0" stroke="#000000" stroke-width="1" stroke-opacity="0"></use></g></g><g><use xlink:href="#cHBV0QUlT" opacity="1" fill="#adadad" fill-opacity="1"></use><g><use xlink:href="#cHBV0QUlT" opacity="1" fill-opacity="0" stroke="#000000" stroke-width="1" stroke-opacity="0"></use></g></g><g><use xlink:href="#aSOPR6GI1" opacity="1" fill="#e6e6e6" fill-opacity="1"></use><g><use xlink:href="#aSOPR6GI1" opacity="1" fill-opacity="0" stroke="#000000" stroke-width="1" stroke-opacity="0"></use></g></g><g><use xlink:href="#a6gqFLHGBa" opacity="1" fill="#000000" fill-opacity="1"></use><g><use xlink:href="#a6gqFLHGBa" opacity="1" fill-opacity="0" stroke="#000000" stroke-width="1" stroke-opacity="0"></use></g></g><g><use xlink:href="#j24YExfJl3" opacity="1" fill="#000000" fill-opacity="1"></use><g><use xlink:href="#j24YExfJl3" opacity="1" fill-opacity="0" stroke="#000000" stroke-width="1" stroke-opacity="0"></use></g></g><g><use xlink:href="#gLTZyCNM" opacity="1" fill="#adadad" fill-opacity="1"></use><g><use xlink:href="#gLTZyCNM" opacity="1" fill-opacity="0" stroke="#000000" stroke-width="1" stroke-opacity="0"></use></g></g><g><use xlink:href="#d9TZ8KQrW" opacity="1" fill="#e6e6e6" fill-opacity="1"></use><g><use xlink:href="#d9TZ8KQrW" opacity="1" fill-opacity="0" stroke="#000000" stroke-width="1" stroke-opacity="0"></use></g></g><g><use xlink:href="#c2RvWzCHI" opacity="1" fill="#000000" fill-opacity="1"></use><g><use xlink:href="#c2RvWzCHI" opacity="1" fill-opacity="0" stroke="#000000" stroke-width="1" stroke-opacity="0"></use></g></g><g><use xlink:href="#b10ulYDmdS" opacity="1" fill="#000000" fill-opacity="1"></use><g><use xlink:href="#b10ulYDmdS" opacity="1" fill-opacity="0" stroke="#000000" stroke-width="1" stroke-opacity="0"></use></g></g></g></g></svg>