<?xml version="1.0" encoding="UTF-8" standalone="no"?>
<!DOCTYPE svg PUBLIC "-//W3C//DTD SVG 1.1//EN" "http://www.w3.org/Graphics/SVG/1.1/DTD/svg11.dtd">
<svg version="1.1" xmlns="http://www.w3.org/2000/svg" xmlns:xlink="http://www.w3.org/1999/xlink" preserveAspectRatio="xMidYMid meet" viewBox="0 0 640 640" width="640" height="640"><defs><path d="M455.37 568.07L203.22 568.07C203.22 289.91 203.22 135.37 203.22 104.47C203.22 92.75 205.19 81.52 208.69 73.24C212.2 64.96 216.95 60.31 221.9 60.31C243.38 60.31 415.22 60.31 436.7 60.31C441.65 60.31 446.4 64.96 449.9 73.24C453.41 81.52 455.38 92.75 455.37 104.47C455.37 166.28 455.37 320.81 455.37 568.07Z" id="dhWHUsj5I"></path><path d="M432.14 568.07L205.96 568.07C205.96 289.91 205.96 135.37 205.96 104.46C205.7 80.76 213.2 61 222.72 60.31C241.98 60.31 396.12 60.31 415.39 60.31C424.91 61 432.41 80.76 432.14 104.46C432.14 166.28 432.14 320.81 432.14 568.07Z" id="c2LcROlSR"></path><path d="M447.82 65.05C450.18 65.05 452.09 66.96 452.09 69.32C452.09 169.07 452.09 464.04 452.09 563.79C452.09 566.15 450.18 568.07 447.82 568.07C399.45 568.07 258.6 568.07 210.23 568.07C207.87 568.07 205.96 566.15 205.96 563.79C205.96 464.04 205.96 169.07 205.96 69.32C205.96 66.96 207.87 65.05 210.23 65.05C258.6 65.05 399.45 65.05 447.82 65.05Z" id="c1YPZzDl92"></path><path d="M324.53 513.08C317.73 513.06 310.95 512.2 304.36 510.52C268.74 501.36 243.84 469.24 243.84 432.46C243.84 395.67 268.74 363.56 304.36 354.39C310.93 352.6 317.72 351.69 324.53 351.7C369.08 351.73 405.19 387.84 405.22 432.39C405.19 476.94 369.08 513.04 324.53 513.08Z" id="bzXNQbiTK"></path><path d="M304.36 510.53C268.74 501.36 243.84 469.24 243.84 432.46C243.84 395.67 268.74 363.56 304.36 354.39C339.95 363.57 364.83 395.64 364.88 432.39C364.79 469.16 339.94 501.25 304.36 510.53Z" id="i1ivZ7rJfd"></path><path d="M418.67 432.39C418.67 380.4 376.53 338.25 324.53 338.25C272.54 338.25 230.39 380.4 230.39 432.39C230.45 484.35 272.57 526.47 324.53 526.53C376.53 526.53 418.67 484.38 418.67 432.39ZM391.78 432.39C391.78 469.53 361.67 499.63 324.53 499.63C287.4 499.63 257.29 469.53 257.29 432.39C257.33 395.27 287.41 365.19 324.53 365.15C361.67 365.15 391.78 395.25 391.78 432.39Z" id="aksayAbOD"></path><path d="M364.88 432.39C364.88 410.11 346.81 392.04 324.53 392.04C302.25 392.04 284.19 410.11 284.19 432.39C284.21 454.66 302.26 472.71 324.53 472.73C346.81 472.73 364.88 454.67 364.88 432.39ZM337.98 432.39C337.98 439.82 331.96 445.84 324.53 445.84C317.11 445.84 311.08 439.81 311.08 432.39C311.09 424.96 317.11 418.95 324.53 418.94C331.96 418.94 337.98 424.96 337.98 432.39Z" id="d2hbZXmLq1"></path><path d="M324.53 283.06C317.73 283.04 310.95 282.18 304.36 280.5C268.74 271.33 243.84 239.22 243.84 202.43C243.84 165.65 268.74 133.53 304.36 124.36C310.94 122.58 317.72 121.67 324.53 121.67C369.08 121.71 405.19 157.82 405.23 202.37C405.19 246.92 369.08 283.02 324.53 283.06Z" id="a33Xow0QuJ"></path><path d="M304.36 280.5C268.74 271.33 243.84 239.22 243.84 202.43C243.84 165.65 268.74 133.53 304.36 124.36C339.95 133.54 364.83 165.62 364.88 202.37C364.79 239.14 339.94 271.23 304.36 280.5Z" id="eoJ5z50cq"></path><path d="M230.39 202.37C230.39 254.36 272.54 296.51 324.53 296.51C376.53 296.51 418.67 254.36 418.67 202.37C418.61 150.4 376.5 108.29 324.53 108.23C272.54 108.23 230.39 150.37 230.39 202.37ZM257.29 202.37C257.29 165.23 287.4 135.12 324.53 135.12C361.67 135.12 391.78 165.23 391.78 202.37C391.73 239.49 361.65 269.57 324.53 269.61C287.4 269.61 257.29 239.5 257.29 202.37Z" id="aAgamOsdZ"></path><path d="M364.88 202.43C364.88 180.15 346.82 162.09 324.53 162.09C302.25 162.09 284.19 180.15 284.19 202.43C284.21 224.71 302.26 242.76 324.53 242.78C346.82 242.78 364.88 224.72 364.88 202.43ZM337.98 202.43C337.98 209.86 331.96 215.88 324.53 215.88C317.11 215.88 311.09 209.86 311.09 202.43C311.09 195.01 317.11 188.99 324.53 188.99C331.96 188.99 337.98 195.01 337.98 202.43Z" id="b3x1YB6Ki0"></path></defs><g><g><g><use xlink:href="#dhWHUsj5I" opacity="1" fill="#37474f" fill-opacity="1"></use><g><use xlink:href="#dhWHUsj5I" opacity="1" fill-opacity="0" stroke="#000000" stroke-width="1" stroke-opacity="0"></use></g></g><g><use xlink:href="#c2LcROlSR" opacity="1" fill="#607d8b" fill-opacity="1"></use><g><use xlink:href="#c2LcROlSR" opacity="1" fill-opacity="0" stroke="#000000" stroke-width="1" stroke-opacity="0"></use></g></g><g><use xlink:href="#c1YPZzDl92" opacity="1" fill="#ac2ec0" fill-opacity="0"></use><g><use xlink:href="#c1YPZzDl92" opacity="1" fill-opacity="0" stroke="#000000" stroke-width="18" stroke-opacity="1"></use></g></g><g><use xlink:href="#bzXNQbiTK" opacity="1" fill="#d84315" fill-opacity="1"></use><g><use xlink:href="#bzXNQbiTK" opacity="1" fill-opacity="0" stroke="#000000" stroke-width="1" stroke-opacity="0"></use></g></g><g><use xlink:href="#i1ivZ7rJfd" opacity="1" fill="#ff5722" fill-opacity="1"></use><g><use xlink:href="#i1ivZ7rJfd" opacity="1" fill-opacity="0" stroke="#000000" stroke-width="1" stroke-opacity="0"></use></g></g><g><use xlink:href="#aksayAbOD" opacity="1" fill="#000000" fill-opacity="1"></use><g><use xlink:href="#aksayAbOD" opacity="1" fill-opacity="0" stroke="#000000" stroke-width="1" stroke-opacity="0"></use></g></g><g><use xlink:href="#d2hbZXmLq1" opacity="1" fill="#000000" fill-opacity="1"></use><g><use xlink:href="#d2hbZXmLq1" opacity="1" fill-opacity="0" stroke="#000000" stroke-width="1" stroke-opacity="0"></use></g></g><g><use xlink:href="#a33Xow0QuJ" opacity="1" fill="#adadad" fill-opacity="1"></use><g><use xlink:href="#a33Xow0QuJ" opacity="1" fill-opacity="0" stroke="#000000" stroke-width="1" stroke-opacity="0"></use></g></g><g><use xlink:href="#eoJ5z50cq" opacity="1" fill="#e6e6e6" fill-opacity="1"></use><g><use xlink:href="#eoJ5z50cq" opacity="1" fill-opacity="0" stroke="#000000" stroke-width="1" stroke-opacity="0"></use></g></g><g><use xlink:href="#aAgamOsdZ" opacity="1" fill="#000000" fill-opacity="1"></use><g><use xlink:href="#aAgamOsdZ" opacity="1" fill-opacity="0" stroke="#000000" stroke-width="1" stroke-opacity="0"></use></g></g><g><use xlink:href="#b3x1YB6Ki0" opacity="1" fill="#000000" fill-opacity="1"></use><g><use xlink:href="#b3x1YB6Ki0" opacity="1" fill-opacity="0" stroke="#000000" stroke-width="1" stroke-opacity="0"></use></g></g></g></g></svg>