<?xml version="1.0" encoding="UTF-8" standalone="no"?>
<!DOCTYPE svg PUBLIC "-//W3C//DTD SVG 1.1//EN" "http://www.w3.org/Graphics/SVG/1.1/DTD/svg11.dtd">
<svg version="1.1" xmlns="http://www.w3.org/2000/svg" xmlns:xlink="http://www.w3.org/1999/xlink" preserveAspectRatio="xMidYMid meet" viewBox="0 0 640 640" width="640" height="640"><defs><path d="M559.2 435.28L73.17 435.28C73.17 301.91 73.17 227.81 73.17 213C73.17 207.38 76.96 201.99 83.71 198.02C90.46 194.05 99.62 191.82 109.17 191.83C150.57 191.83 481.79 191.83 523.2 191.83C532.75 191.82 541.9 194.05 548.66 198.02C555.41 201.99 559.2 207.38 559.2 213C559.2 242.63 559.2 316.73 559.2 435.28Z" id="dgQeXKLQl"></path><path d="M530.5 441.29L67.94 441.29C67.94 309.12 67.94 235.69 67.94 221C67.39 209.74 82.73 200.35 102.2 200.02C141.61 200.02 456.83 200.02 496.23 200.02C515.71 200.35 531.04 209.74 530.5 221C530.5 250.37 530.5 323.8 530.5 441.29Z" id="a1slC23KRx"></path><path d="M551.71 197.84C554.34 197.84 556.47 199.96 556.47 202.59C556.47 249.89 556.47 387.05 556.47 434.35C556.47 436.98 554.34 439.1 551.71 439.1C456.01 439.1 173.63 439.1 77.92 439.1C75.3 439.1 73.17 436.98 73.17 434.35C73.17 387.05 73.17 249.89 73.17 202.59C73.17 199.96 75.3 197.84 77.92 197.84C173.63 197.84 456.01 197.84 551.71 197.84Z" id="b6C04bpGK"></path><path d="M414.42 400.69C407.62 400.67 400.84 399.81 394.25 398.14C358.63 388.97 333.73 356.85 333.73 320.07C333.73 283.28 358.63 251.17 394.25 242C400.82 240.21 407.61 239.31 414.42 239.31C458.97 239.34 495.08 275.45 495.11 320C495.08 364.55 458.97 400.66 414.42 400.69Z" id="b2sLHopQXP"></path><path d="M394.25 398.14C358.63 388.97 333.73 356.85 333.73 320.07C333.73 283.29 358.63 251.17 394.25 242C429.84 251.18 454.72 283.25 454.77 320C454.68 356.77 429.83 388.86 394.25 398.14Z" id="f3PIBS2sw"></path><path d="M508.56 320C508.56 268.01 466.42 225.86 414.42 225.86C362.43 225.86 320.28 268.01 320.28 320C320.34 371.97 362.46 414.08 414.42 414.14C466.42 414.14 508.56 371.99 508.56 320ZM481.67 320C481.67 357.14 451.56 387.24 414.42 387.24C377.29 387.24 347.18 357.14 347.18 320C347.22 282.88 377.3 252.8 414.42 252.76C451.56 252.76 481.67 282.86 481.67 320Z" id="bXhE2wU1S"></path><path d="M454.77 320C454.77 297.72 436.7 279.65 414.42 279.65C392.14 279.65 374.08 297.72 374.08 320C374.1 342.27 392.15 360.32 414.42 360.35C436.7 360.35 454.77 342.28 454.77 320ZM427.87 320C427.87 327.43 421.85 333.45 414.42 333.45C406.99 333.45 400.97 327.43 400.97 320C400.98 312.57 407 306.56 414.42 306.55C421.85 306.55 427.87 312.57 427.87 320Z" id="bSTOSXSMc"></path><path d="M193.98 400.69C187.18 400.67 180.4 399.81 173.81 398.14C138.19 388.97 113.29 356.85 113.29 320.07C113.29 283.28 138.19 251.17 173.81 242C180.38 240.21 187.17 239.31 193.98 239.31C238.53 239.34 274.64 275.45 274.67 320C274.64 364.55 238.53 400.66 193.98 400.69Z" id="bc9YvcNbn"></path><path d="M173.81 398.14C138.19 388.97 113.29 356.85 113.29 320.07C113.29 283.28 138.19 251.17 173.81 242C209.39 251.18 234.28 283.25 234.33 320C234.24 356.77 209.39 388.86 173.81 398.14Z" id="ebREgmpnI"></path><path d="M234.33 320.07C234.33 297.79 216.26 279.72 193.98 279.72C171.7 279.72 153.64 297.79 153.64 320.07C153.66 342.34 171.71 360.39 193.98 360.41C216.26 360.41 234.33 342.35 234.33 320.07ZM207.43 320.07C207.43 327.5 201.41 333.52 193.98 333.52C186.55 333.52 180.53 327.49 180.53 320.07C180.54 312.64 186.56 306.63 193.98 306.62C201.41 306.62 207.43 312.64 207.43 320.07Z" id="aTTwh1AZD"></path><path d="M99.84 320C99.84 371.99 141.99 414.14 193.98 414.14C245.97 414.14 288.12 371.99 288.12 320C288.06 268.03 245.95 225.92 193.98 225.86C141.99 225.86 99.84 268.01 99.84 320ZM126.74 320C126.74 282.86 156.84 252.76 193.98 252.76C231.12 252.76 261.23 282.86 261.23 320C261.18 357.12 231.1 387.2 193.98 387.24C156.84 387.24 126.74 357.14 126.74 320Z" id="bNGzfGaBS"></path></defs><g><g><g><use xlink:href="#dgQeXKLQl" opacity="1" fill="#37474f" fill-opacity="1"></use><g><use xlink:href="#dgQeXKLQl" opacity="1" fill-opacity="0" stroke="#000000" stroke-width="1" stroke-opacity="0"></use></g></g><g><use xlink:href="#a1slC23KRx" opacity="1" fill="#607d8b" fill-opacity="1"></use><g><use xlink:href="#a1slC23KRx" opacity="1" fill-opacity="0" stroke="#000000" stroke-width="1" stroke-opacity="0"></use></g></g><g><use xlink:href="#b6C04bpGK" opacity="1" fill="#ac2ec0" fill-opacity="0"></use><g><use xlink:href="#b6C04bpGK" opacity="1" fill-opacity="0" stroke="#000000" stroke-width="18" stroke-opacity="1"></use></g></g><g><use xlink:href="#b2sLHopQXP" opacity="1" fill="#d84315" fill-opacity="1"></use><g><use xlink:href="#b2sLHopQXP" opacity="1" fill-opacity="0" stroke="#000000" stroke-width="1" stroke-opacity="0"></use></g></g><g><use xlink:href="#f3PIBS2sw" opacity="1" fill="#ff5722" fill-opacity="1"></use><g><use xlink:href="#f3PIBS2sw" opacity="1" fill-opacity="0" stroke="#000000" stroke-width="1" stroke-opacity="0"></use></g></g><g><use xlink:href="#bXhE2wU1S" opacity="1" fill="#000000" fill-opacity="1"></use><g><use xlink:href="#bXhE2wU1S" opacity="1" fill-opacity="0" stroke="#000000" stroke-width="1" stroke-opacity="0"></use></g></g><g><use xlink:href="#bSTOSXSMc" opacity="1" fill="#000000" fill-opacity="1"></use><g><use xlink:href="#bSTOSXSMc" opacity="1" fill-opacity="0" stroke="#000000" stroke-width="1" stroke-opacity="0"></use></g></g><g><use xlink:href="#bc9YvcNbn" opacity="1" fill="#adadad" fill-opacity="1"></use><g><use xlink:href="#bc9YvcNbn" opacity="1" fill-opacity="0" stroke="#000000" stroke-width="1" stroke-opacity="0"></use></g></g><g><use xlink:href="#ebREgmpnI" opacity="1" fill="#e6e6e6" fill-opacity="1"></use><g><use xlink:href="#ebREgmpnI" opacity="1" fill-opacity="0" stroke="#000000" stroke-width="1" stroke-opacity="0"></use></g></g><g><use xlink:href="#aTTwh1AZD" opacity="1" fill="#000000" fill-opacity="1"></use><g><use xlink:href="#aTTwh1AZD" opacity="1" fill-opacity="0" stroke="#000000" stroke-width="1" stroke-opacity="0"></use></g></g><g><use xlink:href="#bNGzfGaBS" opacity="1" fill="#000000" fill-opacity="1"></use><g><use xlink:href="#bNGzfGaBS" opacity="1" fill-opacity="0" stroke="#000000" stroke-width="1" stroke-opacity="0"></use></g></g></g></g></svg>