<?xml version="1.0" encoding="UTF-8" standalone="no"?>
<!DOCTYPE svg PUBLIC "-//W3C//DTD SVG 1.1//EN" "http://www.w3.org/Graphics/SVG/1.1/DTD/svg11.dtd">
<svg version="1.1" xmlns="http://www.w3.org/2000/svg" xmlns:xlink="http://www.w3.org/1999/xlink" preserveAspectRatio="xMidYMid meet" viewBox="0 0 640 640" width="640" height="640"><defs><path d="M595.89 569.47L67.79 569.47C67.79 291.31 67.79 136.78 67.79 105.87C67.79 94.16 71.91 82.93 79.24 74.65C86.58 66.37 96.53 61.72 106.91 61.72C151.89 61.72 511.79 61.72 556.77 61.72C567.15 61.72 577.1 66.37 584.44 74.65C591.78 82.93 595.9 94.16 595.89 105.87C595.89 167.69 595.89 322.22 595.89 569.47Z" id="e3EfUEUzQ3"></path><path d="M563.91 569.47L62.01 569.47C62.01 291.31 62.01 136.78 62.01 105.87C61.42 82.17 78.06 62.41 99.19 61.72C141.95 61.72 483.98 61.72 526.73 61.72C547.87 62.41 564.5 82.17 563.91 105.87C563.91 167.68 563.91 322.22 563.91 569.47Z" id="ie1cxvtcy"></path><path d="M583.64 66.46C588.66 66.46 592.74 70.53 592.74 75.55C592.74 174.34 592.74 461.59 592.74 560.38C592.74 565.4 588.66 569.47 583.64 569.47C480.68 569.47 180.9 569.47 77.94 569.47C72.91 569.47 68.84 565.4 68.84 560.38C68.84 461.59 68.84 174.34 68.84 75.55C68.84 70.53 72.91 66.46 77.94 66.46C180.9 66.46 480.68 66.46 583.64 66.46Z" id="b6MEsbQnY"></path><path d="M437.37 513.77C430.56 513.75 423.79 512.89 417.19 511.22C381.57 502.05 356.68 469.93 356.68 433.15C356.68 396.36 381.57 364.25 417.19 355.08C423.77 353.29 430.55 352.39 437.37 352.39C481.92 352.42 518.02 388.53 518.06 433.08C518.02 477.63 481.92 513.74 437.37 513.77Z" id="bbr8c668c"></path><path d="M417.19 511.22C381.57 502.05 356.68 469.93 356.68 433.15C356.68 396.37 381.57 364.25 417.19 355.08C452.78 364.26 477.66 396.33 477.71 433.08C477.63 469.85 452.77 501.94 417.19 511.22Z" id="b1uxc4JbkA"></path><path d="M531.51 433.08C531.51 381.09 489.36 338.94 437.37 338.94C385.38 338.94 343.23 381.09 343.23 433.08C343.29 485.05 385.4 527.16 437.37 527.22C489.36 527.22 531.51 485.07 531.51 433.08ZM504.61 433.08C504.61 470.22 474.5 500.32 437.37 500.32C400.23 500.32 370.12 470.22 370.12 433.08C370.17 395.96 400.25 365.88 437.37 365.84C474.5 365.84 504.61 395.94 504.61 433.08Z" id="bbotnZlCi"></path><path d="M477.71 433.08C477.71 410.8 459.65 392.73 437.37 392.73C415.09 392.73 397.02 410.8 397.02 433.08C397.05 455.35 415.1 473.4 437.37 473.43C459.65 473.43 477.71 455.36 477.71 433.08ZM450.82 433.08C450.82 440.51 444.8 446.53 437.37 446.53C429.94 446.53 423.92 440.51 423.92 433.08C423.93 425.65 429.94 419.64 437.37 419.63C444.8 419.63 450.82 425.65 450.82 433.08Z" id="a2p46898Dv"></path><path d="M209.24 513.77C202.44 513.75 195.67 512.89 189.07 511.22C153.45 502.05 128.55 469.93 128.55 433.15C128.55 396.37 153.45 364.25 189.07 355.08C195.65 353.29 202.43 352.39 209.24 352.39C253.8 352.42 289.9 388.53 289.94 433.08C289.9 477.63 253.8 513.74 209.24 513.77Z" id="c25nMkRzu9"></path><path d="M189.07 511.22C153.45 502.05 128.55 469.93 128.55 433.15C128.55 396.37 153.45 364.25 189.07 355.08C224.66 364.26 249.54 396.33 249.59 433.08C249.51 469.85 224.65 501.94 189.07 511.22Z" id="b9GA2NKoO"></path><path d="M249.59 433.15C249.59 410.87 231.53 392.8 209.24 392.8C186.96 392.8 168.9 410.87 168.9 433.15C168.92 455.42 186.97 473.47 209.24 473.49C231.53 473.49 249.59 455.43 249.59 433.15ZM222.69 433.15C222.69 440.58 216.67 446.6 209.24 446.6C201.82 446.6 195.8 440.57 195.8 433.15C195.8 425.72 201.82 419.71 209.24 419.7C216.67 419.7 222.69 425.72 222.69 433.15Z" id="c5kewrtvu9"></path><path d="M115.1 433.08C115.1 485.07 157.25 527.22 209.24 527.22C261.24 527.22 303.39 485.07 303.39 433.08C303.33 381.11 261.21 339 209.24 338.94C157.25 338.94 115.1 381.09 115.1 433.08ZM142 433.08C142 395.94 172.11 365.84 209.24 365.84C246.38 365.84 276.49 395.94 276.49 433.08C276.44 470.2 246.36 500.28 209.24 500.32C172.11 500.32 142 470.22 142 433.08Z" id="a2iwSzdTl9"></path><path d="M206.09 304.52C199.28 304.5 192.51 303.64 185.91 301.96C150.29 292.79 125.39 260.67 125.39 223.89C125.39 187.11 150.29 154.99 185.91 145.82C192.49 144.03 199.27 143.13 206.09 143.13C250.64 143.17 286.74 179.27 286.78 223.82C286.74 268.37 250.64 304.48 206.09 304.52Z" id="afd9zyYkD"></path><path d="M185.91 301.96C150.29 292.79 125.39 260.67 125.39 223.89C125.39 187.11 150.29 154.99 185.91 145.82C221.5 155 246.38 187.07 246.43 223.82C246.35 260.59 221.49 292.68 185.91 301.96Z" id="b3BpNhVAdf"></path><path d="M111.95 223.82C111.95 275.81 154.1 317.96 206.09 317.96C258.08 317.96 300.23 275.82 300.23 223.82C300.17 171.86 258.05 129.74 206.09 129.68C154.09 129.68 111.95 171.83 111.95 223.82ZM138.84 223.82C138.84 186.69 168.95 156.58 206.09 156.58C243.22 156.58 273.33 186.69 273.33 223.82C273.29 260.94 243.21 291.02 206.09 291.07C168.95 291.07 138.84 260.96 138.84 223.82Z" id="a13CoTnrJR"></path><path d="M246.43 223.89C246.43 201.61 228.37 183.54 206.09 183.54C183.8 183.54 165.74 201.61 165.74 223.89C165.76 246.16 183.81 264.21 206.09 264.24C228.37 264.24 246.43 246.17 246.43 223.89ZM219.53 223.89C219.53 231.32 213.51 237.34 206.09 237.34C198.66 237.34 192.64 231.32 192.64 223.89C192.64 216.47 198.66 210.45 206.09 210.44C213.51 210.44 219.53 216.46 219.53 223.89Z" id="d11244toe4"></path><path d="M437.37 304.52C430.56 304.5 423.79 303.64 417.2 301.96C381.57 292.79 356.68 260.67 356.68 223.89C356.68 187.11 381.57 154.99 417.2 145.82C423.77 144.03 430.56 143.13 437.37 143.13C481.92 143.17 518.03 179.27 518.06 223.82C518.03 268.37 481.92 304.48 437.37 304.52Z" id="b2uO0HOQe3"></path><path d="M417.2 301.96C381.57 292.79 356.68 260.67 356.68 223.89C356.68 187.11 381.57 154.99 417.2 145.82C452.78 155 477.67 187.07 477.71 223.82C477.63 260.59 452.77 292.68 417.2 301.96Z" id="d4G9haFUZl"></path><path d="M343.23 223.82C343.23 275.81 385.38 317.96 437.37 317.96C489.36 317.96 531.51 275.82 531.51 223.82C531.45 171.86 489.34 129.74 437.37 129.68C385.38 129.68 343.23 171.83 343.23 223.82ZM370.12 223.82C370.12 186.69 400.23 156.58 437.37 156.58C474.51 156.58 504.61 186.69 504.61 223.82C504.57 260.94 474.49 291.02 437.37 291.07C400.23 291.07 370.12 260.96 370.12 223.82Z" id="a6kYZMMMI"></path><path d="M477.71 223.89C477.71 201.61 459.65 183.54 437.37 183.54C415.09 183.54 397.02 201.61 397.02 223.89C397.05 246.16 415.1 264.21 437.37 264.24C459.65 264.24 477.71 246.17 477.71 223.89ZM450.82 223.89C450.82 231.32 444.8 237.34 437.37 237.34C429.94 237.34 423.92 231.32 423.92 223.89C423.93 216.47 429.94 210.45 437.37 210.44C444.8 210.44 450.82 216.46 450.82 223.89Z" id="bstTMCXxc"></path></defs><g><g><g><use xlink:href="#e3EfUEUzQ3" opacity="1" fill="#37474f" fill-opacity="1"></use><g><use xlink:href="#e3EfUEUzQ3" opacity="1" fill-opacity="0" stroke="#000000" stroke-width="1" stroke-opacity="0"></use></g></g><g><use xlink:href="#ie1cxvtcy" opacity="1" fill="#607d8b" fill-opacity="1"></use><g><use xlink:href="#ie1cxvtcy" opacity="1" fill-opacity="0" stroke="#000000" stroke-width="1" stroke-opacity="0"></use></g></g><g><use xlink:href="#b6MEsbQnY" opacity="1" fill="#ac2ec0" fill-opacity="0"></use><g><use xlink:href="#b6MEsbQnY" opacity="1" fill-opacity="0" stroke="#000000" stroke-width="18" stroke-opacity="1"></use></g></g><g><use xlink:href="#bbr8c668c" opacity="1" fill="#adadad" fill-opacity="1"></use><g><use xlink:href="#bbr8c668c" opacity="1" fill-opacity="0" stroke="#000000" stroke-width="1" stroke-opacity="0"></use></g></g><g><use xlink:href="#b1uxc4JbkA" opacity="1" fill="#e6e6e6" fill-opacity="1"></use><g><use xlink:href="#b1uxc4JbkA" opacity="1" fill-opacity="0" stroke="#000000" stroke-width="1" stroke-opacity="0"></use></g></g><g><use xlink:href="#bbotnZlCi" opacity="1" fill="#000000" fill-opacity="1"></use><g><use xlink:href="#bbotnZlCi" opacity="1" fill-opacity="0" stroke="#000000" stroke-width="1" stroke-opacity="0"></use></g></g><g><use xlink:href="#a2p46898Dv" opacity="1" fill="#000000" fill-opacity="1"></use><g><use xlink:href="#a2p46898Dv" opacity="1" fill-opacity="0" stroke="#000000" stroke-width="1" stroke-opacity="0"></use></g></g><g><use xlink:href="#c25nMkRzu9" opacity="1" fill="#adadad" fill-opacity="1"></use><g><use xlink:href="#c25nMkRzu9" opacity="1" fill-opacity="0" stroke="#000000" stroke-width="1" stroke-opacity="0"></use></g></g><g><use xlink:href="#b9GA2NKoO" opacity="1" fill="#e6e6e6" fill-opacity="1"></use><g><use xlink:href="#b9GA2NKoO" opacity="1" fill-opacity="0" stroke="#000000" stroke-width="1" stroke-opacity="0"></use></g></g><g><use xlink:href="#c5kewrtvu9" opacity="1" fill="#000000" fill-opacity="1"></use><g><use xlink:href="#c5kewrtvu9" opacity="1" fill-opacity="0" stroke="#000000" stroke-width="1" stroke-opacity="0"></use></g></g><g><use xlink:href="#a2iwSzdTl9" opacity="1" fill="#000000" fill-opacity="1"></use><g><use xlink:href="#a2iwSzdTl9" opacity="1" fill-opacity="0" stroke="#000000" stroke-width="1" stroke-opacity="0"></use></g></g><g><use xlink:href="#afd9zyYkD" opacity="1" fill="#d84315" fill-opacity="1"></use><g><use xlink:href="#afd9zyYkD" opacity="1" fill-opacity="0" stroke="#000000" stroke-width="1" stroke-opacity="0"></use></g></g><g><use xlink:href="#b3BpNhVAdf" opacity="1" fill="#ff5722" fill-opacity="1"></use><g><use xlink:href="#b3BpNhVAdf" opacity="1" fill-opacity="0" stroke="#000000" stroke-width="1" stroke-opacity="0"></use></g></g><g><use xlink:href="#a13CoTnrJR" opacity="1" fill="#000000" fill-opacity="1"></use><g><use xlink:href="#a13CoTnrJR" opacity="1" fill-opacity="0" stroke="#000000" stroke-width="1" stroke-opacity="0"></use></g></g><g><use xlink:href="#d11244toe4" opacity="1" fill="#000000" fill-opacity="1"></use><g><use xlink:href="#d11244toe4" opacity="1" fill-opacity="0" stroke="#000000" stroke-width="1" stroke-opacity="0"></use></g></g><g><use xlink:href="#b2uO0HOQe3" opacity="1" fill="#adadad" fill-opacity="1"></use><g><use xlink:href="#b2uO0HOQe3" opacity="1" fill-opacity="0" stroke="#000000" stroke-width="1" stroke-opacity="0"></use></g></g><g><use xlink:href="#d4G9haFUZl" opacity="1" fill="#e6e6e6" fill-opacity="1"></use><g><use xlink:href="#d4G9haFUZl" opacity="1" fill-opacity="0" stroke="#000000" stroke-width="1" stroke-opacity="0"></use></g></g><g><use xlink:href="#a6kYZMMMI" opacity="1" fill="#000000" fill-opacity="1"></use><g><use xlink:href="#a6kYZMMMI" opacity="1" fill-opacity="0" stroke="#000000" stroke-width="1" stroke-opacity="0"></use></g></g><g><use xlink:href="#bstTMCXxc" opacity="1" fill="#000000" fill-opacity="1"></use><g><use xlink:href="#bstTMCXxc" opacity="1" fill-opacity="0" stroke="#000000" stroke-width="1" stroke-opacity="0"></use></g></g></g></g></svg>