<svg height="640" preserveAspectRatio="xMidYMid meet" viewBox="0 0 640 640" width="640" xmlns="http://www.w3.org/2000/svg" xmlns:xlink="http://www.w3.org/1999/xlink"><defs><path id="a" d="m455.37 568.07h-252.15c0-278.16 0-432.7 0-463.6 0-11.72 1.97-22.95 5.47-31.23 3.51-8.28 8.26-12.93 13.21-12.93h214.8c4.95 0 9.7 4.65 13.2 12.93 3.51 8.28 5.48 19.51 5.47 31.23z"/><path id="b" d="m432.14 568.07h-226.18c0-278.16 0-432.7 0-463.61-.26-23.7 7.24-43.46 16.76-44.15h192.67c9.52.69 17.02 20.45 16.75 44.15z"/><path id="c" d="m447.82 65.05c2.36 0 4.27 1.91 4.27 4.27v494.47c0 2.36-1.91 4.28-4.27 4.28-48.37 0-189.22 0-237.59 0-2.36 0-4.27-1.92-4.27-4.28 0-99.75 0-394.72 0-494.47 0-2.36 1.91-4.27 4.27-4.27z"/><path id="d" d="m324.53 513.08c-6.8-.02-13.58-.88-20.17-2.56-35.62-9.16-60.52-41.28-60.52-78.06 0-36.79 24.9-68.9 60.52-78.07 6.57-1.79 13.36-2.7 20.17-2.69 44.55.03 80.66 36.14 80.69 80.69-.03 44.55-36.14 80.65-80.69 80.69z"/><path id="e" d="m304.36 510.53c-35.62-9.17-60.52-41.29-60.52-78.07 0-36.79 24.9-68.9 60.52-78.07 35.59 9.18 60.47 41.25 60.52 78-.09 36.77-24.94 68.86-60.52 78.14z"/><path id="f" d="m418.67 432.39c0-51.99-42.14-94.14-94.14-94.14-51.99 0-94.14 42.15-94.14 94.14.06 51.96 42.18 94.08 94.14 94.14 52 0 94.14-42.15 94.14-94.14zm-26.89 0c0 37.14-30.11 67.24-67.25 67.24-37.13 0-67.24-30.1-67.24-67.24.04-37.12 30.12-67.2 67.24-67.24 37.14 0 67.25 30.1 67.25 67.24z"/><path id="g" d="m364.88 432.39c0-22.28-18.07-40.35-40.35-40.35s-40.34 18.07-40.34 40.35c.02 22.27 18.07 40.32 40.34 40.34 22.28 0 40.35-18.06 40.35-40.34zm-26.9 0c0 7.43-6.02 13.45-13.45 13.45-7.42 0-13.45-6.03-13.45-13.45.01-7.43 6.03-13.44 13.45-13.45 7.43 0 13.45 6.02 13.45 13.45z"/><path id="h" d="m324.53 283.06c-6.8-.02-13.58-.88-20.17-2.56-35.62-9.17-60.52-41.28-60.52-78.07 0-36.78 24.9-68.9 60.52-78.07 6.58-1.78 13.36-2.69 20.17-2.69 44.55.04 80.66 36.15 80.7 80.7-.04 44.55-36.15 80.65-80.7 80.69z"/><path id="i" d="m304.36 280.5c-35.62-9.17-60.52-41.28-60.52-78.07 0-36.78 24.9-68.9 60.52-78.07 35.59 9.18 60.47 41.26 60.52 78.01-.09 36.77-24.94 68.86-60.52 78.13z"/><path id="j" d="m230.39 202.37c0 51.99 42.15 94.14 94.14 94.14 52 0 94.14-42.15 94.14-94.14-.06-51.97-42.17-94.08-94.14-94.14-51.99 0-94.14 42.14-94.14 94.14zm26.9 0c0-37.14 30.11-67.25 67.24-67.25 37.14 0 67.25 30.11 67.25 67.25-.05 37.12-30.13 67.2-67.25 67.24-37.13 0-67.24-30.11-67.24-67.24z"/><path id="k" d="m364.88 202.43c0-22.28-18.06-40.34-40.35-40.34-22.28 0-40.34 18.06-40.34 40.34.02 22.28 18.07 40.33 40.34 40.35 22.29 0 40.35-18.06 40.35-40.35zm-26.9 0c0 7.43-6.02 13.45-13.45 13.45-7.42 0-13.44-6.02-13.44-13.45 0-7.42 6.02-13.44 13.44-13.44 7.43 0 13.45 6.02 13.45 13.44z"/></defs><use fill="#37474f" xlink:href="#a"/><use fill="none" xlink:href="#a"/><use fill="#607d8b" xlink:href="#b"/><g fill="none"><use xlink:href="#b"/><use xlink:href="#c"/><use stroke="#000" stroke-width="18" xlink:href="#c"/></g><use fill="#adadad" xlink:href="#d"/><use fill="none" xlink:href="#d"/><use fill="#e6e6e6" xlink:href="#e"/><use fill="none" xlink:href="#e"/><use xlink:href="#f"/><use fill="none" xlink:href="#f"/><use xlink:href="#g"/><use fill="none" xlink:href="#g"/><use fill="#d84315" xlink:href="#h"/><use fill="none" xlink:href="#h"/><use fill="#ff5722" xlink:href="#i"/><use fill="none" xlink:href="#i"/><use xlink:href="#j"/><use fill="none" xlink:href="#j"/><use xlink:href="#k"/><use fill="none" xlink:href="#k"/></svg>