<svg height="640" preserveAspectRatio="xMidYMid meet" viewBox="0 0 640 640" width="640" xmlns="http://www.w3.org/2000/svg" xmlns:xlink="http://www.w3.org/1999/xlink"><defs><path id="a" d="m455.37 435.28h-252.15c0-124.59 0-193.81 0-207.65 0-5.25 1.97-10.28 5.47-13.99 3.51-3.7 8.26-5.79 13.21-5.79h214.8c4.95 0 9.7 2.09 13.2 5.79 3.51 3.71 5.48 8.74 5.47 13.99z"/><path id="b" d="m432.14 433.64h-226.18c0-120.1 0-186.82 0-200.17-.26-10.23 7.24-18.76 16.76-19.06h192.67c9.52.3 17.02 8.83 16.75 19.06z"/><path id="c" d="m447.82 209.31c2.36 0 4.27 1.91 4.27 4.27v215.24c0 2.36-1.91 4.27-4.27 4.27-48.37 0-189.22 0-237.59 0-2.36 0-4.27-1.91-4.27-4.27 0-43.9 0-171.33 0-215.24 0-2.36 1.91-4.27 4.27-4.27z"/><path id="d" d="m323.44 397.78c-6.8-.02-13.58-.88-20.17-2.56-35.62-9.17-60.52-41.28-60.52-78.07 0-36.78 24.9-68.9 60.52-78.06 6.57-1.79 13.36-2.7 20.17-2.69 44.55.03 80.66 36.14 80.69 80.69-.03 44.55-36.14 80.65-80.69 80.69z"/><path id="e" d="m303.27 395.23c-35.62-9.17-60.52-41.29-60.52-78.07 0-36.79 24.9-68.9 60.52-78.07 35.58 9.18 60.47 41.25 60.52 78-.09 36.77-24.94 68.86-60.52 78.14z"/><path id="f" d="m417.58 317.09c0-51.99-42.15-94.14-94.14-94.14s-94.14 42.15-94.14 94.14c.06 51.96 42.17 94.08 94.14 94.14 51.99 0 94.14-42.15 94.14-94.14zm-26.9 0c0 37.14-30.1 67.24-67.24 67.24s-67.24-30.1-67.24-67.24c.04-37.12 30.12-67.2 67.24-67.25 37.14 0 67.24 30.11 67.24 67.25z"/><path id="g" d="m363.79 317.09c0-22.28-18.07-40.35-40.35-40.35s-40.35 18.07-40.35 40.35c.03 22.27 18.08 40.32 40.35 40.34 22.28 0 40.35-18.06 40.35-40.34zm-26.9 0c0 7.42-6.02 13.45-13.45 13.45s-13.45-6.03-13.45-13.45c.01-7.43 6.03-13.44 13.45-13.45 7.43 0 13.45 6.02 13.45 13.45z"/></defs><use fill="#37474f" xlink:href="#a"/><use fill="none" xlink:href="#a"/><use fill="#607d8b" xlink:href="#b"/><g fill="none"><use xlink:href="#b"/><use xlink:href="#c"/><use stroke="#000" stroke-width="18" xlink:href="#c"/></g><use fill="#adadad" xlink:href="#d"/><use fill="none" xlink:href="#d"/><use fill="#e6e6e6" xlink:href="#e"/><use fill="none" xlink:href="#e"/><use xlink:href="#f"/><use fill="none" xlink:href="#f"/><use xlink:href="#g"/><use fill="none" xlink:href="#g"/></svg>