<svg height="640" preserveAspectRatio="xMidYMid meet" viewBox="0 0 640 640" width="640" xmlns="http://www.w3.org/2000/svg" xmlns:xlink="http://www.w3.org/1999/xlink"><defs><path id="a" d="m559.2 435.28h-486.03c0-133.37 0-207.47 0-222.28 0-5.62 3.79-11.01 10.54-14.98s15.91-6.2 25.46-6.19h414.03c9.55-.01 18.7 2.22 25.46 6.19 6.75 3.97 10.54 9.36 10.54 14.98z"/><path id="b" d="m530.5 441.29h-462.56c0-132.17 0-205.6 0-220.29-.55-11.26 14.79-20.65 34.26-20.98h394.03c19.48.33 34.81 9.72 34.27 20.98z"/><path id="c" d="m551.71 197.84c2.63 0 4.76 2.12 4.76 4.75v231.76c0 2.63-2.13 4.75-4.76 4.75-95.7 0-378.08 0-473.79 0-2.62 0-4.75-2.12-4.75-4.75 0-47.3 0-184.46 0-231.76 0-2.63 2.13-4.75 4.75-4.75z"/><path id="d" d="m414.42 400.69c-6.8-.02-13.58-.88-20.17-2.55-35.62-9.17-60.52-41.29-60.52-78.07 0-36.79 24.9-68.9 60.52-78.07 6.57-1.79 13.36-2.69 20.17-2.69 44.55.03 80.66 36.14 80.69 80.69-.03 44.55-36.14 80.66-80.69 80.69z"/><path id="e" d="m394.25 398.14c-35.62-9.17-60.52-41.29-60.52-78.07s24.9-68.9 60.52-78.07c35.59 9.18 60.47 41.25 60.52 78-.09 36.77-24.94 68.86-60.52 78.14z"/><path id="f" d="m508.56 320c0-51.99-42.14-94.14-94.14-94.14-51.99 0-94.14 42.15-94.14 94.14.06 51.97 42.18 94.08 94.14 94.14 52 0 94.14-42.15 94.14-94.14zm-26.89 0c0 37.14-30.11 67.24-67.25 67.24-37.13 0-67.24-30.1-67.24-67.24.04-37.12 30.12-67.2 67.24-67.24 37.14 0 67.25 30.1 67.25 67.24z"/><path id="g" d="m454.77 320c0-22.28-18.07-40.35-40.35-40.35s-40.34 18.07-40.34 40.35c.02 22.27 18.07 40.32 40.34 40.35 22.28 0 40.35-18.07 40.35-40.35zm-26.9 0c0 7.43-6.02 13.45-13.45 13.45s-13.45-6.02-13.45-13.45c.01-7.43 6.03-13.44 13.45-13.45 7.43 0 13.45 6.02 13.45 13.45z"/><path id="h" d="m193.98 400.69c-6.8-.02-13.58-.88-20.17-2.55-35.62-9.17-60.52-41.29-60.52-78.07 0-36.79 24.9-68.9 60.52-78.07 6.57-1.79 13.36-2.69 20.17-2.69 44.55.03 80.66 36.14 80.69 80.69-.03 44.55-36.14 80.66-80.69 80.69z"/><path id="i" d="m173.81 398.14c-35.62-9.17-60.52-41.29-60.52-78.07 0-36.79 24.9-68.9 60.52-78.07 35.58 9.18 60.47 41.25 60.52 78-.09 36.77-24.94 68.86-60.52 78.14z"/><path id="j" d="m153.64 320.07c0-22.28 18.06-40.35 40.34-40.35s40.35 18.07 40.35 40.35c-.03 22.27-18.08 40.32-40.35 40.34-22.28 0-40.34-18.06-40.34-40.34zm26.89 0c0 7.43 6.02 13.45 13.45 13.45s13.45-6.03 13.45-13.45c-.01-7.43-6.02-13.44-13.45-13.45-7.43 0-13.45 6.02-13.45 13.45z"/><path id="k" d="m99.84 320c0 51.99 42.15 94.14 94.14 94.14s94.14-42.15 94.14-94.14c-.06-51.97-42.17-94.08-94.14-94.14-51.99 0-94.14 42.15-94.14 94.14zm26.9 0c0-37.14 30.1-67.24 67.24-67.24s67.25 30.1 67.25 67.24c-.05 37.12-30.13 67.2-67.25 67.24-37.14 0-67.24-30.1-67.24-67.24z"/></defs><use fill="#37474f" xlink:href="#a"/><use fill="none" xlink:href="#a"/><use fill="#607d8b" xlink:href="#b"/><g fill="none"><use xlink:href="#b"/><use xlink:href="#c"/><use stroke="#000" stroke-width="18" xlink:href="#c"/></g><use fill="#adadad" xlink:href="#d"/><use fill="none" xlink:href="#d"/><use fill="#e6e6e6" xlink:href="#e"/><use fill="none" xlink:href="#e"/><use xlink:href="#f"/><use fill="none" xlink:href="#f"/><use xlink:href="#g"/><use fill="none" xlink:href="#g"/><use fill="#d84315" xlink:href="#h"/><use fill="none" xlink:href="#h"/><use fill="#ff5722" xlink:href="#i"/><use fill="none" xlink:href="#i"/><use xlink:href="#j"/><use fill="none" xlink:href="#j"/><use xlink:href="#k"/><use fill="none" xlink:href="#k"/></svg>