<svg height="640" preserveAspectRatio="xMidYMid meet" viewBox="0 0 640 640" width="640" xmlns="http://www.w3.org/2000/svg" xmlns:xlink="http://www.w3.org/1999/xlink"><defs><path id="a" d="m595.89 569.47h-528.1c0-278.16 0-432.69 0-463.6 0-11.71 4.12-22.94 11.45-31.22 7.34-8.28 17.29-12.93 27.67-12.93h449.86c10.38 0 20.33 4.65 27.67 12.93s11.46 19.51 11.45 31.22z"/><path id="b" d="m563.91 569.47h-501.9c0-278.16 0-432.69 0-463.6-.59-23.7 16.05-43.46 37.18-44.15h427.54c21.14.69 37.77 20.45 37.18 44.15z"/><path id="c" d="m583.64 66.46c5.02 0 9.1 4.07 9.1 9.09v484.83c0 5.02-4.08 9.09-9.1 9.09-102.96 0-402.74 0-505.7 0-5.03 0-9.1-4.07-9.1-9.09 0-98.79 0-386.04 0-484.83 0-5.02 4.07-9.09 9.1-9.09z"/><path id="d" d="m437.37 513.77c-6.81-.02-13.58-.88-20.18-2.55-35.62-9.17-60.51-41.29-60.51-78.07 0-36.79 24.89-68.9 60.51-78.07 6.58-1.79 13.36-2.69 20.18-2.69 44.55.03 80.65 36.14 80.69 80.69-.04 44.55-36.14 80.66-80.69 80.69z"/><path id="e" d="m417.19 511.22c-35.62-9.17-60.51-41.29-60.51-78.07s24.89-68.9 60.51-78.07c35.59 9.18 60.47 41.25 60.52 78-.08 36.77-24.94 68.86-60.52 78.14z"/><path id="f" d="m531.51 433.08c0-51.99-42.15-94.14-94.14-94.14s-94.14 42.15-94.14 94.14c.06 51.97 42.17 94.08 94.14 94.14 51.99 0 94.14-42.15 94.14-94.14zm-26.9 0c0 37.14-30.11 67.24-67.24 67.24-37.14 0-67.25-30.1-67.25-67.24.05-37.12 30.13-67.2 67.25-67.24 37.13 0 67.24 30.1 67.24 67.24z"/><path id="g" d="m477.71 433.08c0-22.28-18.06-40.35-40.34-40.35s-40.35 18.07-40.35 40.35c.03 22.27 18.08 40.32 40.35 40.35 22.28 0 40.34-18.07 40.34-40.35zm-26.89 0c0 7.43-6.02 13.45-13.45 13.45s-13.45-6.02-13.45-13.45c.01-7.43 6.02-13.44 13.45-13.45 7.43 0 13.45 6.02 13.45 13.45z"/><path id="h" d="m209.24 513.77c-6.8-.02-13.57-.88-20.17-2.55-35.62-9.17-60.52-41.29-60.52-78.07s24.9-68.9 60.52-78.07c6.58-1.79 13.36-2.69 20.17-2.69 44.56.03 80.66 36.14 80.7 80.69-.04 44.55-36.14 80.66-80.7 80.69z"/><path id="i" d="m189.07 511.22c-35.62-9.17-60.52-41.29-60.52-78.07s24.9-68.9 60.52-78.07c35.59 9.18 60.47 41.25 60.52 78-.08 36.77-24.94 68.86-60.52 78.14z"/><path id="j" d="m249.59 433.15c0-22.28-18.06-40.35-40.35-40.35-22.28 0-40.34 18.07-40.34 40.35.02 22.27 18.07 40.32 40.34 40.34 22.29 0 40.35-18.06 40.35-40.34zm-26.9 0c0 7.43-6.02 13.45-13.45 13.45-7.42 0-13.44-6.03-13.44-13.45 0-7.43 6.02-13.44 13.44-13.45 7.43 0 13.45 6.02 13.45 13.45z"/><path id="k" d="m115.1 433.08c0 51.99 42.15 94.14 94.14 94.14 52 0 94.15-42.15 94.15-94.14-.06-51.97-42.18-94.08-94.15-94.14-51.99 0-94.14 42.15-94.14 94.14zm26.9 0c0-37.14 30.11-67.24 67.24-67.24 37.14 0 67.25 30.1 67.25 67.24-.05 37.12-30.13 67.2-67.25 67.24-37.13 0-67.24-30.1-67.24-67.24z"/><path id="l" d="m206.09 304.52c-6.81-.02-13.58-.88-20.18-2.56-35.62-9.17-60.52-41.29-60.52-78.07s24.9-68.9 60.52-78.07c6.58-1.79 13.36-2.69 20.18-2.69 44.55.04 80.65 36.14 80.69 80.69-.04 44.55-36.14 80.66-80.69 80.7z"/><path id="m" d="m185.91 301.96c-35.62-9.17-60.52-41.29-60.52-78.07s24.9-68.9 60.52-78.07c35.59 9.18 60.47 41.25 60.52 78-.08 36.77-24.94 68.86-60.52 78.14z"/><path id="n" d="m111.95 223.82c0 51.99 42.15 94.14 94.14 94.14s94.14-42.14 94.14-94.14c-.06-51.96-42.18-94.08-94.14-94.14-52 0-94.14 42.15-94.14 94.14zm26.89 0c0-37.13 30.11-67.24 67.25-67.24 37.13 0 67.24 30.11 67.24 67.24-.04 37.12-30.12 67.2-67.24 67.25-37.14 0-67.25-30.11-67.25-67.25z"/><path id="o" d="m246.43 223.89c0-22.28-18.06-40.35-40.34-40.35-22.29 0-40.35 18.07-40.35 40.35.02 22.27 18.07 40.32 40.35 40.35 22.28 0 40.34-18.07 40.34-40.35zm-26.9 0c0 7.43-6.02 13.45-13.44 13.45-7.43 0-13.45-6.02-13.45-13.45 0-7.42 6.02-13.44 13.45-13.45 7.42 0 13.44 6.02 13.44 13.45z"/><path id="p" d="m437.37 304.52c-6.81-.02-13.58-.88-20.17-2.56-35.63-9.17-60.52-41.29-60.52-78.07s24.89-68.9 60.52-78.07c6.57-1.79 13.36-2.69 20.17-2.69 44.55.04 80.66 36.14 80.69 80.69-.03 44.55-36.14 80.66-80.69 80.7z"/><path id="q" d="m417.2 301.96c-35.63-9.17-60.52-41.29-60.52-78.07s24.89-68.9 60.52-78.07c35.58 9.18 60.47 41.25 60.51 78-.08 36.77-24.94 68.86-60.51 78.14z"/><path id="r" d="m343.23 223.82c0 51.99 42.15 94.14 94.14 94.14s94.14-42.14 94.14-94.14c-.06-51.96-42.17-94.08-94.14-94.14-51.99 0-94.14 42.15-94.14 94.14zm26.89 0c0-37.13 30.11-67.24 67.25-67.24s67.24 30.11 67.24 67.24c-.04 37.12-30.12 67.2-67.24 67.25-37.14 0-67.25-30.11-67.25-67.25z"/><path id="s" d="m477.71 223.89c0-22.28-18.06-40.35-40.34-40.35s-40.35 18.07-40.35 40.35c.03 22.27 18.08 40.32 40.35 40.35 22.28 0 40.34-18.07 40.34-40.35zm-26.89 0c0 7.43-6.02 13.45-13.45 13.45s-13.45-6.02-13.45-13.45c.01-7.42 6.02-13.44 13.45-13.45 7.43 0 13.45 6.02 13.45 13.45z"/></defs><use fill="#37474f" xlink:href="#a"/><use fill="none" xlink:href="#a"/><use fill="#607d8b" xlink:href="#b"/><g fill="none"><use xlink:href="#b"/><use xlink:href="#c"/><use stroke="#000" stroke-width="18" xlink:href="#c"/></g><use fill="#adadad" xlink:href="#d"/><use fill="none" xlink:href="#d"/><use fill="#e6e6e6" xlink:href="#e"/><use fill="none" xlink:href="#e"/><use xlink:href="#f"/><use fill="none" xlink:href="#f"/><use xlink:href="#g"/><use fill="none" xlink:href="#g"/><use fill="#adadad" xlink:href="#h"/><use fill="none" xlink:href="#h"/><use fill="#e6e6e6" xlink:href="#i"/><use fill="none" xlink:href="#i"/><use xlink:href="#j"/><use fill="none" xlink:href="#j"/><use xlink:href="#k"/><use fill="none" xlink:href="#k"/><use fill="#d84315" xlink:href="#l"/><use fill="none" xlink:href="#l"/><use fill="#ff5722" xlink:href="#m"/><use fill="none" xlink:href="#m"/><use xlink:href="#n"/><use fill="none" xlink:href="#n"/><use xlink:href="#o"/><use fill="none" xlink:href="#o"/><use fill="#adadad" xlink:href="#p"/><use fill="none" xlink:href="#p"/><use fill="#e6e6e6" xlink:href="#q"/><use fill="none" xlink:href="#q"/><use xlink:href="#r"/><use fill="none" xlink:href="#r"/><use xlink:href="#s"/><use fill="none" xlink:href="#s"/></svg>