<svg height="640" preserveAspectRatio="xMidYMid meet" viewBox="0 0 640 640" width="640" xmlns="http://www.w3.org/2000/svg" xmlns:xlink="http://www.w3.org/1999/xlink"><defs><path id="a" d="m635.15 620.53h-579.47c0-278.17 0-432.7 0-463.61 0-11.71 4.52-22.94 12.57-31.22s18.97-12.93 30.36-12.93h493.62c11.39 0 22.31 4.65 30.36 12.93s12.57 19.51 12.56 31.22z"/><path id="b" d="m611.91 620.53h-607.9c0-278.17 0-432.7 0-463.61-.72-23.7 19.44-43.46 45.03-44.15h517.84c25.6.69 45.75 20.45 45.03 44.15z"/><path id="c" d="m621.97 117.51c5.47 0 9.91 4.43 9.91 9.91v483.2c0 5.47-4.44 9.91-9.91 9.91-122.66 0-480.72 0-603.37 0-5.48 0-9.91-4.44-9.91-9.91 0-98.62 0-384.58 0-483.2 0-5.48 4.43-9.91 9.91-9.91z"/><path id="d" d="m513.06 564.82c-6.8-.02-13.58-.88-20.17-2.55-35.63-9.17-60.52-41.29-60.52-78.07s24.89-68.9 60.52-78.07c6.57-1.79 13.36-2.69 20.17-2.69 44.55.04 80.66 36.14 80.69 80.69-.03 44.55-36.14 80.66-80.69 80.69z"/><path id="e" d="m492.89 562.27c-35.62-9.17-60.52-41.29-60.52-78.07s24.9-68.9 60.52-78.07c35.58 9.18 60.47 41.25 60.51 78-.08 36.77-24.94 68.86-60.51 78.14z"/><path id="f" d="m607.2 484.13c0-51.99-42.15-94.14-94.14-94.14s-94.14 42.15-94.14 94.14c.06 51.97 42.17 94.08 94.14 94.14 51.99 0 94.14-42.14 94.14-94.14zm-26.9 0c0 37.14-30.1 67.25-67.24 67.25s-67.24-30.11-67.24-67.25c.04-37.12 30.12-67.2 67.24-67.24 37.14 0 67.24 30.11 67.24 67.24z"/><path id="g" d="m553.4 484.13c0-22.28-18.06-40.34-40.34-40.34s-40.35 18.06-40.35 40.34c.03 22.27 18.08 40.32 40.35 40.35 22.28 0 40.34-18.07 40.34-40.35zm-26.89 0c0 7.43-6.02 13.45-13.45 13.45s-13.45-6.02-13.45-13.45c.01-7.42 6.02-13.44 13.45-13.45 7.43 0 13.45 6.03 13.45 13.45z"/><path id="h" d="m117.48 564.83c-6.81-.03-13.58-.88-20.17-2.56-35.63-9.17-60.52-41.29-60.52-78.07s24.89-68.9 60.52-78.07c6.57-1.79 13.36-2.69 20.17-2.69 44.55.04 80.66 36.14 80.69 80.69-.03 44.55-36.14 80.66-80.69 80.7z"/><path id="i" d="m97.31 562.27c-35.63-9.17-60.52-41.29-60.52-78.07s24.89-68.9 60.52-78.07c35.58 9.18 60.47 41.25 60.51 78-.08 36.77-24.94 68.86-60.51 78.14z"/><path id="j" d="m157.82 484.2c0-22.28-18.06-40.35-40.34-40.35s-40.35 18.07-40.35 40.35c.03 22.27 18.08 40.32 40.35 40.35 22.28 0 40.34-18.07 40.34-40.35zm-26.89 0c0 7.43-6.02 13.45-13.45 13.45s-13.45-6.02-13.45-13.45c.01-7.42 6.02-13.44 13.45-13.45 7.43 0 13.45 6.02 13.45 13.45z"/><path id="k" d="m23.34 484.13c0 51.99 42.15 94.14 94.14 94.14s94.14-42.14 94.14-94.14c-.06-51.97-42.17-94.08-94.14-94.14-51.99 0-94.14 42.15-94.14 94.14zm26.89 0c0-37.13 30.11-67.24 67.25-67.24s67.24 30.11 67.24 67.24c-.04 37.12-30.12 67.2-67.24 67.25-37.14 0-67.25-30.11-67.25-67.25z"/><path id="l" d="m117.48 330.98c-6.81-.02-13.58-.88-20.17-2.56-35.63-9.17-60.52-41.28-60.52-78.07 0-36.78 24.89-68.9 60.52-78.07 6.57-1.78 13.36-2.69 20.17-2.69 44.55.04 80.66 36.15 80.69 80.7-.03 44.55-36.14 80.65-80.69 80.69z"/><path id="m" d="m97.31 328.42c-35.63-9.17-60.52-41.28-60.52-78.07 0-36.78 24.89-68.9 60.52-78.07 35.58 9.18 60.47 41.25 60.51 78.01-.08 36.76-24.94 68.86-60.51 78.13z"/><path id="n" d="m157.82 250.35c0 22.29-18.06 40.35-40.34 40.35s-40.35-18.06-40.35-40.35c.03-22.27 18.08-40.32 40.35-40.34 22.28 0 40.34 18.06 40.34 40.34zm-26.89 0c0-7.42-6.02-13.44-13.45-13.44s-13.45 6.02-13.45 13.44c.01 7.43 6.02 13.44 13.45 13.45 7.43 0 13.45-6.02 13.45-13.45z"/><path id="o" d="m23.34 250.29c0 51.99 42.15 94.14 94.14 94.14s94.14-42.15 94.14-94.14c-.06-51.97-42.17-94.09-94.14-94.14-51.99 0-94.14 42.14-94.14 94.14zm26.89 0c0-37.14 30.11-67.25 67.25-67.25s67.24 30.11 67.24 67.25c-.04 37.12-30.12 67.2-67.24 67.24-37.14 0-67.25-30.11-67.25-67.24z"/><path id="p" d="m513.06 330.98c-6.81-.02-13.58-.88-20.17-2.56-35.63-9.17-60.52-41.28-60.52-78.07 0-36.78 24.89-68.9 60.52-78.07 6.57-1.78 13.36-2.69 20.17-2.69 44.55.04 80.66 36.15 80.69 80.7-.03 44.55-36.14 80.65-80.69 80.69z"/><path id="q" d="m492.89 328.42c-35.63-9.17-60.52-41.28-60.52-78.07 0-36.78 24.89-68.9 60.52-78.07 35.58 9.18 60.47 41.25 60.51 78.01-.08 36.76-24.94 68.86-60.51 78.13z"/><path id="r" d="m418.92 250.29c0 51.99 42.15 94.14 94.14 94.14s94.14-42.15 94.14-94.14c-.06-51.97-42.17-94.09-94.14-94.14-51.99 0-94.14 42.14-94.14 94.14zm26.89 0c0-37.14 30.11-67.25 67.25-67.25s67.24 30.11 67.24 67.25c-.04 37.12-30.12 67.2-67.24 67.24-37.14 0-67.25-30.11-67.25-67.24z"/><path id="s" d="m553.4 250.35c0-22.28-18.06-40.34-40.34-40.34s-40.35 18.06-40.35 40.34c.03 22.28 18.08 40.33 40.35 40.35 22.28 0 40.34-18.06 40.34-40.35zm-26.89 0c0 7.43-6.02 13.45-13.45 13.45s-13.45-6.02-13.45-13.45c.01-7.42 6.02-13.44 13.45-13.44s13.45 6.02 13.45 13.44z"/><path id="t" d="m315.62 330.98c-6.8-.02-13.58-.88-20.17-2.56-35.62-9.17-60.52-41.28-60.52-78.07 0-36.78 24.9-68.9 60.52-78.07 6.57-1.78 13.36-2.69 20.17-2.69 44.55.04 80.66 36.15 80.69 80.7-.03 44.55-36.14 80.65-80.69 80.69z"/><path id="u" d="m295.45 328.42c-35.62-9.17-60.52-41.28-60.52-78.07 0-36.78 24.9-68.9 60.52-78.07 35.58 9.18 60.47 41.25 60.52 78.01-.09 36.76-24.94 68.86-60.52 78.13z"/><path id="v" d="m221.48 250.29c0 51.99 42.15 94.14 94.14 94.14s94.14-42.15 94.14-94.14c-.06-51.97-42.17-94.09-94.14-94.14-51.99 0-94.14 42.14-94.14 94.14zm26.9 0c0-37.14 30.1-67.25 67.24-67.25s67.25 30.11 67.25 67.25c-.05 37.12-30.13 67.2-67.25 67.24-37.14 0-67.24-30.11-67.24-67.24z"/><path id="w" d="m355.97 250.35c0-22.28-18.07-40.34-40.35-40.34s-40.35 18.06-40.35 40.34c.03 22.28 18.08 40.33 40.35 40.35 22.28 0 40.35-18.06 40.35-40.35zm-26.9 0c0 7.43-6.02 13.45-13.45 13.45s-13.45-6.02-13.45-13.45c.01-7.42 6.03-13.44 13.45-13.44 7.43 0 13.45 6.02 13.45 13.44z"/><path id="x" d="m315.62 564.83c-6.8-.03-13.58-.88-20.17-2.56-35.62-9.17-60.52-41.29-60.52-78.07s24.9-68.9 60.52-78.07c6.57-1.79 13.36-2.69 20.17-2.69 44.55.04 80.66 36.14 80.69 80.69-.03 44.55-36.14 80.66-80.69 80.7z"/><path id="y" d="m295.45 562.27c-35.62-9.17-60.52-41.29-60.52-78.07s24.9-68.9 60.52-78.07c35.58 9.18 60.47 41.25 60.52 78-.09 36.77-24.94 68.86-60.52 78.14z"/><path id="z" d="m355.97 484.2c0-22.28-18.07-40.35-40.35-40.35s-40.35 18.07-40.35 40.35c.03 22.27 18.08 40.32 40.35 40.35 22.28 0 40.35-18.07 40.35-40.35zm-26.9 0c0 7.43-6.02 13.45-13.45 13.45s-13.45-6.02-13.45-13.45c.01-7.42 6.03-13.44 13.45-13.45 7.43 0 13.45 6.02 13.45 13.45z"/><path id="A" d="m221.48 484.13c0 51.99 42.15 94.14 94.14 94.14s94.14-42.14 94.14-94.14c-.06-51.97-42.17-94.08-94.14-94.14-51.99 0-94.14 42.15-94.14 94.14zm26.9 0c0-37.13 30.1-67.24 67.24-67.24s67.25 30.11 67.25 67.24c-.05 37.12-30.13 67.2-67.25 67.25-37.14 0-67.24-30.11-67.24-67.25z"/></defs><use fill="#37474f" xlink:href="#a"/><use fill="none" xlink:href="#a"/><use fill="#607d8b" xlink:href="#b"/><g fill="none"><use xlink:href="#b"/><use xlink:href="#c"/><use stroke="#000" stroke-width="18" xlink:href="#c"/></g><use fill="#adadad" xlink:href="#d"/><use fill="none" xlink:href="#d"/><use fill="#e6e6e6" xlink:href="#e"/><use fill="none" xlink:href="#e"/><use xlink:href="#f"/><use fill="none" xlink:href="#f"/><use xlink:href="#g"/><use fill="none" xlink:href="#g"/><use fill="#adadad" xlink:href="#h"/><use fill="none" xlink:href="#h"/><use fill="#e6e6e6" xlink:href="#i"/><use fill="none" xlink:href="#i"/><use xlink:href="#j"/><use fill="none" xlink:href="#j"/><use xlink:href="#k"/><use fill="none" xlink:href="#k"/><use fill="#adadad" xlink:href="#l"/><use fill="none" xlink:href="#l"/><use fill="#e6e6e6" xlink:href="#m"/><use fill="none" xlink:href="#m"/><use xlink:href="#n"/><use fill="none" xlink:href="#n"/><use xlink:href="#o"/><use fill="none" xlink:href="#o"/><use fill="#adadad" xlink:href="#p"/><use fill="none" xlink:href="#p"/><use fill="#e6e6e6" xlink:href="#q"/><use fill="none" xlink:href="#q"/><use xlink:href="#r"/><use fill="none" xlink:href="#r"/><use xlink:href="#s"/><use fill="none" xlink:href="#s"/><use fill="#adadad" xlink:href="#t"/><use fill="none" xlink:href="#t"/><use fill="#e6e6e6" xlink:href="#u"/><use fill="none" xlink:href="#u"/><use xlink:href="#v"/><use fill="none" xlink:href="#v"/><use xlink:href="#w"/><use fill="none" xlink:href="#w"/><use fill="#d84315" xlink:href="#x"/><use fill="none" xlink:href="#x"/><use fill="#ff5722" xlink:href="#y"/><use fill="none" xlink:href="#y"/><use xlink:href="#z"/><use fill="none" xlink:href="#z"/><use xlink:href="#A"/><use fill="none" xlink:href="#A"/></svg>