<?xml version="1.0" encoding="iso-8859-1"?>
<!-- Generator: Adobe Illustrator 19.0.0, SVG Export Plug-In . SVG Version: 6.00 Build 0)  -->
<svg version="1.1" id="Capa_1" xmlns="http://www.w3.org/2000/svg" xmlns:xlink="http://www.w3.org/1999/xlink" x="0px" y="0px"
	 viewBox="0 0 512 512" style="enable-background:new 0 0 512 512;" xml:space="preserve">
<g>
	<g transform="translate(0 1)">
		<path style="fill:#F57C00;" d="M486.4,400.067v68.267c0.002,9.053-3.593,17.737-9.995,24.139
			c-6.402,6.402-15.085,9.997-24.139,9.995H59.733c-9.053,0.002-17.737-3.593-24.139-9.995s-9.997-15.085-9.995-24.139l0-68.267
			H486.4z"/>
		<path style="fill:#FF9801;" d="M460.8,400.067v68.267c0.514,18.324-13.914,33.6-32.237,34.133H57.837
			c-18.323-0.533-32.751-15.81-32.237-34.133v-68.267H460.8z"/>
		<path style="fill:#37474F;" d="M486.4,41.667v358.4H25.6l0-358.4c-0.003-9.054,3.593-17.737,9.995-24.139
			S50.68,7.531,59.733,7.533h392.533c9.054-0.003,17.737,3.593,24.139,9.995S486.403,32.613,486.4,41.667z"/>
		<path style="fill:#607D8B;" d="M460.8,41.667v358.4H25.6v-358.4c-0.514-18.324,13.914-33.6,32.237-34.133h370.726
			C446.886,8.067,461.314,23.343,460.8,41.667z"/>
		<g>
			<circle style="fill:#F44335;" cx="128" cy="451.267" r="17.067"/>
			<circle style="fill:#F44335;" cx="213.333" cy="451.267" r="17.067"/>
			<circle style="fill:#F44335;" cx="298.667" cy="451.267" r="17.067"/>
			<circle style="fill:#F44335;" cx="384" cy="451.267" r="17.067"/>
		</g>
		<g>
			<path style="fill:#D84315;" d="M435.2,127c-0.022,28.268-22.932,51.178-51.2,51.2c-4.317-0.013-8.616-0.558-12.8-1.621
				c-22.602-5.818-38.4-26.197-38.4-49.536s15.798-43.718,38.4-49.536c4.172-1.134,8.477-1.708,12.8-1.707
				C412.268,75.822,435.178,98.732,435.2,127z"/>
			<path style="fill:#D84315;" d="M435.2,314.733c-0.022,28.268-22.932,51.178-51.2,51.2c-4.317-0.013-8.616-0.558-12.8-1.621
				c-22.602-5.818-38.4-26.197-38.4-49.536c0-23.339,15.798-43.718,38.4-49.536c4.172-1.134,8.477-1.708,12.8-1.707
				C412.268,263.556,435.178,286.466,435.2,314.733z"/>
			<path style="fill:#D84315;" d="M247.467,127c-0.077,47.096-38.237,85.256-85.333,85.333c-4.231,0.005-8.455-0.337-12.629-1.024
				c-0.098,0.085-0.244,0.085-0.341,0c-41.626-6.386-72.362-42.196-72.362-84.309s30.736-77.924,72.362-84.309
				c0.098-0.085,0.244-0.085,0.341,0c4.175-0.687,8.399-1.029,12.629-1.024C209.23,41.744,247.389,79.904,247.467,127z"/>
			<path style="fill:#D84315;" d="M213.333,314.733c-0.022,28.268-22.932,51.178-51.2,51.2c-4.317-0.013-8.616-0.558-12.8-1.621
				c-22.602-5.818-38.4-26.197-38.4-49.536c0-23.339,15.798-43.718,38.4-49.536c4.172-1.134,8.477-1.708,12.8-1.707
				C190.401,263.556,213.311,286.466,213.333,314.733z"/>
		</g>
		<g>
			<path style="fill:#FF5722;" d="M409.6,127c-0.054,23.33-15.825,43.692-38.4,49.579c-22.602-5.818-38.4-26.197-38.4-49.536
				s15.798-43.718,38.4-49.536C393.78,83.331,409.569,103.681,409.6,127z"/>
			<path style="fill:#FF5722;" d="M409.6,314.733c-0.054,23.33-15.825,43.692-38.4,49.579c-22.602-5.818-38.4-26.197-38.4-49.536
				c0-23.339,15.798-43.718,38.4-49.536C393.78,271.064,409.569,291.414,409.6,314.733z"/>
			<path style="fill:#FF5722;" d="M221.867,127c-0.081,42.083-30.778,77.848-72.363,84.309c-0.098,0.085-0.244,0.085-0.341,0
				c-41.626-6.386-72.362-42.196-72.362-84.309s30.736-77.924,72.362-84.309c0.098-0.085,0.244-0.085,0.341,0
				C191.089,49.152,221.786,84.917,221.867,127z"/>
			<path style="fill:#FF5722;" d="M187.733,314.733c-0.054,23.33-15.825,43.692-38.4,49.579c-22.602-5.818-38.4-26.197-38.4-49.536
				c0-23.339,15.798-43.718,38.4-49.536C171.913,271.064,187.702,291.414,187.733,314.733z"/>
		</g>
	</g>
	<g>
		<path d="M384,187.733c32.99,0,59.733-26.744,59.733-59.733S416.99,68.267,384,68.267S324.267,95.01,324.267,128
			C324.305,160.974,351.026,187.695,384,187.733z M384,85.333c23.564,0,42.667,19.103,42.667,42.667S407.564,170.667,384,170.667
			c-23.564,0-42.667-19.103-42.667-42.667C341.361,104.447,360.447,85.361,384,85.333z"/>
		<path d="M384,375.467c32.99,0,59.733-26.743,59.733-59.733S416.99,256,384,256s-59.733,26.744-59.733,59.733
			C324.305,348.707,351.026,375.428,384,375.467z M384,273.067c23.564,0,42.667,19.103,42.667,42.667
			c0,23.564-19.103,42.667-42.667,42.667c-23.564,0-42.667-19.103-42.667-42.667C341.361,292.181,360.447,273.094,384,273.067z"/>
		<path d="M384,341.333c14.138,0,25.6-11.462,25.6-25.6c0-14.138-11.462-25.6-25.6-25.6c-14.138,0-25.6,11.462-25.6,25.6
			C358.415,329.865,369.868,341.318,384,341.333z M384,307.2c4.713,0,8.533,3.821,8.533,8.533c0,4.713-3.82,8.533-8.533,8.533
			s-8.533-3.821-8.533-8.533C375.471,311.022,379.289,307.205,384,307.2z"/>
		<path d="M162.133,221.867C213.974,221.867,256,179.841,256,128s-42.026-93.867-93.867-93.867S68.267,76.159,68.267,128
			C68.325,179.817,110.316,221.808,162.133,221.867z M162.133,51.2c42.415,0,76.8,34.385,76.8,76.8s-34.385,76.8-76.8,76.8
			s-76.8-34.385-76.8-76.8C85.381,85.604,119.738,51.248,162.133,51.2z"/>
		<path d="M162.133,187.733c32.99,0,59.733-26.744,59.733-59.733s-26.744-59.733-59.733-59.733S102.4,95.01,102.4,128
			C102.438,160.974,129.159,187.695,162.133,187.733z M162.133,85.333c23.564,0,42.667,19.103,42.667,42.667
			s-19.103,42.667-42.667,42.667S119.467,151.564,119.467,128C119.494,104.447,138.581,85.361,162.133,85.333z"/>
		<path d="M162.133,153.6c14.138,0,25.6-11.462,25.6-25.6c0-14.138-11.462-25.6-25.6-25.6c-14.139,0-25.6,11.462-25.6,25.6
			C136.549,142.132,148.001,153.585,162.133,153.6z M162.133,119.467c4.713,0,8.533,3.821,8.533,8.533
			c0,4.713-3.821,8.533-8.533,8.533c-4.713,0-8.533-3.821-8.533-8.533C153.605,123.289,157.422,119.471,162.133,119.467z"/>
		<path d="M162.133,256c-32.99,0-59.733,26.744-59.733,59.733s26.744,59.733,59.733,59.733s59.733-26.743,59.733-59.733
			C221.828,282.759,195.107,256.038,162.133,256z M162.133,358.4c-23.564,0-42.667-19.103-42.667-42.667
			c0-23.564,19.103-42.667,42.667-42.667s42.667,19.103,42.667,42.667C204.772,339.286,185.686,358.372,162.133,358.4z"/>
		<path d="M452.267,0H59.733C36.181,0.028,17.094,19.114,17.067,42.667v426.667c0.028,23.553,19.114,42.639,42.667,42.667h392.533
			c23.553-0.028,42.639-19.114,42.667-42.667V42.667C494.906,19.114,475.819,0.028,452.267,0z M59.733,17.067h392.533
			c14.132,0.015,25.585,11.468,25.6,25.6v349.867H34.133V42.667C34.149,28.535,45.601,17.082,59.733,17.067z M452.267,494.933
			H59.733c-14.132-0.015-25.585-11.468-25.6-25.6V409.6h443.733v59.733C477.851,483.465,466.399,494.918,452.267,494.933z"/>
		<path d="M128,426.667c-14.138,0-25.6,11.462-25.6,25.6s11.462,25.6,25.6,25.6c14.139,0,25.6-11.462,25.6-25.6
			C153.585,438.135,142.132,426.682,128,426.667z M128,460.8c-4.713,0-8.533-3.82-8.533-8.533s3.821-8.533,8.533-8.533
			c4.713,0,8.533,3.82,8.533,8.533C136.529,456.978,132.711,460.795,128,460.8z"/>
		<path d="M213.333,426.667c-14.138,0-25.6,11.462-25.6,25.6s11.462,25.6,25.6,25.6s25.6-11.462,25.6-25.6
			C238.918,438.135,227.465,426.682,213.333,426.667z M213.333,460.8c-4.713,0-8.533-3.82-8.533-8.533s3.82-8.533,8.533-8.533
			s8.533,3.82,8.533,8.533C221.862,456.978,218.044,460.795,213.333,460.8z"/>
		<path d="M298.667,426.667c-14.138,0-25.6,11.462-25.6,25.6s11.462,25.6,25.6,25.6c14.138,0,25.6-11.462,25.6-25.6
			C324.251,438.135,312.799,426.682,298.667,426.667z M298.667,460.8c-4.713,0-8.533-3.82-8.533-8.533s3.82-8.533,8.533-8.533
			s8.533,3.82,8.533,8.533C307.195,456.978,303.378,460.795,298.667,460.8z"/>
		<path d="M384,426.667c-14.138,0-25.6,11.462-25.6,25.6s11.462,25.6,25.6,25.6c14.138,0,25.6-11.462,25.6-25.6
			C409.585,438.135,398.132,426.682,384,426.667z M384,460.8c-4.713,0-8.533-3.82-8.533-8.533s3.821-8.533,8.533-8.533
			s8.533,3.82,8.533,8.533C392.529,456.978,388.711,460.795,384,460.8z"/>
	</g>
</g>
<g>
</g>
<g>
</g>
<g>
</g>
<g>
</g>
<g>
</g>
<g>
</g>
<g>
</g>
<g>
</g>
<g>
</g>
<g>
</g>
<g>
</g>
<g>
</g>
<g>
</g>
<g>
</g>
<g>
</g>
</svg>
