<svg id="Capa_1" enable-background="new 0 0 512.005 512.005" height="512" viewBox="0 0 512.005 512.005" width="512" xmlns="http://www.w3.org/2000/svg"><g><g><path d="m251.743 28.993c0 8.801-5.262 16.362-12.793 19.678l-.534-.272c-2.564-1.287-6.656 3.682-9.397 3.665-2.864-.018-4.377-4.964-7.045-3.604l-.302.151c-7.47-3.337-12.672-10.867-12.672-19.618 0-11.876 9.567-21.493 21.372-21.493 11.804 0 21.371 9.617 21.371 21.493z" fill="#61aab8"/><path d="m251.108 34.18c-1.6 6.51-6.16 11.85-12.16 14.49l-.53-.27c-2.564-1.287-6.656 3.681-9.399 3.664-2.863-.018-4.375-4.962-7.041-3.604l-.31.15c-7.47-3.34-12.67-10.87-12.67-19.62 0-10.9 8.07-19.9 18.53-21.29-.44 1.69-.67 3.46-.67 5.29 0 11.8 9.62 21.37 21.49 21.37.94 0 1.86-.06 2.76-.18z" fill="#5595a2"/><path d="m221.969 48.46c-32.023 16.342-64.046 32.684-96.069 49.027l103.618 10.492 106.714-10.492c-32.605-16.362-65.211-32.723-97.816-49.085-5.241-2.63-11.222-2.608-16.447.058z" fill="#e9edf1"/><path d="m336.228 97.49-108.886 10.268-101.444-10.268c32.02-16.35 64.05-32.69 96.07-49.03 5.23-2.67 11.21-2.69 16.45-.06 1.36.68 2.73 1.37 4.09 2.05-21.071 10.75-42.141 21.5-63.205 32.258-1.871.956-1.191 3.782.91 3.782h134.095c7.31 3.67 14.61 7.33 21.92 11z" fill="#dce6eb"/><path d="m149.181 289.077h163.768v74.037h-163.768z" fill="#61aab8"/><path d="m312.948 289.08h-143.77-20v34.47 39.56h20v-34.56c0-2.761 2.239-5 5-5h138.77z" fill="#5595a2"/><path d="m338.76 504.5h-215.389c-10.245 0-18.208-8.968-17.051-19.203l13.407-118.624c.985-8.72 8.323-15.307 17.051-15.307h188.576c8.728 0 16.066 6.587 17.051 15.307l13.407 118.624c1.156 10.235-6.807 19.203-17.052 19.203z" fill="#e9edf1"/><path d="m338.758 504.5h-215.39c-10.24 0-18.2-8.97-17.05-19.2l13.41-118.63c.98-8.72 8.32-15.3 17.05-15.3h11.97l-12.43 109.93c-1.15 10.23 6.81 19.2 17.05 19.2h201.9l.54 4.8c1.16 10.23-6.8 19.2-17.05 19.2z" fill="#dce6eb"/><path d="m419.795 139.885h-59.114l-3.664 43.84h29.92c5.302 0 9.601 4.322 9.601 9.654v99.444c0 10.55 8.506 19.103 18.999 19.103 9.946 0 18.209-7.713 18.947-17.686l9.485-128.171c1.047-14.136-10.077-26.184-24.174-26.184z" fill="#61aab8"/><path d="m418.968 311.61c-1.11.2-2.26.31-3.43.31-10.49 0-19-8.55-19-19.1v-99.44c0-5.33-4.3-9.66-9.6-9.66h-29.92l1.63-19.53h46.57c6.76 0 12.23 5.51 12.23 12.29v126.64c0 2.99.54 5.85 1.52 8.49z" fill="#5595a2"/><path d="m322.459 306.547c10.111 0 18.673-7.497 20.062-17.567l23.674-171.622c1.452-10.526-6.68-19.916-17.249-19.916-90.963-.002-181.925-.003-272.888-.005-6.844 0-10.593 8.017-6.225 13.316 8.368 10.153 16.735 20.305 25.103 30.458 3.368 4.087 5.537 9.037 6.262 14.295 6.137 44.491 12.274 88.982 18.412 133.473 1.389 10.07 9.951 17.567 20.062 17.567h182.787z" fill="#e9edf1"/><path d="m165.668 306.55h-26c-10.11 0-18.67-7.5-20.06-17.57-6.14-44.49-12.27-88.98-18.41-133.47-.72-5.26-2.89-10.21-6.26-14.3-8.37-10.15-16.74-20.3-25.11-30.46-4.36-5.29-.61-13.31 6.23-13.31h26c-6.84 0-10.59 8.02-6.23 13.31 8.37 10.16 16.74 20.31 25.11 30.46 3.37 4.09 5.54 9.04 6.26 14.3 6.14 44.49 12.27 88.98 18.41 133.47 1.39 10.07 9.95 17.57 20.06 17.57z" fill="#dce6eb"/><path d="m279.578 504.5h-99.17l12.29-153.13h74.59z" fill="#f7f9fa"/><path d="m279.578 504.5h-99.17l1.93-24h95.31z" fill="#e9edf1"/><path d="m283.968 97.44-16.78 209.11h-75.35l-16.77-209.11z" fill="#f7f9fa"/></g><path d="m443.008 142.519c-5.981-6.44-14.442-10.134-23.213-10.134h-48.102l1.931-14.001c2.352-14.517-9.966-28.777-24.679-28.441h-11.029l-85.124-42.717c4.082-5.061 6.451-11.453 6.451-18.232 0-15.988-12.952-28.994-28.872-28.994s-28.872 13.006-28.872 28.993c0 6.763 2.364 13.149 6.436 18.208l-10.843 5.534c-3.689 1.884-5.154 6.4-3.271 10.09 1.883 3.688 6.4 5.151 10.089 3.271l21.201-10.82c3.305-1.795 7.148-1.761 10.463.09l68.899 34.575-147.283-.002 15.482-7.901c3.689-1.883 5.154-6.4 3.271-10.09s-6.401-5.153-10.089-3.271l-41.661 21.262-48.134-.001c-12.809-.456-20.509 16.013-12.013 25.586l25.103 30.459c2.487 3.017 4.084 6.664 4.62 10.549l18.412 133.475c1.945 14.483 15.044 24.931 29.501 24.041v29.819h-4.904c-12.555 0-23.089 9.442-24.504 21.964l-5.941 52.563c-.465 4.116 2.495 7.83 6.61 8.295.286.033.57.049.852.049 3.765 0 7.01-2.829 7.443-6.658l5.941-52.564c.557-4.931 4.684-8.648 9.599-8.648h47.798l-11.087 138.132h-50.118c-5.64.135-10.374-5.282-9.599-10.86l3.511-31.066c.465-4.116-2.495-7.83-6.61-8.295-4.115-.479-7.829 2.494-8.295 6.609l-3.511 31.067c-1.931 14.191 10.177 27.861 24.504 27.545h215.389c14.328.316 26.434-13.355 24.504-27.545l-13.407-118.624c-1.415-12.522-11.949-21.965-24.504-21.965h-4.904v-29.819c14.457.89 27.557-9.558 29.501-24.042l13.626-98.78h23.361c1.159 0 2.101.966 2.101 2.153v99.443c0 14.669 11.887 26.604 26.499 26.604 13.797 0 25.404-10.819 26.426-24.632l3.769-50.923c.306-4.131-2.795-7.728-6.926-8.033-4.134-.29-7.728 2.795-8.033 6.926l-3.769 50.923c-.446 6.022-5.482 10.739-11.467 10.739-6.341 0-11.499-5.205-11.499-11.604v-99.443c0-9.458-7.671-17.153-17.101-17.153h-21.292l3.978-28.84h50.171c9.512-.215 17.622 8.671 16.695 18.129l-3.121 42.166c-.306 4.131 2.795 7.728 6.926 8.033 4.076.319 7.742-2.785 8.033-6.926l3.121-42.166c.655-8.837-2.421-17.622-8.44-24.102zm-212.637-127.519c7.649 0 13.872 6.277 13.872 13.993 0 4.543-2.18 8.733-5.734 11.327-5.262-1.805-11.076-1.834-16.35-.058-3.509-2.594-5.66-6.762-5.66-11.27 0-7.715 6.223-13.992 13.872-13.992zm-31.605 284.047-15.578-194.107 92.657.002-15.578 194.106h-61.501zm-71.727-11.091-18.412-133.474c-.916-6.64-3.649-12.878-7.904-18.041l-25.103-30.458c-.315-.184-.04-1.198.441-1.046 23.279.001 68.961.003 92.078.002l15.578 194.108h-44.046c-6.328 0-11.76-4.769-12.632-11.091zm207.913 79.56 13.407 118.623c.776 5.579-3.958 10.996-9.599 10.861h-52.256l-11.086-138.134h49.935c4.915 0 9.042 3.718 9.599 8.65zm-29.503-23.65h-57.823c-4.142 0-7.5 3.357-7.5 7.5s3.358 7.5 7.5 7.5h12.743l11.087 138.134h-82.918l11.086-138.134h12.483c4.142 0 7.5-3.357 7.5-7.5s-3.358-7.5-7.5-7.5h-55.425v-29.819h148.768v29.819zm29.643-55.911c-.872 6.323-6.303 11.092-12.632 11.092h-47.145l15.578-194.105c10.062-.002 48.778.005 58.053.001 5.883-.146 10.776 5.595 9.819 11.392z"/></g></svg>